<?xml version="1.0" standalone="no"?>
<!DOCTYPE svg PUBLIC "-//W3C//DTD SVG 20010904//EN"
 "http://www.w3.org/TR/2001/REC-SVG-20010904/DTD/svg10.dtd">
<svg version="1.0" xmlns="http://www.w3.org/2000/svg"
 width="1920.000000pt" height="1080.000000pt" viewBox="0 0 1920.000000 1080.000000"
 preserveAspectRatio="xMidYMid meet">
<metadata>
Created by potrace 1.16, written by Peter Selinger 2001-2019
</metadata>
<g transform="translate(0.000000,1080.000000) scale(0.100000,-0.100000)"
fill="#000000" stroke="none">
<path d="M4564 9599 c-71 -55 -171 -101 -217 -101 -16 1 -44 10 -63 21 -19 12
-41 21 -48 21 -22 0 -49 -38 -43 -60 3 -11 1 -23 -4 -26 -17 -10 -9 -52 14
-66 29 -18 144 -64 180 -72 22 -5 28 -12 25 -29 -2 -15 -25 -34 -80 -65 -63
-35 -78 -49 -78 -67 0 -41 70 -78 207 -110 82 -19 148 -19 177 0 21 14 24 14
36 0 19 -23 80 -19 122 10 20 14 39 25 41 25 2 0 0 -20 -6 -44 -5 -24 -7 -51
-4 -60 8 -21 57 -21 95 1 34 19 62 12 62 -17 0 -25 -52 -50 -103 -50 -28 0
-38 -6 -58 -37 -22 -34 -29 -38 -62 -35 -38 3 -80 -14 -135 -56 -43 -33 -42
-77 3 -102 23 -13 31 -25 35 -56 5 -37 8 -40 69 -64 35 -14 71 -36 79 -48 12
-19 24 -22 78 -22 55 0 65 -3 75 -22 7 -13 25 -39 41 -58 32 -39 34 -52 13
-70 -22 -19 -18 -68 9 -100 17 -20 25 -46 30 -95 10 -95 27 -125 72 -125 40 0
71 -29 104 -97 23 -48 44 -54 115 -29 30 10 45 11 60 3 11 -6 34 -13 50 -17
20 -4 31 -13 33 -25 4 -34 -53 -107 -110 -141 -52 -30 -53 -32 -52 -77 0 -57
14 -74 89 -108 33 -15 87 -48 119 -73 63 -50 87 -59 132 -54 21 2 30 10 34 28
5 20 13 26 45 30 32 4 41 10 43 28 3 22 5 22 55 -15 66 -47 67 -49 67 -106 0
-41 3 -49 24 -57 15 -5 29 -22 35 -43 7 -19 20 -42 30 -51 43 -39 205 -62 230
-32 15 18 52 112 59 150 5 33 -17 56 -55 56 -23 0 -22 1 9 29 18 15 43 31 56
35 31 10 58 69 66 147 10 91 51 176 110 225 36 30 46 45 44 64 -3 24 -7 25
-70 28 -66 3 -66 3 -83 40 -9 20 -20 45 -26 55 -7 13 -5 17 7 17 8 0 42 25 75
57 56 53 59 58 59 104 0 26 -4 51 -10 54 -5 3 -10 22 -10 42 0 26 -5 36 -20
40 -13 3 -35 36 -62 92 -42 84 -44 86 -78 86 -34 0 -35 -1 -38 -45 -1 -25 -5
-56 -8 -68 -5 -23 -6 -23 -29 -8 -30 20 -121 21 -155 1 -14 -8 -39 -14 -56
-15 -22 0 -45 -12 -77 -40 -50 -45 -96 -56 -76 -19 7 14 10 71 8 163 -2 115 0
151 15 195 11 33 16 66 13 89 -6 36 -51 92 -74 92 -7 0 -17 9 -23 20 -8 15
-21 20 -49 20 -23 0 -48 -8 -64 -20 -46 -36 -118 -25 -175 28 -28 26 -32 36
-32 82 0 56 -20 104 -50 120 -15 8 -20 21 -20 56 0 83 -80 150 -111 93 -11
-21 -11 -21 -30 -2 -13 13 -19 32 -18 59 4 115 0 146 -23 192 -18 38 -29 48
-52 50 -25 3 -41 -8 -110 -77 -72 -71 -85 -80 -121 -82 -50 -3 -71 7 -55 26 6
8 10 31 8 52 -3 34 -8 41 -49 63 -25 14 -74 46 -108 73 -35 26 -74 47 -86 47
-13 0 -54 -23 -91 -51z m179 -77 c38 -29 75 -52 83 -52 18 0 18 -24 -1 -40
-23 -19 -18 -43 16 -76 29 -27 35 -29 102 -27 l71 3 77 76 77 76 17 -45 c14
-38 15 -51 5 -81 -7 -21 -9 -54 -5 -81 6 -36 15 -51 45 -75 38 -30 83 -39 95
-20 14 23 35 -13 35 -59 0 -39 5 -51 30 -73 27 -24 30 -32 30 -91 l0 -64 48
-40 c67 -57 83 -63 157 -63 51 0 73 5 91 19 l25 20 44 -30 c24 -16 47 -38 50
-49 3 -11 -6 -48 -21 -86 -22 -54 -24 -70 -15 -91 6 -13 11 -69 11 -124 0 -88
-3 -104 -22 -130 -21 -28 -21 -32 -7 -57 13 -24 21 -27 78 -30 61 -3 64 -2
106 37 24 22 54 42 67 45 13 3 37 8 53 11 17 3 42 9 58 12 15 3 33 0 41 -6 7
-6 20 -9 28 -6 8 3 26 1 40 -4 34 -13 58 12 59 60 l1 34 10 -30 c6 -16 23 -47
39 -67 16 -21 32 -51 35 -68 4 -17 11 -33 15 -36 30 -18 -27 -88 -112 -139
-41 -25 -49 -62 -19 -90 11 -10 20 -26 20 -36 0 -30 59 -89 88 -89 l25 0 -20
-22 c-38 -42 -71 -123 -84 -206 -14 -90 -15 -93 -111 -168 -66 -52 -74 -80
-32 -113 15 -12 33 -21 40 -21 10 0 10 -8 1 -42 -17 -57 -34 -65 -99 -49 -64
16 -75 24 -83 62 -4 16 -17 37 -31 48 -19 15 -24 28 -24 61 0 33 -6 47 -28 68
-47 44 -133 102 -152 102 -10 0 -30 -13 -43 -30 -14 -16 -32 -30 -41 -30 -8 0
-28 -12 -45 -26 -34 -28 -33 -28 -106 27 -27 21 -71 46 -96 57 -65 28 -104 72
-64 72 23 0 114 88 136 132 26 51 25 106 -3 135 -12 13 -29 23 -39 23 -9 0
-34 7 -55 16 -33 14 -47 14 -89 5 -47 -11 -51 -11 -65 11 -8 13 -36 45 -62 72
-35 35 -53 47 -68 43 -26 -7 -27 -4 -39 87 -6 54 -15 84 -29 99 -20 22 -20 22
-1 46 10 13 19 30 19 38 0 21 -35 86 -59 107 -12 11 -21 25 -21 32 0 27 -51
54 -103 54 -37 0 -56 5 -72 20 -12 12 -44 29 -71 39 -41 16 -50 24 -55 51 -4
17 -16 42 -28 54 l-22 23 25 17 c14 9 46 16 72 16 42 0 51 4 85 40 24 25 47
40 62 40 37 0 94 27 111 52 9 12 16 41 16 63 0 33 -6 47 -29 69 -30 29 -51 31
-103 11 -16 -6 -16 -2 2 51 24 69 25 107 5 124 -21 18 -60 -3 -90 -48 -22 -33
-81 -82 -97 -82 -5 0 -22 10 -38 22 l-29 21 -45 -24 c-45 -24 -46 -24 -123 -8
-43 9 -96 24 -118 33 l-39 17 44 25 c75 43 90 61 90 114 0 53 -17 74 -65 85
-16 4 -44 13 -60 20 -17 8 -43 18 -58 24 -33 13 -37 36 -4 27 64 -18 79 -17
157 10 54 19 104 46 148 81 37 29 71 48 77 44 5 -4 41 -31 78 -59z"/>
</g>
</svg>
