<?xml version="1.0" standalone="no"?>
<!DOCTYPE svg PUBLIC "-//W3C//DTD SVG 20010904//EN"
 "http://www.w3.org/TR/2001/REC-SVG-20010904/DTD/svg10.dtd">
<svg version="1.0" xmlns="http://www.w3.org/2000/svg"
 width="1920.000000pt" height="1080.000000pt" viewBox="0 0 1920.000000 1080.000000"
 preserveAspectRatio="xMidYMid meet">
<metadata>
Created by potrace 1.16, written by Peter Selinger 2001-2019
</metadata>
<g transform="translate(0.000000,1080.000000) scale(0.100000,-0.100000)"
fill="#000000" stroke="none">
<path d="M4160 9025 c-6 -8 -16 -43 -20 -77 -12 -96 -44 -161 -90 -187 -21
-12 -72 -58 -114 -102 -86 -91 -95 -119 -47 -143 16 -9 45 -34 64 -57 26 -30
48 -44 84 -53 36 -9 49 -17 51 -33 2 -15 -4 -24 -25 -30 -41 -14 -129 31 -138
70 -9 38 -22 41 -97 25 -60 -14 -63 -16 -66 -47 -3 -29 0 -33 37 -48 23 -9 41
-19 41 -22 -1 -11 -35 -46 -62 -64 -37 -23 -38 -70 -3 -93 14 -9 25 -25 25
-36 0 -38 125 -122 173 -117 39 5 65 -11 96 -57 37 -57 32 -77 -18 -68 -26 4
-48 18 -77 50 l-40 44 -81 0 c-73 0 -89 -4 -179 -44 -84 -37 -99 -47 -102 -68
-2 -18 4 -30 21 -41 14 -9 34 -32 46 -51 13 -21 36 -40 57 -48 20 -7 42 -26
54 -45 13 -22 30 -35 50 -39 16 -4 30 -10 30 -15 0 -5 18 -20 40 -34 49 -31
106 -33 160 -5 38 19 40 19 40 2 0 -10 5 -23 12 -30 17 -17 80 -15 114 3 16 8
45 18 64 21 19 4 44 14 55 24 26 23 100 60 120 60 27 0 16 -18 -18 -29 -64
-21 -127 -68 -127 -95 0 -33 79 -81 120 -72 23 4 35 -1 63 -29 32 -32 40 -35
95 -35 56 0 61 2 86 35 32 42 66 53 98 31 25 -18 80 -21 108 -6 11 6 22 26 26
48 10 54 31 85 72 107 32 18 38 26 42 65 5 44 6 45 45 50 49 7 59 13 124 72
41 37 51 52 51 78 0 38 -25 90 -44 90 -7 0 -24 9 -38 19 -13 11 -36 23 -51 26
l-26 7 30 25 c22 19 29 33 27 52 -2 21 -12 29 -53 43 -27 9 -63 17 -78 17 -16
1 -54 8 -84 17 -42 12 -59 23 -72 46 -30 55 -51 77 -102 105 -28 15 -45 29
-38 31 60 19 64 77 9 139 -57 65 -67 103 -41 154 41 78 24 299 -27 346 -38 35
-81 31 -122 -12 -40 -41 -91 -47 -131 -17 -13 11 -41 22 -63 25 -21 3 -46 13
-56 22 -21 19 -84 20 -100 0z m116 -75 c16 0 46 -11 66 -25 29 -20 49 -25 97
-25 56 0 64 3 100 36 l40 35 16 -25 c10 -15 18 -57 22 -115 5 -78 3 -97 -16
-140 -11 -27 -21 -58 -21 -68 0 -41 23 -95 60 -142 l39 -49 -29 -11 c-36 -12
-59 -55 -43 -79 5 -9 39 -33 74 -53 46 -26 70 -47 85 -75 26 -50 73 -81 132
-89 64 -8 132 -26 132 -35 0 -4 -9 -15 -20 -25 -22 -20 -27 -64 -8 -83 7 -7
24 -12 38 -12 28 0 106 -46 114 -66 3 -7 -17 -33 -44 -58 -40 -38 -56 -46 -86
-46 -47 0 -84 -32 -84 -72 0 -20 -14 -41 -55 -81 -44 -43 -55 -59 -55 -85 0
-39 -20 -50 -52 -28 -45 32 -125 13 -166 -39 -29 -37 -70 -33 -113 11 -27 28
-41 35 -69 34 -51 -3 -54 -2 -40 15 7 8 31 20 54 27 81 23 97 64 50 125 -24
32 -29 34 -67 27 -45 -7 -110 -37 -142 -64 -11 -10 -44 -25 -73 -33 -52 -15
-53 -15 -77 9 -30 30 -70 31 -136 3 -41 -18 -54 -20 -77 -10 -15 6 -32 22 -37
34 -7 14 -21 23 -40 25 -21 2 -36 13 -50 35 -11 18 -36 39 -55 48 -19 10 -45
31 -57 47 l-23 31 58 27 c41 19 76 27 122 29 65 2 66 2 93 -35 20 -28 38 -40
71 -49 102 -25 146 -1 146 80 0 44 -4 53 -53 105 -49 53 -57 57 -111 65 -61 8
-126 44 -126 69 0 9 -7 26 -16 38 -15 22 -14 25 19 61 19 21 39 46 45 56 9 17
13 17 57 -9 39 -24 54 -27 90 -21 66 9 95 37 95 90 0 55 -23 83 -77 96 -31 6
-54 22 -85 55 -24 25 -44 49 -46 53 -5 13 84 98 143 137 52 35 61 46 86 109
16 39 29 88 29 111 0 49 8 59 30 39 9 -8 30 -15 46 -15z"/>
</g>
</svg>
