<?xml version="1.0" standalone="no"?>
<!DOCTYPE svg PUBLIC "-//W3C//DTD SVG 20010904//EN"
 "http://www.w3.org/TR/2001/REC-SVG-20010904/DTD/svg10.dtd">
<svg version="1.0" xmlns="http://www.w3.org/2000/svg"
 width="1920.000000pt" height="1080.000000pt" viewBox="0 0 1920.000000 1080.000000"
 preserveAspectRatio="xMidYMid meet">
<metadata>
Created by potrace 1.16, written by Peter Selinger 2001-2019
</metadata>
<g transform="translate(0.000000,1080.000000) scale(0.100000,-0.100000)"
fill="#000000" stroke="none">
<path d="M5070 7788 c-52 -16 -101 -31 -107 -33 -7 -3 -13 -16 -13 -30 0 -20
-8 -29 -34 -40 -44 -19 -72 -55 -80 -104 -4 -28 -14 -46 -31 -57 -23 -15 -27
-15 -50 0 -34 23 -117 21 -138 -2 -10 -10 -17 -26 -17 -34 0 -40 -117 -22
-140 21 -14 26 -71 28 -130 5 -27 -11 -52 -14 -78 -9 -20 4 -82 8 -137 9
l-100 1 -3 -33 c-3 -28 1 -34 25 -42 23 -8 49 -38 71 -81 5 -11 -66 -18 -123
-12 -51 5 -59 9 -79 42 -13 20 -35 42 -48 50 -14 7 -41 40 -59 73 -27 48 -44
66 -84 87 -28 14 -67 39 -87 55 -30 22 -52 29 -103 34 -46 3 -69 1 -81 -9 -9
-7 -34 -15 -57 -18 -38 -6 -42 -9 -45 -38 -2 -25 2 -34 20 -44 35 -18 92 -81
107 -117 10 -23 31 -41 80 -68 70 -38 101 -61 101 -76 0 -5 -9 -4 -19 2 -11 5
-37 10 -59 10 -31 0 -41 4 -45 20 -5 18 -14 20 -84 20 -58 0 -90 -5 -119 -19
-39 -19 -39 -19 -46 0 -6 17 -16 20 -50 17 -39 -3 -45 -7 -82 -64 -36 -54 -46
-62 -81 -67 -43 -6 -85 -44 -85 -76 0 -40 -22 -81 -43 -81 -12 -1 -38 -9 -57
-18 -45 -22 -51 -55 -16 -91 14 -15 31 -42 37 -61 7 -19 20 -43 30 -53 11 -10
19 -29 19 -43 0 -13 6 -27 14 -30 26 -10 176 13 195 30 10 9 29 16 44 16 39 0
77 17 77 35 0 21 27 30 45 15 8 -7 44 -15 80 -18 67 -5 76 -11 50 -32 -23 -19
-18 -48 26 -138 l41 -84 52 6 c28 3 103 9 166 12 158 9 195 37 158 119 -10 23
-10 28 5 36 9 6 17 18 17 29 0 16 11 20 71 26 65 6 75 10 112 46 40 37 41 38
61 20 42 -36 138 -76 185 -76 45 -1 46 0 49 31 3 28 -2 35 -37 59 -48 32 -52
55 -13 91 l27 25 3 -26 c6 -45 54 -69 147 -74 114 -6 118 -3 151 117 5 20 10
23 42 18 40 -7 65 -26 44 -34 -8 -3 -29 -19 -48 -35 -44 -39 -46 -80 -6 -105
15 -9 51 -39 80 -66 43 -40 58 -48 85 -45 28 3 32 7 35 36 2 18 -3 46 -12 62
-16 33 -8 40 16 13 19 -22 66 -165 70 -213 3 -30 7 -35 31 -38 46 -5 59 14 54
77 -2 31 -14 89 -25 128 -12 40 -22 76 -21 80 1 16 49 -100 65 -157 19 -67 32
-83 66 -78 21 3 23 8 23 63 0 33 -4 70 -8 83 -11 29 13 30 31 2 7 -11 20 -20
30 -20 14 0 16 -8 14 -55 -5 -74 11 -142 54 -228 20 -39 40 -85 43 -102 11
-50 48 -46 95 11 l39 46 -7 102 c-4 55 -13 114 -21 129 -12 25 -12 32 0 50 34
53 44 131 38 302 -6 153 -8 168 -30 197 -15 21 -23 46 -23 72 0 43 -23 131
-39 150 -6 8 -3 27 10 55 24 54 24 67 -1 116 -11 22 -20 53 -20 71 0 42 -14
52 -105 69 -97 19 -92 19 -205 -17z m252 -88 c4 -19 13 -49 18 -67 8 -24 7
-40 -5 -69 -19 -45 -19 -88 -2 -103 14 -11 31 -79 41 -156 3 -21 14 -51 25
-66 17 -23 20 -46 23 -191 l3 -165 -32 -63 c-37 -72 -40 -86 -17 -112 20 -21
44 -171 31 -193 -13 -24 -27 -8 -63 70 -39 85 -53 170 -34 215 10 25 10 34 -4
55 -9 14 -26 25 -37 25 -12 0 -30 11 -41 25 -22 29 -47 31 -89 10 l-30 -16
-24 53 c-14 29 -25 59 -25 65 0 18 -70 93 -86 93 -7 0 -25 -10 -39 -23 l-27
-23 15 -51 16 -52 -25 10 c-14 5 -35 9 -47 9 -23 0 -67 -37 -67 -57 0 -19 -14
-16 -34 6 -17 19 -17 20 13 35 56 29 69 95 27 135 -34 32 -138 42 -166 16 -11
-10 -20 -26 -20 -36 0 -10 -8 -34 -17 -54 -15 -32 -21 -35 -58 -35 -23 0 -56
5 -74 11 -26 9 -31 16 -31 42 0 35 -25 67 -52 67 -10 0 -43 -24 -73 -53 -49
-47 -55 -58 -55 -94 l0 -41 -29 14 c-16 8 -34 21 -41 29 -7 8 -28 15 -48 15
-29 0 -43 -8 -79 -45 -41 -44 -45 -45 -103 -45 -57 0 -62 -2 -108 -45 -42 -40
-46 -47 -34 -65 6 -11 12 -29 12 -39 0 -11 5 -23 11 -27 20 -12 -13 -24 -69
-24 -29 0 -85 -5 -123 -11 -82 -13 -90 -9 -121 60 -19 43 -20 47 -4 74 36 64
7 107 -74 107 -25 1 -63 7 -85 15 -63 23 -93 19 -126 -16 -25 -27 -34 -30 -61
-25 -25 5 -37 1 -57 -18 -16 -15 -44 -27 -73 -31 -43 -7 -48 -5 -48 12 0 11
-9 28 -20 38 -11 10 -20 25 -20 34 0 9 -9 30 -19 48 -22 34 -19 43 15 43 37 0
65 32 75 85 11 61 16 65 70 72 47 6 79 27 79 51 0 8 10 30 21 49 l21 34 22
-20 c28 -26 49 -26 105 -1 24 11 56 20 71 20 26 0 25 -2 -27 -53 -61 -62 -66
-86 -28 -144 47 -73 46 -72 137 -85 102 -14 118 -7 118 52 0 32 -6 43 -45 75
-43 34 -44 38 -30 58 8 12 15 29 15 39 0 26 31 23 74 -7 40 -27 75 -32 94 -13
18 18 15 43 -13 97 -28 56 -61 86 -133 121 -28 14 -54 33 -57 42 -3 9 -24 38
-45 65 l-39 47 26 17 c22 15 31 16 67 4 22 -7 72 -33 109 -59 38 -25 72 -46
77 -46 4 0 11 -12 14 -26 4 -14 31 -51 61 -81 30 -30 55 -58 55 -62 0 -4 12
-19 28 -33 23 -21 40 -26 107 -31 178 -13 253 45 168 131 -31 31 -34 37 -19
40 10 2 38 -1 61 -7 62 -16 122 -14 173 6 42 16 43 15 57 -4 48 -69 235 -62
235 8 0 25 30 28 65 7 70 -42 146 -3 168 87 11 41 19 53 46 67 45 22 71 48 71
68 0 11 10 20 28 23 15 3 56 14 91 25 55 16 73 17 125 8 57 -11 60 -13 68 -46z"/>
</g>
</svg>
