<?xml version="1.0" standalone="no"?>
<!DOCTYPE svg PUBLIC "-//W3C//DTD SVG 20010904//EN"
 "http://www.w3.org/TR/2001/REC-SVG-20010904/DTD/svg10.dtd">
<svg version="1.0" xmlns="http://www.w3.org/2000/svg"
 width="1920.000000pt" height="1080.000000pt" viewBox="0 0 1920.000000 1080.000000"
 preserveAspectRatio="xMidYMid meet">
<metadata>
Created by potrace 1.16, written by Peter Selinger 2001-2019
</metadata>
<g transform="translate(0.000000,1080.000000) scale(0.100000,-0.100000)"
fill="#000000" stroke="none">
<path d="M6964 4190 c-64 -59 -74 -59 -146 1 -51 43 -85 49 -141 25 -28 -11
-37 -25 -65 -98 -32 -84 -33 -86 -85 -111 -66 -31 -70 -37 -112 -138 -27 -67
-40 -87 -64 -98 -27 -13 -33 -12 -58 5 -73 48 -95 54 -198 54 -83 0 -105 -4
-130 -20 -16 -11 -39 -20 -49 -20 -33 0 -119 -74 -144 -123 -19 -38 -22 -59
-20 -124 l3 -77 53 -27 c67 -33 102 -64 102 -89 0 -10 9 -24 20 -30 11 -6 20
-15 20 -19 0 -14 -78 -41 -118 -41 -81 0 -81 -41 -2 -130 l60 -67 120 -34 c66
-18 120 -38 120 -45 0 -6 -9 -19 -20 -29 -24 -21 -26 -71 -5 -99 8 -11 15 -37
15 -57 0 -21 5 -41 10 -44 25 -15 63 -93 69 -138 6 -48 8 -50 51 -66 42 -16
48 -22 80 -91 4 -8 18 -17 31 -20 14 -3 45 -27 69 -53 87 -93 204 -161 296
-172 61 -7 62 -7 85 27 13 18 33 53 45 78 12 25 31 53 42 64 30 26 36 71 19
136 -14 53 -17 56 -81 94 -37 21 -65 40 -63 43 3 2 44 8 93 13 48 5 110 18
138 29 28 11 71 25 96 33 37 11 46 18 48 39 3 22 -9 38 -67 90 -65 59 -69 65
-54 81 14 15 34 18 133 18 109 0 118 2 138 23 20 21 22 34 22 135 0 99 -2 112
-19 121 -14 8 -21 29 -29 82 -6 40 -15 76 -21 82 -6 6 -38 13 -72 15 l-60 5 6
39 c5 25 3 44 -5 53 -10 12 -10 18 0 30 8 9 11 32 8 59 -5 43 -5 43 31 52 43
11 51 41 27 99 -9 21 -16 53 -16 72 0 21 -6 36 -15 39 -8 4 -15 12 -15 19 0
18 40 107 57 127 8 9 13 29 11 45 -3 26 -6 28 -57 31 l-53 3 6 51 c6 44 4 54
-15 74 -34 36 -62 30 -125 -26z m-179 -56 c82 -67 150 -66 215 1 19 19 36 35
40 35 3 0 4 -21 2 -46 -3 -37 0 -50 19 -70 12 -13 31 -24 41 -24 23 0 23 -8
-2 -65 -25 -59 -26 -119 -2 -137 10 -7 18 -24 18 -38 0 -14 3 -37 7 -52 6 -22
3 -28 -15 -34 -13 -3 -31 -13 -40 -22 -20 -16 -24 -57 -8 -67 17 -11 11 -30
-12 -40 -34 -15 -35 -58 -3 -83 23 -18 25 -26 19 -57 -9 -51 15 -75 75 -75 25
0 52 -4 58 -8 7 -4 17 -36 21 -70 6 -41 16 -70 30 -85 31 -33 32 -137 1 -168
-20 -20 -28 -21 -121 -15 l-100 7 -44 -36 c-56 -46 -57 -71 -5 -118 22 -19 49
-40 60 -47 37 -19 22 -34 -65 -63 -68 -23 -110 -30 -207 -34 -89 -4 -127 -10
-139 -21 -38 -32 -11 -75 53 -85 54 -8 162 -82 176 -120 16 -44 16 -42 -11
-74 -13 -15 -37 -53 -53 -83 -27 -50 -33 -55 -67 -58 -24 -2 -49 4 -74 19 -97
58 -141 91 -188 143 -29 31 -58 56 -65 56 -8 0 -23 17 -34 37 -12 22 -37 47
-61 60 -34 19 -43 30 -49 60 -8 43 -37 104 -58 121 -8 7 -12 22 -10 37 3 14
-4 38 -17 60 l-22 36 27 29 c33 34 31 75 -5 101 -14 10 -74 32 -135 48 -99 26
-113 33 -143 68 l-34 38 52 14 c59 16 110 59 110 91 0 12 -12 38 -27 56 -16
19 -41 50 -57 70 -17 20 -53 47 -82 61 l-51 24 5 47 c2 26 14 64 25 84 20 37
81 88 105 88 7 0 34 10 60 23 69 33 168 25 241 -20 63 -40 113 -43 161 -10 26
17 42 42 70 112 34 85 39 91 81 112 25 12 57 35 72 52 22 27 67 127 67 151 0
7 18 15 43 19 5 0 28 -15 52 -35z"/>
</g>
</svg>
