<?xml version="1.0" standalone="no"?>
<!DOCTYPE svg PUBLIC "-//W3C//DTD SVG 20010904//EN"
 "http://www.w3.org/TR/2001/REC-SVG-20010904/DTD/svg10.dtd">
<svg version="1.0" xmlns="http://www.w3.org/2000/svg"
 width="1920.000000pt" height="1080.000000pt" viewBox="0 0 1920.000000 1080.000000"
 preserveAspectRatio="xMidYMid meet">
<metadata>
Created by potrace 1.16, written by Peter Selinger 2001-2019
</metadata>
<g transform="translate(0.000000,1080.000000) scale(0.100000,-0.100000)"
fill="#000000" stroke="none">
<path d="M6949 7295 c-19 -19 -101 -34 -150 -28 -46 7 -105 -22 -200 -94 l-56
-42 5 -123 c4 -106 1 -134 -18 -202 -12 -43 -20 -89 -17 -102 3 -19 0 -24 -18
-24 -46 0 -72 -65 -40 -100 14 -16 14 -21 -6 -54 -19 -33 -21 -45 -15 -159 8
-167 16 -229 31 -247 31 -36 35 -57 23 -114 -10 -53 -9 -58 15 -93 14 -21 31
-58 36 -83 13 -56 14 -187 2 -194 -5 -3 -18 10 -30 29 -27 46 -57 46 -93 1
-31 -39 -35 -71 -12 -101 10 -14 13 -32 8 -60 -5 -35 -1 -48 29 -92 19 -29 38
-72 42 -95 9 -51 32 -109 64 -160 21 -35 26 -38 70 -38 68 0 92 30 161 207 18
43 35 82 40 87 5 4 25 -17 46 -48 22 -34 44 -56 55 -56 10 0 46 21 79 46 55
42 60 49 60 83 0 22 -6 44 -15 51 -11 9 -12 17 -4 31 8 16 14 17 30 9 11 -6
32 -10 47 -8 26 3 27 5 25 58 -2 30 -10 69 -19 86 -16 28 -15 33 1 67 22 47
64 77 115 84 33 5 40 3 40 -11 0 -9 15 -26 34 -37 19 -11 42 -31 50 -45 22
-32 59 -31 105 5 31 24 48 29 118 34 102 6 137 22 141 62 2 17 12 55 22 85 11
32 21 96 24 152 l4 97 -31 24 c-20 14 -52 26 -83 30 -54 6 -158 55 -199 93
-36 33 -42 70 -16 104 24 34 28 82 6 100 -8 7 -15 23 -15 36 0 18 -10 28 -37
41 -42 20 -36 0 -61 204 -11 89 -13 94 -55 115 -40 21 -47 31 -47 72 0 39 -20
50 -63 34 -26 -10 -33 -8 -58 13 -16 13 -39 27 -51 30 -13 4 -30 14 -39 22
-15 12 -14 16 11 43 29 31 54 103 48 141 -2 17 -10 25 -28 27 -14 2 -29 8 -34
13 -15 14 -60 11 -77 -6z m60 -64 c19 -12 1 -55 -34 -83 -52 -41 -23 -109 65
-153 19 -10 50 -29 68 -42 20 -15 41 -23 53 -20 11 3 19 0 19 -8 0 -11 25 -36
88 -86 6 -5 12 -32 12 -59 0 -27 5 -61 11 -77 6 -15 13 -52 17 -83 6 -47 12
-58 38 -75 18 -11 38 -34 46 -51 12 -27 12 -33 -5 -60 -30 -48 -19 -116 28
-164 49 -50 156 -106 220 -115 28 -4 56 -11 64 -15 21 -11 15 -140 -11 -220
-11 -36 -22 -70 -24 -77 -3 -14 -102 -27 -141 -19 -23 5 -37 1 -68 -24 -21
-16 -41 -30 -44 -30 -10 1 -71 59 -71 68 0 5 -10 18 -23 30 -20 19 -28 20 -85
12 -42 -6 -75 -17 -97 -34 -68 -52 -97 -137 -70 -202 19 -45 19 -43 -3 -37
-11 2 -32 -6 -50 -22 -39 -33 -51 -84 -28 -120 16 -24 16 -26 -11 -50 -15 -13
-31 -25 -34 -25 -3 0 -25 23 -48 50 -72 86 -110 67 -170 -85 -46 -118 -78
-175 -97 -175 -21 0 -62 79 -79 155 -9 39 -28 85 -42 103 -18 24 -26 48 -27
85 -2 29 -7 63 -11 77 l-8 25 22 -27 c26 -33 74 -38 103 -11 16 14 18 33 18
145 0 127 -10 176 -42 216 -8 9 -11 41 -9 87 2 64 0 78 -20 105 -16 21 -26 52
-31 98 -4 37 -10 97 -14 134 -4 45 -3 77 5 96 l12 29 35 -35 c21 -21 34 -44
34 -60 0 -54 62 -82 102 -45 12 11 18 30 18 57 0 67 -53 218 -101 287 -17 24
-17 28 -2 70 11 29 18 93 21 189 l5 145 41 30 c61 44 128 75 149 69 20 -6 143
13 167 27 19 11 22 11 39 0z"/>
</g>
</svg>
