<?xml version="1.0" standalone="no"?>
<!DOCTYPE svg PUBLIC "-//W3C//DTD SVG 20010904//EN"
 "http://www.w3.org/TR/2001/REC-SVG-20010904/DTD/svg10.dtd">
<svg version="1.0" xmlns="http://www.w3.org/2000/svg"
 width="1920.000000pt" height="1080.000000pt" viewBox="0 0 1920.000000 1080.000000"
 preserveAspectRatio="xMidYMid meet">
<metadata>
Created by potrace 1.16, written by Peter Selinger 2001-2019
</metadata>
<g transform="translate(0.000000,1080.000000) scale(0.100000,-0.100000)"
fill="#000000" stroke="none">
<path d="M7996 3826 c-27 -19 -69 -43 -95 -52 -25 -10 -50 -21 -54 -24 -5 -4
-12 -39 -17 -76 -7 -54 -13 -72 -31 -84 -12 -8 -42 -35 -67 -59 -44 -42 -110
-80 -142 -81 -8 0 -26 -9 -40 -20 -25 -19 -25 -19 -47 2 l-23 21 21 33 c24 39
22 92 -3 108 -13 8 -39 3 -105 -18 l-89 -29 -73 17 c-41 9 -86 23 -102 31 -45
24 -78 19 -90 -12 -6 -16 -8 -41 -4 -58 3 -16 9 -48 13 -70 7 -39 8 -40 58
-48 65 -10 83 -30 93 -100 4 -31 16 -66 29 -82 18 -22 22 -41 22 -97 0 -129
-31 -154 -179 -145 -87 5 -101 4 -115 -12 -28 -30 -20 -66 21 -97 38 -29 92
-84 93 -95 0 -14 -229 -82 -295 -88 -66 -6 -70 -7 -73 -32 -3 -22 5 -32 43
-57 26 -17 59 -34 75 -37 25 -6 29 -11 33 -53 4 -51 -2 -68 -51 -133 -25 -33
-32 -51 -30 -79 3 -30 7 -35 31 -38 26 -3 26 -4 12 -25 -8 -12 -15 -38 -15
-59 0 -41 -5 -35 190 -223 63 -60 127 -127 142 -149 34 -50 131 -160 226 -255
l73 -74 59 6 c35 3 62 1 69 -6 5 -5 35 -14 65 -18 29 -4 84 -21 120 -39 37
-17 77 -30 89 -28 19 3 22 10 25 52 3 40 -3 62 -30 115 -39 78 -145 191 -178
191 -22 0 -23 1 -5 20 22 25 16 68 -20 148 -24 52 -25 58 -9 69 9 7 28 10 43
7 15 -3 42 3 66 16 21 11 53 20 70 20 34 0 51 15 99 87 16 23 50 56 77 74 38
24 106 93 135 138 2 2 16 -6 32 -18 37 -26 57 -26 89 -1 14 11 34 20 45 20 11
0 28 5 39 10 11 6 68 13 127 15 105 4 212 24 263 51 15 7 59 43 98 78 l70 65
33 -30 c36 -33 108 -69 139 -69 11 0 37 11 58 24 40 26 49 49 54 136 2 32 0
35 -28 36 -70 2 -89 21 -115 116 -7 26 -19 53 -27 60 -8 6 -44 13 -81 15 -80
3 -86 9 -102 105 -11 61 -16 72 -41 87 -16 9 -29 18 -29 21 1 3 19 18 41 33
33 22 40 33 37 55 -3 29 -17 34 -144 48 -59 7 -71 22 -81 92 -3 26 -13 56 -23
67 -33 37 -39 58 -30 105 14 69 12 90 -7 96 -10 3 -41 16 -69 30 -28 13 -66
24 -85 24 l-34 0 4 46 c2 25 -1 50 -6 55 -5 5 -53 12 -106 16 -82 5 -100 3
-115 -10 -17 -15 -18 -15 -14 16 3 23 12 37 33 49 20 12 29 25 29 42 0 31 -4
33 -66 41 -45 6 -53 3 -98 -29z m-28 -149 c-67 -55 -88 -89 -71 -115 14 -23
51 -27 71 -9 9 8 28 17 42 20 14 4 54 24 88 47 63 40 89 46 152 34 30 -7 31
-9 25 -41 -9 -47 15 -73 66 -73 21 0 59 -10 84 -22 l45 -22 0 -69 c0 -61 4
-74 31 -112 24 -34 30 -49 25 -72 -5 -23 0 -38 24 -71 27 -38 34 -42 73 -42
23 0 52 -3 64 -6 20 -6 20 -7 -10 -34 -28 -25 -30 -30 -19 -54 6 -15 27 -36
46 -47 30 -18 35 -26 41 -77 8 -68 28 -109 58 -123 12 -5 49 -13 81 -17 l60
-7 18 -62 c20 -68 62 -113 104 -113 36 0 33 -45 -4 -64 -26 -13 -32 -13 -69 9
-23 12 -55 38 -71 55 -39 44 -62 37 -151 -45 -39 -35 -87 -73 -108 -83 -63
-32 -180 -54 -245 -47 -44 5 -74 2 -130 -15 -40 -11 -81 -26 -91 -31 -15 -8
-26 -3 -58 25 -21 20 -45 36 -52 36 -23 0 -49 -37 -43 -58 7 -21 -40 -73 -149
-167 -32 -27 -66 -63 -76 -80 -19 -31 -56 -44 -183 -64 -57 -9 -96 -46 -96
-89 0 -15 14 -56 30 -92 29 -64 29 -65 9 -86 -22 -23 -25 -67 -6 -81 6 -6 29
-16 49 -22 46 -15 108 -82 148 -160 l30 -61 -66 25 c-37 14 -77 25 -91 25 -13
0 -41 9 -63 20 -44 22 -71 25 -87 9 -6 -6 -20 -8 -32 -4 -24 7 -213 210 -275
295 -23 31 -102 114 -176 183 -74 70 -138 135 -143 144 -7 11 -4 25 7 43 23
40 20 75 -9 98 l-25 20 35 42 c19 23 36 47 36 53 1 7 3 44 4 84 3 79 -9 100
-70 121 l-30 10 35 2 c19 0 53 8 75 16 22 9 68 24 101 35 132 41 145 82 57
171 l-57 58 92 0 93 0 47 44 47 45 0 115 c-1 103 -3 117 -22 138 -13 14 -24
44 -28 78 -9 69 -50 114 -113 125 -39 6 -42 9 -42 37 0 27 3 30 23 24 12 -4
59 -14 104 -23 76 -16 86 -16 144 1 62 17 82 15 61 -6 -40 -40 28 -148 94
-148 17 0 37 7 44 14 6 8 28 20 48 27 65 21 116 50 154 88 20 20 52 48 71 63
31 25 35 34 42 94 6 60 9 67 34 75 15 5 43 17 62 27 29 15 35 15 40 3 4 -10
-15 -32 -53 -64z"/>
</g>
</svg>
