<?xml version="1.0" standalone="no"?>
<!DOCTYPE svg PUBLIC "-//W3C//DTD SVG 20010904//EN"
 "http://www.w3.org/TR/2001/REC-SVG-20010904/DTD/svg10.dtd">
<svg version="1.0" xmlns="http://www.w3.org/2000/svg"
 width="1920.000000pt" height="1080.000000pt" viewBox="0 0 1920.000000 1080.000000"
 preserveAspectRatio="xMidYMid meet">
<metadata>
Created by potrace 1.16, written by Peter Selinger 2001-2019
</metadata>
<g transform="translate(0.000000,1080.000000) scale(0.100000,-0.100000)"
fill="#000000" stroke="none">
<path d="M9139 6214 c-7 -9 -34 -30 -58 -46 -40 -25 -54 -28 -125 -28 -93 0
-130 -14 -134 -50 -1 -14 -5 -39 -7 -56 l-5 -32 -67 44 c-58 38 -74 44 -119
44 -47 0 -55 -3 -73 -29 -18 -24 -21 -44 -21 -118 0 -105 16 -157 59 -190 31
-24 37 -46 25 -90 l-6 -22 -31 20 c-47 28 -148 26 -233 -6 -40 -15 -87 -25
-118 -25 -29 0 -57 -5 -64 -12 -24 -24 -14 -95 25 -169 27 -52 38 -86 42 -137
6 -61 8 -68 34 -80 16 -8 35 -29 43 -48 10 -23 28 -41 61 -57 l46 -24 -59 -11
c-32 -7 -74 -21 -91 -32 -29 -17 -33 -25 -33 -61 0 -29 7 -50 25 -71 23 -27
25 -38 25 -122 0 -58 4 -96 12 -104 17 -17 103 -15 117 2 6 8 26 20 44 27 53
21 67 38 67 83 l0 41 83 42 c83 43 109 67 200 188 20 27 37 52 37 55 0 3 22
17 48 32 65 37 80 56 84 107 3 38 9 49 48 82 46 39 63 45 204 70 49 8 66 17
97 49 20 21 48 41 61 45 12 4 35 19 51 33 21 20 27 35 27 67 0 22 -7 51 -16
63 -29 42 -16 65 51 80 86 20 90 23 93 74 3 42 0 48 -57 111 -60 66 -91 114
-91 139 0 7 -24 40 -54 73 l-53 60 -90 3 c-76 3 -91 1 -104 -14z m182 -83 c21
-21 55 -70 73 -108 19 -39 45 -79 58 -89 13 -11 36 -34 51 -53 l29 -34 -87
-23 c-48 -12 -89 -25 -92 -28 -4 -3 0 -18 8 -32 12 -23 11 -27 -4 -39 -24 -18
-21 -31 14 -63 37 -33 32 -56 -16 -72 -18 -6 -52 -28 -75 -50 -38 -35 -52 -41
-134 -56 -100 -19 -153 -44 -205 -97 -27 -29 -33 -43 -33 -77 1 -39 -2 -42
-58 -77 -32 -20 -66 -50 -76 -67 -9 -17 -20 -33 -24 -36 -3 -3 -28 -33 -54
-67 -42 -54 -62 -69 -148 -114 l-100 -51 7 -44 c6 -41 5 -45 -21 -54 -14 -6
-39 -19 -54 -30 -16 -11 -31 -20 -34 -20 -3 0 -6 40 -6 89 0 78 -3 93 -25 125
l-25 37 26 10 c15 5 47 14 73 19 25 6 55 12 67 15 28 6 64 39 64 58 0 14 -67
63 -121 87 -15 7 -31 26 -38 47 -9 24 -22 38 -42 45 -27 9 -29 13 -29 63 0 42
-8 70 -40 133 -22 44 -40 81 -40 83 0 2 22 4 48 5 28 0 77 12 115 27 107 43
142 37 230 -40 37 -33 89 -44 102 -23 3 6 -4 27 -15 49 -21 37 -22 39 -5 65
17 25 17 29 0 81 -10 32 -28 64 -44 78 -27 22 -33 35 -51 107 -11 41 4 108 25
116 8 3 39 -9 69 -27 49 -30 56 -38 56 -65 0 -43 33 -83 56 -68 27 16 84 131
84 169 0 31 3 35 35 41 20 3 50 4 67 0 17 -3 49 -1 72 5 50 13 126 59 126 77
0 8 17 12 51 12 45 0 55 -4 90 -39z"/>
</g>
</svg>
