<?xml version="1.0" standalone="no"?>
<!DOCTYPE svg PUBLIC "-//W3C//DTD SVG 20010904//EN"
 "http://www.w3.org/TR/2001/REC-SVG-20010904/DTD/svg10.dtd">
<svg version="1.0" xmlns="http://www.w3.org/2000/svg"
 width="1920.000000pt" height="1080.000000pt" viewBox="0 0 1920.000000 1080.000000"
 preserveAspectRatio="xMidYMid meet">
<metadata>
Created by potrace 1.16, written by Peter Selinger 2001-2019
</metadata>
<g transform="translate(0.000000,1080.000000) scale(0.100000,-0.100000)"
fill="#000000" stroke="none">
<path d="M8435 4871 c-22 -10 -48 -27 -58 -38 -15 -17 -27 -19 -97 -15 l-79 5
-48 -43 c-54 -48 -158 -100 -201 -100 -28 0 -62 -26 -62 -48 0 -6 -20 -28 -45
-49 -25 -20 -45 -45 -45 -55 0 -10 -6 -18 -14 -18 -7 0 -33 -17 -57 -38 -24
-21 -59 -49 -78 -62 -33 -23 -33 -24 -28 -81 4 -48 2 -63 -14 -83 -10 -13 -19
-33 -19 -44 0 -11 -3 -33 -6 -50 -5 -27 -9 -30 -29 -22 -38 15 -232 11 -245
-5 -6 -8 -10 -44 -8 -91 l3 -78 52 -26 52 -26 -19 -41 c-14 -32 -26 -43 -57
-53 -55 -18 -63 -28 -63 -74 0 -49 16 -67 118 -135 65 -44 72 -58 47 -101 -22
-38 -19 -112 6 -144 17 -21 29 -26 67 -26 26 0 65 9 87 19 22 11 56 26 75 33
19 7 58 33 86 58 29 25 64 53 77 63 19 12 27 29 32 65 13 92 21 106 70 121 25
7 56 22 70 33 l25 19 0 -54 c0 -70 12 -81 82 -73 94 12 117 10 138 -9 11 -10
20 -28 20 -40 0 -27 18 -45 44 -45 12 0 45 -11 74 -25 101 -47 203 -28 257 47
65 89 68 101 60 217 -4 73 -11 111 -22 123 -14 16 -13 18 13 30 49 20 74 49
74 83 0 47 23 71 81 85 40 10 71 29 145 92 l94 79 0 47 c0 58 -12 72 -62 72
-24 0 -38 5 -38 13 0 6 -17 29 -39 50 -27 26 -47 37 -69 37 -17 0 -32 6 -36
15 -3 8 -17 20 -31 25 -17 6 -25 17 -25 33 0 30 -18 47 -49 47 -30 0 -101 47
-101 67 0 8 -14 32 -32 54 -28 35 -31 45 -29 95 1 32 -3 61 -9 70 -17 20 -87
17 -135 -5z m81 -68 c-18 -73 -18 -78 8 -102 14 -14 26 -31 26 -38 0 -8 6 -16
14 -19 8 -3 16 -18 20 -35 3 -16 11 -29 17 -29 6 0 25 -11 41 -26 19 -15 40
-24 56 -22 20 2 26 -3 36 -32 6 -19 21 -39 33 -45 12 -5 24 -17 26 -27 4 -13
15 -18 42 -18 38 0 76 -28 100 -75 8 -14 23 -21 53 -23 46 -3 49 -6 27 -29
-66 -65 -159 -131 -202 -143 -61 -16 -91 -44 -99 -89 -10 -61 -15 -71 -34 -71
-57 0 -101 -99 -62 -138 25 -25 39 -139 21 -174 -44 -85 -70 -114 -115 -127
-42 -13 -49 -12 -82 7 -21 11 -53 23 -73 27 -29 5 -37 12 -45 38 -5 18 -14 31
-20 30 -7 -1 -11 5 -10 14 2 30 -132 43 -186 19 -15 -7 -18 -3 -18 22 0 23 8
36 30 52 18 13 30 30 30 44 0 21 -6 24 -62 29 -58 5 -63 4 -107 -29 -25 -20
-65 -41 -90 -47 -54 -15 -68 -35 -80 -117 -6 -46 -14 -67 -27 -75 -10 -5 -38
-28 -61 -51 -24 -23 -62 -49 -86 -58 -23 -10 -61 -27 -84 -38 -35 -17 -46 -18
-58 -8 -20 17 -19 32 6 75 17 28 20 45 15 79 -8 48 -23 66 -106 118 -30 19
-61 42 -68 51 -12 14 -9 17 27 27 48 13 72 43 101 130 21 61 21 65 4 77 -10 7
-22 13 -28 13 -5 0 -26 8 -45 17 -32 15 -36 22 -36 55 0 21 2 37 5 35 52 -29
59 -30 84 -13 33 21 48 20 79 -4 26 -20 63 -26 83 -12 14 9 39 90 36 116 -1
11 5 28 15 38 12 13 18 39 19 85 3 60 5 67 31 83 15 9 39 29 52 43 13 15 39
31 57 37 24 8 34 18 34 32 0 20 42 68 60 68 6 0 16 15 24 33 11 27 20 34 42
35 46 1 143 50 197 98 52 47 99 59 111 28 8 -22 71 -12 100 15 23 22 106 71
120 71 4 0 5 -12 2 -27z"/>
</g>
</svg>
