<?xml version="1.0" standalone="no"?>
<!DOCTYPE svg PUBLIC "-//W3C//DTD SVG 20010904//EN"
 "http://www.w3.org/TR/2001/REC-SVG-20010904/DTD/svg10.dtd">
<svg version="1.0" xmlns="http://www.w3.org/2000/svg"
 width="1920.000000pt" height="1080.000000pt" viewBox="0 0 1920.000000 1080.000000"
 preserveAspectRatio="xMidYMid meet">
<metadata>
Created by potrace 1.16, written by Peter Selinger 2001-2019
</metadata>
<g transform="translate(0.000000,1080.000000) scale(0.100000,-0.100000)"
fill="#000000" stroke="none">
<path d="M11590 7408 c-113 -63 -178 -78 -385 -88 -184 -10 -370 -35 -392 -52
-19 -15 -16 -98 3 -119 14 -16 14 -19 -9 -34 -14 -9 -50 -25 -79 -37 -71 -27
-78 -34 -78 -82 0 -36 6 -48 39 -80 35 -34 40 -45 45 -100 9 -86 9 -114 1
-173 -11 -75 -1 -83 96 -83 l79 0 0 -45 c0 -42 3 -48 35 -66 31 -19 35 -25 35
-64 0 -38 4 -46 44 -79 28 -23 47 -47 51 -67 8 -37 -4 -49 -53 -49 -20 0 -58
-14 -90 -33 -32 -18 -70 -40 -87 -48 -29 -14 -30 -17 -39 -117 -8 -92 -7 -104
9 -122 26 -29 131 -27 405 6 30 4 146 1 257 -6 229 -15 254 -12 325 45 129
102 142 108 238 115 58 4 112 2 150 -6 75 -15 195 -61 210 -80 22 -26 249 -12
288 19 6 5 12 29 12 53 0 38 -4 46 -37 71 -21 15 -58 45 -82 65 -24 21 -65 44
-91 52 -63 19 -120 49 -146 78 -12 12 -36 58 -54 101 -23 54 -49 96 -91 142
-43 48 -59 73 -59 94 0 16 25 105 55 199 60 188 81 316 71 421 -7 66 -37 152
-65 184 -16 19 -11 19 -212 1 -46 -4 -82 -1 -119 10 -30 9 -88 16 -129 16 -70
0 -82 -3 -151 -42z m261 -38 c28 -15 208 -12 254 5 l40 14 27 -56 c54 -113 47
-220 -32 -460 -54 -166 -75 -261 -66 -295 3 -13 29 -48 57 -78 32 -35 67 -89
95 -150 64 -134 95 -163 223 -205 30 -10 73 -34 95 -54 23 -20 54 -45 70 -55
39 -24 23 -33 -78 -42 -68 -6 -81 -4 -104 13 -40 29 -127 61 -212 77 -84 17
-288 9 -326 -12 -12 -6 -55 -39 -95 -72 -99 -81 -116 -85 -286 -71 -166 13
-327 14 -369 2 -17 -5 -85 -12 -152 -16 -109 -6 -122 -5 -128 9 -4 11 1 25 15
37 25 23 27 51 6 69 -18 15 -11 30 14 30 10 0 39 14 65 32 28 18 69 35 99 39
28 5 59 17 69 27 18 17 18 24 7 86 -12 61 -17 72 -57 107 -37 32 -43 41 -32
54 20 24 4 58 -39 84 l-39 24 26 41 c15 23 34 46 42 53 12 9 12 14 3 24 -10
10 -18 10 -38 1 -14 -7 -69 -12 -122 -12 -87 0 -94 1 -87 18 10 21 9 122 -3
214 -7 59 -13 72 -46 106 l-38 39 59 22 c66 23 152 93 152 121 0 10 -13 28
-30 40 -16 12 -30 25 -30 29 0 8 76 27 145 36 22 3 126 9 230 14 200 10 293
28 358 70 89 57 124 68 183 59 31 -5 65 -13 75 -18z"/>
</g>
</svg>
