<?xml version="1.0" standalone="no"?>
<!DOCTYPE svg PUBLIC "-//W3C//DTD SVG 20010904//EN"
 "http://www.w3.org/TR/2001/REC-SVG-20010904/DTD/svg10.dtd">
<svg version="1.0" xmlns="http://www.w3.org/2000/svg"
 width="1920.000000pt" height="1080.000000pt" viewBox="0 0 1920.000000 1080.000000"
 preserveAspectRatio="xMidYMid meet">
<metadata>
Created by potrace 1.16, written by Peter Selinger 2001-2019
</metadata>
<g transform="translate(0.000000,1080.000000) scale(0.100000,-0.100000)"
fill="#000000" stroke="none">
<path d="M11971 6113 c-66 -4 -80 -8 -120 -38 -26 -18 -55 -43 -66 -56 -11
-12 -42 -32 -68 -44 -44 -21 -58 -22 -177 -17 l-130 5 -58 -46 c-32 -25 -100
-70 -152 -101 -94 -56 -95 -56 -176 -56 -78 0 -85 -2 -191 -54 -108 -53 -109
-53 -132 -35 -28 23 -147 27 -173 7 -9 -7 -39 -43 -66 -79 l-50 -67 -7 -109
c-9 -137 -8 -138 106 -128 77 6 81 5 74 -12 -4 -10 -10 -39 -13 -66 -5 -50 14
-87 46 -87 25 0 96 -40 115 -65 l17 -24 -47 -23 c-48 -23 -48 -23 -48 -73 0
-27 -4 -53 -10 -57 -5 -4 -51 -8 -101 -8 -107 0 -124 -11 -124 -78 0 -37 4
-45 33 -61 62 -37 94 -66 104 -92 6 -15 29 -38 52 -50 32 -19 41 -30 41 -50 0
-45 29 -68 95 -79 111 -18 134 -14 215 37 104 64 127 72 234 82 98 10 179 41
242 94 l29 25 85 -19 c99 -22 151 -24 168 -7 15 15 16 100 2 114 -17 17 -2 39
33 52 18 7 86 61 151 122 l117 110 77 0 c93 0 124 14 133 58 4 18 14 41 22 50
9 9 20 29 26 45 6 15 21 31 33 36 58 22 118 121 118 193 0 41 4 50 33 72 17
13 54 33 82 43 29 11 54 28 61 41 6 13 20 33 31 45 11 12 25 37 32 56 6 19 31
69 56 112 53 92 61 156 24 204 -20 24 -27 26 -68 22 -25 -3 -75 -13 -110 -23
-60 -16 -66 -16 -90 -1 -123 78 -218 93 -510 80z m353 -82 c33 -11 78 -33 100
-47 37 -25 45 -26 117 -21 43 4 94 13 113 21 33 14 37 14 46 -4 15 -28 14 -30
-40 -120 -27 -46 -50 -91 -50 -101 0 -10 -13 -33 -28 -51 -16 -18 -31 -40 -34
-48 -3 -8 -25 -21 -50 -27 -25 -7 -63 -29 -87 -50 -40 -36 -43 -42 -44 -95 -2
-45 -9 -66 -33 -100 -16 -24 -44 -50 -61 -58 -22 -11 -42 -35 -67 -83 -20 -37
-36 -74 -36 -82 0 -15 -29 -25 -65 -23 -11 1 -43 1 -71 0 -50 -2 -52 -3 -173
-116 -67 -63 -134 -117 -149 -121 -34 -9 -113 -91 -105 -111 3 -8 18 -21 34
-30 57 -29 27 -31 -93 -6 l-121 25 -26 -31 c-43 -51 -141 -93 -240 -102 -111
-12 -144 -22 -211 -66 -90 -59 -104 -64 -157 -58 -70 10 -83 19 -83 60 0 30
-5 38 -45 62 -25 15 -48 35 -51 45 -7 23 -39 53 -92 87 -56 37 -43 45 73 45
111 0 151 16 148 59 -1 16 -9 37 -18 46 -16 17 -13 20 44 40 85 32 89 57 18
140 -32 37 -101 80 -129 80 -26 0 -29 14 -12 69 27 91 6 107 -117 99 -38 -3
-69 -1 -69 4 0 5 8 20 17 34 14 22 15 31 4 60 -12 33 -11 36 36 99 26 36 56
68 66 71 35 11 83 -5 95 -31 6 -14 19 -25 28 -25 9 0 74 29 144 65 l128 65 78
-3 79 -2 96 57 c53 32 123 79 155 104 l59 46 118 -7 c143 -8 189 4 266 70 91
78 103 84 177 88 135 8 256 0 318 -22z"/>
</g>
</svg>
