<?xml version="1.0" standalone="no"?>
<!DOCTYPE svg PUBLIC "-//W3C//DTD SVG 20010904//EN"
 "http://www.w3.org/TR/2001/REC-SVG-20010904/DTD/svg10.dtd">
<svg version="1.0" xmlns="http://www.w3.org/2000/svg"
 width="1920.000000pt" height="1080.000000pt" viewBox="0 0 1920.000000 1080.000000"
 preserveAspectRatio="xMidYMid meet">
<metadata>
Created by potrace 1.16, written by Peter Selinger 2001-2019
</metadata>
<g transform="translate(0.000000,1080.000000) scale(0.100000,-0.100000)"
fill="#000000" stroke="none">
<path d="M11391 4785 c-72 -57 -143 -85 -241 -95 -106 -11 -122 -17 -213 -77
l-72 -46 -105 2 -105 2 -69 -78 c-47 -53 -86 -86 -120 -103 l-51 -25 0 -55 c0
-52 -2 -56 -35 -79 -32 -22 -44 -24 -133 -22 l-98 2 -89 -91 c-86 -87 -90 -93
-90 -135 0 -43 1 -44 81 -101 l81 -57 131 7 c93 5 142 12 171 25 61 28 134 51
159 51 20 0 22 -5 22 -64 1 -38 6 -70 14 -80 20 -24 109 -22 135 3 47 44 256
102 293 82 22 -12 128 -32 201 -38 49 -5 56 -2 83 25 33 34 191 100 319 133
75 19 111 22 295 22 123 0 215 4 223 10 6 5 12 30 12 56 0 43 -5 53 -75 136
-62 74 -83 91 -118 101 -84 24 -92 27 -108 41 -9 7 -22 42 -28 76 -7 34 -14
70 -16 80 -2 12 10 26 36 43 38 23 39 26 39 78 0 70 -29 108 -103 132 -29 9
-57 21 -64 26 -19 15 -201 48 -261 47 -49 0 -63 -5 -101 -34z m200 -40 c46 -9
104 -24 129 -34 25 -11 60 -25 78 -31 33 -13 62 -44 62 -66 0 -18 -87 -65
-145 -78 -33 -8 -51 -17 -53 -29 -2 -11 3 -17 15 -17 11 0 41 -7 66 -16 41
-14 47 -19 46 -42 -1 -15 4 -43 11 -62 30 -85 39 -99 67 -105 15 -4 35 -10 44
-15 9 -5 33 -12 53 -15 20 -4 40 -13 44 -20 4 -7 21 -28 37 -47 42 -45 85
-103 85 -113 0 -4 -48 -5 -106 -1 -137 9 -334 -9 -454 -40 -104 -28 -246 -90
-278 -122 l-21 -21 -93 20 c-139 31 -156 32 -243 15 -73 -13 -184 -56 -227
-88 -19 -14 -23 -12 -32 19 -6 18 4 33 48 79 30 31 60 70 67 86 17 41 2 64
-37 60 -29 -4 -118 -49 -163 -84 -14 -10 -40 -18 -63 -18 -21 0 -67 -13 -101
-29 -50 -22 -85 -30 -163 -35 l-99 -7 -55 41 c-30 23 -61 45 -68 49 -9 5 10
31 63 87 l76 79 104 0 c93 0 106 2 127 23 14 12 37 22 54 22 37 0 98 32 102
54 3 12 -13 24 -54 43 l-57 26 59 28 c45 21 73 44 119 99 l60 72 99 -6 99 -6
78 50 c100 64 116 70 220 80 93 9 168 40 243 99 45 36 46 36 157 16z"/>
<path d="M11346 4360 c-41 -45 -42 -46 -85 -24 -56 28 -87 -9 -35 -42 l26 -17
-46 -39 c-25 -22 -46 -46 -46 -54 0 -18 30 -18 54 1 29 22 46 18 46 -10 0 -14
5 -25 10 -25 12 0 46 33 52 51 3 10 13 8 40 -9 19 -12 40 -22 47 -22 16 0 14
35 -4 50 -26 21 -17 37 28 49 23 6 49 15 57 21 23 15 -5 30 -57 30 -48 0 -49
1 -27 35 16 25 12 45 -10 45 -8 0 -30 -18 -50 -40z"/>
</g>
</svg>
