<?xml version="1.0" standalone="no"?>
<!DOCTYPE svg PUBLIC "-//W3C//DTD SVG 20010904//EN"
 "http://www.w3.org/TR/2001/REC-SVG-20010904/DTD/svg10.dtd">
<svg version="1.0" xmlns="http://www.w3.org/2000/svg"
 width="1920.000000pt" height="1080.000000pt" viewBox="0 0 1920.000000 1080.000000"
 preserveAspectRatio="xMidYMid meet">
<metadata>
Created by potrace 1.16, written by Peter Selinger 2001-2019
</metadata>
<g transform="translate(0.000000,1080.000000) scale(0.100000,-0.100000)"
fill="#000000" stroke="none">
<path d="M12201 3138 c-24 -16 -54 -23 -112 -26 -50 -3 -83 -10 -90 -18 -6 -8
-24 -14 -40 -14 -20 0 -35 -9 -50 -29 -12 -16 -30 -32 -40 -34 -11 -3 -29 -28
-44 -61 -13 -30 -32 -59 -42 -64 -10 -5 -58 -8 -106 -7 -72 2 -93 6 -117 24
-38 27 -106 29 -134 2 -12 -11 -39 -21 -62 -22 -33 -2 -48 3 -73 24 -18 15
-39 27 -47 27 -8 0 -24 11 -36 25 -29 34 -95 35 -125 3 -28 -32 -43 -62 -43
-91 0 -15 -10 -31 -25 -41 -21 -14 -25 -24 -25 -66 0 -27 5 -52 10 -55 6 -3
10 -22 10 -42 0 -20 7 -45 17 -55 9 -10 14 -20 11 -23 -3 -3 -70 -8 -149 -11
-167 -7 -179 -12 -179 -81 0 -38 4 -46 30 -61 17 -9 56 -41 88 -70 l57 -53
135 6 135 6 55 -30 c63 -35 137 -41 197 -16 40 17 115 9 203 -20 l48 -16 -19
-50 c-11 -27 -19 -72 -19 -100 0 -46 4 -55 48 -105 l47 -54 61 0 c45 0 77 7
116 25 30 14 88 30 129 35 116 15 313 86 334 120 4 6 28 20 53 32 52 24 92 55
92 73 0 7 9 20 21 31 19 17 20 28 17 111 -3 83 -6 94 -29 120 -23 24 -27 40
-32 107 l-6 79 -61 61 c-49 49 -58 62 -43 65 28 5 43 21 43 46 0 14 13 30 38
46 33 21 37 29 40 71 3 47 3 47 -75 123 -76 73 -79 75 -128 75 -34 0 -61 -7
-84 -22z m164 -105 c63 -60 68 -67 51 -77 -47 -28 -77 -60 -73 -78 4 -15 -1
-18 -27 -18 -34 0 -76 -24 -76 -43 0 -7 38 -51 84 -97 63 -64 86 -94 91 -121
5 -26 2 -39 -9 -48 -25 -21 -19 -41 29 -92 40 -42 45 -54 45 -93 0 -61 -45
-128 -100 -150 -21 -8 -59 -30 -83 -49 -24 -18 -57 -38 -73 -44 -76 -29 -213
-65 -263 -70 -31 -3 -80 -17 -110 -29 -29 -13 -62 -24 -73 -24 -25 0 -97 78
-97 105 -1 11 10 44 24 73 26 55 31 88 17 109 -12 19 -77 43 -161 60 -42 8
-86 17 -99 20 -12 3 -49 -5 -82 -17 -66 -25 -86 -21 -161 27 -35 23 -37 23
-162 12 l-127 -10 -40 33 c-22 18 -40 39 -40 46 0 7 -18 19 -40 28 -22 9 -40
20 -40 25 0 4 26 8 58 7 209 -2 224 0 283 41 29 20 54 44 54 52 0 8 -21 24
-47 36 -45 22 -46 23 -35 52 10 26 8 32 -14 49 l-24 20 28 22 c20 16 27 30 27
55 0 21 9 44 24 61 22 27 24 27 30 8 4 -13 21 -25 45 -33 22 -6 50 -24 63 -40
30 -35 92 -50 106 -25 6 11 11 13 16 5 12 -20 41 -12 71 19 16 17 32 30 36 30
4 0 21 -11 37 -25 17 -14 37 -25 45 -25 8 0 17 -7 21 -15 8 -21 47 -19 53 3 4
17 13 18 82 14 75 -4 79 -3 107 24 16 16 38 48 48 72 13 27 27 44 43 48 13 4
26 16 29 28 4 18 11 22 36 18 23 -3 35 0 45 14 11 15 27 19 73 20 41 1 73 9
107 26 26 14 55 26 63 27 8 0 46 -29 85 -66z"/>
<path d="M11746 2635 c-7 -19 7 -57 28 -74 26 -22 19 -31 -24 -31 -45 0 -61
-19 -39 -46 10 -12 30 -15 93 -13 60 2 89 -2 113 -14 18 -9 39 -17 48 -17 20
0 19 29 -2 52 -13 14 -14 21 -5 30 19 19 14 28 -13 28 -29 0 -31 6 -10 26 40
41 -10 61 -58 24 -34 -27 -42 -26 -73 15 -28 37 -48 44 -58 20z"/>
</g>
</svg>
