<?xml version="1.0" standalone="no"?>
<!DOCTYPE svg PUBLIC "-//W3C//DTD SVG 20010904//EN"
 "http://www.w3.org/TR/2001/REC-SVG-20010904/DTD/svg10.dtd">
<svg version="1.0" xmlns="http://www.w3.org/2000/svg"
 width="1920.000000pt" height="1080.000000pt" viewBox="0 0 1920.000000 1080.000000"
 preserveAspectRatio="xMidYMid meet">
<metadata>
Created by potrace 1.16, written by Peter Selinger 2001-2019
</metadata>
<g transform="translate(0.000000,1080.000000) scale(0.100000,-0.100000)"
fill="#000000" stroke="none">
<path d="M12300 9866 c-14 -9 -41 -16 -60 -16 -19 0 -51 -5 -70 -10 -19 -5
-91 -23 -160 -40 -124 -30 -125 -31 -165 -13 -59 27 -184 25 -222 -3 -24 -18
-28 -28 -28 -70 0 -47 2 -49 43 -72 27 -15 42 -30 42 -43 0 -11 12 -38 27 -62
23 -36 27 -51 24 -100 -2 -48 1 -63 17 -80 32 -34 42 -72 42 -161 0 -81 1 -83
34 -112 29 -26 35 -41 47 -103 12 -72 12 -74 -10 -92 -16 -13 -39 -19 -75 -19
-54 0 -116 -28 -116 -54 0 -14 -48 -26 -111 -26 -43 0 -79 -34 -79 -74 0 -18
-9 -35 -25 -48 -21 -16 -25 -28 -25 -69 0 -42 5 -54 36 -89 26 -29 44 -40 65
-40 40 0 78 -19 85 -44 3 -12 14 -30 24 -41 10 -11 26 -36 35 -55 19 -37 56
-85 116 -151 33 -35 42 -39 83 -39 31 0 56 7 74 20 24 18 32 19 61 9 46 -16
367 -4 396 15 11 7 43 32 71 54 l51 40 7 91 c4 50 12 93 17 96 5 4 9 33 9 66
0 44 4 59 14 59 8 0 45 34 82 75 37 41 72 75 79 75 28 0 108 65 150 122 l46
63 -3 117 c-3 102 -6 120 -25 146 l-22 30 55 37 c73 49 117 133 112 216 -2 45
-7 56 -25 64 -13 5 -23 17 -23 27 0 9 -6 20 -12 25 -27 17 -126 36 -202 38
-52 2 -82 8 -87 17 -5 7 -9 47 -9 89 0 94 -9 104 -104 113 -38 4 -77 11 -86
16 -10 5 -53 12 -96 15 -60 4 -85 2 -104 -9z m87 -57 c8 -8 17 -8 31 0 14 8
24 7 38 -4 11 -8 31 -15 45 -15 15 0 29 -7 33 -15 6 -18 47 -20 63 -4 22 22
33 -3 33 -73 0 -70 17 -125 46 -149 10 -8 25 -7 63 7 47 16 53 17 101 1 29 -9
66 -17 82 -17 16 0 27 -4 23 -10 -9 -14 13 -50 30 -50 21 0 19 -20 -10 -82
-14 -31 -38 -62 -57 -76 -18 -12 -50 -33 -70 -47 -65 -43 -76 -90 -27 -107 43
-15 65 -66 47 -114 -9 -26 -9 -37 0 -46 18 -18 14 -47 -10 -79 -13 -16 -33
-41 -45 -57 -12 -16 -48 -43 -80 -60 -36 -19 -80 -56 -116 -97 l-58 -65 -82 0
c-73 0 -129 -14 -102 -26 44 -18 122 -65 129 -77 7 -11 4 -28 -8 -55 -10 -22
-15 -45 -11 -51 3 -6 -3 -26 -14 -44 -19 -31 -19 -35 -4 -50 20 -20 9 -36 -51
-76 -21 -14 -45 -30 -52 -36 -9 -6 -19 -4 -32 9 -19 17 -22 17 -65 -3 -56 -26
-179 -29 -234 -6 -50 21 -71 19 -109 -10 -27 -20 -38 -24 -53 -16 -28 16 -152
187 -185 257 -16 33 -68 64 -107 64 -27 0 -79 46 -79 70 0 8 14 21 31 27 29
11 31 15 25 45 -9 49 2 60 48 47 32 -9 41 -8 58 8 11 10 34 18 52 18 26 0 31
3 28 21 -3 25 45 50 78 41 31 -8 84 10 109 37 21 22 23 31 18 93 -11 126 -22
165 -55 193 -29 24 -31 30 -30 85 2 87 -10 142 -39 176 -22 26 -24 34 -14 55
17 39 14 58 -24 114 -19 29 -35 62 -35 75 0 28 -18 47 -59 65 -42 17 -39 27
10 42 36 10 48 9 88 -6 25 -10 64 -21 86 -23 40 -6 178 21 304 58 35 11 83 19
106 19 23 0 50 7 61 15 23 17 36 19 51 4z"/>
</g>
</svg>
