<?xml version="1.0" standalone="no"?>
<!DOCTYPE svg PUBLIC "-//W3C//DTD SVG 20010904//EN"
 "http://www.w3.org/TR/2001/REC-SVG-20010904/DTD/svg10.dtd">
<svg version="1.0" xmlns="http://www.w3.org/2000/svg"
 width="1920.000000pt" height="1080.000000pt" viewBox="0 0 1920.000000 1080.000000"
 preserveAspectRatio="xMidYMid meet">
<metadata>
Created by potrace 1.16, written by Peter Selinger 2001-2019
</metadata>
<g transform="translate(0.000000,1080.000000) scale(0.100000,-0.100000)"
fill="#000000" stroke="none">
<path d="M11930 4059 c-306 -14 -394 -30 -545 -98 -79 -36 -89 -50 -81 -108 6
-47 29 -83 51 -83 30 0 145 -42 178 -64 28 -19 52 -26 104 -28 66 -3 68 -4 71
-30 2 -19 -4 -34 -20 -49 -31 -29 -132 -87 -193 -111 -72 -28 -85 -43 -85 -96
0 -37 6 -50 34 -78 32 -32 38 -34 97 -34 35 1 82 7 104 15 46 16 91 8 140 -25
17 -12 44 -27 61 -34 19 -8 46 -36 68 -69 51 -77 116 -134 161 -143 63 -12
163 3 210 31 24 14 50 25 58 25 8 0 20 7 28 16 16 20 75 11 105 -17 15 -14 35
-19 76 -19 61 0 111 -14 147 -42 28 -21 159 -26 179 -6 17 17 15 88 -3 108
-28 31 -10 45 50 42 71 -5 85 7 85 68 0 46 -3 51 -52 94 -29 25 -56 46 -60 46
-5 0 -8 25 -8 54 0 51 -3 59 -50 115 -44 53 -58 63 -108 77 -114 31 -170 54
-228 90 -64 40 -137 120 -169 185 -16 34 -30 45 -75 64 -49 21 -55 26 -58 57
-2 18 -8 39 -14 45 -11 14 -12 14 -258 2z m210 -81 c0 -45 6 -51 72 -78 46
-19 59 -30 70 -57 23 -60 117 -158 193 -201 69 -39 107 -54 218 -86 48 -15 64
-25 97 -67 43 -55 50 -75 23 -64 -40 15 -74 17 -88 5 -21 -18 -8 -31 86 -87
80 -47 148 -107 136 -119 -4 -4 -24 -2 -46 4 -56 17 -70 15 -82 -12 -7 -14
-17 -22 -24 -20 -15 6 -45 -22 -45 -43 0 -8 19 -33 43 -54 l42 -38 -33 -1
c-19 0 -54 12 -79 27 -36 21 -62 27 -124 31 -44 3 -79 8 -79 13 0 15 -38 29
-111 39 -76 11 -94 5 -82 -28 5 -11 1 -13 -15 -7 -15 4 -32 -1 -51 -15 -16
-11 -55 -25 -86 -32 -83 -16 -117 3 -195 109 -43 60 -72 89 -97 100 -20 8 -48
23 -62 34 -15 11 -53 27 -84 35 -53 13 -60 13 -114 -6 -70 -25 -105 -25 -125
-2 -33 38 -31 42 29 68 67 29 209 111 221 128 17 21 32 125 22 150 -11 31 -67
50 -120 41 -34 -6 -47 -2 -84 22 -24 16 -75 38 -113 48 -119 31 -122 48 -15
92 161 68 265 86 567 96 44 2 92 4 108 5 24 2 27 -1 27 -30z"/>
<path d="M12158 3638 c-14 -20 -15 -20 -41 -4 -52 35 -63 -5 -16 -58 36 -42
31 -56 -21 -56 -51 0 -70 -8 -70 -31 0 -12 10 -21 26 -25 38 -10 155 2 198 20
37 15 49 46 19 46 -10 0 -26 12 -36 26 -15 20 -17 31 -9 53 17 48 -23 71 -50
29z"/>
</g>
</svg>
