<?xml version="1.0" standalone="no"?>
<!DOCTYPE svg PUBLIC "-//W3C//DTD SVG 20010904//EN"
 "http://www.w3.org/TR/2001/REC-SVG-20010904/DTD/svg10.dtd">
<svg version="1.0" xmlns="http://www.w3.org/2000/svg"
 width="1920.000000pt" height="1080.000000pt" viewBox="0 0 1920.000000 1080.000000"
 preserveAspectRatio="xMidYMid meet">
<metadata>
Created by potrace 1.16, written by Peter Selinger 2001-2019
</metadata>
<g transform="translate(0.000000,1080.000000) scale(0.100000,-0.100000)"
fill="#000000" stroke="none">
<path d="M13072 3768 c-7 -7 -12 -29 -12 -50 0 -35 -2 -38 -28 -38 -15 0 -33
-5 -40 -12 -24 -24 -12 -143 24 -233 7 -18 6 -18 -30 3 -49 29 -137 30 -183 2
-29 -17 -33 -25 -33 -64 0 -43 2 -46 57 -85 l58 -41 -36 0 c-51 0 -99 -51 -99
-106 0 -22 5 -45 12 -52 19 -19 -6 -14 -33 7 -16 12 -50 21 -104 26 -64 5 -85
11 -105 31 -20 18 -41 25 -98 30 -87 8 -102 0 -102 -62 0 -39 4 -46 50 -85 55
-46 62 -64 28 -75 -36 -10 -58 -35 -58 -64 0 -22 -6 -29 -27 -35 -43 -10 -53
-24 -53 -70 0 -39 5 -47 79 -121 l78 -79 -5 -62 c-4 -61 -3 -64 32 -103 36
-40 40 -53 36 -138 -2 -61 11 -72 84 -71 45 0 75 7 116 27 l55 27 3 56 c2 48
6 58 26 67 13 6 40 25 60 42 33 30 36 36 36 89 0 33 7 70 18 91 21 44 101 89
155 90 26 0 51 9 75 27 73 53 92 75 92 108 0 29 4 33 53 48 30 9 67 17 83 17
28 1 145 37 172 53 6 5 12 27 12 51 l0 42 53 -8 c179 -27 187 -25 187 52 0 44
-3 50 -45 85 -25 20 -54 54 -65 74 -10 21 -26 43 -34 50 -10 8 -16 29 -16 54
0 31 -8 50 -36 84 -51 62 -144 123 -188 123 -30 0 -39 6 -72 53 -20 28 -60 76
-88 105 -45 46 -55 52 -91 52 -23 0 -46 -5 -53 -12z m149 -154 c66 -91 82
-104 125 -104 35 0 124 -59 163 -109 23 -29 31 -49 31 -79 0 -24 6 -45 16 -53
8 -7 24 -29 34 -50 11 -20 41 -55 67 -77 50 -43 53 -59 9 -42 -15 5 -39 10
-53 10 -14 0 -56 10 -94 23 -52 17 -69 27 -74 45 -3 12 -10 22 -15 22 -10 0
-12 -10 -14 -55 -2 -21 -30 -32 -88 -34 -20 -1 -49 -6 -65 -12 -26 -10 -27
-11 -10 -24 11 -8 48 -17 83 -20 35 -4 69 -14 75 -21 6 -8 21 -14 33 -14 29
-1 -113 -49 -145 -50 -34 0 -120 -26 -143 -43 -13 -10 -19 -25 -18 -48 1 -30
-5 -38 -54 -71 -38 -26 -66 -38 -90 -38 -40 0 -120 -38 -150 -72 -29 -32 -44
-81 -44 -143 l0 -52 -60 -37 -60 -37 0 -55 c0 -43 -4 -56 -17 -60 -10 -3 -38
-14 -62 -25 -24 -11 -46 -17 -50 -14 -3 4 -6 21 -7 38 -2 109 -4 117 -38 155
-31 34 -34 42 -29 79 9 67 -3 105 -41 131 -19 13 -52 45 -75 72 l-41 49 40 11
c29 8 41 17 46 35 3 13 3 29 -1 34 -3 6 18 22 52 36 54 24 72 39 73 58 0 11
-129 137 -141 137 -5 0 -9 5 -9 10 0 18 72 0 98 -24 18 -16 42 -22 109 -27 63
-5 90 -11 99 -23 26 -36 176 -52 188 -20 7 19 -18 75 -45 100 -18 17 -18 17 7
41 24 22 29 23 62 12 21 -7 54 -21 75 -32 35 -18 40 -18 54 -5 10 11 13 23 8
38 -10 32 -80 106 -147 155 -56 42 -57 42 -32 54 14 6 31 11 39 11 18 0 99
-43 184 -99 102 -66 137 -50 67 31 -30 35 -49 73 -73 145 -18 54 -32 109 -33
122 0 20 4 22 24 17 34 -8 56 17 56 65 0 36 2 39 19 29 11 -5 48 -49 82 -96z"/>
</g>
</svg>
