<?xml version="1.0" standalone="no"?>
<!DOCTYPE svg PUBLIC "-//W3C//DTD SVG 20010904//EN"
 "http://www.w3.org/TR/2001/REC-SVG-20010904/DTD/svg10.dtd">
<svg version="1.0" xmlns="http://www.w3.org/2000/svg"
 width="1920.000000pt" height="1080.000000pt" viewBox="0 0 1920.000000 1080.000000"
 preserveAspectRatio="xMidYMid meet">
<metadata>
Created by potrace 1.16, written by Peter Selinger 2001-2019
</metadata>
<g transform="translate(0.000000,1080.000000) scale(0.100000,-0.100000)"
fill="#000000" stroke="none">
<path d="M13861 9554 c-12 -15 -21 -30 -21 -35 0 -5 -37 -26 -83 -49 -45 -22
-99 -55 -120 -74 -32 -29 -37 -40 -37 -77 -1 -67 -19 -84 -193 -172 -96 -49
-97 -51 -97 -118 0 -41 -4 -59 -12 -59 -16 1 -59 39 -74 66 -9 16 -23 19 -77
19 -46 1 -72 6 -84 17 -30 27 -93 48 -142 48 -68 0 -91 -27 -91 -105 0 -47 -5
-66 -25 -96 -27 -39 -76 -80 -137 -118 -21 -12 -41 -29 -45 -36 -5 -7 -27 -34
-51 -59 -39 -42 -47 -46 -91 -46 -58 0 -71 -12 -71 -67 0 -34 5 -46 24 -58 21
-14 23 -21 19 -63 -3 -26 -9 -51 -14 -56 -13 -15 -11 -90 3 -104 15 -15 120
-16 135 -1 6 6 30 15 54 19 38 7 47 4 102 -31 33 -21 67 -39 76 -39 9 0 29 -7
45 -15 57 -30 166 -12 197 33 11 14 28 21 66 23 l52 4 15 -40 c8 -22 18 -53
22 -68 10 -41 72 -83 143 -95 40 -7 67 -19 84 -36 15 -14 31 -26 38 -26 8 0 6
-7 -4 -18 -11 -12 -17 -36 -17 -70 0 -41 4 -54 23 -69 13 -10 29 -34 35 -53
14 -39 49 -80 69 -80 8 0 33 -10 56 -22 33 -17 65 -22 152 -26 89 -4 115 -8
138 -24 35 -25 149 -37 172 -18 8 7 15 26 15 42 0 18 8 36 22 47 13 11 23 34
27 62 6 44 6 44 51 49 36 4 47 10 57 31 7 15 32 49 56 75 24 27 58 75 75 106
28 51 32 67 32 132 0 72 1 75 27 88 15 7 30 24 34 38 12 41 10 115 -3 128 -20
20 -90 14 -128 -11 -33 -22 -43 -23 -147 -19 -82 3 -113 8 -113 17 0 7 -7 18
-15 25 -10 8 -15 30 -15 64 0 42 -5 57 -23 74 -20 19 -35 22 -111 22 -95 0
-132 12 -160 54 -9 14 -37 36 -62 49 l-45 23 54 17 c64 20 177 91 177 111 0
18 43 46 73 46 12 0 28 5 35 12 18 18 14 89 -8 133 -11 22 -20 46 -20 55 0 9
-5 21 -11 27 -7 7 6 17 44 32 62 25 104 65 116 107 7 26 12 30 62 35 30 3 74
17 99 31 41 22 45 28 48 67 2 23 -2 48 -7 55 -7 8 -51 15 -118 19 -86 6 -111
11 -128 27 -29 27 -99 50 -156 50 -39 0 -51 -4 -68 -26z m113 -46 c22 -6 51
-20 64 -31 24 -22 90 -35 187 -37 l60 -1 -45 -24 c-28 -15 -62 -24 -91 -25
-49 0 -62 -9 -74 -50 -12 -40 -35 -60 -110 -95 -78 -36 -112 -64 -121 -100 -9
-36 3 -47 42 -39 28 5 34 3 34 -10 0 -9 9 -34 20 -56 25 -48 25 -53 1 -45 -11
3 -25 -1 -34 -10 -9 -8 -23 -15 -32 -15 -8 0 -21 -12 -28 -27 -6 -16 -19 -34
-27 -41 -25 -22 -152 -80 -203 -93 -26 -6 -50 -15 -53 -20 -13 -22 47 -91 95
-107 18 -6 51 -30 72 -52 51 -52 73 -60 173 -60 50 0 87 -5 94 -12 7 -7 12
-35 12 -64 0 -34 5 -56 15 -64 8 -7 15 -18 15 -26 0 -23 36 -34 113 -34 40 0
99 -5 131 -11 56 -10 59 -9 104 20 25 16 48 29 50 27 11 -12 -13 -54 -36 -62
-37 -14 -60 -59 -44 -84 33 -53 -4 -149 -100 -261 -26 -31 -48 -62 -48 -68 0
-6 -15 -11 -32 -11 -18 0 -44 -6 -58 -13 -22 -11 -25 -18 -22 -55 4 -40 2 -44
-27 -55 -34 -12 -47 -35 -31 -51 16 -16 12 -36 -9 -36 -10 0 -39 11 -65 25
-40 21 -61 25 -134 25 -51 1 -102 7 -124 15 -21 8 -53 21 -72 28 -49 18 -65
35 -72 74 -4 20 -16 41 -30 50 -32 21 -30 33 11 73 19 19 35 42 35 51 0 20
-36 49 -62 49 -9 0 -28 11 -41 25 -16 18 -40 28 -81 35 -89 14 -119 38 -144
112 -11 35 -18 75 -15 90 4 23 1 29 -22 38 -37 14 -40 13 -74 -16 -29 -24 -31
-24 -37 -7 -9 25 -45 63 -59 63 -16 0 -35 -44 -35 -79 0 -31 -22 -55 -60 -64
-33 -8 -113 20 -185 66 -58 38 -62 39 -125 32 -36 -3 -78 -13 -94 -21 -46 -22
-60 -19 -40 11 9 14 13 33 9 44 -3 11 1 34 10 52 22 41 13 70 -27 94 l-33 20
52 3 c47 3 56 8 93 46 22 23 48 52 56 64 8 12 30 30 47 39 51 26 115 84 152
138 35 51 43 91 25 124 -7 14 -5 23 10 36 19 17 22 17 64 1 24 -9 56 -28 71
-41 29 -28 47 -30 95 -13 27 9 35 9 38 -2 3 -7 20 -28 38 -47 29 -29 40 -33
87 -33 78 0 92 14 84 83 l-7 56 72 36 c172 86 218 128 218 201 0 52 18 69 133
125 64 31 94 52 108 76 24 38 19 37 73 21z"/>
</g>
</svg>
