<?xml version="1.0" standalone="no"?>
<!DOCTYPE svg PUBLIC "-//W3C//DTD SVG 20010904//EN"
 "http://www.w3.org/TR/2001/REC-SVG-20010904/DTD/svg10.dtd">
<svg version="1.0" xmlns="http://www.w3.org/2000/svg"
 width="1920.000000pt" height="1080.000000pt" viewBox="0 0 1920.000000 1080.000000"
 preserveAspectRatio="xMidYMid meet">
<metadata>
Created by potrace 1.16, written by Peter Selinger 2001-2019
</metadata>
<g transform="translate(0.000000,1080.000000) scale(0.100000,-0.100000)"
fill="#000000" stroke="none">
<path d="M14520 7701 c-8 -5 -31 -11 -51 -15 -21 -4 -42 -13 -49 -21 -9 -11
-17 -12 -30 -5 -10 6 -41 10 -69 10 -45 0 -58 -5 -111 -47 -33 -25 -60 -53
-60 -62 0 -9 -14 -34 -30 -55 -25 -33 -30 -49 -30 -96 0 -44 -4 -61 -20 -75
-13 -12 -20 -31 -20 -56 l0 -38 -47 -3 -48 -3 -37 -69 c-49 -90 -50 -128 -4
-176 58 -59 56 -77 -10 -132 -31 -27 -62 -48 -69 -48 -17 0 -45 -33 -45 -53 0
-28 -37 -57 -73 -57 -44 0 -72 -22 -107 -84 -17 -29 -40 -62 -53 -74 l-22 -21
-39 22 c-22 12 -43 30 -48 40 -4 9 -12 25 -17 35 -7 14 -24 17 -105 20 -107 3
-118 -1 -213 -92 -40 -37 -43 -44 -43 -94 0 -48 3 -55 28 -69 27 -15 28 -19
24 -71 -4 -52 -3 -55 37 -95 22 -23 52 -55 65 -72 l24 -30 176 -3 c112 -2 222
2 305 12 116 13 139 19 212 55 45 23 94 41 109 41 15 0 32 6 38 13 5 6 12 61
14 120 5 106 5 108 38 142 18 18 46 39 62 46 25 10 32 9 52 -10 16 -15 35 -21
67 -21 42 0 49 4 105 63 79 80 94 104 94 145 0 24 7 40 23 52 16 13 28 38 36
77 16 71 61 159 112 216 l37 43 67 -4 67 -4 59 58 c53 52 59 63 59 100 0 26
-6 46 -17 56 -29 25 -80 48 -108 48 -27 0 -33 8 -37 49 -2 19 3 26 21 31 51
12 105 169 69 198 -7 5 -47 12 -88 14 -56 4 -88 12 -125 31 -51 28 -141 37
-175 18z m143 -78 c39 -21 70 -29 124 -31 l71 -4 -21 -43 c-15 -28 -32 -46
-53 -54 -45 -16 -63 -62 -41 -105 9 -17 17 -40 19 -50 2 -14 16 -23 48 -31 66
-17 110 -42 104 -60 -8 -21 -90 -85 -109 -85 -14 0 -14 4 4 29 25 34 26 50 6
57 -33 13 -180 -122 -235 -217 -22 -36 -47 -96 -56 -133 -15 -61 -20 -69 -53
-84 -41 -19 -50 -45 -26 -72 15 -16 14 -20 -7 -51 -31 -45 -108 -119 -124
-119 -7 0 -19 8 -26 18 -7 10 -26 27 -41 37 -28 18 -28 18 -75 -15 -26 -18
-59 -45 -74 -58 -16 -14 -28 -22 -28 -16 0 5 -5 1 -11 -9 -6 -10 -13 -70 -16
-133 l-6 -114 -26 0 c-14 0 -64 -19 -110 -42 -102 -49 -147 -56 -408 -64
l-192 -6 -23 25 c-13 14 -40 43 -61 66 -32 34 -36 43 -28 60 18 32 13 66 -14
95 -13 14 -29 26 -35 26 -33 0 22 67 97 118 37 26 149 33 140 9 -7 -17 0 -26
43 -58 48 -36 95 -59 120 -59 21 0 110 75 110 92 0 5 14 29 30 54 25 35 37 44
60 44 16 0 45 8 65 17 27 13 36 24 41 51 5 24 14 36 33 43 14 6 40 23 56 38
17 15 45 38 63 50 31 22 32 24 26 74 -8 61 -23 93 -57 125 l-25 24 31 59 c23
42 36 57 47 53 38 -15 50 -14 69 5 14 14 21 34 21 59 0 26 7 45 19 56 25 23
35 65 22 98 -8 21 -4 33 25 73 19 27 34 53 35 59 0 15 95 86 113 86 25 0 46
-12 46 -25 0 -33 40 -25 86 17 20 18 96 44 137 47 9 0 41 -11 70 -26z"/>
</g>
</svg>
