<?xml version="1.0" standalone="no"?>
<!DOCTYPE svg PUBLIC "-//W3C//DTD SVG 20010904//EN"
 "http://www.w3.org/TR/2001/REC-SVG-20010904/DTD/svg10.dtd">
<svg version="1.0" xmlns="http://www.w3.org/2000/svg"
 width="1920.000000pt" height="1080.000000pt" viewBox="0 0 1920.000000 1080.000000"
 preserveAspectRatio="xMidYMid meet">
<metadata>
Created by potrace 1.16, written by Peter Selinger 2001-2019
</metadata>
<g transform="translate(0.000000,1080.000000) scale(0.100000,-0.100000)"
fill="#000000" stroke="none">
<path d="M14862 7229 c-40 -39 -56 -49 -65 -40 -6 6 -32 11 -58 11 -45 0 -50
-3 -97 -56 -63 -70 -106 -150 -128 -237 -13 -52 -23 -72 -45 -88 -24 -17 -29
-27 -29 -63 0 -45 -25 -89 -73 -127 -15 -11 -27 -30 -27 -42 0 -19 -4 -17 -38
16 -51 50 -91 50 -167 1 -82 -52 -95 -79 -95 -196 0 -109 -9 -128 -64 -128
-18 0 -62 -15 -97 -33 -74 -39 -126 -54 -222 -62 -57 -6 -75 -12 -105 -38 -78
-66 -152 -142 -152 -158 0 -9 -32 -50 -71 -90 -38 -41 -91 -105 -117 -142 -43
-63 -47 -74 -47 -130 0 -56 2 -61 30 -78 19 -11 52 -18 90 -18 56 -1 63 2 88
30 23 26 31 30 59 24 18 -4 58 -22 90 -41 31 -19 60 -34 65 -34 5 0 24 -11 43
-25 30 -22 44 -25 124 -25 70 0 87 -3 78 -12 -17 -17 -15 -79 4 -106 11 -17
25 -22 57 -22 23 0 49 5 57 10 10 6 21 3 37 -12 31 -29 122 -37 154 -14 31 21
37 20 41 -5 2 -12 10 -27 19 -32 29 -18 428 19 519 48 10 3 31 20 46 38 25 30
30 32 86 29 73 -5 88 6 88 64 0 36 -6 51 -35 83 -21 23 -32 42 -25 46 6 3 10
45 10 98 0 77 -5 104 -28 165 -15 41 -41 90 -58 110 -16 20 -32 53 -36 72 -18
97 -31 126 -85 181 l-54 55 27 40 c36 55 51 64 103 64 25 0 89 12 141 26 52
14 105 28 116 31 12 3 49 27 83 54 59 49 61 51 61 98 0 54 -23 92 -71 117
l-30 15 29 37 c27 33 31 48 37 134 5 63 12 102 21 109 8 6 14 29 14 50 0 32 5
40 28 51 23 11 27 20 30 64 2 33 -2 55 -10 61 -29 24 -167 66 -228 69 l-65 5
-53 -52z m174 -30 c27 -11 64 -23 83 -27 34 -7 56 -32 29 -32 -8 0 -35 -13
-61 -30 -58 -37 -65 -70 -15 -70 l32 0 -32 -29 c-35 -32 -40 -52 -18 -70 11
-9 13 -27 9 -69 -4 -45 -13 -67 -42 -105 -19 -26 -46 -54 -58 -63 -13 -8 -23
-23 -23 -34 0 -16 7 -20 33 -20 36 0 104 -36 121 -63 9 -15 4 -23 -29 -52 -77
-65 -167 -96 -336 -115 -36 -4 -71 -10 -77 -14 -23 -14 -72 -95 -83 -138 l-12
-44 60 -57 c45 -43 63 -68 68 -95 4 -20 12 -46 18 -57 6 -11 10 -32 8 -47 -2
-20 6 -35 28 -56 41 -37 91 -166 91 -234 0 -39 -6 -59 -25 -84 -14 -18 -25
-36 -25 -40 0 -4 23 -29 52 -56 28 -26 49 -50 46 -54 -3 -3 -29 3 -57 13 -57
20 -84 12 -89 -24 -6 -40 -44 -62 -127 -74 -44 -6 -107 -17 -140 -24 -33 -7
-91 -14 -128 -14 -37 -1 -73 -2 -80 -4 -7 -1 -12 9 -12 25 0 42 -13 49 -79 38
-32 -5 -64 -14 -71 -20 -20 -16 -61 -2 -74 26 -13 28 -35 30 -91 8 -23 -9 -43
-14 -46 -11 -3 2 6 22 21 42 27 41 28 45 17 61 -16 24 -55 34 -135 34 -69 0
-89 4 -110 20 -14 11 -29 20 -33 20 -4 0 -37 18 -73 39 -86 51 -157 69 -200
51 -18 -7 -40 -23 -50 -36 -21 -27 -36 -29 -74 -11 -30 14 -29 27 9 93 34 58
143 181 182 205 27 15 33 25 28 42 -6 25 28 66 110 134 45 36 58 42 120 48 96
9 139 21 214 59 36 18 84 36 108 39 68 8 72 16 72 128 0 117 16 152 90 198
l48 29 38 -39 c21 -21 46 -42 56 -45 25 -8 66 20 74 51 3 13 16 31 28 39 37
24 89 112 83 142 -3 18 3 32 23 52 17 17 32 48 40 82 17 73 70 174 123 235
l43 49 21 -21 c32 -32 73 -19 140 43 32 29 66 53 75 54 9 0 38 -9 64 -21z"/>
</g>
</svg>
