<?xml version="1.0" standalone="no"?>
<!DOCTYPE svg PUBLIC "-//W3C//DTD SVG 20010904//EN"
 "http://www.w3.org/TR/2001/REC-SVG-20010904/DTD/svg10.dtd">
<svg version="1.0" xmlns="http://www.w3.org/2000/svg"
 width="1920.000000pt" height="1080.000000pt" viewBox="0 0 1920.000000 1080.000000"
 preserveAspectRatio="xMidYMid meet">
<metadata>
Created by potrace 1.16, written by Peter Selinger 2001-2019
</metadata>
<g transform="translate(0.000000,1080.000000) scale(0.100000,-0.100000)"
fill="#000000" stroke="none">
<path d="M14243 4618 c-5 -7 -15 -31 -22 -53 -35 -102 -111 -161 -256 -196
-121 -29 -133 -38 -137 -95 -3 -46 -4 -47 -48 -60 -25 -8 -72 -14 -106 -14
-83 0 -98 -16 -92 -104 4 -63 3 -64 -27 -78 -30 -13 -30 -14 -33 -99 l-3 -86
-52 -7 c-29 -3 -82 -6 -118 -6 -87 0 -119 -22 -119 -82 0 -33 7 -49 38 -83 43
-48 74 -100 82 -135 3 -17 27 -40 71 -70 83 -56 119 -104 119 -158 0 -24 6
-45 16 -53 8 -7 24 -30 35 -51 11 -21 42 -55 70 -75 29 -22 52 -48 55 -63 10
-45 13 -49 53 -70 56 -28 137 -26 226 5 77 27 118 69 131 135 8 42 21 60 44
60 9 0 33 18 54 40 20 22 42 40 47 40 6 0 22 9 36 19 20 16 34 19 74 14 28 -3
59 -1 72 5 20 10 41 15 122 28 160 25 156 24 275 103 l115 78 3 44 c3 44 1 46
-60 100 -34 30 -79 62 -99 71 -24 10 -48 33 -65 60 -41 66 -65 88 -95 88 -15
0 -35 3 -44 6 -14 6 -13 8 7 18 18 9 24 21 26 59 l3 47 68 0 c58 0 71 3 89 23
25 26 31 104 10 125 -9 9 7 12 73 12 53 0 90 5 97 12 7 7 12 31 12 54 0 36 -5
47 -40 78 -22 20 -45 36 -50 36 -6 0 -63 50 -127 110 -65 61 -140 124 -168
139 -47 27 -60 29 -201 35 -117 5 -153 3 -161 -6z m323 -89 c28 -15 97 -72
155 -126 57 -54 128 -114 156 -133 29 -19 53 -40 53 -46 0 -11 -108 -3 -128
10 -12 7 -167 36 -195 36 -15 0 -18 -7 -15 -42 3 -43 4 -43 83 -84 43 -23 81
-46 82 -51 2 -6 -3 -16 -12 -23 -13 -11 -36 -11 -118 -3 -104 11 -116 8 -117
-25 0 -8 16 -30 35 -49 20 -20 34 -36 33 -37 -2 0 -13 -6 -24 -13 -17 -9 -34
-7 -89 13 -71 26 -105 24 -105 -4 1 -31 191 -142 245 -142 39 0 48 -7 73 -55
25 -49 56 -79 102 -99 19 -8 57 -34 83 -58 l49 -43 -111 -72 c-99 -66 -117
-74 -183 -84 -40 -6 -88 -15 -106 -20 -17 -6 -40 -8 -50 -5 -10 4 -27 0 -37
-8 -16 -12 -22 -12 -40 0 -17 11 -27 11 -65 -2 -25 -9 -52 -21 -60 -28 -8 -7
-27 -17 -43 -24 -15 -6 -32 -23 -37 -36 -5 -15 -22 -28 -43 -35 -43 -15 -62
-36 -71 -81 -7 -39 -45 -100 -62 -100 -7 0 -31 -9 -55 -20 -82 -37 -162 -16
-174 47 -4 23 -19 42 -56 68 -27 21 -57 51 -65 69 -9 17 -25 40 -35 52 -11 11
-19 29 -18 40 5 45 -4 65 -46 112 -25 27 -67 64 -95 82 -36 23 -50 39 -50 54
0 13 -9 31 -20 41 -11 10 -20 24 -20 32 0 7 -18 33 -41 58 -38 41 -39 44 -20
54 11 6 44 11 73 11 29 0 91 3 136 7 93 7 104 15 83 67 -7 17 -14 52 -15 78
-2 41 1 48 21 53 41 10 55 45 42 104 -8 39 -8 55 1 66 7 8 17 12 22 9 18 -11
84 -6 142 11 65 19 89 47 84 96 l-3 31 100 25 c54 13 118 34 140 48 59 34 121
105 141 162 l17 48 111 -3 c100 -4 116 -7 162 -33z"/>
</g>
</svg>
