<?xml version="1.0" standalone="no"?>
<!DOCTYPE svg PUBLIC "-//W3C//DTD SVG 20010904//EN"
 "http://www.w3.org/TR/2001/REC-SVG-20010904/DTD/svg10.dtd">
<svg version="1.0" xmlns="http://www.w3.org/2000/svg"
 width="1920.000000pt" height="1080.000000pt" viewBox="0 0 1920.000000 1080.000000"
 preserveAspectRatio="xMidYMid meet">
<metadata>
Created by potrace 1.16, written by Peter Selinger 2001-2019
</metadata>
<g transform="translate(0.000000,1080.000000) scale(0.100000,-0.100000)"
fill="#000000" stroke="none">
<path d="M15303 7272 c-21 -26 -44 -43 -65 -47 -18 -4 -44 -15 -58 -25 -14 -9
-44 -29 -67 -44 -39 -23 -43 -30 -43 -65 0 -23 -6 -44 -16 -52 -14 -11 -15
-27 -9 -106 l7 -93 -37 -51 c-31 -44 -36 -57 -33 -97 3 -43 6 -48 46 -70 23
-13 42 -30 42 -37 0 -27 -129 -105 -173 -105 -12 0 -44 -7 -71 -15 -27 -8 -71
-15 -98 -15 -67 0 -81 -10 -123 -84 -28 -50 -35 -74 -35 -116 0 -51 2 -55 60
-112 45 -45 60 -67 60 -88 0 -15 7 -33 15 -40 8 -7 15 -27 15 -44 0 -18 5 -37
12 -44 25 -25 100 -13 201 30 93 40 100 41 135 28 20 -7 66 -35 102 -62 l65
-49 75 4 c81 4 151 31 170 66 13 26 36 32 128 36 169 7 214 15 262 50 66 47
97 61 175 75 39 8 78 20 88 28 23 20 24 104 1 123 -9 7 -53 15 -99 18 -66 5
-90 11 -115 30 -29 21 -40 23 -99 18 -36 -4 -79 -9 -96 -13 -29 -7 -30 -6 -12
13 20 23 23 93 5 111 -7 7 -22 12 -35 12 -19 0 -16 6 26 45 l48 45 90 0 c56 0
93 4 101 12 7 7 12 33 12 58 0 48 -13 70 -41 70 -9 0 -22 6 -28 14 -6 7 -36
16 -67 20 -31 3 -65 11 -76 17 -20 11 -20 11 3 35 18 19 33 24 72 24 33 0 58
7 78 21 25 18 29 27 29 69 0 56 -16 73 -84 85 -49 8 -120 44 -165 83 -32 27
-35 33 -32 80 2 42 -1 53 -18 64 -16 10 -21 23 -21 54 0 61 -13 68 -154 72
l-121 4 -32 -40z m216 -28 c28 -6 31 -10 31 -45 0 -24 7 -46 18 -56 17 -17 17
-19 -2 -34 -31 -25 -14 -61 56 -117 78 -61 112 -79 180 -93 99 -21 92 -50 -14
-53 -33 -1 -53 -7 -70 -24 -14 -12 -33 -22 -44 -22 -46 0 -64 -12 -64 -41 0
-19 6 -32 18 -36 9 -3 33 -21 53 -39 29 -25 49 -33 97 -39 38 -4 63 -12 66
-21 3 -8 17 -14 31 -14 14 0 25 -4 25 -9 0 -5 -43 -11 -95 -13 -92 -3 -95 -4
-132 -38 -79 -74 -79 -74 -113 -60 -56 23 -101 -17 -67 -60 14 -18 71 -43 101
-45 67 -4 77 -6 71 -15 -3 -5 -36 -19 -72 -30 -107 -33 -116 -49 -47 -80 53
-23 184 -28 259 -9 39 10 47 9 74 -10 22 -16 52 -23 118 -29 66 -5 88 -11 88
-21 0 -10 -26 -20 -83 -33 -83 -18 -154 -51 -186 -87 -13 -15 -26 -18 -56 -14
-25 4 -55 -1 -81 -11 -32 -13 -57 -15 -109 -10 -74 7 -117 -8 -145 -50 -19
-28 -48 -42 -107 -51 -41 -6 -48 -4 -97 35 -61 48 -145 90 -182 90 -24 0 -86
-22 -192 -69 -62 -27 -71 -27 -63 3 4 16 -1 32 -14 49 -11 14 -20 36 -20 49 0
17 -19 44 -60 84 -33 33 -59 68 -59 79 0 11 15 45 33 75 l32 55 65 6 c151 13
265 51 334 111 38 32 64 102 48 126 -9 15 -70 55 -97 65 -5 2 10 31 34 64 35
50 42 67 38 94 -3 19 -1 46 5 62 7 22 6 32 -8 47 -17 18 -16 20 14 46 34 29
39 51 15 69 -14 10 -9 16 39 43 30 17 58 36 62 42 3 5 19 10 34 10 21 0 38 11
62 39 32 37 38 39 90 40 31 1 71 -2 88 -5z"/>
</g>
</svg>
