<?xml version="1.0" standalone="no"?>
<!DOCTYPE svg PUBLIC "-//W3C//DTD SVG 20010904//EN"
 "http://www.w3.org/TR/2001/REC-SVG-20010904/DTD/svg10.dtd">
<svg version="1.0" xmlns="http://www.w3.org/2000/svg"
 width="1920.000000pt" height="1080.000000pt" viewBox="0 0 1920.000000 1080.000000"
 preserveAspectRatio="xMidYMid meet">
<metadata>
Created by potrace 1.16, written by Peter Selinger 2001-2019
</metadata>
<g transform="translate(0.000000,1080.000000) scale(0.100000,-0.100000)"
fill="#000000" stroke="none">
<path d="M2120 6290 c-17 -24 -25 -28 -40 -20 -24 13 -86 13 -111 0 -13 -8
-25 -7 -40 1 -37 20 -81 2 -151 -61 -38 -34 -69 -56 -73 -50 -4 6 -10 8 -15 5
-5 -3 -14 4 -20 15 -7 14 -19 20 -33 18 -33 -5 -33 -45 -1 -125 23 -55 27 -81
25 -138 -2 -61 1 -74 18 -89 23 -21 27 -59 11 -102 -28 -73 -42 -186 -35 -277
3 -52 10 -98 13 -103 4 -6 34 -25 66 -44 33 -18 68 -42 78 -52 10 -10 23 -18
29 -18 6 0 -3 -12 -20 -26 -28 -23 -31 -31 -31 -84 0 -49 4 -62 23 -77 20 -17
22 -26 20 -113 -2 -108 24 -205 58 -215 22 -7 76 9 129 36 19 11 40 19 47 19
32 0 127 109 136 156 2 10 7 27 11 36 4 9 9 22 10 30 2 7 6 20 9 28 5 14 13
77 20 159 3 44 -38 91 -80 91 -30 0 -41 12 -62 70 -8 25 -8 25 30 22 54 -6 86
4 92 28 3 13 13 20 31 20 23 0 25 -4 28 -47 3 -44 5 -49 36 -58 17 -5 32 -12
32 -16 0 -16 33 -39 54 -39 12 0 33 11 46 25 13 14 31 25 40 25 25 0 60 43 60
72 0 28 6 32 75 44 95 17 145 85 130 178 -10 60 -18 70 -71 81 -55 11 -61 24
-63 113 -1 40 4 61 19 79 33 43 27 110 -19 201 -53 104 -93 128 -163 98 -18
-8 -53 -20 -78 -27 -54 -15 -100 -45 -100 -65 0 -8 -3 -14 -7 -14 -14 1 -57
81 -59 108 0 15 -2 40 -2 55 -2 30 -42 77 -66 77 -8 0 -24 -13 -36 -30z"/>
</g>
</svg>
