<?xml version="1.0" standalone="no"?>
<!DOCTYPE svg PUBLIC "-//W3C//DTD SVG 20010904//EN"
 "http://www.w3.org/TR/2001/REC-SVG-20010904/DTD/svg10.dtd">
<svg version="1.0" xmlns="http://www.w3.org/2000/svg"
 width="1920.000000pt" height="1080.000000pt" viewBox="0 0 1920.000000 1080.000000"
 preserveAspectRatio="xMidYMid meet">
<metadata>
Created by potrace 1.16, written by Peter Selinger 2001-2019
</metadata>
<g transform="translate(0.000000,1080.000000) scale(0.100000,-0.100000)"
fill="#000000" stroke="none">
<path d="M2553 7057 c-5 -6 -15 -34 -21 -62 -7 -27 -24 -73 -37 -101 -33 -68
-33 -116 -1 -134 14 -7 32 -10 40 -7 9 4 16 3 16 -2 0 -16 -32 -86 -51 -110
-15 -19 -19 -40 -19 -106 0 -88 -4 -95 -54 -95 -13 0 -35 -9 -49 -20 -14 -11
-31 -20 -39 -20 -7 -1 -31 -9 -53 -20 -22 -11 -53 -19 -68 -20 -63 0 -85 -40
-51 -88 9 -13 18 -51 21 -85 4 -39 12 -69 23 -82 10 -11 20 -29 22 -40 2 -15
12 -21 40 -23 32 -3 39 1 52 26 15 28 76 62 112 62 8 0 29 7 46 16 44 23 69 6
113 -76 43 -84 47 -135 10 -152 -27 -12 -29 -17 -19 -43 14 -35 117 -70 233
-79 100 -8 123 4 114 58 -7 47 31 103 77 112 56 11 105 40 144 85 20 24 36 46
36 51 0 11 67 38 94 38 32 0 69 38 62 63 -3 12 4 41 14 65 22 50 25 84 10 113
-15 27 -87 59 -134 59 -26 1 -50 8 -65 21 l-24 20 22 22 c16 18 21 36 21 80 0
68 -13 98 -50 120 -37 22 -53 21 -75 -3 -10 -11 -24 -20 -31 -20 -10 0 -7 18
12 68 40 105 41 116 5 173 -17 28 -31 56 -31 63 0 41 -92 70 -134 42 -39 -25
-118 -21 -153 8 -34 28 -164 45 -180 23z"/>
</g>
</svg>
