<?xml version="1.0" standalone="no"?>
<!DOCTYPE svg PUBLIC "-//W3C//DTD SVG 20010904//EN"
 "http://www.w3.org/TR/2001/REC-SVG-20010904/DTD/svg10.dtd">
<svg version="1.0" xmlns="http://www.w3.org/2000/svg"
 width="1920.000000pt" height="1080.000000pt" viewBox="0 0 1920.000000 1080.000000"
 preserveAspectRatio="xMidYMid meet">
<metadata>
Created by potrace 1.16, written by Peter Selinger 2001-2019
</metadata>
<g transform="translate(0.000000,1080.000000) scale(0.100000,-0.100000)"
fill="#000000" stroke="none">
<path d="M3620 6199 c-25 -11 -52 -27 -62 -36 -12 -11 -28 -14 -55 -10 -52 8
-141 31 -178 46 -26 11 -32 10 -46 -8 -10 -12 -27 -21 -39 -21 -37 0 -76 -28
-113 -79 -36 -49 -86 -80 -155 -96 -38 -8 -70 -58 -79 -121 l-6 -44 -68 0
c-38 0 -77 4 -87 9 -49 25 -95 41 -117 41 -24 0 -25 -2 -24 -67 0 -38 6 -84
13 -103 11 -31 19 -36 60 -45 26 -6 51 -17 56 -25 16 -25 11 -86 -9 -111 -24
-31 -17 -49 20 -49 23 0 29 -5 29 -21 0 -31 18 -59 39 -59 10 0 34 -7 53 -15
20 -8 65 -17 100 -21 58 -6 67 -4 79 14 15 20 15 20 38 -4 45 -47 97 -44 107
6 6 30 24 33 24 3 0 -8 7 -39 16 -69 21 -72 67 -104 149 -104 46 0 64 5 101
30 24 17 44 35 44 40 0 6 8 10 19 10 10 0 24 6 30 13 7 10 27 12 65 9 48 -4
59 -1 100 27 25 18 47 37 47 44 3 27 -3 53 -17 74 -8 12 -14 38 -14 57 0 29 5
38 30 51 65 34 76 118 29 245 -26 71 -59 102 -103 98 -46 -4 -44 22 3 57 43
32 61 62 61 99 0 15 7 26 20 29 48 12 30 76 -32 109 -41 23 -71 22 -128 -3z"/>
</g>
</svg>
