<?xml version="1.0" standalone="no"?>
<!DOCTYPE svg PUBLIC "-//W3C//DTD SVG 20010904//EN"
 "http://www.w3.org/TR/2001/REC-SVG-20010904/DTD/svg10.dtd">
<svg version="1.0" xmlns="http://www.w3.org/2000/svg"
 width="1920.000000pt" height="1080.000000pt" viewBox="0 0 1920.000000 1080.000000"
 preserveAspectRatio="xMidYMid meet">
<metadata>
Created by potrace 1.16, written by Peter Selinger 2001-2019
</metadata>
<g transform="translate(0.000000,1080.000000) scale(0.100000,-0.100000)"
fill="#000000" stroke="none">
<path d="M2784 5439 c-4 -7 -17 -39 -29 -73 -22 -60 -23 -61 -59 -59 -33 2
-38 -1 -56 -38 -23 -44 -71 -79 -110 -79 -14 0 -33 -7 -43 -14 -24 -19 -49
-109 -42 -150 5 -24 2 -42 -10 -59 -10 -16 -14 -34 -10 -47 8 -24 -16 -28 -35
-5 -13 16 -86 21 -108 7 -17 -11 -32 -67 -32 -119 0 -34 5 -46 25 -59 23 -15
24 -20 18 -82 -4 -47 -12 -74 -26 -89 -18 -20 -19 -26 -8 -47 12 -21 10 -28
-9 -54 -12 -17 -30 -32 -40 -35 -10 -3 -26 -17 -36 -32 -17 -26 -17 -29 -1
-57 19 -33 22 -52 7 -43 -16 10 -107 -45 -119 -71 -21 -47 -14 -74 24 -90 58
-24 116 -28 174 -10 78 23 170 30 206 16 17 -6 73 -14 125 -17 87 -5 97 -3
123 17 20 15 27 30 27 54 l0 33 71 5 c39 3 76 11 82 17 6 6 18 11 27 11 24 0
52 36 89 112 18 37 39 73 47 79 9 7 40 11 77 10 50 -2 68 2 89 18 14 12 31 21
36 21 6 0 17 6 24 13 7 7 28 23 45 35 21 15 37 38 44 63 11 36 10 41 -11 64
-25 27 -53 31 -97 14 -15 -6 -37 -12 -48 -14 -11 -1 -38 -8 -60 -14 -22 -7
-58 -11 -80 -9 -37 3 -40 6 -43 34 l-3 31 67 -9 c58 -6 71 -5 87 10 26 23 47
66 47 95 0 13 12 46 26 73 18 34 26 66 27 106 2 68 -16 93 -73 103 -53 9 -63
19 -110 109 -31 60 -40 86 -35 107 13 60 -39 145 -72 117 -7 -6 -13 -17 -13
-24 0 -9 -11 -14 -27 -14 -33 0 -123 31 -123 42 0 12 -38 10 -46 -3z"/>
</g>
</svg>
