<?xml version="1.0" standalone="no"?>
<!DOCTYPE svg PUBLIC "-//W3C//DTD SVG 20010904//EN"
 "http://www.w3.org/TR/2001/REC-SVG-20010904/DTD/svg10.dtd">
<svg version="1.0" xmlns="http://www.w3.org/2000/svg"
 width="1920.000000pt" height="1080.000000pt" viewBox="0 0 1920.000000 1080.000000"
 preserveAspectRatio="xMidYMid meet">
<metadata>
Created by potrace 1.16, written by Peter Selinger 2001-2019
</metadata>
<g transform="translate(0.000000,1080.000000) scale(0.100000,-0.100000)"
fill="#000000" stroke="none">
<path d="M4390 7410 c-36 -4 -89 -14 -119 -23 -30 -10 -64 -17 -76 -17 -27 0
-64 -38 -74 -76 -5 -19 -20 -35 -47 -49 -32 -16 -40 -26 -42 -53 -4 -37 -22
-44 -22 -8 0 27 -19 85 -28 88 -4 0 -18 2 -32 3 -14 2 -60 6 -102 10 -69 7
-83 5 -142 -18 -51 -21 -75 -25 -113 -20 -35 4 -58 1 -81 -11 -41 -21 -81 -65
-88 -96 -3 -14 -15 -48 -27 -77 -19 -45 -27 -53 -62 -63 -51 -15 -65 -27 -65
-54 0 -12 -6 -30 -12 -38 -12 -15 -17 -15 -53 -3 -22 8 -54 15 -72 15 -24 0
-36 7 -49 28 -35 60 -129 83 -129 32 0 -18 6 -26 22 -28 32 -5 66 -56 60 -90
-2 -15 -17 -62 -33 -105 -32 -90 -28 -110 28 -115 24 -2 39 3 53 18 l18 20 24
-22 c31 -29 33 -105 3 -131 -50 -43 -1 -117 78 -117 44 0 120 -33 129 -56 3
-9 -2 -31 -11 -50 -9 -19 -16 -59 -16 -89 0 -51 2 -55 28 -61 15 -3 47 -12 71
-20 49 -15 181 -19 181 -5 0 12 84 51 109 51 11 0 33 -11 48 -25 l28 -25 -34
16 c-28 14 -35 14 -42 3 -20 -31 -16 -37 81 -119 70 -60 69 -60 113 -60 47 0
97 44 97 84 0 15 8 30 19 36 28 14 61 72 69 122 l7 43 54 5 c49 5 56 10 109
67 31 34 73 69 93 77 20 8 56 31 79 52 l42 38 -6 58 c-6 47 -3 67 14 105 11
26 28 55 36 64 13 14 13 21 3 41 -18 35 -29 39 -95 32 l-61 -6 -6 30 c-4 17
-2 44 3 59 9 26 14 28 53 25 60 -5 78 18 82 100 1 35 6 78 10 95 5 23 3 40 -9
57 -27 42 -12 56 57 56 46 0 69 5 92 21 43 30 78 86 71 113 -13 53 -163 84
-316 66z"/>
</g>
</svg>
