<?xml version="1.0" standalone="no"?>
<!DOCTYPE svg PUBLIC "-//W3C//DTD SVG 20010904//EN"
 "http://www.w3.org/TR/2001/REC-SVG-20010904/DTD/svg10.dtd">
<svg version="1.0" xmlns="http://www.w3.org/2000/svg"
 width="1920.000000pt" height="1080.000000pt" viewBox="0 0 1920.000000 1080.000000"
 preserveAspectRatio="xMidYMid meet">
<metadata>
Created by potrace 1.16, written by Peter Selinger 2001-2019
</metadata>
<g transform="translate(0.000000,1080.000000) scale(0.100000,-0.100000)"
fill="#000000" stroke="none">
<path d="M3967 6153 c-3 -5 -8 -30 -12 -58 -14 -97 -59 -110 -141 -40 -60 51
-94 59 -94 20 0 -27 -51 -91 -81 -100 -14 -5 -19 -16 -19 -44 0 -47 14 -61 60
-61 23 0 43 -7 52 -17 17 -21 58 -140 58 -171 0 -36 -22 -71 -57 -92 -30 -18
-33 -23 -33 -69 0 -28 8 -66 17 -86 16 -34 16 -36 -3 -50 -41 -33 -76 -47 -87
-36 -6 6 -22 11 -35 11 -22 0 -23 -4 -21 -44 3 -39 -1 -48 -29 -74 -27 -25
-32 -37 -32 -75 0 -25 4 -48 8 -51 4 -2 59 -6 122 -8 l115 -3 74 38 c54 27 86
37 121 37 37 0 53 6 80 30 40 36 47 36 108 8 26 -12 71 -23 100 -26 29 -2 52
-9 52 -16 0 -13 -16 -39 -21 -35 -11 8 -70 -23 -83 -44 -35 -53 4 -151 70
-177 16 -6 23 -20 26 -52 10 -74 24 -97 75 -121 34 -15 69 -22 118 -22 125 -2
122 -1 129 -39 8 -40 19 -46 91 -46 42 0 60 5 82 24 l27 24 44 -19 c24 -11 55
-19 68 -19 22 0 24 4 24 54 l0 55 38 3 37 3 -4 125 c-3 127 -7 142 -55 226
-16 28 -25 62 -28 108 l-4 67 41 19 c34 15 47 17 81 8 33 -9 49 -8 80 4 34 14
39 20 38 47 -3 176 -4 188 -25 212 -11 13 -23 37 -26 52 -4 19 -19 37 -44 53
-21 13 -54 40 -74 60 -29 28 -41 35 -61 30 -34 -9 -101 12 -149 46 -39 27 -43
28 -95 18 -41 -8 -64 -19 -90 -45 -33 -32 -39 -35 -81 -29 -36 5 -49 2 -72
-16 -23 -18 -28 -29 -25 -52 4 -27 3 -29 -26 -26 -28 3 -31 6 -29 33 5 66 -6
94 -45 114 -28 14 -44 32 -60 68 -14 31 -33 55 -50 63 -15 8 -37 23 -49 33
l-22 19 27 23 c25 22 26 23 9 49 -33 49 -192 109 -210 79z"/>
</g>
</svg>
