<?xml version="1.0" standalone="no"?>
<!DOCTYPE svg PUBLIC "-//W3C//DTD SVG 20010904//EN"
 "http://www.w3.org/TR/2001/REC-SVG-20010904/DTD/svg10.dtd">
<svg version="1.0" xmlns="http://www.w3.org/2000/svg"
 width="1920.000000pt" height="1080.000000pt" viewBox="0 0 1920.000000 1080.000000"
 preserveAspectRatio="xMidYMid meet">
<metadata>
Created by potrace 1.16, written by Peter Selinger 2001-2019
</metadata>
<g transform="translate(0.000000,1080.000000) scale(0.100000,-0.100000)"
fill="#000000" stroke="none">
<path d="M4685 7381 c-26 -6 -30 -11 -29 -38 1 -23 -7 -39 -32 -64 -30 -29
-41 -33 -102 -37 -72 -4 -92 -17 -92 -59 0 -13 7 -34 16 -48 11 -17 13 -29 6
-42 -6 -10 -10 -45 -10 -77 0 -31 -4 -62 -11 -69 -6 -6 -31 -10 -55 -8 -36 2
-47 -1 -55 -18 -12 -22 -14 -92 -5 -141 l7 -32 75 7 c41 4 72 3 70 -2 -60
-123 -60 -124 -54 -183 7 -57 6 -58 -30 -90 -20 -17 -55 -40 -78 -50 -23 -10
-65 -44 -96 -78 -54 -59 -57 -61 -97 -55 -36 5 -43 2 -56 -18 -19 -32 -41
-133 -34 -153 4 -9 13 -16 22 -16 8 0 34 -12 57 -27 l42 -26 -32 -15 c-51 -25
-42 -50 33 -97 50 -31 68 -49 86 -86 14 -32 33 -53 58 -66 35 -19 36 -21 33
-72 -3 -64 7 -78 64 -87 53 -8 74 6 74 47 0 37 25 50 86 43 46 -6 50 -4 72 25
22 30 78 61 111 61 9 0 31 19 50 41 27 33 32 47 29 79 -3 38 -3 39 39 51 23 6
60 26 80 44 l38 33 0 85 c0 67 -4 89 -17 104 -12 13 -18 36 -18 64 0 52 -13
69 -51 69 -19 0 -28 6 -33 23 -3 12 -23 32 -43 44 l-38 22 52 1 c28 0 55 -4
58 -10 9 -14 76 -12 101 3 11 7 38 31 58 55 29 32 40 53 44 88 4 41 2 49 -19
65 -20 15 -22 21 -11 36 23 33 25 45 13 64 -10 17 -8 19 13 19 14 0 28 -4 31
-10 13 -21 64 -10 98 20 42 36 57 38 57 6 0 -39 38 -117 59 -123 11 -3 22 -11
25 -19 6 -17 91 -19 132 -4 43 17 93 80 94 118 0 36 -32 106 -54 119 -7 4 -20
22 -29 39 -9 17 -23 36 -31 43 -11 10 -16 31 -16 74 l0 60 -59 57 c-63 61
-120 87 -239 111 -40 8 -83 25 -121 50 -33 21 -79 43 -103 49 -47 11 -186 11
-233 1z"/>
</g>
</svg>
