<?xml version="1.0" standalone="no"?>
<!DOCTYPE svg PUBLIC "-//W3C//DTD SVG 20010904//EN"
 "http://www.w3.org/TR/2001/REC-SVG-20010904/DTD/svg10.dtd">
<svg version="1.0" xmlns="http://www.w3.org/2000/svg"
 width="1920.000000pt" height="1080.000000pt" viewBox="0 0 1920.000000 1080.000000"
 preserveAspectRatio="xMidYMid meet">
<metadata>
Created by potrace 1.16, written by Peter Selinger 2001-2019
</metadata>
<g transform="translate(0.000000,1080.000000) scale(0.100000,-0.100000)"
fill="#000000" stroke="none">
<path d="M5170 6825 c-17 -19 -27 -22 -41 -15 -10 6 -40 10 -68 10 -50 0 -51
-1 -51 -29 0 -16 6 -31 13 -34 10 -4 10 -7 0 -18 -21 -21 -16 -78 8 -98 29
-24 20 -49 -43 -112 -41 -41 -54 -49 -72 -43 -11 4 -50 8 -86 10 -36 1 -89 5
-117 9 -52 7 -53 7 -53 -19 0 -20 6 -27 28 -32 51 -12 122 -57 128 -81 5 -18
13 -23 39 -23 37 0 45 -12 45 -68 0 -21 9 -48 20 -62 13 -17 20 -41 20 -74 0
-43 -4 -53 -38 -87 -25 -25 -56 -43 -87 -51 l-47 -13 5 -46 c5 -40 3 -50 -19
-70 -35 -33 -31 -62 15 -98 32 -25 51 -32 109 -37 65 -6 74 -10 108 -45 21
-22 44 -39 50 -39 15 0 54 -48 54 -66 0 -7 11 -30 25 -50 24 -36 34 -94 16
-94 -16 0 -23 -40 -11 -55 17 -21 83 -19 111 4 13 10 49 26 79 34 30 9 71 27
90 40 19 13 56 26 81 29 61 7 139 46 150 76 5 13 6 41 3 62 -5 33 -1 47 26 90
56 88 49 180 -14 180 -19 0 -19 2 7 25 23 22 27 34 27 78 0 77 -58 242 -92
263 -7 4 -28 10 -48 14 -31 5 -35 9 -41 43 -3 21 -16 52 -28 68 -12 17 -25 46
-28 65 -3 19 -13 40 -23 47 -9 7 -20 31 -23 54 -6 35 -3 46 18 71 14 17 25 37
25 46 0 16 -42 32 -59 22 -5 -4 -21 -1 -35 5 -18 9 -32 29 -48 75 l-23 64 -41
0 c-30 0 -46 -6 -64 -25z"/>
</g>
</svg>
