<?xml version="1.0" standalone="no"?>
<!DOCTYPE svg PUBLIC "-//W3C//DTD SVG 20010904//EN"
 "http://www.w3.org/TR/2001/REC-SVG-20010904/DTD/svg10.dtd">
<svg version="1.0" xmlns="http://www.w3.org/2000/svg"
 width="1920.000000pt" height="1080.000000pt" viewBox="0 0 1920.000000 1080.000000"
 preserveAspectRatio="xMidYMid meet">
<metadata>
Created by potrace 1.16, written by Peter Selinger 2001-2019
</metadata>
<g transform="translate(0.000000,1080.000000) scale(0.100000,-0.100000)"
fill="#000000" stroke="none">
<path d="M5502 6781 c-9 -5 -11 -17 -7 -34 6 -22 2 -29 -27 -47 -18 -11 -42
-20 -54 -20 -65 0 -72 -124 -11 -210 9 -13 17 -34 17 -45 0 -12 11 -36 25 -55
14 -18 28 -49 31 -67 5 -24 12 -33 26 -33 54 0 97 -57 133 -177 23 -77 20
-109 -15 -135 -31 -23 -42 -68 -16 -68 20 0 66 -39 66 -57 0 -9 -14 -39 -32
-66 -27 -42 -32 -60 -33 -111 -1 -56 -3 -62 -28 -74 -17 -8 -27 -21 -27 -36 0
-41 16 -46 159 -46 145 0 138 1 261 -66 24 -13 55 -24 68 -24 13 0 65 20 116
45 89 43 94 44 201 47 l110 3 3 40 c3 38 33 85 55 85 16 0 77 64 77 82 0 26
13 29 74 13 38 -10 78 -32 128 -70 64 -49 77 -56 113 -53 l40 3 3 55 3 56 -66
58 c-87 77 -154 121 -215 141 -59 20 -71 39 -95 143 -13 56 -23 77 -46 96 -40
34 -101 60 -196 84 -43 11 -91 26 -108 32 -16 7 -69 23 -117 35 -48 12 -99 33
-115 45 -39 30 -86 49 -168 66 -125 26 -132 30 -139 75 -9 56 -30 93 -70 124
-25 19 -35 36 -40 66 -15 91 -44 126 -84 100z"/>
</g>
</svg>
