<?xml version="1.0" standalone="no"?>
<!DOCTYPE svg PUBLIC "-//W3C//DTD SVG 20010904//EN"
 "http://www.w3.org/TR/2001/REC-SVG-20010904/DTD/svg10.dtd">
<svg version="1.0" xmlns="http://www.w3.org/2000/svg"
 width="1920.000000pt" height="1080.000000pt" viewBox="0 0 1920.000000 1080.000000"
 preserveAspectRatio="xMidYMid meet">
<metadata>
Created by potrace 1.16, written by Peter Selinger 2001-2019
</metadata>
<g transform="translate(0.000000,1080.000000) scale(0.100000,-0.100000)"
fill="#000000" stroke="none">
<path d="M6211 8541 c-17 -21 -45 -53 -61 -71 -34 -36 -39 -78 -15 -124 14
-26 14 -31 0 -46 -31 -35 -15 -72 37 -85 14 -4 28 -16 31 -27 5 -18 13 -19 81
-16 78 3 87 0 61 -22 -12 -10 -19 -10 -27 -2 -7 7 -20 12 -30 12 -14 0 -18 -8
-18 -34 0 -18 7 -39 15 -46 20 -17 19 -24 -7 -35 -18 -8 -23 -18 -22 -43 1
-27 -2 -32 -15 -26 -9 4 -40 8 -68 9 -29 1 -56 5 -60 8 -3 4 -17 7 -30 7 -13
0 -23 6 -23 13 0 17 -71 50 -95 45 -23 -4 -52 -44 -69 -92 l-13 -37 -26 40
c-15 22 -27 44 -27 49 0 5 14 21 30 37 34 32 39 68 14 103 -24 34 -66 28 -143
-21 -58 -38 -76 -45 -140 -50 -64 -6 -78 -12 -116 -43 -25 -21 -52 -57 -66
-88 -13 -28 -43 -72 -66 -98 -47 -51 -52 -71 -26 -100 15 -17 15 -21 -16 -61
-53 -70 -63 -100 -50 -155 18 -74 32 -101 64 -122 17 -11 46 -32 65 -46 29
-22 42 -25 80 -20 217 25 240 34 240 92 l0 32 73 7 c57 6 81 14 114 37 46 34
64 36 143 19 30 -7 80 -11 110 -9 43 2 62 -2 85 -18 19 -14 54 -24 96 -28 77
-7 88 0 92 63 2 38 4 41 37 47 19 3 59 13 88 21 41 11 60 12 86 3 19 -6 94
-13 168 -15 l133 -3 43 41 c23 23 42 49 42 58 0 21 -65 79 -89 79 -22 0 -41
39 -41 85 0 26 9 43 35 69 74 74 25 142 -108 151 -79 5 -126 22 -165 62 -18
17 -47 36 -66 43 -34 11 -45 30 -46 80 0 17 -26 51 -83 111 -45 47 -91 102
-102 123 -23 44 -60 76 -86 76 -9 0 -31 -18 -48 -39z"/>
</g>
</svg>
