<?xml version="1.0" standalone="no"?>
<!DOCTYPE svg PUBLIC "-//W3C//DTD SVG 20010904//EN"
 "http://www.w3.org/TR/2001/REC-SVG-20010904/DTD/svg10.dtd">
<svg version="1.0" xmlns="http://www.w3.org/2000/svg"
 width="1920.000000pt" height="1080.000000pt" viewBox="0 0 1920.000000 1080.000000"
 preserveAspectRatio="xMidYMid meet">
<metadata>
Created by potrace 1.16, written by Peter Selinger 2001-2019
</metadata>
<g transform="translate(0.000000,1080.000000) scale(0.100000,-0.100000)"
fill="#000000" stroke="none">
<path d="M5860 7555 c-31 -20 -67 -35 -85 -35 -16 0 -47 -3 -67 -6 -35 -6 -38
-9 -38 -39 0 -44 -24 -62 -99 -70 -35 -4 -78 -11 -94 -16 -38 -11 -66 4 -135
70 -56 55 -62 57 -80 39 -15 -15 -16 -155 -1 -217 5 -24 11 -57 13 -72 5 -39
25 -61 50 -56 16 4 31 -7 59 -40 32 -38 37 -51 37 -93 0 -50 12 -74 95 -189
18 -24 25 -47 25 -80 1 -92 15 -129 59 -167 46 -40 77 -89 61 -99 -16 -10 -12
-52 6 -59 29 -11 49 -5 68 20 16 22 18 38 13 99 -5 67 -3 79 25 137 28 58 29
68 23 137 l-6 74 28 -7 c69 -18 93 -18 93 -3 0 28 65 67 112 67 24 0 52 3 64
6 29 8 54 55 54 103 0 58 -26 151 -50 176 -30 32 -17 55 32 55 28 0 49 7 70
25 26 22 36 25 79 19 43 -6 53 -4 74 16 22 20 25 32 25 90 0 71 -17 110 -50
110 -10 0 -23 -7 -28 -16 -8 -13 -12 -12 -38 9 -27 23 -38 25 -119 25 -50 0
-103 5 -118 11 -52 20 -99 13 -157 -24z"/>
</g>
</svg>
