<?xml version="1.0" standalone="no"?>
<!DOCTYPE svg PUBLIC "-//W3C//DTD SVG 20010904//EN"
 "http://www.w3.org/TR/2001/REC-SVG-20010904/DTD/svg10.dtd">
<svg version="1.0" xmlns="http://www.w3.org/2000/svg"
 width="1920.000000pt" height="1080.000000pt" viewBox="0 0 1920.000000 1080.000000"
 preserveAspectRatio="xMidYMid meet">
<metadata>
Created by potrace 1.16, written by Peter Selinger 2001-2019
</metadata>
<g transform="translate(0.000000,1080.000000) scale(0.100000,-0.100000)"
fill="#000000" stroke="none">
<path d="M6848 7661 c-17 -24 -69 -28 -201 -16 -70 6 -106 4 -173 -11 l-84
-19 0 -33 c0 -22 -8 -41 -26 -59 -22 -22 -26 -33 -21 -69 3 -35 0 -47 -20 -68
-21 -23 -32 -26 -87 -26 -50 0 -67 -4 -81 -20 -13 -14 -31 -20 -60 -20 -30 0
-45 -5 -49 -16 -12 -31 -6 -68 15 -90 21 -22 49 -110 49 -155 0 -14 -11 -38
-25 -53 -21 -22 -32 -26 -83 -26 -53 0 -61 -3 -92 -34 -33 -32 -37 -33 -94
-28 l-59 5 7 -80 c7 -73 5 -83 -19 -131 -23 -45 -26 -63 -24 -130 2 -45 -2
-86 -9 -99 -7 -12 -12 -33 -12 -46 0 -22 7 -26 83 -42 100 -21 150 -40 199
-76 21 -15 64 -31 100 -39 35 -6 89 -23 120 -36 32 -13 65 -24 74 -24 36 0
156 -42 172 -61 9 -10 26 -19 37 -19 22 0 65 38 65 57 0 5 13 28 30 51 59 82
75 155 43 202 -54 82 -104 101 -156 60 -14 -11 -32 -20 -40 -20 -21 0 -41 106
-38 203 1 46 -2 84 -9 91 -8 10 -2 31 25 82 54 104 106 164 169 196 68 35 96
69 96 119 0 39 0 39 40 39 28 0 40 4 40 15 0 8 30 34 68 59 95 62 100 74 98
231 -1 72 -5 136 -9 143 -12 18 -44 15 -59 -7z"/>
</g>
</svg>
