<?xml version="1.0" standalone="no"?>
<!DOCTYPE svg PUBLIC "-//W3C//DTD SVG 20010904//EN"
 "http://www.w3.org/TR/2001/REC-SVG-20010904/DTD/svg10.dtd">
<svg version="1.0" xmlns="http://www.w3.org/2000/svg"
 width="1920.000000pt" height="1080.000000pt" viewBox="0 0 1920.000000 1080.000000"
 preserveAspectRatio="xMidYMid meet">
<metadata>
Created by potrace 1.16, written by Peter Selinger 2001-2019
</metadata>
<g transform="translate(0.000000,1080.000000) scale(0.100000,-0.100000)"
fill="#000000" stroke="none">
<path d="M7602 9150 c-12 -12 -22 -31 -22 -43 -1 -19 -2 -20 -10 -6 -18 30
-59 32 -93 5 -73 -57 -88 -72 -92 -96 -2 -14 -12 -29 -22 -35 -9 -5 -26 -19
-37 -31 -44 -43 -95 -66 -131 -60 -37 7 -68 -4 -98 -36 -23 -23 -48 -83 -40
-92 4 -3 -2 -12 -11 -19 -29 -21 -29 -65 0 -83 13 -9 31 -14 39 -10 19 7 19 2
0 -34 -21 -41 -64 -68 -122 -76 -40 -5 -55 -12 -72 -35 -12 -16 -19 -33 -16
-38 3 -5 -14 -3 -38 3 -34 11 -81 13 -119 7 -3 -1 -16 -21 -27 -45 -17 -35
-19 -49 -11 -70 5 -15 10 -29 10 -32 0 -2 -20 -3 -45 -2 -24 0 -50 -4 -58 -10
-8 -7 -27 -9 -44 -6 -35 7 -64 -19 -45 -38 7 -7 12 -29 12 -50 0 -36 3 -40 43
-57 23 -10 51 -29 62 -41 25 -28 97 -60 136 -60 71 0 159 -35 159 -63 0 -5
-14 -25 -31 -45 -30 -34 -31 -39 -26 -96 8 -84 14 -95 58 -113 26 -10 41 -23
45 -39 13 -50 72 -53 127 -7 45 37 71 31 105 -26 38 -60 45 -62 272 -57 178 4
220 12 340 68 36 16 88 49 115 73 l50 44 4 92 c2 70 -1 105 -15 146 -15 44
-16 58 -6 86 7 18 12 54 12 80 0 40 4 49 33 71 19 15 43 26 55 26 59 0 54 109
-7 164 -13 12 -21 31 -21 51 0 22 -10 40 -35 65 -19 18 -32 37 -29 42 13 21
29 106 24 130 -5 25 -58 92 -137 173 -22 23 -33 43 -33 63 0 40 -49 104 -112
147 -61 41 -67 42 -96 15z"/>
</g>
</svg>
