<?xml version="1.0" standalone="no"?>
<!DOCTYPE svg PUBLIC "-//W3C//DTD SVG 20010904//EN"
 "http://www.w3.org/TR/2001/REC-SVG-20010904/DTD/svg10.dtd">
<svg version="1.0" xmlns="http://www.w3.org/2000/svg"
 width="1920.000000pt" height="1080.000000pt" viewBox="0 0 1920.000000 1080.000000"
 preserveAspectRatio="xMidYMid meet">
<metadata>
Created by potrace 1.16, written by Peter Selinger 2001-2019
</metadata>
<g transform="translate(0.000000,1080.000000) scale(0.100000,-0.100000)"
fill="#000000" stroke="none">
<path d="M7074 7736 c-18 -8 -35 -19 -38 -25 -4 -6 -22 -11 -40 -11 -24 0 -41
-9 -69 -39 l-37 -39 0 -99 c0 -118 -13 -145 -94 -197 -31 -19 -61 -45 -68 -56
-9 -13 -23 -20 -45 -20 -31 0 -33 -2 -33 -35 0 -45 -43 -94 -113 -128 -29 -15
-60 -39 -69 -54 -9 -15 -25 -37 -36 -49 -28 -29 -92 -156 -92 -181 0 -11 6
-33 14 -47 10 -20 11 -36 3 -72 -8 -35 -7 -59 6 -112 9 -37 18 -78 19 -92 4
-35 35 -37 96 -6 l50 25 35 -38 c19 -21 38 -48 41 -59 7 -21 -22 -91 -51 -123
-18 -21 -53 -90 -53 -105 0 -7 -7 -15 -16 -18 -30 -11 -12 -50 33 -71 24 -12
60 -37 80 -57 38 -36 93 -58 146 -58 22 0 27 -4 27 -24 0 -27 42 -66 70 -66
10 0 43 15 74 34 32 19 75 37 97 41 41 7 79 43 79 76 0 9 18 34 39 55 45 42
78 101 86 156 6 37 62 130 109 181 18 20 35 27 62 27 27 0 43 7 65 31 16 17
29 37 29 44 0 8 15 29 33 49 19 19 51 61 72 93 21 32 65 91 98 131 57 69 61
77 65 133 4 54 2 63 -21 87 -20 22 -26 42 -32 101 -6 64 -12 78 -40 110 -19
21 -35 53 -40 76 -7 41 -54 95 -82 95 -8 0 -21 16 -29 35 -8 19 -19 35 -24 35
-6 0 -17 15 -24 33 -8 17 -22 50 -31 72 -10 22 -29 52 -43 68 -28 29 -72 37
-72 12 0 -9 -9 -15 -21 -15 -21 0 -58 34 -92 84 -21 30 -70 35 -123 12z"/>
</g>
</svg>
