<?xml version="1.0" standalone="no"?>
<!DOCTYPE svg PUBLIC "-//W3C//DTD SVG 20010904//EN"
 "http://www.w3.org/TR/2001/REC-SVG-20010904/DTD/svg10.dtd">
<svg version="1.0" xmlns="http://www.w3.org/2000/svg"
 width="1920.000000pt" height="1080.000000pt" viewBox="0 0 1920.000000 1080.000000"
 preserveAspectRatio="xMidYMid meet">
<metadata>
Created by potrace 1.16, written by Peter Selinger 2001-2019
</metadata>
<g transform="translate(0.000000,1080.000000) scale(0.100000,-0.100000)"
fill="#000000" stroke="none">
<path d="M7528 6700 c-19 -16 -21 -22 -11 -38 10 -17 7 -24 -19 -48 -16 -16
-39 -46 -49 -67 -23 -44 -71 -77 -114 -78 -24 0 -38 -10 -67 -48 -47 -63 -75
-117 -83 -166 -9 -49 -33 -89 -79 -134 -19 -19 -38 -47 -41 -62 -7 -31 -57
-79 -83 -79 -9 0 -46 -14 -81 -30 l-63 -30 -20 25 c-35 44 -79 24 -91 -42 -7
-38 0 -63 18 -63 7 0 49 -31 94 -69 80 -67 82 -68 151 -74 53 -4 82 -2 115 11
43 16 45 16 68 -6 27 -26 62 -28 83 -7 9 8 23 15 32 15 9 0 34 6 55 14 42 14
63 44 72 104 12 72 16 82 30 82 9 0 19 -10 24 -22 12 -32 51 -65 83 -73 22 -6
41 2 95 35 38 24 84 56 104 71 25 20 48 29 73 29 20 0 36 -2 36 -4 0 -2 -7
-20 -16 -41 -8 -20 -14 -51 -12 -69 3 -28 7 -31 41 -34 80 -7 188 68 229 159
11 26 29 45 52 56 40 19 48 53 20 84 -21 23 -27 124 -9 165 7 17 29 44 50 60
43 34 65 72 65 113 0 44 77 104 173 135 21 7 24 78 3 95 -8 6 -59 14 -114 18
l-100 6 -31 -34 -31 -33 -83 12 c-46 7 -119 12 -163 12 -69 0 -89 4 -140 29
-48 24 -76 31 -151 35 -80 4 -95 2 -115 -14z"/>
</g>
</svg>
