<?xml version="1.0" standalone="no"?>
<!DOCTYPE svg PUBLIC "-//W3C//DTD SVG 20010904//EN"
 "http://www.w3.org/TR/2001/REC-SVG-20010904/DTD/svg10.dtd">
<svg version="1.0" xmlns="http://www.w3.org/2000/svg"
 width="1920.000000pt" height="1080.000000pt" viewBox="0 0 1920.000000 1080.000000"
 preserveAspectRatio="xMidYMid meet">
<metadata>
Created by potrace 1.16, written by Peter Selinger 2001-2019
</metadata>
<g transform="translate(0.000000,1080.000000) scale(0.100000,-0.100000)"
fill="#000000" stroke="none">
<path d="M7930 7881 c-6 -12 -9 -30 -5 -40 7 -24 -79 -98 -157 -135 -101 -48
-164 -61 -285 -60 -111 0 -113 0 -113 -23 0 -12 8 -37 18 -55 11 -18 24 -50
31 -71 15 -45 57 -96 129 -155 23 -19 36 -41 43 -71 6 -27 24 -60 44 -83 31
-34 35 -44 35 -96 0 -46 6 -65 29 -101 33 -50 31 -69 -17 -130 -87 -111 -102
-134 -102 -156 0 -24 2 -25 65 -25 52 0 76 -6 118 -27 45 -24 69 -29 187 -36
239 -16 268 -15 286 11 8 12 24 22 35 22 16 0 19 7 19 45 0 25 8 73 18 106 17
60 56 107 133 160 17 11 24 30 31 75 4 32 13 82 18 109 6 28 15 102 20 165 5
63 12 137 16 163 4 31 2 53 -5 60 -18 18 -13 47 19 104 37 65 39 109 6 124
-18 9 -30 7 -55 -6 -55 -28 -148 -12 -249 42 -58 31 -95 44 -124 45 -31 0 -46
7 -62 25 -15 18 -35 27 -68 30 -40 5 -48 2 -58 -16z"/>
</g>
</svg>
