<?xml version="1.0" standalone="no"?>
<!DOCTYPE svg PUBLIC "-//W3C//DTD SVG 20010904//EN"
 "http://www.w3.org/TR/2001/REC-SVG-20010904/DTD/svg10.dtd">
<svg version="1.0" xmlns="http://www.w3.org/2000/svg"
 width="1920.000000pt" height="1080.000000pt" viewBox="0 0 1920.000000 1080.000000"
 preserveAspectRatio="xMidYMid meet">
<metadata>
Created by potrace 1.16, written by Peter Selinger 2001-2019
</metadata>
<g transform="translate(0.000000,1080.000000) scale(0.100000,-0.100000)"
fill="#000000" stroke="none">
<path d="M7370 5744 c-28 -26 -61 -70 -76 -100 -26 -52 -59 -84 -89 -84 -8 0
-21 -12 -27 -26 -10 -21 -9 -31 5 -56 19 -33 23 -108 6 -108 -24 0 -49 22 -49
44 0 40 -28 53 -133 60 -104 7 -125 2 -193 -50 -32 -24 -35 -30 -55 -147 -12
-63 -11 -69 8 -95 11 -15 23 -43 26 -62 14 -92 46 -222 57 -235 17 -21 103
-20 121 1 7 9 33 30 58 47 41 28 53 31 104 29 39 -2 66 2 81 11 15 10 28 12
37 6 28 -18 76 -8 174 36 55 25 127 55 160 66 102 35 202 86 233 120 26 28 41
34 99 42 37 6 103 10 146 11 84 1 97 9 97 57 0 41 -27 56 -110 62 -41 3 -99
12 -127 21 -44 14 -53 21 -53 40 0 12 14 35 31 52 40 38 59 75 59 117 0 46
-15 57 -81 57 -53 0 -60 3 -79 30 -13 18 -51 44 -95 65 -71 33 -80 35 -180 35
l-106 0 -49 -46z"/>
</g>
</svg>
