<?xml version="1.0" standalone="no"?>
<!DOCTYPE svg PUBLIC "-//W3C//DTD SVG 20010904//EN"
 "http://www.w3.org/TR/2001/REC-SVG-20010904/DTD/svg10.dtd">
<svg version="1.0" xmlns="http://www.w3.org/2000/svg"
 width="1920.000000pt" height="1080.000000pt" viewBox="0 0 1920.000000 1080.000000"
 preserveAspectRatio="xMidYMid meet">
<metadata>
Created by potrace 1.16, written by Peter Selinger 2001-2019
</metadata>
<g transform="translate(0.000000,1080.000000) scale(0.100000,-0.100000)"
fill="#000000" stroke="none">
<path d="M8427 6192 c-10 -10 -17 -31 -17 -45 0 -42 -46 -56 -151 -47 -92 8
-139 -5 -139 -39 0 -9 -11 -28 -25 -41 -14 -13 -25 -32 -25 -41 0 -29 -91
-114 -144 -134 -63 -24 -76 -12 -47 47 34 70 31 75 -48 83 l-69 7 -58 -46
c-32 -24 -61 -43 -66 -40 -16 10 -48 -8 -48 -27 0 -11 -7 -31 -16 -44 -24 -37
-10 -61 44 -75 71 -20 118 -46 149 -85 26 -33 32 -35 84 -35 92 0 102 -36 29
-107 -34 -32 -40 -44 -40 -79 0 -22 6 -47 13 -56 6 -8 49 -24 94 -34 46 -11
83 -24 83 -30 0 -48 147 -15 192 42 10 12 34 25 54 28 48 9 110 78 175 192 28
49 57 96 64 104 7 8 31 50 54 94 23 43 69 114 102 158 68 89 87 137 70 176
-11 23 -15 24 -65 18 -52 -6 -56 -4 -102 34 -39 32 -57 40 -90 40 -27 0 -47
-6 -57 -18z"/>
</g>
</svg>
