<?xml version="1.0" standalone="no"?>
<!DOCTYPE svg PUBLIC "-//W3C//DTD SVG 20010904//EN"
 "http://www.w3.org/TR/2001/REC-SVG-20010904/DTD/svg10.dtd">
<svg version="1.0" xmlns="http://www.w3.org/2000/svg"
 width="1920.000000pt" height="1080.000000pt" viewBox="0 0 1920.000000 1080.000000"
 preserveAspectRatio="xMidYMid meet">
<metadata>
Created by potrace 1.16, written by Peter Selinger 2001-2019
</metadata>
<g transform="translate(0.000000,1080.000000) scale(0.100000,-0.100000)"
fill="#000000" stroke="none">
<path d="M8938 7913 c-13 -12 -32 -16 -76 -14 -54 2 -61 -1 -79 -24 -18 -25
-19 -26 -55 -10 -51 21 -90 19 -122 -6 -30 -24 -76 -108 -76 -139 0 -11 -9
-39 -21 -61 -15 -31 -20 -60 -20 -118 0 -166 -5 -287 -12 -298 -5 -7 -14 -61
-22 -120 -12 -96 -17 -110 -40 -128 -89 -68 -114 -98 -130 -150 -8 -29 -15
-80 -15 -113 l0 -60 68 -11 c37 -7 75 -14 85 -17 32 -10 17 -34 -38 -59 -78
-34 -125 -72 -125 -102 0 -41 -26 -89 -65 -118 -51 -40 -61 -66 -68 -177 -8
-120 -10 -118 136 -118 138 0 167 6 167 35 0 25 35 75 53 75 7 0 36 -18 65
-40 42 -32 61 -40 95 -40 34 0 44 -4 52 -22 13 -30 60 -36 73 -11 17 32 42
143 42 188 0 46 17 66 100 119 30 18 35 28 38 63 4 50 44 86 113 100 37 8 52
5 98 -15 30 -13 68 -34 84 -48 44 -37 82 -32 111 14 28 44 71 85 146 139 49
35 132 113 183 170 9 11 17 29 17 40 0 23 -43 105 -65 123 -9 7 -15 29 -15 51
0 21 -4 41 -10 44 -5 3 -10 35 -10 70 0 35 -4 66 -9 69 -4 3 -11 45 -15 93 -4
48 -12 96 -18 106 -10 20 -30 20 -139 1 -37 -6 -37 -6 -44 35 -4 23 -17 54
-29 69 -12 15 -34 47 -48 72 -15 25 -49 67 -77 95 l-51 49 0 72 c0 84 -7 93
-97 123 -75 25 -113 27 -135 4z"/>
</g>
</svg>
