<?xml version="1.0" standalone="no"?>
<!DOCTYPE svg PUBLIC "-//W3C//DTD SVG 20010904//EN"
 "http://www.w3.org/TR/2001/REC-SVG-20010904/DTD/svg10.dtd">
<svg version="1.0" xmlns="http://www.w3.org/2000/svg"
 width="1920.000000pt" height="1080.000000pt" viewBox="0 0 1920.000000 1080.000000"
 preserveAspectRatio="xMidYMid meet">
<metadata>
Created by potrace 1.16, written by Peter Selinger 2001-2019
</metadata>
<g transform="translate(0.000000,1080.000000) scale(0.100000,-0.100000)"
fill="#000000" stroke="none">
<path d="M8930 9676 c-23 -8 -40 -24 -50 -45 -9 -17 -29 -40 -45 -50 -30 -17
-30 -17 -69 11 -21 15 -52 28 -67 28 -25 0 -28 -3 -31 -41 -2 -30 -9 -46 -25
-56 -21 -14 -23 -13 -32 9 -21 55 -115 101 -165 82 -21 -8 -22 -110 -2 -133 8
-9 18 -29 22 -46 5 -25 4 -28 -7 -17 -7 6 -23 12 -36 12 -19 0 -24 -7 -29 -40
-8 -51 -39 -77 -64 -55 -20 18 -91 20 -108 3 -15 -15 -16 -84 -2 -93 6 -3 10
-10 10 -16 0 -17 -26 -9 -50 16 -16 17 -34 25 -55 25 -18 0 -44 9 -58 20 -38
30 -68 25 -94 -13 -39 -57 -21 -162 38 -223 22 -22 32 -45 36 -75 8 -79 34
-174 53 -194 9 -11 23 -31 30 -44 l12 -24 -30 21 c-16 12 -35 22 -41 22 -6 0
-11 9 -11 19 0 10 -16 51 -35 90 -26 52 -35 84 -35 120 0 38 -6 56 -25 79 -15
18 -25 43 -26 63 0 19 -13 54 -28 79 -22 36 -34 46 -58 48 -36 4 -111 -31
-132 -61 -11 -15 -21 -18 -52 -13 -47 7 -69 -1 -69 -25 0 -19 27 -39 53 -39
20 0 84 -57 108 -96 10 -17 19 -44 19 -60 0 -22 20 -50 86 -122 l86 -93 -11
-52 c-26 -113 -27 -107 13 -143 25 -23 36 -41 36 -62 0 -17 9 -37 24 -51 14
-13 30 -37 37 -53 11 -28 11 -33 -10 -49 -13 -11 -31 -19 -40 -19 -33 -1 -55
-29 -63 -83 -4 -28 -12 -83 -18 -121 -10 -61 -9 -74 8 -115 13 -31 18 -60 15
-88 -5 -41 -4 -43 21 -43 14 0 41 -13 60 -30 28 -25 43 -30 74 -29 30 2 55 -7
108 -38 76 -43 133 -57 234 -57 99 1 125 12 160 67 36 57 62 69 107 51 48 -21
82 -17 104 10 15 20 30 24 98 29 44 3 84 8 90 12 6 3 11 36 11 74 0 66 0 67
31 76 25 8 35 21 55 70 57 141 62 225 14 225 -15 0 -20 7 -20 28 0 38 35 68
88 75 23 3 49 11 57 17 33 28 6 199 -40 250 -8 9 -15 22 -15 28 0 7 -5 21 -12
32 -10 16 -9 24 10 49 44 60 22 129 -49 158 -24 9 -46 27 -55 44 -8 16 -19 29
-24 29 -6 0 -10 11 -10 23 0 13 -9 32 -20 42 -11 10 -20 26 -20 35 0 10 -10
30 -22 45 -12 16 -26 51 -31 79 -20 125 -21 119 12 150 21 20 31 39 31 60 0
17 9 51 20 75 22 48 26 111 8 129 -15 15 -42 14 -88 -2z"/>
</g>
</svg>
