<?xml version="1.0" standalone="no"?>
<!DOCTYPE svg PUBLIC "-//W3C//DTD SVG 20010904//EN"
 "http://www.w3.org/TR/2001/REC-SVG-20010904/DTD/svg10.dtd">
<svg version="1.0" xmlns="http://www.w3.org/2000/svg"
 width="1920.000000pt" height="1080.000000pt" viewBox="0 0 1920.000000 1080.000000"
 preserveAspectRatio="xMidYMid meet">
<metadata>
Created by potrace 1.16, written by Peter Selinger 2001-2019
</metadata>
<g transform="translate(0.000000,1080.000000) scale(0.100000,-0.100000)"
fill="#000000" stroke="none">
<path d="M9470 6672 c0 -10 -23 -35 -51 -56 -28 -20 -64 -57 -82 -82 -33 -46
-47 -53 -66 -30 -7 8 -37 26 -67 40 -85 40 -198 33 -254 -17 -26 -23 -31 -35
-28 -59 5 -31 0 -36 -89 -99 -36 -24 -43 -35 -43 -62 0 -35 -34 -179 -47 -200
-4 -7 -11 -16 -15 -22 -59 -72 -156 -212 -179 -257 -16 -31 -49 -88 -73 -125
-24 -37 -55 -91 -69 -118 -38 -76 -113 -151 -164 -164 -24 -7 -43 -16 -43 -20
0 -5 -12 -12 -26 -15 -20 -5 -25 -12 -22 -34 2 -19 9 -28 26 -30 18 -3 21 -8
17 -23 -9 -26 15 -126 33 -141 23 -20 305 -15 357 6 22 8 90 27 150 41 154 36
182 49 247 116 32 32 62 59 67 59 15 0 115 86 212 182 113 113 178 136 179 65
0 -10 7 -31 15 -48 27 -51 95 -64 153 -29 20 13 50 20 80 20 33 0 54 6 68 19
11 10 41 21 66 25 54 8 80 33 105 101 16 44 18 79 16 299 -3 285 -6 296 -72
296 -82 0 -142 -41 -176 -118 -12 -28 -18 -32 -37 -27 -13 4 -35 20 -49 37
-21 25 -33 31 -70 31 -24 1 -57 -2 -72 -7 l-29 -9 17 32 c9 18 31 49 49 69 53
59 68 98 74 189 4 68 1 91 -14 126 -22 50 -30 57 -66 57 -20 0 -28 -5 -28 -18z"/>
</g>
</svg>
