<?xml version="1.0" standalone="no"?>
<!DOCTYPE svg PUBLIC "-//W3C//DTD SVG 20010904//EN"
 "http://www.w3.org/TR/2001/REC-SVG-20010904/DTD/svg10.dtd">
<svg version="1.0" xmlns="http://www.w3.org/2000/svg"
 width="1920.000000pt" height="1080.000000pt" viewBox="0 0 1920.000000 1080.000000"
 preserveAspectRatio="xMidYMid meet">
<metadata>
Created by potrace 1.16, written by Peter Selinger 2001-2019
</metadata>
<g transform="translate(0.000000,1080.000000) scale(0.100000,-0.100000)"
fill="#000000" stroke="none">
<path d="M9888 7523 c-9 -2 -20 -16 -26 -31 -5 -15 -17 -48 -27 -74 l-17 -48
-49 0 c-40 0 -55 -5 -75 -25 -26 -26 -28 -54 -13 -139 3 -15 -7 -24 -46 -40
-28 -12 -56 -25 -63 -29 -16 -11 -15 -59 3 -93 8 -16 15 -41 15 -57 0 -15 16
-50 35 -78 19 -28 35 -58 35 -65 0 -8 -31 -46 -70 -85 -77 -79 -81 -91 -50
-163 19 -42 20 -52 9 -106 -7 -38 -23 -75 -40 -98 -71 -91 -89 -125 -89 -169
0 -38 3 -43 23 -43 12 1 33 7 47 15 37 21 44 19 95 -25 34 -30 55 -40 80 -40
30 0 38 6 71 56 40 61 65 81 110 90 22 4 34 0 48 -15 16 -18 21 -44 27 -159 6
-130 6 -140 -18 -202 -13 -36 -23 -76 -21 -90 3 -21 8 -25 38 -25 33 0 36 3
58 60 13 33 41 101 63 150 36 82 43 92 87 116 26 15 88 38 138 53 110 31 178
59 220 91 16 13 53 30 81 38 93 28 113 43 113 84 0 25 -8 45 -24 62 -27 29
-56 127 -56 190 0 31 -7 48 -31 76 l-31 35 28 41 c16 22 43 64 59 92 17 29 47
78 69 111 l38 58 -4 114 c-3 99 -6 115 -23 128 -11 9 -29 16 -41 16 -17 0 -23
10 -33 58 -32 142 -109 194 -234 158 -91 -26 -167 -30 -244 -13 -68 16 -233
28 -265 20z"/>
</g>
</svg>
