<?xml version="1.0" standalone="no"?>
<!DOCTYPE svg PUBLIC "-//W3C//DTD SVG 20010904//EN"
 "http://www.w3.org/TR/2001/REC-SVG-20010904/DTD/svg10.dtd">
<svg version="1.0" xmlns="http://www.w3.org/2000/svg"
 width="1920.000000pt" height="1080.000000pt" viewBox="0 0 1920.000000 1080.000000"
 preserveAspectRatio="xMidYMid meet">
<metadata>
Created by potrace 1.16, written by Peter Selinger 2001-2019
</metadata>
<g transform="translate(0.000000,1080.000000) scale(0.100000,-0.100000)"
fill="#000000" stroke="none">
<path d="M9250 8562 c-27 -13 -35 -24 -35 -45 -1 -37 -15 -48 -72 -58 -65 -12
-87 -39 -80 -98 3 -30 12 -50 27 -61 28 -21 24 -60 -16 -152 -34 -77 -42 -88
-64 -88 -19 0 -30 -41 -30 -113 0 -40 6 -45 105 -79 50 -17 65 -45 65 -128 0
-66 0 -66 51 -115 28 -28 62 -70 75 -95 14 -25 36 -60 49 -79 14 -19 25 -47
25 -62 0 -27 3 -29 41 -29 23 0 59 5 80 11 51 16 64 4 73 -64 13 -101 22 -152
29 -165 11 -17 67 -15 111 3 44 19 56 55 32 95 -9 16 -16 35 -16 43 0 28 49
57 95 57 48 0 62 12 71 61 17 88 69 124 114 79 23 -23 58 -26 66 -6 3 8 -1 43
-10 78 -8 34 -17 105 -21 157 -3 52 -12 110 -20 129 -9 21 -15 67 -15 117 0
61 -4 86 -15 95 -8 7 -15 17 -15 23 0 6 -29 39 -64 73 -36 35 -72 77 -81 93
-15 30 -18 31 -79 31 -61 0 -64 1 -79 32 -9 20 -31 39 -59 52 -29 14 -44 28
-46 43 -7 50 -125 108 -147 73 -11 -18 -25 0 -25 33 0 71 -48 94 -120 59z"/>
</g>
</svg>
