<?xml version="1.0" standalone="no"?>
<!DOCTYPE svg PUBLIC "-//W3C//DTD SVG 20010904//EN"
 "http://www.w3.org/TR/2001/REC-SVG-20010904/DTD/svg10.dtd">
<svg version="1.0" xmlns="http://www.w3.org/2000/svg"
 width="1920.000000pt" height="1080.000000pt" viewBox="0 0 1920.000000 1080.000000"
 preserveAspectRatio="xMidYMid meet">
<metadata>
Created by potrace 1.16, written by Peter Selinger 2001-2019
</metadata>
<g transform="translate(0.000000,1080.000000) scale(0.100000,-0.100000)"
fill="#000000" stroke="none">
<path d="M8986 9545 c-11 -8 -30 -15 -43 -15 -32 0 -59 -53 -44 -87 6 -13 11
-53 11 -88 0 -98 30 -196 93 -300 6 -11 23 -39 37 -62 17 -29 37 -48 62 -58
21 -8 45 -26 54 -40 16 -24 15 -26 -10 -59 -14 -19 -26 -41 -26 -49 0 -15 34
-91 60 -137 8 -14 22 -45 30 -70 l15 -45 50 0 50 0 14 -48 15 -48 48 2 c53 3
75 -11 113 -72 13 -20 37 -42 54 -48 17 -7 39 -28 50 -47 20 -33 23 -34 81
-34 59 0 60 -1 85 -39 13 -22 53 -68 89 -104 80 -79 97 -125 70 -182 -30 -63
-18 -70 129 -73 112 -2 128 0 161 19 34 20 36 24 36 74 0 78 15 83 112 34 70
-35 85 -39 154 -39 57 0 91 6 137 24 34 14 76 28 92 32 17 3 56 18 88 32 l57
25 0 57 c0 50 -4 62 -29 89 -18 19 -39 31 -54 31 -40 0 -63 39 -71 119 -11
107 -81 221 -136 221 -10 0 -27 16 -39 35 -16 28 -26 35 -53 35 -18 0 -41 -9
-54 -21 l-22 -21 -15 28 c-8 16 -17 45 -21 65 -8 42 -19 54 -61 63 -48 10 -85
50 -85 92 0 28 -6 38 -29 52 -29 16 -29 16 -24 93 8 104 3 108 -118 108 -98 0
-119 -8 -119 -43 0 -19 -5 -21 -40 -18 -50 5 -88 -4 -92 -22 -5 -22 -48 -1
-48 25 0 11 -7 35 -15 52 -8 18 -16 54 -17 82 -3 41 -7 52 -28 62 -13 6 -40
36 -60 65 -31 47 -39 53 -74 56 -33 3 -44 -2 -77 -34 -42 -41 -50 -76 -24
-110 16 -21 19 -43 7 -62 -11 -17 -62 1 -62 21 0 30 -40 66 -77 69 -33 3 -38
7 -44 36 -4 18 -13 41 -22 50 -24 28 -47 79 -47 106 0 29 -51 76 -82 76 -12 0
-30 -7 -40 -16 -23 -21 -44 -6 -56 40 -7 26 -13 31 -43 33 -19 2 -43 -4 -53
-12z"/>
</g>
</svg>
