<?xml version="1.0" standalone="no"?>
<!DOCTYPE svg PUBLIC "-//W3C//DTD SVG 20010904//EN"
 "http://www.w3.org/TR/2001/REC-SVG-20010904/DTD/svg10.dtd">
<svg version="1.0" xmlns="http://www.w3.org/2000/svg"
 width="1920.000000pt" height="1080.000000pt" viewBox="0 0 1920.000000 1080.000000"
 preserveAspectRatio="xMidYMid meet">
<metadata>
Created by potrace 1.16, written by Peter Selinger 2001-2019
</metadata>
<g transform="translate(0.000000,1080.000000) scale(0.100000,-0.100000)"
fill="#000000" stroke="none">
<path d="M10907 8793 c-4 -3 -7 -25 -7 -47 -1 -26 -10 -56 -25 -81 -32 -51
-33 -108 -4 -128 13 -9 16 -17 10 -22 -6 -3 -11 -18 -11 -33 -1 -41 -22 -60
-81 -73 -30 -6 -57 -16 -60 -21 -10 -16 2 -141 16 -164 7 -11 31 -26 53 -32
44 -13 82 -56 82 -91 0 -26 -61 -66 -127 -82 -26 -7 -75 -23 -107 -36 -88 -34
-138 -31 -241 17 -131 60 -162 53 -167 -40 -3 -54 -4 -55 -48 -77 -36 -19 -61
-23 -137 -23 -105 0 -106 -1 -79 -76 7 -22 16 -82 20 -134 10 -146 13 -154 70
-162 26 -3 61 -11 78 -17 48 -17 155 -13 245 9 89 21 111 18 150 -19 31 -29
54 -76 67 -135 10 -43 15 -51 41 -58 45 -12 55 -33 55 -121 0 -77 -1 -82 -44
-146 -23 -36 -51 -82 -61 -101 -10 -19 -33 -55 -52 -79 -43 -57 -44 -100 -4
-147 22 -25 31 -47 36 -91 9 -82 33 -163 50 -170 8 -3 15 -12 15 -20 0 -40 65
-56 118 -29 42 22 69 56 92 119 28 76 41 87 100 87 32 0 52 5 57 14 5 8 32 42
61 75 48 54 56 59 78 51 14 -6 62 -13 107 -16 l82 -6 43 68 c43 67 43 68 40
143 -2 42 -10 97 -18 123 -13 44 -13 49 13 98 31 60 36 124 11 152 -15 15 -15
23 -4 63 7 27 10 66 6 97 -23 194 -31 234 -57 275 -10 17 -10 32 -1 73 16 67
15 110 0 111 -7 0 -3 5 10 11 18 9 26 8 42 -7 17 -16 35 -17 167 -13 112 4
155 2 175 -8 46 -23 181 -64 213 -64 57 0 102 19 109 45 5 20 13 25 38 25 17
0 55 8 85 17 64 20 91 55 100 132 5 41 2 54 -16 77 -11 15 -21 33 -21 40 0 39
-85 60 -119 30 -14 -13 -24 -12 -76 10 -55 23 -77 25 -240 29 -99 3 -210 8
-247 11 -84 8 -104 3 -156 -41 -46 -40 -62 -39 -62 4 0 31 -16 51 -40 51 -9 0
-25 9 -35 20 -10 11 -26 20 -36 20 -10 0 -21 5 -24 10 -10 17 -101 12 -116 -6
-13 -16 -62 -44 -77 -44 -5 0 -2 16 6 35 12 26 22 35 40 35 43 0 103 23 133
51 25 24 29 34 29 84 0 63 -15 84 -57 85 -20 0 -23 5 -23 39 0 28 -9 50 -33
82 -19 24 -41 58 -51 76 -29 58 -54 73 -116 73 -31 0 -60 -3 -63 -7z"/>
</g>
</svg>
