<?xml version="1.0" standalone="no"?>
<!DOCTYPE svg PUBLIC "-//W3C//DTD SVG 20010904//EN"
 "http://www.w3.org/TR/2001/REC-SVG-20010904/DTD/svg10.dtd">
<svg version="1.0" xmlns="http://www.w3.org/2000/svg"
 width="1920.000000pt" height="1080.000000pt" viewBox="0 0 1920.000000 1080.000000"
 preserveAspectRatio="xMidYMid meet">
<metadata>
Created by potrace 1.16, written by Peter Selinger 2001-2019
</metadata>
<g transform="translate(0.000000,1080.000000) scale(0.100000,-0.100000)"
fill="#000000" stroke="none">
<path d="M12890 7963 c0 -21 9 -53 20 -70 l20 -33 -49 0 c-69 0 -101 -27 -101
-85 l0 -44 -112 6 -113 5 -32 38 c-31 36 -93 63 -195 85 -25 5 -28 10 -28 49
0 50 -22 76 -63 76 -23 0 -27 -4 -27 -28 0 -25 -5 -29 -45 -40 -25 -7 -54 -12
-64 -12 -10 0 -34 -16 -54 -35 -44 -43 -62 -44 -169 -5 -145 54 -145 54 -250
40 -98 -12 -148 -8 -183 16 -23 16 -63 18 -99 4 -28 -10 -35 -47 -14 -68 8 -8
11 -40 9 -95 -1 -57 2 -93 13 -119 26 -60 50 -252 37 -289 -16 -45 -14 -104 4
-119 20 -17 19 -33 -5 -80 -22 -44 -27 -149 -10 -196 8 -21 7 -31 -5 -44 -20
-22 -19 -36 6 -53 19 -14 26 -11 96 39 41 30 83 54 92 53 14 0 150 -22 227
-35 26 -5 35 -1 52 24 31 43 106 56 288 49 140 -5 145 -6 180 -33 19 -16 54
-43 77 -61 99 -76 110 -88 153 -178 24 -49 55 -110 69 -135 14 -25 28 -62 31
-82 10 -58 31 -71 111 -66 59 4 76 10 128 44 34 22 88 48 120 58 105 33 119
40 151 73 49 50 68 109 62 192 l-5 69 34 4 c19 2 107 1 196 -3 183 -8 345 5
420 33 21 8 27 17 27 39 0 16 -8 33 -19 41 -24 17 -111 142 -111 160 0 8 -12
30 -26 49 -35 47 -68 115 -84 172 -9 33 -23 56 -44 72 -43 32 -158 92 -192
100 -16 3 -47 16 -69 29 -39 22 -40 24 -47 95 -7 63 -13 82 -53 141 -25 38
-67 84 -93 103 -61 45 -168 87 -220 87 -42 0 -42 0 -42 -37z"/>
</g>
</svg>
