<?xml version="1.0" standalone="no"?>
<!DOCTYPE svg PUBLIC "-//W3C//DTD SVG 20010904//EN"
 "http://www.w3.org/TR/2001/REC-SVG-20010904/DTD/svg10.dtd">
<svg version="1.0" xmlns="http://www.w3.org/2000/svg"
 width="1920.000000pt" height="1080.000000pt" viewBox="0 0 1920.000000 1080.000000"
 preserveAspectRatio="xMidYMid meet">
<metadata>
Created by potrace 1.16, written by Peter Selinger 2001-2019
</metadata>
<g transform="translate(0.000000,1080.000000) scale(0.100000,-0.100000)"
fill="#000000" stroke="none">
<path d="M3710 4376 c0 -13 10 -36 23 -52 40 -51 23 -214 -24 -229 -30 -10
-49 -58 -49 -122 0 -74 -15 -95 -90 -133 -33 -16 -75 -44 -95 -61 l-36 -32
-23 22 c-44 42 -74 26 -120 -66 -30 -60 -33 -99 -10 -132 16 -22 16 -24 0 -33
-11 -6 -16 -23 -16 -58 0 -54 15 -70 67 -70 30 0 48 -26 69 -95 8 -27 14 -30
53 -33 54 -4 91 18 91 54 l0 26 18 -23 c16 -19 29 -22 87 -23 l68 -1 15 43 c9
23 19 42 23 42 23 0 73 -127 63 -161 -2 -9 -25 -27 -49 -40 -44 -24 -45 -25
-45 -76 0 -50 1 -52 51 -92 47 -37 57 -41 108 -41 52 0 59 3 79 30 13 17 31
30 41 30 36 0 62 44 72 123 5 42 16 94 24 118 8 23 15 75 15 116 0 43 6 89 15
109 21 50 84 134 101 134 28 0 110 33 142 57 34 25 40 51 22 98 -7 19 -6 34 5
56 15 29 48 39 60 19 3 -5 23 -10 43 -10 31 0 44 8 85 49 30 32 47 58 47 74 0
52 -72 107 -140 107 -29 0 -30 2 -30 43 0 37 -6 49 -42 85 -22 23 -45 42 -50
42 -4 0 -8 12 -8 27 0 38 -46 83 -85 83 -29 0 -33 -4 -48 -53 -9 -30 -17 -79
-17 -109 l0 -56 -37 -6 c-46 -7 -47 -7 -100 0 -23 3 -49 15 -59 25 -9 10 -28
19 -41 19 -13 0 -23 6 -23 15 0 25 -56 79 -113 108 -30 15 -62 39 -71 52 -22
34 -66 35 -66 1z"/>
</g>
</svg>
