<?xml version="1.0" standalone="no"?>
<!DOCTYPE svg PUBLIC "-//W3C//DTD SVG 20010904//EN"
 "http://www.w3.org/TR/2001/REC-SVG-20010904/DTD/svg10.dtd">
<svg version="1.0" xmlns="http://www.w3.org/2000/svg"
 width="1920.000000pt" height="1080.000000pt" viewBox="0 0 1920.000000 1080.000000"
 preserveAspectRatio="xMidYMid meet">
<metadata>
Created by potrace 1.16, written by Peter Selinger 2001-2019
</metadata>
<g transform="translate(0.000000,1080.000000) scale(0.100000,-0.100000)"
fill="#000000" stroke="none">
<path d="M4608 3970 c-23 -14 -25 -85 -3 -97 9 -5 16 -26 18 -48 l2 -40 -45
-5 c-54 -7 -159 -57 -219 -106 l-44 -35 -24 29 c-12 16 -35 33 -50 37 -15 3
-32 13 -38 22 -18 25 -55 8 -55 -26 0 -15 5 -32 11 -38 7 -7 1 -24 -22 -57
-30 -42 -34 -55 -39 -144 -4 -53 -14 -122 -23 -152 -8 -30 -18 -81 -22 -112
-4 -34 -14 -67 -27 -83 -19 -24 -79 -58 -105 -60 -43 -2 -39 -56 6 -75 15 -6
45 -29 67 -51 45 -46 67 -48 132 -14 28 15 63 25 89 25 65 0 73 6 73 57 0 24
-5 53 -10 64 -9 17 -7 19 18 19 16 0 58 9 92 20 78 25 92 25 115 0 10 -11 27
-22 39 -26 11 -3 29 -13 39 -22 16 -14 29 -14 105 -5 107 14 162 41 162 82 0
32 27 60 86 89 45 23 54 37 54 86 0 20 8 40 19 50 28 25 105 46 171 46 31 0
61 5 68 12 20 20 14 84 -14 145 -14 32 -32 91 -39 131 -21 110 -77 172 -154
172 -15 0 -41 6 -57 14 -16 8 -55 17 -87 21 -45 5 -68 15 -105 43 -40 31 -56
37 -107 39 -33 2 -68 -1 -77 -7z"/>
</g>
</svg>
