<?xml version="1.0" standalone="no"?>
<!DOCTYPE svg PUBLIC "-//W3C//DTD SVG 20010904//EN"
 "http://www.w3.org/TR/2001/REC-SVG-20010904/DTD/svg10.dtd">
<svg version="1.0" xmlns="http://www.w3.org/2000/svg"
 width="1920.000000pt" height="1080.000000pt" viewBox="0 0 1920.000000 1080.000000"
 preserveAspectRatio="xMidYMid meet">
<metadata>
Created by potrace 1.16, written by Peter Selinger 2001-2019
</metadata>
<g transform="translate(0.000000,1080.000000) scale(0.100000,-0.100000)"
fill="#000000" stroke="none">
<path d="M3720 3415 c0 -9 -7 -29 -15 -45 -19 -36 -59 -40 -98 -10 -35 28 -75
26 -87 -4 -11 -29 -26 -40 -35 -26 -8 13 -52 13 -60 0 -4 -6 2 -34 13 -63 33
-88 52 -153 52 -179 0 -13 5 -29 11 -35 8 -8 1 -18 -29 -37 -53 -33 -72 -62
-72 -110 0 -37 -1 -38 -18 -23 -26 23 -88 21 -123 -4 -19 -13 -51 -22 -98 -26
-68 -6 -70 -5 -82 20 -7 15 -23 28 -39 32 -26 6 -27 10 -40 104 -7 54 -10 113
-6 132 20 97 19 118 -8 154 -15 19 -41 42 -57 51 -35 17 -179 30 -233 20 -45
-9 -71 -51 -63 -105 l4 -36 -38 3 c-36 4 -38 2 -63 -47 -32 -62 -33 -107 -4
-138 13 -14 24 -44 29 -75 4 -29 13 -80 18 -113 6 -33 11 -79 11 -101 0 -54
15 -65 102 -78 l71 -11 20 -52 c13 -35 36 -68 68 -98 45 -42 47 -46 38 -77
-14 -51 -11 -147 5 -164 29 -29 55 -16 103 51 42 59 51 66 111 86 52 17 78 20
136 15 68 -6 139 -17 199 -32 18 -4 42 0 67 11 31 14 55 17 112 12 40 -3 81
-8 90 -12 17 -7 40 -58 56 -125 11 -48 50 -67 104 -51 31 10 43 20 55 49 23
56 12 100 -38 144 -57 52 -92 111 -119 202 -21 68 -22 82 -11 110 23 55 24 75
6 103 l-18 26 39 -23 c22 -13 43 -27 49 -32 5 -4 29 -8 53 -8 34 0 52 -6 77
-28 26 -23 46 -30 97 -36 68 -7 81 -4 135 29 23 14 33 29 37 55 2 19 10 61 17
93 11 50 10 60 -2 68 -21 13 -57 11 -66 -5 -4 -7 -21 -16 -38 -19 -16 -2 -45
-11 -62 -18 -32 -13 -34 -12 -76 29 -36 35 -49 42 -82 42 -45 0 -82 20 -138
73 -33 31 -37 39 -27 56 6 12 16 21 22 21 6 0 27 12 45 26 33 25 34 29 30 73
-14 123 -42 171 -102 171 -25 0 -35 -4 -35 -15z"/>
</g>
</svg>
