<?xml version="1.0" standalone="no"?>
<!DOCTYPE svg PUBLIC "-//W3C//DTD SVG 20010904//EN"
 "http://www.w3.org/TR/2001/REC-SVG-20010904/DTD/svg10.dtd">
<svg version="1.0" xmlns="http://www.w3.org/2000/svg"
 width="1920.000000pt" height="1080.000000pt" viewBox="0 0 1920.000000 1080.000000"
 preserveAspectRatio="xMidYMid meet">
<metadata>
Created by potrace 1.16, written by Peter Selinger 2001-2019
</metadata>
<g transform="translate(0.000000,1080.000000) scale(0.100000,-0.100000)"
fill="#000000" stroke="none">
<path d="M5122 3068 c-17 -17 -15 -28 9 -54 20 -21 20 -23 4 -58 -21 -43 -68
-86 -140 -127 -46 -26 -59 -40 -89 -100 -19 -38 -40 -88 -46 -111 -15 -55 -74
-107 -148 -130 -31 -10 -67 -18 -79 -18 -37 0 -82 -47 -90 -93 -4 -30 -19 -55
-50 -88 -32 -34 -43 -54 -43 -78 0 -35 43 -111 63 -111 6 0 45 -12 84 -27 48
-18 73 -33 73 -44 0 -8 12 -26 26 -40 46 -43 54 -70 48 -152 -6 -69 -5 -75 17
-96 42 -40 78 -53 123 -46 22 3 77 9 121 13 72 6 85 11 130 46 28 21 52 42 53
47 2 5 29 30 60 55 32 26 78 71 104 102 26 31 61 64 78 75 26 16 34 17 67 5
21 -7 49 -23 63 -36 58 -53 145 -102 183 -102 20 0 37 -4 37 -9 0 -4 16 -29
35 -55 l36 -46 90 0 c75 0 95 4 122 22 78 51 127 164 127 292 -1 55 -5 87 -15
100 -21 28 -19 33 23 60 20 13 56 42 80 63 38 36 42 45 42 86 0 45 -1 46 -54
76 -35 21 -67 31 -94 31 -40 0 -41 1 -67 58 -14 31 -42 73 -61 93 -19 20 -43
51 -52 70 -12 24 -28 38 -57 48 -38 13 -44 12 -99 -14 -55 -26 -63 -27 -117
-17 -37 7 -79 24 -112 46 -30 20 -58 36 -62 36 -13 0 -108 72 -160 121 -52 49
-185 119 -228 119 -12 0 -28 -5 -35 -12z"/>
</g>
</svg>
