<?xml version="1.0" standalone="no"?>
<!DOCTYPE svg PUBLIC "-//W3C//DTD SVG 20010904//EN"
 "http://www.w3.org/TR/2001/REC-SVG-20010904/DTD/svg10.dtd">
<svg version="1.0" xmlns="http://www.w3.org/2000/svg"
 width="1920.000000pt" height="1080.000000pt" viewBox="0 0 1920.000000 1080.000000"
 preserveAspectRatio="xMidYMid meet">
<metadata>
Created by potrace 1.16, written by Peter Selinger 2001-2019
</metadata>
<g transform="translate(0.000000,1080.000000) scale(0.100000,-0.100000)"
fill="#000000" stroke="none">
<path d="M6048 3906 c-26 -41 -50 -87 -54 -103 -7 -30 -66 -92 -149 -158 -27
-22 -58 -49 -67 -60 -26 -30 -22 -70 7 -93 l25 -20 -40 -32 c-35 -28 -40 -37
-40 -73 0 -32 7 -48 25 -66 14 -13 25 -26 25 -30 0 -4 -32 -40 -71 -80 -76
-77 -113 -99 -193 -112 -27 -5 -56 -15 -66 -24 -23 -21 -114 -19 -181 3 -30
11 -58 18 -64 16 -5 -1 -22 -5 -37 -8 -16 -4 -28 -12 -28 -19 0 -26 19 -39 71
-47 97 -16 109 -22 177 -89 37 -37 87 -77 112 -90 25 -12 68 -37 95 -54 45
-29 59 -32 139 -36 69 -2 97 1 128 15 36 16 43 16 66 3 14 -7 30 -23 36 -34 6
-11 28 -39 48 -64 21 -24 49 -68 63 -97 23 -49 29 -54 58 -54 40 0 124 -43
154 -77 18 -22 27 -25 58 -20 36 6 78 38 178 135 21 20 68 57 105 83 65 44 67
46 70 93 3 46 5 48 63 86 33 21 65 40 71 42 8 3 11 33 10 85 -3 88 -4 91 -98
238 -41 64 -44 74 -44 136 0 68 -16 99 -52 99 -8 0 -23 9 -32 19 -10 11 -27
21 -39 23 -11 2 -28 17 -37 33 -27 50 -75 75 -141 75 -54 0 -58 2 -78 34 -13
21 -21 50 -21 79 0 53 -13 94 -40 122 -11 11 -31 52 -45 90 -28 77 -54 105
-94 105 -21 0 -34 -13 -73 -74z"/>
</g>
</svg>
