<?xml version="1.0" standalone="no"?>
<!DOCTYPE svg PUBLIC "-//W3C//DTD SVG 20010904//EN"
 "http://www.w3.org/TR/2001/REC-SVG-20010904/DTD/svg10.dtd">
<svg version="1.0" xmlns="http://www.w3.org/2000/svg"
 width="1920.000000pt" height="1080.000000pt" viewBox="0 0 1920.000000 1080.000000"
 preserveAspectRatio="xMidYMid meet">
<metadata>
Created by potrace 1.16, written by Peter Selinger 2001-2019
</metadata>
<g transform="translate(0.000000,1080.000000) scale(0.100000,-0.100000)"
fill="#000000" stroke="none">
<path d="M6830 4723 c-62 -30 -85 -36 -131 -34 -46 2 -64 -3 -95 -23 -87 -56
-84 -53 -84 -111 0 -30 -4 -57 -10 -60 -5 -3 -26 -30 -46 -60 -35 -53 -36 -57
-33 -134 2 -44 1 -83 -2 -86 -3 -3 -39 2 -80 11 -134 29 -160 29 -191 -1 -16
-14 -28 -31 -28 -38 0 -7 -13 -44 -30 -82 -16 -39 -30 -85 -30 -103 0 -28 5
-35 33 -47 44 -18 60 -39 86 -115 13 -36 32 -74 42 -85 29 -32 47 -85 42 -125
-4 -28 1 -46 18 -73 23 -35 27 -37 77 -37 64 0 102 -18 138 -65 14 -19 37 -41
49 -48 12 -6 41 -22 64 -35 49 -27 61 -53 61 -129 0 -57 26 -114 76 -168 13
-14 23 -43 27 -75 7 -57 20 -80 47 -80 29 0 40 22 31 62 -5 19 -5 42 -1 49 4
8 17 55 30 106 21 81 25 91 41 82 24 -12 57 -11 120 3 47 11 55 17 85 64 19
29 51 65 73 81 22 15 54 52 72 81 42 70 68 82 173 82 68 0 100 5 153 26 67 25
104 35 213 56 67 13 80 22 80 58 0 38 -17 49 -92 61 -78 12 -114 25 -153 57
-26 21 -36 24 -85 19 -41 -5 -65 -2 -96 12 -23 11 -54 22 -71 25 -18 4 -47 28
-77 61 -54 61 -94 85 -143 85 -23 0 -33 5 -33 16 0 9 -20 35 -44 59 -29 28
-49 58 -56 85 -6 23 -19 56 -29 73 -13 25 -17 52 -15 127 2 52 7 111 13 130 6
19 11 66 11 105 -1 58 -6 79 -29 120 -24 44 -32 50 -62 52 -22 1 -60 -10 -109
-34z"/>
</g>
</svg>
