<?xml version="1.0" standalone="no"?>
<!DOCTYPE svg PUBLIC "-//W3C//DTD SVG 20010904//EN"
 "http://www.w3.org/TR/2001/REC-SVG-20010904/DTD/svg10.dtd">
<svg version="1.0" xmlns="http://www.w3.org/2000/svg"
 width="1920.000000pt" height="1080.000000pt" viewBox="0 0 1920.000000 1080.000000"
 preserveAspectRatio="xMidYMid meet">
<metadata>
Created by potrace 1.16, written by Peter Selinger 2001-2019
</metadata>
<g transform="translate(0.000000,1080.000000) scale(0.100000,-0.100000)"
fill="#000000" stroke="none">
<path d="M7808 5245 c-30 -31 -75 -59 -150 -95 -59 -27 -115 -50 -126 -50 -10
0 -61 -21 -113 -46 -97 -48 -90 -47 -264 -55 -16 0 -42 2 -57 6 -22 6 -38 -1
-84 -34 -35 -25 -68 -41 -86 -41 -23 0 -28 -4 -28 -23 0 -13 9 -32 21 -43 19
-17 21 -28 17 -99 -3 -74 -1 -81 19 -90 12 -5 26 -20 32 -33 15 -33 14 -118
-3 -150 -9 -18 -14 -64 -14 -137 -1 -94 3 -118 23 -165 12 -30 28 -68 34 -83
7 -18 18 -27 29 -26 9 1 25 -1 34 -5 9 -4 48 -5 85 -2 37 3 75 5 83 5 186 -4
173 -6 186 21 7 14 35 73 64 132 69 145 81 154 225 163 127 9 140 12 190 56
l37 33 -7 -44 c-5 -36 -16 -54 -56 -92 -42 -40 -49 -51 -49 -85 0 -21 7 -49
16 -61 13 -20 24 -22 94 -22 l79 0 73 73 74 74 65 5 c89 7 109 21 109 76 0 59
-13 79 -59 92 -33 9 -43 18 -67 65 -27 54 -27 57 -14 118 20 96 24 185 8 204
-7 9 -16 52 -19 96 -4 64 -9 81 -25 90 -10 6 -55 49 -99 95 -84 89 -138 122
-200 122 -27 0 -43 -9 -77 -45z"/>
</g>
</svg>
