<?xml version="1.0" standalone="no"?>
<!DOCTYPE svg PUBLIC "-//W3C//DTD SVG 20010904//EN"
 "http://www.w3.org/TR/2001/REC-SVG-20010904/DTD/svg10.dtd">
<svg version="1.0" xmlns="http://www.w3.org/2000/svg"
 width="1920.000000pt" height="1080.000000pt" viewBox="0 0 1920.000000 1080.000000"
 preserveAspectRatio="xMidYMid meet">
<metadata>
Created by potrace 1.16, written by Peter Selinger 2001-2019
</metadata>
<g transform="translate(0.000000,1080.000000) scale(0.100000,-0.100000)"
fill="#000000" stroke="none">
<path d="M7896 4480 c-57 -49 -96 -60 -212 -60 -90 0 -91 0 -127 -35 -32 -31
-105 -165 -122 -225 -17 -58 -60 -74 -132 -48 -27 10 -44 9 -91 -3 -33 -9 -66
-12 -77 -8 -11 4 -37 8 -57 8 -34 1 -38 -2 -38 -23 0 -16 11 -32 30 -46 17
-12 37 -35 45 -51 12 -22 22 -29 46 -29 44 0 80 -22 133 -81 57 -63 144 -99
242 -99 51 0 68 -5 107 -31 32 -21 66 -33 112 -40 74 -10 108 -24 102 -42 -4
-12 -43 -24 -152 -48 -33 -7 -94 -24 -135 -39 -62 -22 -87 -26 -146 -22 -95 6
-132 -12 -175 -84 -19 -30 -51 -66 -71 -79 -21 -14 -52 -48 -68 -74 -18 -29
-43 -54 -61 -61 -29 -13 -40 -13 -124 -8 l-39 3 -24 -90 c-14 -49 -28 -110
-33 -135 -4 -25 -11 -59 -14 -76 -8 -36 13 -59 47 -50 13 3 53 32 89 66 37 33
79 64 94 70 44 17 90 12 111 -11 17 -19 26 -20 88 -14 42 4 89 16 117 30 64
33 197 68 228 60 14 -4 36 -17 49 -31 31 -30 49 -30 108 1 26 14 59 25 73 25
45 0 169 37 210 62 34 20 105 103 153 180 10 14 43 38 75 53 32 14 75 40 96
56 21 17 53 33 72 36 19 3 46 16 60 29 14 13 34 28 45 34 15 8 20 21 20 49 0
31 -6 44 -31 65 -38 32 -67 40 -130 34 -39 -4 -47 -3 -38 8 16 20 92 54 120
54 38 0 49 18 49 81 0 32 5 61 10 64 16 10 11 81 -9 127 -30 69 -41 111 -41
160 0 68 -6 78 -50 78 -30 0 -44 -6 -63 -30 -30 -35 -37 -37 -37 -11 0 12 9
21 25 25 23 6 25 11 25 64 0 67 -19 102 -56 102 -19 0 -24 -5 -24 -24 0 -26
-21 -36 -78 -36 -53 0 -94 -23 -145 -83 -75 -87 -157 -101 -189 -31 -12 25
-10 29 36 69 50 43 51 45 73 173 5 30 4 32 -25 32 -21 0 -45 -12 -76 -40z"/>
</g>
</svg>
