<?xml version="1.0" standalone="no"?>
<!DOCTYPE svg PUBLIC "-//W3C//DTD SVG 20010904//EN"
 "http://www.w3.org/TR/2001/REC-SVG-20010904/DTD/svg10.dtd">
<svg version="1.0" xmlns="http://www.w3.org/2000/svg"
 width="1920.000000pt" height="1080.000000pt" viewBox="0 0 1920.000000 1080.000000"
 preserveAspectRatio="xMidYMid meet">
<metadata>
Created by potrace 1.16, written by Peter Selinger 2001-2019
</metadata>
<g transform="translate(0.000000,1080.000000) scale(0.100000,-0.100000)"
fill="#000000" stroke="none">
<path d="M6262 2371 c-28 -28 -70 -62 -92 -76 -34 -21 -40 -30 -40 -60 0 -18
9 -49 20 -68 19 -31 20 -42 11 -98 -18 -112 -84 -214 -158 -245 -44 -19 -50
-18 -57 11 -8 29 -36 33 -58 8 -38 -45 -52 -169 -22 -211 12 -17 25 -22 58
-22 25 0 49 -6 55 -14 6 -7 39 -23 72 -35 63 -23 85 -50 68 -83 -24 -45 10
-137 58 -160 24 -11 28 -20 31 -60 4 -55 10 -61 80 -76 114 -25 137 -18 176
60 l19 38 15 -23 c22 -33 43 -47 71 -47 25 0 42 9 105 54 24 17 31 17 66 6 50
-16 81 -8 102 29 14 25 24 30 60 33 37 3 45 8 58 33 14 29 17 30 55 24 22 -5
73 -8 112 -8 68 -1 73 0 79 23 3 13 4 38 2 57 -3 31 -7 35 -61 52 -57 19 -58
21 -92 91 -18 39 -44 103 -56 141 -22 70 -52 115 -75 115 -6 0 -14 6 -17 14
-3 7 -23 16 -45 20 -26 4 -45 14 -55 29 -9 14 -41 33 -76 46 -42 15 -78 38
-115 74 -56 53 -65 73 -85 186 -6 32 -16 50 -37 65 -16 12 -35 28 -41 36 -7 8
-26 30 -41 48 -18 22 -39 35 -62 38 -33 5 -41 1 -88 -45z"/>
</g>
</svg>
