<?xml version="1.0" standalone="no"?>
<!DOCTYPE svg PUBLIC "-//W3C//DTD SVG 20010904//EN"
 "http://www.w3.org/TR/2001/REC-SVG-20010904/DTD/svg10.dtd">
<svg version="1.0" xmlns="http://www.w3.org/2000/svg"
 width="1920.000000pt" height="1080.000000pt" viewBox="0 0 1920.000000 1080.000000"
 preserveAspectRatio="xMidYMid meet">
<metadata>
Created by potrace 1.16, written by Peter Selinger 2001-2019
</metadata>
<g transform="translate(0.000000,1080.000000) scale(0.100000,-0.100000)"
fill="#000000" stroke="none">
<path d="M7306 3088 c-9 -5 -16 -15 -16 -22 0 -8 -17 -16 -42 -19 -34 -5 -47
-2 -64 14 -15 14 -35 19 -81 19 -82 0 -101 -8 -188 -85 -41 -36 -79 -65 -84
-65 -5 0 -11 -12 -14 -27 -4 -22 -21 -37 -71 -66 -62 -35 -66 -40 -66 -73 0
-50 -13 -69 -78 -110 -31 -20 -76 -55 -99 -78 -23 -23 -69 -63 -102 -91 -64
-53 -77 -86 -41 -105 11 -6 29 -28 40 -50 11 -21 28 -41 39 -45 34 -11 52 -42
75 -135 23 -88 26 -94 77 -139 29 -25 78 -56 108 -69 30 -12 67 -33 81 -46 14
-13 37 -26 53 -30 52 -12 105 -58 122 -106 41 -114 59 -159 82 -206 23 -47 29
-52 81 -69 54 -18 55 -19 27 -24 -35 -7 -46 -38 -19 -58 22 -16 117 -17 147
-2 28 15 111 97 125 125 9 18 18 20 71 16 44 -3 67 0 85 11 13 9 33 13 44 10
21 -5 102 22 175 58 68 35 137 89 162 129 23 36 24 37 79 32 51 -4 59 -2 81
22 18 19 34 26 62 26 27 0 44 6 57 21 l18 21 14 -21 c12 -16 26 -21 62 -21 65
0 94 18 107 64 12 41 45 72 85 77 17 3 30 15 40 36 11 23 29 38 63 53 52 23
127 91 127 115 0 21 16 19 33 -5 28 -40 141 -57 154 -23 12 30 -16 182 -41
221 -12 21 -37 72 -56 115 -25 57 -45 86 -74 110 -22 17 -57 47 -77 64 -20 18
-58 42 -84 54 -26 12 -73 41 -104 64 -31 24 -74 48 -96 55 -22 6 -152 15 -290
21 -287 11 -295 12 -295 39 0 26 -37 50 -77 50 -24 0 -45 11 -82 44 -27 24
-64 47 -83 51 -18 4 -53 18 -78 30 -48 25 -148 37 -174 23z"/>
</g>
</svg>
