<?xml version="1.0" standalone="no"?>
<!DOCTYPE svg PUBLIC "-//W3C//DTD SVG 20010904//EN"
 "http://www.w3.org/TR/2001/REC-SVG-20010904/DTD/svg10.dtd">
<svg version="1.0" xmlns="http://www.w3.org/2000/svg"
 width="1920.000000pt" height="1080.000000pt" viewBox="0 0 1920.000000 1080.000000"
 preserveAspectRatio="xMidYMid meet">
<metadata>
Created by potrace 1.16, written by Peter Selinger 2001-2019
</metadata>
<g transform="translate(0.000000,1080.000000) scale(0.100000,-0.100000)"
fill="#000000" stroke="none">
<path d="M7920 1542 c-31 -25 -40 -114 -16 -160 31 -59 14 -98 -74 -168 -14
-11 -55 -52 -92 -91 -53 -55 -68 -78 -68 -101 0 -35 -40 -74 -108 -104 -129
-58 -171 -124 -88 -139 11 -2 34 -24 51 -49 25 -35 45 -51 93 -70 38 -16 77
-42 104 -70 64 -67 130 -82 421 -96 l148 -7 37 30 c95 76 305 59 407 -32 87
-78 162 -95 176 -41 5 17 15 34 24 38 28 16 17 55 -30 108 -25 28 -45 59 -45
70 0 22 30 44 72 54 20 4 29 14 34 34 18 84 36 113 81 133 25 10 54 19 65 19
20 0 109 81 141 130 43 62 10 100 -86 100 l-52 0 3 44 c3 31 -3 57 -21 93 -31
59 -37 65 -107 92 -62 25 -114 48 -180 81 -42 21 -54 22 -160 16 -114 -7 -117
-7 -184 24 -83 37 -124 38 -181 4 -42 -24 -48 -25 -102 -14 -76 15 -160 46
-191 70 -31 25 -44 25 -72 2z"/>
</g>
</svg>
