<?xml version="1.0" standalone="no"?>
<!DOCTYPE svg PUBLIC "-//W3C//DTD SVG 20010904//EN"
 "http://www.w3.org/TR/2001/REC-SVG-20010904/DTD/svg10.dtd">
<svg version="1.0" xmlns="http://www.w3.org/2000/svg"
 width="1920.000000pt" height="1080.000000pt" viewBox="0 0 1920.000000 1080.000000"
 preserveAspectRatio="xMidYMid meet">
<metadata>
Created by potrace 1.16, written by Peter Selinger 2001-2019
</metadata>
<g transform="translate(0.000000,1080.000000) scale(0.100000,-0.100000)"
fill="#000000" stroke="none">
<path d="M9365 5691 c-44 -11 -71 -31 -164 -126 -46 -47 -111 -105 -145 -130
-33 -25 -83 -67 -111 -94 -61 -59 -95 -75 -251 -111 -67 -15 -130 -33 -142
-39 -24 -13 -235 -19 -274 -8 -35 9 -47 32 -55 106 -6 59 -7 61 -39 67 -41 7
-54 0 -54 -31 0 -33 -27 -45 -104 -45 -59 0 -66 -2 -66 -19 0 -11 26 -47 58
-79 31 -33 69 -73 83 -88 14 -16 38 -39 53 -51 23 -19 26 -28 26 -90 1 -44 6
-75 15 -87 19 -25 19 -53 0 -141 -21 -101 -19 -138 13 -194 21 -38 34 -51 57
-55 18 -4 34 -15 40 -29 9 -19 19 -22 73 -25 50 -2 68 1 88 17 13 10 42 22 63
26 47 8 134 90 188 178 25 40 42 57 57 57 12 1 31 6 43 13 16 9 49 11 115 6
74 -6 106 -14 158 -38 97 -46 161 -37 147 21 -5 20 -2 18 21 -9 29 -35 67 -53
111 -53 16 0 34 -7 41 -15 7 -8 39 -25 72 -37 33 -12 62 -28 65 -37 16 -44 45
-61 107 -61 53 0 67 4 109 34 l49 35 31 -20 c22 -13 51 -19 92 -19 74 0 156
-21 191 -49 26 -21 78 -28 100 -13 6 4 23 30 38 59 23 46 26 64 26 149 0 72
-4 102 -15 114 -11 13 -13 24 -5 51 15 51 17 260 2 286 -7 12 -12 47 -12 78 0
36 -7 70 -20 95 -16 31 -20 59 -20 139 0 96 -1 100 -26 120 -31 24 -71 27
-118 7 -18 -7 -69 -21 -113 -31 -80 -17 -82 -17 -152 5 -39 12 -79 29 -88 38
-43 45 -103 67 -103 40 0 -7 -19 -21 -42 -31 -41 -17 -43 -17 -68 1 -14 11
-32 40 -41 68 -14 43 -19 49 -45 51 -16 1 -43 -2 -59 -6z"/>
</g>
</svg>
