<?xml version="1.0" standalone="no"?>
<!DOCTYPE svg PUBLIC "-//W3C//DTD SVG 20010904//EN"
 "http://www.w3.org/TR/2001/REC-SVG-20010904/DTD/svg10.dtd">
<svg version="1.0" xmlns="http://www.w3.org/2000/svg"
 width="1920.000000pt" height="1080.000000pt" viewBox="0 0 1920.000000 1080.000000"
 preserveAspectRatio="xMidYMid meet">
<metadata>
Created by potrace 1.16, written by Peter Selinger 2001-2019
</metadata>
<g transform="translate(0.000000,1080.000000) scale(0.100000,-0.100000)"
fill="#000000" stroke="none">
<path d="M8762 4734 c-33 -12 -51 -29 -81 -72 -48 -71 -138 -162 -160 -162 -9
0 -43 -13 -76 -30 -33 -16 -71 -30 -84 -30 -23 0 -23 -1 -17 -73 7 -72 7 -73
-19 -85 -24 -11 -26 -17 -23 -60 3 -44 5 -47 32 -50 23 -3 35 4 59 34 l31 37
18 -23 c13 -16 17 -32 12 -55 -4 -23 3 -60 25 -125 23 -67 29 -95 21 -105 -6
-7 -10 -36 -9 -64 3 -63 -11 -80 -76 -92 -65 -12 -117 -52 -113 -87 3 -26 5
-27 73 -27 87 0 133 -23 113 -55 -27 -43 37 -78 84 -46 31 22 71 20 88 -4 8
-11 26 -20 40 -20 26 0 95 21 106 33 3 3 10 40 15 82 4 43 18 97 30 122 20 42
24 44 53 38 17 -3 81 -9 142 -12 101 -5 115 -3 155 17 24 13 56 36 71 52 27
29 28 30 60 13 18 -9 57 -19 85 -22 39 -4 56 -11 67 -28 12 -19 27 -23 97 -28
63 -5 87 -11 104 -27 28 -26 73 -26 136 1 49 22 51 22 103 4 52 -18 55 -18
100 1 55 22 76 54 76 113 0 34 5 42 33 59 65 41 87 74 99 148 14 84 15 129 4
172 -6 25 -4 32 7 32 19 0 27 21 27 75 0 57 -25 113 -56 127 -22 10 -28 9 -38
-4 -11 -15 -15 -15 -27 -4 -22 22 -121 46 -186 46 -32 0 -71 7 -87 15 -44 23
-102 19 -139 -9 -72 -55 -130 -51 -156 12 -9 22 -23 32 -54 41 -23 7 -59 23
-79 37 -21 13 -49 24 -63 24 -33 0 -73 21 -104 54 -32 34 -71 35 -71 2 0 -45
-21 -49 -91 -17 -56 25 -80 29 -189 34 -99 5 -134 3 -168 -9z"/>
</g>
</svg>
