<?xml version="1.0" standalone="no"?>
<!DOCTYPE svg PUBLIC "-//W3C//DTD SVG 20010904//EN"
 "http://www.w3.org/TR/2001/REC-SVG-20010904/DTD/svg10.dtd">
<svg version="1.0" xmlns="http://www.w3.org/2000/svg"
 width="1920.000000pt" height="1080.000000pt" viewBox="0 0 1920.000000 1080.000000"
 preserveAspectRatio="xMidYMid meet">
<metadata>
Created by potrace 1.16, written by Peter Selinger 2001-2019
</metadata>
<g transform="translate(0.000000,1080.000000) scale(0.100000,-0.100000)"
fill="#000000" stroke="none">
<path d="M8760 3635 c-6 -8 -9 -19 -5 -26 17 -27 -54 -40 -75 -14 -17 20 -109
20 -136 0 -10 -8 -26 -15 -34 -15 -9 0 -31 -13 -50 -29 -19 -15 -49 -31 -67
-35 -17 -4 -51 -21 -74 -38 -24 -17 -67 -42 -96 -55 -30 -14 -61 -37 -71 -51
-52 -83 -119 -160 -159 -184 -42 -24 -196 -68 -240 -68 -10 0 -28 -7 -40 -15
-20 -14 -25 -13 -59 10 -44 30 -97 32 -184 8 -50 -14 -60 -20 -60 -39 0 -25
47 -57 110 -74 23 -6 59 -27 81 -47 27 -24 54 -38 87 -44 43 -8 83 -37 93 -68
3 -6 101 -14 249 -21 299 -13 332 -19 402 -70 29 -22 79 -53 111 -69 32 -17
75 -45 96 -63 21 -18 54 -45 74 -61 27 -20 52 -60 102 -161 36 -74 65 -142 65
-150 0 -11 -9 -16 -31 -16 -28 0 -30 -2 -27 -32 l3 -33 65 -3 c63 -3 66 -2 92
30 l26 33 84 -17 c70 -15 87 -22 108 -48 30 -36 77 -41 105 -10 13 14 31 20
60 20 55 0 139 16 193 37 36 13 48 25 65 62 l22 46 65 5 65 5 3 80 c5 117 -2
141 -48 173 -44 30 -55 57 -90 212 -31 138 -53 181 -124 242 -34 29 -83 74
-110 101 -49 48 -103 78 -203 111 -50 17 -52 19 -68 71 -13 45 -25 63 -77 107
-34 29 -94 86 -135 126 -90 89 -135 110 -163 77z"/>
</g>
</svg>
