<?xml version="1.0" standalone="no"?>
<!DOCTYPE svg PUBLIC "-//W3C//DTD SVG 20010904//EN"
 "http://www.w3.org/TR/2001/REC-SVG-20010904/DTD/svg10.dtd">
<svg version="1.0" xmlns="http://www.w3.org/2000/svg"
 width="1920.000000pt" height="1080.000000pt" viewBox="0 0 1920.000000 1080.000000"
 preserveAspectRatio="xMidYMid meet">
<metadata>
Created by potrace 1.16, written by Peter Selinger 2001-2019
</metadata>
<g transform="translate(0.000000,1080.000000) scale(0.100000,-0.100000)"
fill="#000000" stroke="none">
<path d="M9248 3905 c-10 -13 -46 -37 -80 -54 -61 -29 -66 -29 -138 -20 -182
22 -174 22 -191 3 -23 -26 -38 -76 -45 -148 l-6 -62 54 -42 c30 -23 61 -53 68
-67 8 -15 47 -51 87 -81 72 -54 102 -95 117 -157 4 -15 17 -32 29 -37 12 -5
58 -24 102 -41 57 -23 93 -46 126 -78 25 -25 76 -72 113 -104 36 -32 73 -71
81 -86 7 -15 30 -95 50 -177 l36 -149 50 -46 c35 -33 49 -53 49 -72 0 -21 -5
-27 -21 -27 -17 0 -20 -5 -17 -32 3 -31 6 -33 43 -36 22 -1 67 6 100 17 54 18
63 18 89 5 16 -7 42 -14 58 -14 37 0 48 28 48 118 0 64 -12 115 -60 247 -44
120 -44 122 -18 173 22 45 23 55 20 240 -2 149 1 207 13 253 19 78 19 142 -1
181 -15 28 -14 34 1 77 10 25 27 61 38 80 l20 34 -22 18 c-28 22 -36 23 -53 6
-9 -10 -33 -12 -90 -9 -57 3 -88 0 -119 -12 -41 -17 -43 -17 -70 3 -22 16 -43
21 -93 21 -58 0 -69 3 -99 30 -23 19 -45 30 -65 30 -17 0 -54 9 -82 20 -67 27
-101 25 -122 -5z"/>
</g>
</svg>
