<?xml version="1.0" standalone="no"?>
<!DOCTYPE svg PUBLIC "-//W3C//DTD SVG 20010904//EN"
 "http://www.w3.org/TR/2001/REC-SVG-20010904/DTD/svg10.dtd">
<svg version="1.0" xmlns="http://www.w3.org/2000/svg"
 width="1920.000000pt" height="1080.000000pt" viewBox="0 0 1920.000000 1080.000000"
 preserveAspectRatio="xMidYMid meet">
<metadata>
Created by potrace 1.16, written by Peter Selinger 2001-2019
</metadata>
<g transform="translate(0.000000,1080.000000) scale(0.100000,-0.100000)"
fill="#000000" stroke="none">
<path d="M10199 3893 c-26 -13 -55 -24 -65 -23 -112 7 -129 5 -132 -14 -2 -10
1 -22 7 -25 8 -5 3 -27 -14 -71 -28 -72 -32 -141 -11 -191 12 -30 12 -42 0
-89 -10 -38 -14 -115 -14 -258 0 -196 -1 -204 -25 -252 -32 -63 -31 -84 4
-189 88 -265 87 -257 70 -304 -10 -28 -20 -41 -29 -38 -82 25 -221 -3 -243
-48 -11 -23 -19 -26 -70 -29 l-57 -3 -25 -48 c-27 -54 -41 -63 -86 -54 -21 4
-34 1 -40 -8 -12 -20 -11 -93 2 -106 8 -8 -9 -22 -60 -49 -63 -35 -72 -44 -86
-83 -18 -54 -19 -85 -2 -98 16 -14 179 -53 216 -53 17 0 51 10 75 22 37 18 49
20 68 10 38 -19 261 -30 360 -17 55 7 59 10 84 52 24 42 26 51 19 119 -10 110
8 146 41 82 27 -54 85 -108 115 -108 14 0 38 -9 52 -20 31 -25 148 -28 224 -5
83 25 193 108 193 148 0 20 4 22 50 19 47 -4 50 -2 61 25 7 18 9 61 4 120 l-6
92 26 7 c20 5 30 1 46 -21 25 -31 64 -48 90 -40 26 9 49 56 49 102 0 21 5 56
11 78 21 77 22 105 6 123 -19 21 -22 90 -12 260 l8 122 -39 35 c-21 19 -56 49
-77 67 -28 25 -39 43 -44 73 -7 50 -48 114 -91 146 -18 13 -55 54 -81 90 -27
37 -65 76 -84 88 -19 12 -40 34 -47 51 -14 35 -80 70 -131 70 -34 0 -36 2 -53
55 -9 30 -21 57 -27 60 -5 4 -16 23 -25 43 -8 20 -31 54 -52 75 -43 45 -82 47
-153 10z"/>
</g>
</svg>
