<?xml version="1.0" standalone="no"?>
<!DOCTYPE svg PUBLIC "-//W3C//DTD SVG 20010904//EN"
 "http://www.w3.org/TR/2001/REC-SVG-20010904/DTD/svg10.dtd">
<svg version="1.0" xmlns="http://www.w3.org/2000/svg"
 width="1920.000000pt" height="1080.000000pt" viewBox="0 0 1920.000000 1080.000000"
 preserveAspectRatio="xMidYMid meet">
<metadata>
Created by potrace 1.16, written by Peter Selinger 2001-2019
</metadata>
<g transform="translate(0.000000,1080.000000) scale(0.100000,-0.100000)"
fill="#000000" stroke="none">
<path d="M11435 6647 c-8 -13 -20 -38 -26 -57 -6 -19 -24 -51 -39 -70 -15 -19
-33 -46 -40 -60 -7 -14 -32 -43 -55 -65 -23 -22 -44 -45 -46 -50 -2 -6 -24
-26 -48 -44 l-43 -35 -82 12 c-45 7 -128 12 -183 12 -100 0 -101 0 -127 -30
-14 -17 -28 -46 -32 -65 -7 -41 -63 -95 -98 -95 -12 0 -48 -9 -79 -19 -31 -11
-91 -25 -134 -31 -43 -6 -116 -23 -163 -36 -47 -13 -92 -24 -100 -24 -8 0 -30
-9 -47 -20 -31 -18 -33 -24 -33 -74 0 -38 6 -60 20 -78 18 -24 18 -27 3 -75
-31 -98 6 -223 66 -223 38 0 45 -21 42 -121 -2 -56 3 -89 18 -130 12 -30 21
-76 21 -102 0 -26 7 -62 16 -79 18 -34 15 -134 -7 -249 -10 -49 -9 -60 10 -95
21 -38 27 -97 15 -141 -5 -19 -13 -23 -45 -23 -36 0 -39 -2 -39 -29 0 -35 13
-46 65 -56 21 -3 52 -13 67 -21 48 -25 120 -14 141 23 10 16 125 75 182 93 53
16 103 65 111 108 6 33 21 46 135 115 23 14 27 24 33 94 4 43 16 101 27 129
l21 50 75 13 c67 11 76 16 94 44 22 36 27 165 9 213 -9 24 -7 32 18 63 34 43
48 45 65 11 18 -36 68 -39 118 -6 21 14 44 26 51 26 7 0 37 9 66 20 29 11 65
20 81 20 44 0 59 25 66 118 6 69 5 85 -9 101 -15 16 -15 19 6 40 13 12 45 38
72 58 46 33 52 35 81 24 17 -6 61 -11 97 -11 68 0 78 6 78 50 0 10 11 42 25
72 19 40 25 70 25 120 0 47 7 87 25 134 14 36 25 82 25 101 0 22 11 51 30 80
43 63 41 104 -7 149 -55 52 -74 57 -149 39 -90 -21 -102 -20 -110 10 -8 34
-32 45 -97 45 -34 0 -76 9 -115 25 -79 32 -126 33 -147 2z"/>
</g>
</svg>
