<?xml version="1.0" standalone="no"?>
<!DOCTYPE svg PUBLIC "-//W3C//DTD SVG 20010904//EN"
 "http://www.w3.org/TR/2001/REC-SVG-20010904/DTD/svg10.dtd">
<svg version="1.0" xmlns="http://www.w3.org/2000/svg"
 width="1920.000000pt" height="1080.000000pt" viewBox="0 0 1920.000000 1080.000000"
 preserveAspectRatio="xMidYMid meet">
<metadata>
Created by potrace 1.16, written by Peter Selinger 2001-2019
</metadata>
<g transform="translate(0.000000,1080.000000) scale(0.100000,-0.100000)"
fill="#000000" stroke="none">
<path d="M11708 5269 c-35 -5 -88 -25 -141 -53 -55 -29 -104 -47 -139 -51 -64
-8 -128 -41 -144 -73 -18 -36 -53 -69 -110 -104 -55 -33 -74 -63 -74 -119 0
-34 -10 -37 -36 -8 -10 12 -35 30 -56 40 -25 13 -38 27 -43 47 -10 47 -60 87
-102 83 -19 -2 -15 -39 6 -62 14 -16 18 -30 14 -58 -7 -56 -9 -59 -55 -82 -71
-36 -108 -68 -108 -94 0 -38 -54 -91 -116 -114 -81 -31 -155 -70 -192 -102
-32 -28 -34 -29 -69 -14 -19 8 -55 15 -80 15 -51 0 -63 -17 -43 -64 24 -58 24
-92 0 -114 -19 -17 -21 -27 -15 -59 10 -52 8 -136 -5 -182 -9 -35 -77 -111
-108 -122 -6 -2 -14 -34 -18 -70 l-7 -67 31 -7 c34 -7 99 8 153 36 l37 18 40
-43 c22 -24 43 -54 47 -67 4 -13 16 -35 27 -48 10 -14 23 -44 29 -68 11 -41
13 -43 50 -43 50 0 102 -25 123 -60 9 -16 38 -47 65 -69 27 -23 63 -64 81 -91
18 -28 35 -50 39 -50 4 0 22 -16 41 -35 19 -19 41 -35 49 -35 9 0 11 -7 8 -22
-9 -33 10 -58 42 -58 36 0 41 13 41 99 0 82 15 101 79 101 60 0 81 14 81 54 0
18 9 45 20 59 27 34 27 100 -1 138 l-20 29 26 10 c53 20 71 20 110 0 51 -26
90 -26 113 1 9 11 51 36 92 56 41 19 93 51 114 71 l39 37 -21 -38 c-24 -42
-30 -125 -10 -145 7 -7 34 -12 62 -12 37 0 57 6 82 25 21 16 53 28 83 32 73 8
122 40 151 97 18 34 37 54 65 68 22 11 48 29 58 39 9 10 35 23 58 29 56 15 79
41 79 90 0 42 2 44 58 54 30 5 32 4 32 -23 0 -26 29 -75 55 -93 5 -4 27 -8 48
-8 31 0 45 7 68 31 16 17 29 37 29 44 0 16 63 63 141 104 73 39 139 112 139
155 0 36 -15 56 -41 56 -10 0 -20 8 -23 18 -4 11 -16 24 -29 29 -38 19 -150
51 -216 63 -41 7 -83 24 -118 46 -29 18 -68 40 -87 48 -18 7 -46 32 -62 54
-16 23 -44 49 -62 59 -18 10 -42 33 -54 51 -18 30 -19 42 -13 160 7 119 6 130
-14 162 -15 25 -21 52 -21 92 0 75 -29 112 -101 127 -57 12 -167 12 -251 0z"/>
</g>
</svg>
