<?xml version="1.0" standalone="no"?>
<!DOCTYPE svg PUBLIC "-//W3C//DTD SVG 20010904//EN"
 "http://www.w3.org/TR/2001/REC-SVG-20010904/DTD/svg10.dtd">
<svg version="1.0" xmlns="http://www.w3.org/2000/svg"
 width="1920.000000pt" height="1080.000000pt" viewBox="0 0 1920.000000 1080.000000"
 preserveAspectRatio="xMidYMid meet">
<metadata>
Created by potrace 1.16, written by Peter Selinger 2001-2019
</metadata>
<g transform="translate(0.000000,1080.000000) scale(0.100000,-0.100000)"
fill="#000000" stroke="none">
<path d="M11904 5926 c-13 -10 -14 -17 -5 -33 9 -18 7 -23 -23 -37 -30 -14
-38 -14 -76 -1 -85 30 -119 19 -222 -74 -32 -28 -37 -73 -13 -106 18 -23 10
-111 -12 -136 -8 -9 -32 -20 -55 -23 -55 -9 -156 -44 -194 -67 -31 -19 -54
-12 -54 17 0 15 -23 24 -60 24 -51 0 -100 -79 -85 -138 16 -62 17 -140 1 -171
-21 -39 -38 -48 -113 -56 -61 -7 -61 -8 -77 -49 -20 -52 -20 -100 -2 -116 8
-6 20 -27 26 -45 7 -21 21 -37 40 -45 16 -6 36 -20 46 -31 12 -13 30 -19 61
-19 42 0 43 1 43 33 1 48 19 72 88 117 36 23 73 58 88 81 29 46 107 89 164 89
19 0 55 11 80 24 25 13 63 33 85 45 88 46 289 54 344 14 36 -27 61 -80 61
-129 0 -23 9 -61 19 -85 15 -36 17 -54 11 -94 -5 -27 -9 -82 -9 -122 -1 -63 2
-75 25 -102 14 -17 39 -39 55 -48 16 -10 42 -35 56 -56 17 -24 46 -48 78 -63
27 -13 65 -34 83 -45 18 -12 67 -29 110 -39 153 -35 201 -54 241 -93 34 -33
44 -37 88 -37 75 0 110 16 123 55 6 19 27 47 46 62 33 27 35 31 43 118 14 154
70 235 161 235 l48 0 64 82 c34 45 85 106 112 135 47 51 51 53 101 53 40 0 72
9 131 37 117 54 134 68 134 108 0 19 -6 37 -12 41 -7 5 -76 12 -153 17 -168
10 -179 10 -325 2 l-115 -6 -78 47 -78 47 -102 -8 c-56 -4 -158 -8 -227 -9
-118 -2 -126 0 -149 21 -13 13 -32 23 -42 23 -12 0 -26 16 -40 43 -11 23 -40
60 -62 83 -23 22 -56 59 -74 81 -29 37 -37 41 -90 46 -32 3 -83 17 -114 31
-62 27 -56 15 -119 212 -21 65 -44 83 -76 60z"/>
</g>
</svg>
