<?xml version="1.0" standalone="no"?>
<!DOCTYPE svg PUBLIC "-//W3C//DTD SVG 20010904//EN"
 "http://www.w3.org/TR/2001/REC-SVG-20010904/DTD/svg10.dtd">
<svg version="1.0" xmlns="http://www.w3.org/2000/svg"
 width="1920.000000pt" height="1080.000000pt" viewBox="0 0 1920.000000 1080.000000"
 preserveAspectRatio="xMidYMid meet">
<metadata>
Created by potrace 1.16, written by Peter Selinger 2001-2019
</metadata>
<g transform="translate(0.000000,1080.000000) scale(0.100000,-0.100000)"
fill="#000000" stroke="none">
<path d="M13810 6741 c-87 -23 -101 -32 -155 -95 -26 -31 -75 -71 -113 -94
-66 -39 -69 -40 -202 -48 -74 -4 -182 -9 -240 -9 -58 -1 -144 -5 -192 -10 -76
-7 -92 -12 -124 -38 -35 -30 -36 -32 -30 -83 6 -52 6 -53 -21 -56 -22 -2 -29
-9 -31 -30 -5 -41 -72 -78 -141 -78 -40 0 -53 4 -57 18 -15 48 -44 92 -95 142
-58 57 -89 105 -89 138 0 10 -11 29 -24 41 -23 21 -29 22 -107 14 -46 -4 -93
-6 -104 -5 -36 5 -65 -7 -65 -28 0 -10 10 -26 23 -35 l22 -16 -32 -59 c-19
-34 -33 -73 -33 -93 0 -18 -11 -61 -25 -95 -18 -44 -25 -81 -25 -129 0 -46 -7
-82 -20 -112 -25 -54 -25 -65 0 -99 11 -15 26 -49 34 -77 36 -128 48 -148 105
-177 30 -16 68 -28 85 -28 64 0 102 -19 131 -62 16 -23 45 -57 65 -76 21 -18
45 -51 55 -72 10 -22 27 -42 39 -46 12 -3 35 -17 52 -29 29 -22 37 -23 175
-20 79 1 179 6 221 10 l77 8 73 -44 72 -44 126 1 c69 0 141 1 160 3 19 1 80
-1 135 -4 l100 -8 32 -43 c21 -28 45 -46 66 -52 19 -5 58 -26 87 -46 29 -20
63 -36 76 -36 17 0 28 -8 36 -27 20 -47 39 -63 75 -63 67 0 75 11 72 103 -1
45 4 102 11 127 10 36 10 57 0 108 l-12 62 35 60 c20 33 43 85 53 117 9 32 25
83 35 114 20 59 25 148 10 177 -36 70 -62 180 -63 264 0 103 26 146 136 223
50 35 104 69 119 76 25 11 27 17 27 68 0 52 -3 59 -39 93 -49 46 -65 54 -123
63 -42 6 -54 14 -99 67 -29 32 -64 65 -80 73 -39 21 -196 18 -279 -4z"/>
</g>
</svg>
