<?xml version="1.0" standalone="no"?>
<!DOCTYPE svg PUBLIC "-//W3C//DTD SVG 20010904//EN"
 "http://www.w3.org/TR/2001/REC-SVG-20010904/DTD/svg10.dtd">
<svg version="1.0" xmlns="http://www.w3.org/2000/svg"
 width="1920.000000pt" height="1080.000000pt" viewBox="0 0 1920.000000 1080.000000"
 preserveAspectRatio="xMidYMid meet">
<metadata>
Created by potrace 1.16, written by Peter Selinger 2001-2019
</metadata>
<g transform="translate(0.000000,1080.000000) scale(0.100000,-0.100000)"
fill="#000000" stroke="none">
<path d="M14030 5154 c0 -14 7 -32 15 -40 21 -21 19 -87 -3 -115 -24 -28 -46
-21 -73 25 -13 23 -33 39 -57 47 -20 6 -53 24 -72 39 -38 29 -90 50 -126 50
-13 0 -63 -18 -110 -40 -66 -30 -99 -40 -138 -40 -48 0 -55 -3 -93 -42 -23
-24 -54 -60 -70 -80 -123 -161 -109 -148 -162 -148 -64 0 -96 -26 -132 -107
-22 -47 -29 -78 -29 -123 0 -68 -10 -93 -51 -127 -15 -13 -33 -39 -39 -57 -11
-35 -44 -56 -86 -56 -19 0 -28 -7 -35 -30 -9 -24 -17 -30 -39 -30 -34 0 -60
-23 -60 -53 0 -26 -28 -74 -64 -110 -20 -20 -26 -36 -26 -69 0 -91 46 -108
167 -62 58 22 79 25 145 21 58 -4 84 -10 104 -26 33 -26 84 -27 116 -2 15 12
33 18 45 15 12 -3 32 2 46 11 24 15 26 15 39 -3 7 -11 22 -21 33 -23 13 -3 21
-14 23 -31 6 -47 51 -75 135 -83 41 -4 93 -5 117 -4 40 4 44 2 51 -25 9 -32
36 -66 54 -66 7 0 18 -7 25 -15 20 -24 156 -21 198 5 18 11 34 20 37 20 2 0 5
-19 7 -42 3 -37 6 -43 28 -46 14 -2 54 -15 90 -29 59 -23 74 -25 186 -21 122
4 149 11 192 55 17 17 27 16 42 -2 9 -11 33 -15 94 -14 119 1 130 6 134 56 3
35 -1 44 -20 54 -13 6 -34 25 -47 41 -14 17 -42 38 -64 48 -39 18 -103 67
-164 127 -25 23 -33 40 -33 65 0 61 -26 125 -64 161 l-36 34 0 111 c0 62 4
142 10 179 5 38 14 149 18 248 9 179 9 180 -14 217 -18 27 -34 40 -64 48 -27
7 -57 28 -89 61 -54 56 -91 66 -91 23z"/>
</g>
</svg>
