<?xml version="1.0" standalone="no"?>
<!DOCTYPE svg PUBLIC "-//W3C//DTD SVG 20010904//EN"
 "http://www.w3.org/TR/2001/REC-SVG-20010904/DTD/svg10.dtd">
<svg version="1.0" xmlns="http://www.w3.org/2000/svg"
 width="1920.000000pt" height="1080.000000pt" viewBox="0 0 1920.000000 1080.000000"
 preserveAspectRatio="xMidYMid meet">
<metadata>
Created by potrace 1.16, written by Peter Selinger 2001-2019
</metadata>
<g transform="translate(0.000000,1080.000000) scale(0.100000,-0.100000)"
fill="#000000" stroke="none">
<path d="M14715 6718 c-22 -6 -58 -19 -81 -29 -50 -23 -73 -24 -103 -3 -19 14
-38 16 -100 11 -43 -3 -90 -11 -105 -17 -15 -5 -54 -10 -87 -10 -46 0 -61 -4
-66 -17 -9 -22 18 -67 42 -71 83 -14 153 -59 183 -118 14 -26 6 -36 -43 -63
-79 -41 -189 -127 -210 -161 -18 -31 -20 -51 -19 -170 1 -122 4 -142 29 -210
16 -41 28 -93 28 -115 0 -59 -57 -233 -99 -304 -35 -58 -36 -64 -29 -124 3
-34 6 -89 5 -121 -1 -57 1 -61 42 -103 25 -26 55 -45 74 -49 48 -9 77 -46 84
-107 7 -70 -5 -308 -20 -382 -7 -35 -10 -114 -8 -186 l3 -125 36 -42 c36 -42
52 -84 64 -169 6 -37 15 -48 80 -101 40 -33 91 -70 113 -81 22 -11 51 -35 65
-53 24 -29 24 -33 9 -45 -15 -12 -11 -19 47 -73 69 -64 93 -72 145 -45 15 8
43 15 62 15 36 0 115 27 126 44 10 15 6 329 -5 347 -7 11 -2 27 19 60 25 38
29 54 28 114 0 46 -8 93 -22 135 -13 36 -26 103 -31 150 -7 77 -27 140 -49
154 -5 3 -5 27 -1 53 13 80 11 159 -5 172 -16 14 -13 59 10 130 8 25 14 85 14
137 l0 92 50 60 c58 70 64 93 75 285 5 93 4 136 -5 158 -11 26 -10 32 6 44 11
8 27 15 38 15 15 0 17 6 13 43 -8 66 -46 189 -68 220 -19 27 -20 30 -4 47 20
22 30 110 21 174 -4 26 -18 59 -32 75 -40 48 -28 166 22 222 9 10 14 30 12 45
-3 24 -11 30 -78 53 -41 14 -81 30 -89 35 -21 14 -141 16 -186 4z"/>
</g>
</svg>
