<?xml version="1.0" standalone="no"?>
<!DOCTYPE svg PUBLIC "-//W3C//DTD SVG 20010904//EN"
 "http://www.w3.org/TR/2001/REC-SVG-20010904/DTD/svg10.dtd">
<svg version="1.0" xmlns="http://www.w3.org/2000/svg"
 width="1920.000000pt" height="1080.000000pt" viewBox="0 0 1920.000000 1080.000000"
 preserveAspectRatio="xMidYMid meet">
<metadata>
Created by potrace 1.16, written by Peter Selinger 2001-2019
</metadata>
<g transform="translate(0.000000,1080.000000) scale(0.100000,-0.100000)"
fill="#000000" stroke="none">
<path d="M15724 6861 c-23 -10 -65 -22 -95 -26 -30 -4 -66 -14 -81 -23 -25
-15 -32 -14 -95 6 -65 21 -153 28 -200 16 -28 -8 -34 -25 -39 -110 -2 -38 -10
-86 -18 -105 -8 -18 -15 -28 -16 -21 0 25 -40 52 -76 52 -19 0 -45 5 -56 11
-30 16 -55 -10 -39 -40 9 -16 8 -27 -4 -51 -10 -19 -16 -62 -18 -122 -2 -87 0
-95 26 -132 37 -53 38 -131 2 -174 -30 -36 -32 -73 -5 -97 19 -17 35 -55 61
-145 18 -60 18 -59 -11 -73 -22 -11 -26 -21 -30 -79 -3 -43 -11 -73 -22 -85
-54 -59 17 -116 71 -59 l23 25 28 -21 c23 -17 39 -20 89 -16 53 4 66 9 96 38
20 19 47 59 62 90 33 72 88 139 127 155 27 12 32 11 44 -6 15 -21 61 -25 94
-8 11 6 -6 -15 -37 -48 -61 -62 -85 -105 -85 -151 0 -37 16 -52 59 -53 32 0
40 -6 66 -47 17 -26 44 -56 61 -67 17 -11 36 -31 42 -45 21 -46 128 -121 201
-140 36 -10 79 -23 94 -29 16 -6 50 -11 76 -11 39 0 54 6 87 33 77 64 71 63
93 19 26 -52 66 -82 105 -82 46 1 64 21 76 81 6 30 16 75 21 100 6 26 7 62 4
81 -6 30 -3 37 19 52 22 14 26 24 26 63 0 25 10 81 22 125 19 72 26 83 60 104
23 15 53 24 77 24 51 0 64 18 69 93 4 51 9 64 32 84 15 12 31 35 34 49 9 34
-17 74 -47 74 -12 1 -40 13 -62 28 -33 23 -41 35 -46 70 -4 33 -16 54 -51 90
-25 26 -49 57 -52 69 -4 12 -1 59 5 105 21 137 19 158 -16 179 -53 31 -94 24
-171 -28 -62 -42 -74 -46 -121 -44 -60 2 -128 -28 -191 -86 -21 -20 -30 -16
-37 17 -4 17 -24 54 -46 82 -27 36 -39 63 -39 85 0 22 -13 53 -36 88 l-37 55
-66 0 c-43 0 -81 -7 -107 -19z"/>
</g>
</svg>
