<?xml version="1.0" standalone="no"?>
<!DOCTYPE svg PUBLIC "-//W3C//DTD SVG 20010904//EN"
 "http://www.w3.org/TR/2001/REC-SVG-20010904/DTD/svg10.dtd">
<svg version="1.0" xmlns="http://www.w3.org/2000/svg"
 width="1920.000000pt" height="1080.000000pt" viewBox="0 0 1920.000000 1080.000000"
 preserveAspectRatio="xMidYMid meet">
<metadata>
Created by potrace 1.16, written by Peter Selinger 2001-2019
</metadata>
<g transform="translate(0.000000,1080.000000) scale(0.100000,-0.100000)"
fill="#000000" stroke="none">
<path d="M15423 5864 c-25 -25 -54 -67 -64 -92 -26 -61 -63 -109 -103 -133
-40 -24 -67 -24 -99 1 -33 26 -79 26 -102 0 -14 -16 -20 -45 -26 -123 -4 -56
-8 -105 -8 -109 -1 -4 -21 -31 -45 -61 -63 -77 -66 -86 -66 -181 0 -47 -7
-111 -15 -143 -21 -80 -30 -163 -18 -163 18 0 29 -44 22 -85 -15 -80 -10 -140
15 -186 17 -30 27 -68 31 -119 4 -41 19 -115 33 -164 24 -82 25 -91 11 -129
-11 -34 -20 -43 -44 -47 -22 -4 -31 -11 -33 -29 -5 -36 32 -61 90 -61 39 0 53
-5 78 -30 37 -36 91 -40 130 -10 20 15 41 20 99 20 41 0 89 5 107 12 28 10 33
17 36 47 l3 36 20 -34 c20 -33 21 -33 78 -28 49 4 57 3 57 -12 0 -9 7 -27 16
-39 23 -33 61 -28 119 18 31 25 61 40 78 40 32 0 47 27 55 103 4 40 10 52 38
74 28 21 34 32 34 64 0 36 2 38 38 45 55 10 86 29 121 73 27 34 31 47 31 100
0 46 6 74 25 111 19 37 25 65 25 113 l0 64 38 -1 37 -1 -2 104 c-2 77 -6 108
-18 121 -8 9 -15 35 -15 58 0 23 -4 42 -10 42 -23 0 -8 19 19 25 16 3 36 13
43 22 17 20 14 104 -4 118 -22 17 -55 69 -51 81 2 6 -6 19 -17 29 -31 28 -55
9 -55 -41 0 -22 -4 -45 -8 -51 -11 -17 -47 -16 -91 2 -19 8 -58 20 -86 26 -59
13 -172 95 -192 140 -7 16 -21 32 -30 35 -22 7 -98 93 -98 110 0 10 -13 14
-39 14 -22 0 -44 6 -51 15 -15 18 10 59 84 140 35 38 46 57 46 82 0 28 -4 33
-23 33 -12 0 -33 -7 -45 -16 -21 -15 -25 -15 -41 0 -11 10 -36 16 -66 16 -44
0 -52 -4 -92 -46z"/>
</g>
</svg>
