<?xml version="1.0" standalone="no"?>
<!DOCTYPE svg PUBLIC "-//W3C//DTD SVG 20010904//EN"
 "http://www.w3.org/TR/2001/REC-SVG-20010904/DTD/svg10.dtd">
<svg version="1.0" xmlns="http://www.w3.org/2000/svg"
 width="1920.000000pt" height="1080.000000pt" viewBox="0 0 1920.000000 1080.000000"
 preserveAspectRatio="xMidYMid meet">
<metadata>
Created by potrace 1.16, written by Peter Selinger 2001-2019
</metadata>
<g transform="translate(0.000000,1080.000000) scale(0.100000,-0.100000)"
fill="#000000" stroke="none">
<path d="M17117 6453 c-4 -3 -7 -15 -7 -25 0 -25 -66 -95 -110 -118 -28 -14
-50 -18 -91 -13 -49 5 -58 3 -86 -21 -24 -20 -45 -27 -85 -30 -63 -3 -78 -10
-78 -36 0 -19 19 -30 50 -30 10 0 20 -9 23 -20 3 -13 14 -20 30 -20 13 0 31
-7 38 -16 12 -14 9 -20 -19 -44 -29 -24 -32 -32 -32 -81 0 -71 -19 -99 -66
-99 -19 0 -52 -9 -73 -20 -34 -17 -42 -28 -59 -82 -11 -35 -23 -88 -27 -118
-6 -52 -8 -56 -33 -55 -22 0 -28 -5 -30 -27 -2 -16 4 -31 15 -40 36 -26 63
-71 63 -105 0 -19 5 -44 12 -56 6 -12 12 -39 12 -61 1 -33 6 -41 36 -57 42
-23 137 -26 165 -5 17 12 23 11 48 -10 22 -19 40 -24 83 -24 l54 0 32 65 32
65 51 0 c32 0 61 7 82 20 35 21 73 85 73 122 1 32 18 52 75 85 45 26 50 33 53
69 4 43 -16 152 -31 171 -9 12 -7 63 9 240 5 54 2 84 -10 119 -9 26 -16 62
-16 80 0 26 -8 39 -40 64 -22 18 -48 46 -57 64 -24 47 -65 70 -86 49z"/>
</g>
</svg>
