<?xml version="1.0" standalone="no"?>
<!DOCTYPE svg PUBLIC "-//W3C//DTD SVG 20010904//EN"
 "http://www.w3.org/TR/2001/REC-SVG-20010904/DTD/svg10.dtd">
<svg version="1.0" xmlns="http://www.w3.org/2000/svg"
 width="1920.000000pt" height="1080.000000pt" viewBox="0 0 1920.000000 1080.000000"
 preserveAspectRatio="xMidYMid meet">
<metadata>
Created by potrace 1.16, written by Peter Selinger 2001-2019
</metadata>
<g transform="translate(0.000000,1080.000000) scale(0.100000,-0.100000)"
fill="#000000" stroke="none">
<path d="M17290 5656 c-5 -14 -14 -26 -19 -26 -22 0 -81 -63 -81 -86 0 -39
-38 -103 -73 -124 -21 -13 -50 -20 -83 -20 l-51 0 -23 -50 c-34 -72 -52 -86
-90 -70 -17 7 -35 21 -41 31 -13 25 -54 24 -86 -1 -33 -25 -79 -25 -120 0 -29
17 -33 25 -33 64 0 25 -4 47 -9 50 -5 3 -12 27 -16 53 -9 66 -28 93 -66 93
l-30 0 1 -57 c3 -102 -15 -193 -44 -221 l-25 -25 -33 34 c-18 19 -41 49 -50
67 -20 37 -50 42 -85 13 -32 -27 -29 -66 7 -108 36 -41 29 -65 -25 -88 -38
-15 -46 -46 -23 -88 7 -12 11 -35 9 -50 -1 -16 5 -37 14 -47 13 -14 18 -39 19
-89 l1 -70 -40 -3 -40 -3 3 -62 c3 -50 -1 -70 -23 -112 -20 -40 -25 -64 -24
-110 2 -53 -2 -64 -29 -98 -31 -40 -76 -68 -123 -77 -22 -5 -28 -13 -33 -47
-6 -37 -9 -40 -29 -34 -12 4 -37 9 -54 12 -31 5 -33 3 -33 -24 0 -36 27 -63
62 -63 31 0 54 -25 63 -70 4 -19 16 -49 26 -66 10 -17 19 -47 19 -65 1 -66 47
-109 116 -109 31 0 34 -3 34 -28 0 -42 76 -102 130 -102 15 0 20 -6 20 -29 0
-43 19 -52 97 -49 66 3 68 4 71 31 3 20 13 32 36 44 20 9 46 36 65 68 30 49
32 59 30 133 -1 59 2 86 14 102 25 36 127 102 191 125 32 11 63 27 67 35 45
78 93 203 97 250 5 66 15 80 55 80 42 0 111 35 127 64 7 14 33 44 57 67 30 28
58 71 83 126 l39 83 47 0 c43 0 51 4 91 45 l43 45 0 93 c0 62 -5 101 -15 121
-8 15 -15 51 -15 80 0 28 -7 98 -14 155 -12 89 -18 107 -41 130 -14 14 -34 42
-44 61 -23 44 -57 52 -71 16z"/>
</g>
</svg>
