<?xml version="1.0" standalone="no"?>
<!DOCTYPE svg PUBLIC "-//W3C//DTD SVG 20010904//EN"
 "http://www.w3.org/TR/2001/REC-SVG-20010904/DTD/svg10.dtd">
<svg version="1.0" xmlns="http://www.w3.org/2000/svg"
 width="183.000000pt" height="140.000000pt" viewBox="0 0 183.000000 140.000000"
 preserveAspectRatio="xMidYMid meet">
<metadata>
Created by potrace 1.16, written by Peter Selinger 2001-2019
</metadata>
<g transform="translate(0.000000,140.000000) scale(0.100000,-0.100000)"
fill="#000000" stroke="none">
<path d="M1268 1386 c-15 -6 -42 -29 -60 -49 -35 -40 -30 -39 -223 -67 -33 -5
-87 -15 -120 -24 -34 -9 -76 -13 -97 -10 -32 6 -43 2 -81 -30 l-44 -36 -22 31
c-13 17 -35 35 -51 40 -15 6 -30 19 -33 30 -4 16 -14 19 -60 19 -46 0 -61 -5
-88 -27 -53 -45 -77 -135 -45 -172 20 -23 30 -101 13 -101 -7 0 -18 5 -24 11
-6 6 -23 9 -39 7 -42 -5 -54 -45 -28 -94 l19 -36 -29 -22 c-16 -11 -47 -36
-68 -55 -33 -29 -38 -31 -38 -14 0 35 -57 103 -85 103 -21 0 -29 -9 -45 -46
-24 -55 -25 -90 -5 -102 9 -5 22 -37 30 -73 27 -130 46 -172 90 -196 31 -17
41 -29 45 -55 5 -32 6 -33 65 -38 35 -3 72 -13 88 -24 24 -16 39 -18 105 -12
86 7 89 6 174 -68 97 -86 104 -89 161 -83 68 8 136 28 167 50 20 14 36 16 86
11 37 -4 69 -2 81 4 25 14 165 43 172 37 2 -3 -10 -21 -29 -40 -33 -34 -33
-34 -21 -87 6 -29 12 -78 14 -108 2 -52 3 -55 31 -58 47 -6 144 37 204 90 54
47 56 48 107 42 68 -8 75 3 75 130 0 87 -2 97 -26 125 l-26 31 44 19 c23 11
66 23 93 26 72 11 87 21 83 57 -3 27 -12 36 -68 65 -49 26 -67 42 -75 65 -10
30 -22 41 -57 52 -15 4 -18 17 -18 76 0 58 -5 81 -34 142 -19 40 -38 93 -44
116 -9 42 -9 44 22 63 17 10 48 19 68 19 27 0 40 6 48 19 11 22 13 120 2 137
-4 7 -38 33 -76 59 -54 37 -82 49 -130 56 -83 12 -165 10 -198 -5z m232 -66
c13 -7 45 -28 72 -47 38 -28 48 -41 48 -64 0 -26 -4 -29 -30 -29 -34 0 -104
-40 -119 -68 -19 -36 -1 -133 38 -202 31 -56 37 -76 41 -150 5 -83 6 -85 40
-108 19 -12 40 -36 47 -53 9 -21 25 -35 53 -46 45 -18 52 -33 16 -33 -65 0
-166 -62 -166 -102 0 -9 14 -33 30 -51 27 -31 30 -41 30 -103 l0 -69 -43 3
c-39 3 -49 -1 -103 -45 -47 -39 -125 -83 -148 -83 -2 0 -6 30 -9 68 -5 67 -5
67 34 114 25 30 39 57 39 75 0 54 -33 65 -111 38 -89 -32 -176 -48 -248 -46
-64 2 -77 -1 -106 -24 -19 -14 -45 -25 -58 -25 -14 0 -41 -7 -60 -15 -24 -10
-38 -11 -42 -5 -4 6 -21 21 -40 33 -18 12 -61 46 -96 76 l-63 54 -81 -7 c-69
-5 -84 -3 -110 14 -16 11 -46 20 -65 20 -27 0 -38 5 -45 22 -9 20 -31 38 -89
73 -10 6 -25 42 -36 85 -23 89 -23 87 -8 72 23 -23 53 -12 104 41 28 28 68 65
88 80 32 26 36 34 36 73 0 40 2 44 24 44 44 0 63 29 70 102 6 64 5 68 -19 84
-33 22 -32 49 4 85 32 32 65 38 75 14 3 -9 20 -21 36 -27 18 -6 41 -27 56 -49
31 -50 61 -51 118 -3 36 30 51 36 101 39 33 2 89 10 125 19 101 23 223 46 249
46 14 0 40 16 64 40 22 23 47 45 56 51 21 13 171 5 201 -11z"/>
</g>
</svg>
