<?xml version="1.0" standalone="no"?>
<!DOCTYPE svg PUBLIC "-//W3C//DTD SVG 20010904//EN"
 "http://www.w3.org/TR/2001/REC-SVG-20010904/DTD/svg10.dtd">
<svg version="1.0" xmlns="http://www.w3.org/2000/svg"
 width="110.000000pt" height="145.000000pt" viewBox="0 0 110.000000 145.000000"
 preserveAspectRatio="xMidYMid meet">
<metadata>
Created by potrace 1.16, written by Peter Selinger 2001-2019
</metadata>
<g transform="translate(0.000000,145.000000) scale(0.100000,-0.100000)"
fill="#000000" stroke="none">
<path d="M945 1429 c-84 -23 -77 -23 -145 -14 -51 7 -59 5 -87 -19 -18 -15
-43 -26 -61 -26 -16 0 -46 -7 -65 -15 -20 -8 -50 -15 -66 -15 -16 0 -48 -9
-72 -20 -24 -11 -53 -20 -65 -20 -24 0 -54 -29 -54 -52 0 -25 -35 -48 -74 -48
-20 0 -49 -6 -64 -14 -34 -18 -78 -65 -85 -91 -33 -120 -63 -208 -84 -244 -26
-45 -27 -74 -4 -133 7 -20 18 -28 35 -28 35 0 51 -26 51 -84 l0 -51 59 -3 c49
-3 62 0 82 19 27 25 28 24 14 -17 -7 -19 -22 -34 -40 -41 -52 -19 -96 -164
-55 -179 10 -4 15 -20 15 -51 0 -24 9 -62 19 -83 l19 -40 -23 0 c-72 0 -98
-45 -51 -89 33 -31 136 -62 226 -67 60 -4 90 -1 150 18 74 24 75 24 75 58 0
31 -7 39 -75 87 -41 29 -75 60 -75 69 0 10 14 21 34 28 39 12 75 73 87 143 l6
40 -56 28 c-50 25 -56 32 -56 59 0 30 1 31 48 33 26 0 63 4 83 8 26 5 38 3 48
-9 8 -9 26 -16 42 -16 24 0 31 7 44 36 8 20 15 50 15 67 0 17 8 39 17 49 13
14 17 38 18 89 0 43 4 69 11 69 6 0 31 17 55 39 24 21 59 46 77 55 18 9 32 24
32 34 0 39 24 72 53 72 44 0 59 49 55 179 -3 99 -2 107 20 130 14 16 22 35 20
50 -3 23 -8 26 -43 28 -22 1 -71 -7 -110 -18z m53 -158 c4 -134 0 -153 -34
-145 -29 7 -64 -19 -64 -47 0 -10 -4 -21 -10 -24 -5 -3 -10 -14 -10 -23 0 -21
-105 -112 -130 -112 -9 0 -25 -9 -35 -20 -16 -18 -17 -25 -7 -54 18 -50 14
-82 -14 -115 -18 -22 -24 -40 -22 -63 l3 -33 -63 3 c-40 3 -68 -1 -78 -9 -12
-10 -24 -8 -64 11 -48 23 -50 23 -70 5 -22 -20 -27 -60 -9 -71 7 -4 9 -21 5
-47 -8 -49 11 -83 53 -92 48 -10 57 -29 36 -75 -11 -25 -25 -40 -36 -40 -9 0
-31 -12 -48 -26 -46 -39 -42 -71 17 -126 27 -25 58 -51 70 -57 32 -17 27 -25
-23 -39 -60 -16 -93 -15 -170 4 l-65 16 25 20 c31 24 33 65 5 110 -13 21 -20
51 -20 82 0 28 -6 56 -14 65 -12 14 -12 21 1 54 9 23 22 37 33 37 26 0 47 30
61 85 7 28 21 69 31 93 22 54 23 70 1 94 -36 40 -75 17 -123 -70 -33 -61 -60
-68 -60 -16 0 29 -7 46 -32 71 -18 18 -40 33 -49 33 -24 0 -31 38 -11 68 9 14
35 81 57 151 36 111 44 128 74 148 21 14 49 23 73 23 32 0 47 7 74 34 19 19
34 41 34 49 0 8 12 17 27 20 16 3 48 12 73 20 61 21 137 39 185 45 24 2 50 14
65 28 25 23 29 23 88 13 49 -9 66 -8 78 2 8 7 32 16 52 20 20 3 37 7 37 8 0 0
2 -48 3 -108z"/>
<path d="M435 1040 l-29 -30 -21 20 c-24 22 -65 26 -83 8 -16 -16 -15 -59 3
-84 13 -19 12 -23 -10 -44 -14 -13 -25 -33 -25 -45 0 -26 29 -55 56 -55 11 0
25 -9 32 -20 18 -29 56 -25 84 8 21 25 27 27 62 20 29 -6 45 -4 63 7 25 17 31
53 11 73 -9 9 -7 13 8 18 26 10 64 45 64 60 0 23 -53 56 -82 52 -20 -3 -34 2
-50 19 -29 31 -48 29 -83 -7z"/>
</g>
</svg>
