<?xml version="1.0" standalone="no"?>
<!DOCTYPE svg PUBLIC "-//W3C//DTD SVG 20010904//EN"
 "http://www.w3.org/TR/2001/REC-SVG-20010904/DTD/svg10.dtd">
<svg version="1.0" xmlns="http://www.w3.org/2000/svg"
 width="110.000000pt" height="236.000000pt" viewBox="0 0 110.000000 236.000000"
 preserveAspectRatio="xMidYMid meet">
<metadata>
Created by potrace 1.16, written by Peter Selinger 2001-2019
</metadata>
<g transform="translate(0.000000,236.000000) scale(0.100000,-0.100000)"
fill="#000000" stroke="none">
<path d="M380 2336 c-13 -36 -35 -44 -135 -47 -69 -3 -101 1 -136 15 -25 10
-59 16 -75 14 -26 -3 -29 -7 -29 -38 0 -31 5 -37 41 -55 l41 -20 -23 -37 c-13
-20 -28 -39 -34 -43 -5 -3 -10 -27 -10 -52 0 -35 8 -58 32 -96 23 -36 33 -64
36 -106 3 -42 9 -60 25 -73 20 -16 21 -19 8 -65 -8 -26 -17 -69 -21 -96 -3
-26 -12 -53 -18 -59 -26 -26 -12 -62 43 -118 32 -31 57 -67 61 -85 4 -16 15
-46 25 -66 16 -32 18 -53 13 -155 -4 -81 -13 -137 -26 -176 -21 -59 -61 -108
-73 -89 -10 17 -50 13 -68 -7 -19 -20 -23 -77 -7 -87 6 -3 10 -21 10 -40 0
-49 8 -63 47 -82 48 -23 65 -71 90 -256 4 -32 11 -41 44 -58 27 -13 39 -26 39
-41 0 -12 7 -29 16 -39 15 -17 15 -21 -5 -52 -24 -38 -27 -90 -8 -126 15 -31
143 -102 177 -99 21 3 25 9 28 39 3 37 23 63 65 83 28 14 35 61 12 86 -8 9
-20 31 -24 48 -8 28 -6 33 27 55 25 17 58 28 102 32 36 4 75 11 88 16 16 6 30
4 47 -7 38 -25 69 -15 73 22 4 40 27 61 78 72 36 7 40 11 58 63 25 73 19 89
-37 89 -30 0 -53 7 -77 25 -28 20 -45 25 -97 25 l-64 0 35 36 c46 48 78 115
75 157 -3 36 23 86 65 126 14 14 26 30 26 37 0 6 12 19 26 28 20 14 25 24 22
49 -3 28 -10 35 -61 60 -55 26 -67 46 -29 47 9 1 51 18 92 38 l75 37 0 42 c0
29 6 46 18 55 15 11 17 26 15 93 l-3 80 -48 25 c-42 22 -49 31 -65 80 l-17 55
-141 5 c-160 6 -178 13 -216 82 -21 38 -28 43 -58 43 -31 0 -35 -3 -40 -30 -3
-16 -8 -30 -12 -30 -33 0 -128 124 -128 169 0 10 10 36 22 57 16 29 28 39 46
39 13 0 36 6 50 14 15 8 35 17 45 20 14 4 17 17 17 68 0 83 -15 134 -46 155
-14 9 -32 29 -40 44 -20 39 -70 41 -84 5z m75 -93 c25 -22 29 -33 30 -77 l0
-51 -34 3 c-42 3 -81 -30 -117 -100 -47 -92 -23 -172 78 -268 68 -65 89 -72
124 -39 l23 21 30 -34 c36 -42 96 -58 211 -58 103 0 126 -9 134 -53 7 -39 29
-62 74 -78 29 -10 32 -15 32 -52 0 -36 -5 -46 -35 -70 -36 -29 -44 -54 -23
-75 6 -6 10 -13 7 -15 -11 -9 -109 -46 -149 -57 -50 -13 -80 -35 -80 -58 0
-17 28 -52 42 -52 5 0 29 -11 53 -25 l43 -26 -22 -38 c-11 -21 -38 -62 -58
-92 -31 -45 -37 -62 -36 -99 2 -55 -34 -115 -93 -154 -43 -29 -50 -57 -22 -88
13 -15 31 -18 98 -18 62 0 86 -4 95 -15 7 -9 32 -20 56 -26 49 -13 50 -34 2
-44 -17 -4 -48 -23 -69 -42 -21 -19 -43 -32 -49 -28 -6 4 -32 0 -58 -9 -26 -9
-78 -20 -116 -26 -62 -8 -74 -14 -114 -52 -42 -41 -43 -45 -38 -87 3 -25 12
-54 19 -65 11 -19 7 -26 -35 -67 l-47 -46 -41 24 c-46 27 -51 53 -20 93 23 29
25 71 6 108 -8 15 -19 40 -25 55 -6 15 -24 35 -39 44 -30 17 -45 62 -62 186
-9 68 -29 101 -76 129 -28 16 -34 26 -34 54 0 26 4 34 18 34 30 0 90 71 117
138 26 63 27 73 28 287 1 93 -35 187 -96 255 -50 55 -52 73 -20 164 7 21 16
63 20 93 5 45 2 59 -14 81 -11 15 -23 50 -26 77 -4 28 -20 71 -37 98 -17 27
-30 55 -30 62 0 8 18 40 41 72 23 33 38 65 35 75 -4 16 5 18 92 18 76 0 105 4
132 19 45 24 40 24 75 -6z"/>
</g>
</svg>
