<?xml version="1.0" standalone="no"?>
<!DOCTYPE svg PUBLIC "-//W3C//DTD SVG 20010904//EN"
 "http://www.w3.org/TR/2001/REC-SVG-20010904/DTD/svg10.dtd">
<svg version="1.0" xmlns="http://www.w3.org/2000/svg"
 width="170.000000pt" height="142.000000pt" viewBox="0 0 170.000000 142.000000"
 preserveAspectRatio="xMidYMid meet">
<metadata>
Created by potrace 1.16, written by Peter Selinger 2001-2019
</metadata>
<g transform="translate(0.000000,142.000000) scale(0.100000,-0.100000)"
fill="#000000" stroke="none">
<path d="M730 1414 c-8 -4 -23 -14 -33 -22 -15 -13 -22 -14 -37 -4 -56 34
-120 -5 -120 -73 0 -21 -10 -64 -21 -96 -19 -51 -25 -59 -48 -59 -14 0 -41 -9
-58 -20 -25 -15 -33 -27 -33 -49 0 -36 -13 -46 -39 -29 -16 10 -29 10 -63 0
-24 -7 -74 -18 -113 -24 -38 -6 -83 -20 -99 -31 -26 -18 -28 -24 -22 -65 3
-25 15 -55 26 -67 23 -25 26 -45 6 -45 -8 0 -28 -12 -45 -26 -41 -34 -44 -89
-6 -104 14 -5 44 -29 67 -52 40 -42 41 -44 40 -111 0 -41 -10 -95 -22 -132
-12 -35 -20 -79 -18 -97 l3 -33 55 1 c30 0 84 4 119 9 55 7 68 13 100 45 58
60 91 73 169 64 84 -8 100 -15 183 -70 71 -47 89 -78 73 -126 -9 -30 -22 -38
-65 -38 -73 0 -112 -63 -73 -118 22 -31 107 -30 202 3 39 14 81 25 92 25 22 0
61 -21 96 -53 14 -11 33 -17 50 -15 24 2 30 8 32 33 2 17 11 38 19 47 10 11
13 27 10 45 -16 82 -24 99 -54 118 -31 20 -39 39 -50 121 -5 43 17 104 39 104
9 0 102 -53 117 -66 2 -2 7 -21 10 -41 5 -32 11 -39 32 -41 22 -3 31 5 54 44
15 26 30 70 34 98 6 48 8 51 41 57 19 4 53 5 75 2 22 -3 59 0 82 6 55 15 123
60 123 82 0 9 7 22 16 29 8 8 14 25 12 39 -3 22 -10 27 -57 36 l-53 10 21 19
c15 14 21 29 19 50 -3 28 -7 31 -38 33 -19 2 -72 6 -118 9 l-82 6 53 51 c35
35 74 60 117 78 57 22 65 29 71 57 3 17 20 44 37 60 31 29 48 71 39 95 -8 22
-162 30 -212 12 -22 -8 -51 -14 -65 -15 -27 0 -135 -48 -179 -79 -46 -33 -98
-42 -145 -26 -22 8 -66 15 -96 15 -78 0 -97 8 -109 42 -9 26 -7 32 15 51 14
12 48 44 75 72 61 61 64 88 14 128 -32 25 -43 28 -142 32 -60 3 -115 2 -123
-1z m171 -59 c21 -3 42 -12 49 -19 11 -15 10 -16 -91 -108 -25 -23 -29 -33
-29 -80 0 -46 4 -58 28 -80 23 -21 40 -26 104 -31 42 -3 85 -10 96 -16 12 -6
49 -11 84 -11 56 0 74 6 173 55 114 56 204 82 267 77 l36 -3 -24 -24 c-13 -13
-26 -35 -29 -48 -5 -19 -21 -31 -63 -48 -34 -14 -78 -44 -109 -74 -29 -27 -67
-60 -83 -73 -62 -48 -25 -92 80 -93 36 0 85 -4 109 -7 39 -6 42 -9 28 -21 -20
-16 -22 -54 -4 -69 6 -6 29 -13 49 -17 44 -8 42 -25 -7 -55 -27 -17 -54 -21
-135 -24 -89 -3 -104 -6 -126 -27 -18 -17 -24 -33 -24 -64 0 -49 -8 -60 -29
-42 -41 35 -124 77 -152 77 -42 0 -63 -13 -90 -56 -20 -33 -21 -44 -16 -136 7
-107 17 -131 63 -142 17 -5 24 -13 24 -29 0 -13 5 -28 10 -33 7 -7 4 -16 -9
-28 -18 -16 -20 -16 -52 3 -48 29 -109 26 -212 -9 -60 -21 -92 -28 -103 -22
-23 13 0 25 43 24 24 -1 42 7 65 27 26 23 32 36 35 82 5 66 -17 114 -67 146
-19 12 -47 31 -62 43 -40 31 -96 47 -190 55 -73 6 -92 4 -129 -12 -25 -11 -57
-35 -73 -53 -21 -25 -39 -35 -74 -41 -26 -4 -62 -11 -79 -15 l-33 -6 19 53
c10 31 20 96 23 153 l5 98 -62 64 c-63 63 -68 74 -34 74 45 0 67 100 30 134
-27 24 -33 54 -13 65 10 5 49 12 87 16 39 4 77 11 86 16 12 6 22 2 35 -12 30
-33 73 -22 100 26 13 22 23 47 24 56 0 18 20 29 49 29 26 0 57 38 81 100 11
30 26 65 32 77 6 12 8 30 6 41 -5 19 -4 19 22 4 26 -15 30 -14 81 11 78 38 82
38 180 22z"/>
</g>
</svg>
