<?xml version="1.0" standalone="no"?>
<!DOCTYPE svg PUBLIC "-//W3C//DTD SVG 20010904//EN"
 "http://www.w3.org/TR/2001/REC-SVG-20010904/DTD/svg10.dtd">
<svg version="1.0" xmlns="http://www.w3.org/2000/svg"
 width="125.000000pt" height="126.000000pt" viewBox="0 0 125.000000 126.000000"
 preserveAspectRatio="xMidYMid meet">
<metadata>
Created by potrace 1.16, written by Peter Selinger 2001-2019
</metadata>
<g transform="translate(0.000000,126.000000) scale(0.100000,-0.100000)"
fill="#000000" stroke="none">
<path d="M620 1253 c-37 -5 -117 -58 -150 -100 -13 -16 -20 -41 -20 -67 0 -40
-3 -43 -51 -71 -29 -17 -59 -41 -68 -55 -9 -14 -41 -58 -71 -98 -49 -64 -65
-77 -155 -124 l-100 -53 -3 -64 c-2 -46 1 -68 12 -80 10 -11 12 -21 6 -31 -5
-8 -10 -36 -10 -62 0 -37 5 -51 20 -60 11 -7 20 -18 20 -24 0 -6 9 -19 20 -29
11 -10 20 -24 20 -30 0 -7 20 -29 44 -49 33 -26 54 -36 80 -36 31 0 36 -3 36
-23 0 -27 17 -47 40 -47 8 0 20 -10 25 -22 7 -16 20 -24 44 -26 22 -2 41 -12
53 -28 11 -13 28 -24 38 -24 11 0 31 -12 45 -26 l26 -26 127 7 c70 4 133 12
140 18 9 7 13 30 10 72 -2 50 1 66 20 92 12 17 22 39 22 50 0 32 14 41 90 59
41 9 81 21 88 26 7 6 12 33 12 63 0 56 4 62 84 118 16 11 26 28 26 42 0 18 8
26 38 35 57 19 72 37 72 86 0 30 -5 47 -19 56 -10 7 -27 31 -39 54 -11 22 -41
63 -67 92 -43 48 -50 52 -91 52 -42 0 -44 2 -44 28 0 38 -17 52 -61 52 -34 0
-38 3 -44 33 -10 44 -43 107 -60 114 -9 3 -15 18 -15 37 0 17 -7 42 -16 54
-13 19 -23 22 -77 20 -34 0 -78 -3 -97 -5z m114 -59 c9 -8 16 -31 16 -49 0
-25 6 -39 23 -50 15 -9 31 -38 43 -73 24 -76 30 -82 77 -82 l40 0 -6 -45 c-8
-55 5 -64 62 -42 l38 16 40 -42 c23 -23 49 -58 58 -77 10 -19 29 -47 43 -62
l25 -28 -36 -15 c-20 -8 -43 -15 -50 -15 -25 0 -40 -26 -28 -49 10 -17 7 -22
-21 -36 -18 -8 -50 -31 -71 -51 -30 -29 -35 -39 -27 -54 5 -10 10 -29 10 -43
0 -21 -8 -25 -77 -41 -92 -22 -99 -26 -107 -71 -4 -19 -19 -48 -33 -65 -27
-32 -31 -62 -18 -122 l7 -31 -66 6 c-38 4 -68 2 -71 -3 -13 -20 -55 -11 -65
14 -7 18 -18 26 -42 28 -31 3 -33 5 -30 36 3 32 -12 43 -34 23 -10 -10 -57
-18 -63 -11 -2 3 -1 16 4 29 9 29 -9 51 -27 33 -19 -19 -38 -14 -38 11 0 32
-18 47 -59 47 -43 1 -114 53 -87 63 29 11 19 37 -14 37 -22 0 -33 7 -45 29 -8
16 -19 31 -25 33 -17 5 25 102 49 113 32 15 20 30 -27 33 -37 3 -42 6 -42 28
0 21 12 30 83 62 87 41 134 84 212 194 27 38 59 67 101 92 71 42 97 82 67 103
-14 11 -15 17 -7 31 19 30 108 92 134 93 14 0 34 4 45 9 11 5 21 9 22 9 1 1 9
-6 17 -15z"/>
<path d="M656 655 l-25 -27 -30 21 c-58 42 -97 14 -49 -36 18 -19 19 -23 5
-23 -23 0 -38 -31 -26 -53 7 -11 22 -17 44 -17 24 0 35 -5 35 -15 0 -22 28
-18 42 5 8 13 24 20 43 20 22 0 37 9 58 34 15 19 27 37 27 40 0 4 -16 6 -35 6
-33 0 -35 2 -33 32 4 43 -23 49 -56 13z"/>
</g>
</svg>
