<?xml version="1.0" standalone="no"?>
<!DOCTYPE svg PUBLIC "-//W3C//DTD SVG 20010904//EN"
 "http://www.w3.org/TR/2001/REC-SVG-20010904/DTD/svg10.dtd">
<svg version="1.0" xmlns="http://www.w3.org/2000/svg"
 width="154.000000pt" height="163.000000pt" viewBox="0 0 154.000000 163.000000"
 preserveAspectRatio="xMidYMid meet">
<metadata>
Created by potrace 1.16, written by Peter Selinger 2001-2019
</metadata>
<g transform="translate(0.000000,163.000000) scale(0.100000,-0.100000)"
fill="#000000" stroke="none">
<path d="M568 1620 c-10 -6 -25 -25 -33 -43 -26 -51 -140 -139 -213 -163 -80
-27 -95 -42 -102 -101 -4 -42 -9 -50 -37 -64 -58 -29 -63 -37 -63 -101 0 -45
5 -66 20 -85 43 -55 8 -156 -86 -247 l-47 -44 -5 -101 c-5 -99 -4 -100 27
-147 21 -32 31 -60 31 -85 0 -30 6 -42 29 -58 16 -12 37 -21 48 -22 33 -1 88
-25 75 -33 -7 -4 -12 -28 -12 -54 0 -40 4 -51 30 -72 24 -20 31 -37 39 -89 14
-87 26 -98 117 -106 l75 -7 57 54 c68 66 109 88 156 88 30 0 39 6 60 38 42 66
79 146 85 181 6 31 12 37 76 63 76 32 156 68 223 101 52 25 178 161 184 197 2
18 13 28 43 38 68 24 139 55 158 71 9 8 17 24 17 37 0 13 5 26 10 29 6 3 10
26 10 50 0 24 -4 47 -10 50 -5 3 -10 19 -10 34 0 36 -24 57 -91 81 -30 11 -55
20 -56 20 -2 0 -3 6 -3 13 0 21 -43 56 -78 63 -17 4 -38 17 -47 30 -11 17 -25
24 -45 24 l-30 0 20 40 c11 22 20 59 20 84 0 51 -23 76 -88 97 -20 6 -41 15
-46 20 -15 14 -84 11 -148 -7 -73 -21 -88 -12 -88 56 0 30 -6 52 -15 60 -20
17 -233 25 -257 10z m166 -56 l46 -7 0 -46 c0 -51 3 -58 43 -88 29 -23 37 -22
144 11 35 11 58 14 70 7 10 -5 39 -17 66 -26 26 -9 47 -21 47 -26 0 -14 -29
-69 -51 -98 -24 -30 -34 -84 -20 -110 15 -27 62 -28 86 -1 17 19 18 19 34 0 9
-11 34 -26 56 -33 25 -9 45 -24 55 -43 12 -21 34 -35 81 -53 35 -13 66 -26 69
-28 2 -2 -9 -14 -25 -27 -33 -27 -27 -46 16 -46 16 0 29 -4 29 -10 0 -5 -6
-10 -14 -10 -18 0 -27 -25 -14 -38 12 -12 -65 -51 -137 -71 -57 -15 -87 -38
-83 -66 2 -16 -15 -42 -55 -89 -62 -70 -107 -96 -312 -181 -107 -44 -118 -52
-106 -74 7 -11 -3 -39 -35 -101 -24 -48 -44 -91 -44 -98 0 -7 -16 -12 -41 -12
-51 0 -69 -10 -148 -78 -58 -51 -67 -56 -105 -53 -22 1 -42 4 -44 6 -2 2 -8
35 -14 74 -9 61 -15 75 -41 97 l-30 26 46 40 c47 39 57 67 37 98 -7 12 -13 12
-34 1 -27 -15 -99 -8 -152 14 -27 11 -32 19 -36 59 -3 28 -16 59 -32 80 -19
25 -26 47 -26 78 0 62 17 116 39 123 22 7 56 49 100 123 29 50 30 54 22 127
-7 59 -14 81 -31 97 -12 11 -19 27 -16 35 3 8 6 18 6 23 0 5 13 11 30 15 38 8
70 49 70 89 0 44 17 61 74 76 27 8 70 29 95 48 63 47 151 134 151 148 0 23 48
29 134 18z"/>
</g>
</svg>
