<?xml version="1.0" standalone="no"?>
<!DOCTYPE svg PUBLIC "-//W3C//DTD SVG 20010904//EN"
 "http://www.w3.org/TR/2001/REC-SVG-20010904/DTD/svg10.dtd">
<svg version="1.0" xmlns="http://www.w3.org/2000/svg"
 width="201.000000pt" height="175.000000pt" viewBox="0 0 201.000000 175.000000"
 preserveAspectRatio="xMidYMid meet">
<metadata>
Created by potrace 1.16, written by Peter Selinger 2001-2019
</metadata>
<g transform="translate(0.000000,175.000000) scale(0.100000,-0.100000)"
fill="#000000" stroke="none">
<path d="M768 1709 c-98 -123 -133 -146 -348 -231 -89 -35 -100 -43 -100 -73
0 -12 -18 -57 -40 -100 -22 -43 -40 -86 -40 -96 0 -16 -8 -19 -53 -19 -49 0
-57 -3 -120 -56 -66 -56 -67 -58 -67 -105 0 -36 5 -51 20 -62 10 -7 29 -40 41
-73 30 -80 53 -104 101 -104 33 0 38 -3 38 -23 0 -13 -11 -34 -25 -47 -19 -18
-25 -34 -25 -65 0 -56 22 -75 88 -75 l51 0 7 -37 c8 -45 57 -157 73 -167 6 -4
11 -29 11 -55 0 -58 12 -71 66 -71 39 0 42 -2 48 -32 4 -23 33 -62 92 -126
l87 -93 46 3 c41 3 48 7 62 36 9 18 32 43 50 55 33 22 34 25 34 90 0 58 3 67
20 71 38 11 67 6 108 -18 33 -19 68 -27 164 -37 131 -13 149 -10 155 33 2 16
24 30 89 57 114 47 129 62 129 121 0 25 -5 51 -12 58 -7 7 -38 12 -71 12 l-59
0 29 34 c51 61 84 73 227 81 119 6 134 9 185 38 85 46 91 54 91 109 0 35 4 48
14 48 34 0 46 41 46 151 0 83 3 109 15 119 20 17 19 88 -2 112 -10 11 -16 37
-17 70 -1 49 -3 54 -41 80 -31 21 -52 27 -93 28 -48 0 -54 -3 -70 -30 -13 -23
-24 -30 -48 -30 -37 0 -64 -27 -64 -63 0 -14 -4 -28 -9 -32 -17 -10 -100 126
-115 190 -11 45 -24 55 -71 55 -49 0 -52 -3 -89 -90 -65 -149 -68 -153 -129
-143 -35 5 -36 7 -22 26 11 16 15 50 15 122 l0 100 -37 36 c-21 20 -50 55 -65
77 l-28 42 -74 0 c-59 0 -78 -4 -100 -21 l-26 -20 0 78 c0 48 -5 84 -12 91 -7
7 -31 12 -54 12 -38 0 -47 -5 -76 -41z m81 -96 c-7 -52 -12 -131 -10 -160 2
-23 29 -14 51 17 12 17 27 30 34 30 7 0 27 11 46 25 20 15 47 25 67 25 29 0
37 -6 63 -48 16 -26 42 -57 59 -69 28 -22 29 -25 24 -80 -6 -65 -13 -82 -57
-136 -46 -57 -33 -68 89 -73 68 -2 108 0 125 9 25 12 47 50 98 167 l29 65 16
-55 c27 -93 133 -230 178 -230 13 0 52 61 58 94 6 27 11 31 40 32 32 0 63 24
73 55 5 14 35 5 67 -20 23 -17 23 -19 7 -42 -23 -33 -20 -45 14 -76 l30 -27
-25 -26 c-26 -27 -33 -56 -14 -62 7 -2 7 -12 0 -31 -7 -18 -7 -36 -1 -53 24
-63 5 -104 -49 -104 -11 0 -32 -11 -48 -24 -27 -24 -28 -24 -9 -45 11 -12 25
-21 32 -21 34 0 18 -22 -38 -53 -54 -30 -76 -36 -154 -42 -62 -4 -94 -3 -99 4
-3 6 -12 11 -20 11 -25 0 -120 -64 -159 -107 -37 -42 -37 -43 -29 -95 9 -58 8
-57 93 -47 29 3 35 1 35 -14 0 -14 -24 -28 -103 -59 -93 -37 -104 -43 -109
-70 -5 -25 -9 -28 -32 -24 -14 3 -53 8 -86 12 -37 4 -81 18 -115 36 -47 26
-62 29 -106 24 -60 -7 -150 -42 -158 -62 -3 -8 5 -24 17 -36 52 -52 52 -55 7
-83 -22 -14 -43 -32 -45 -40 -16 -50 -14 -50 -46 -19 -82 78 -133 147 -139
188 l-5 41 -53 0 -52 -1 0 47 c0 30 -6 51 -16 60 -24 20 -44 64 -63 142 l-19
72 -53 3 c-30 1 -61 5 -69 8 -13 5 -13 7 1 17 22 17 39 51 39 81 0 20 9 30 40
46 48 24 57 53 38 112 -21 62 -45 61 -86 -2 -27 -41 -37 -50 -62 -50 -34 0
-51 22 -71 88 -7 23 -23 54 -36 69 -14 14 -21 29 -16 33 85 79 104 90 159 90
50 0 55 2 65 28 6 15 28 63 50 108 21 44 39 89 39 100 0 16 30 32 151 83 157
67 201 98 284 203 16 21 32 33 35 27 4 -5 3 -35 -1 -66z"/>
</g>
</svg>
