<?xml version="1.0" standalone="no"?>
<!DOCTYPE svg PUBLIC "-//W3C//DTD SVG 20010904//EN"
 "http://www.w3.org/TR/2001/REC-SVG-20010904/DTD/svg10.dtd">
<svg version="1.0" xmlns="http://www.w3.org/2000/svg"
 width="210.000000pt" height="163.000000pt" viewBox="0 0 210.000000 163.000000"
 preserveAspectRatio="xMidYMid meet">
<metadata>
Created by potrace 1.16, written by Peter Selinger 2001-2019
</metadata>
<g transform="translate(0.000000,163.000000) scale(0.100000,-0.100000)"
fill="#000000" stroke="none">
<path d="M1215 1579 c-64 -65 -118 -97 -208 -120 -53 -14 -89 -18 -134 -13
-47 5 -77 1 -125 -14 -85 -27 -126 -33 -133 -22 -3 6 -28 10 -55 10 -45 0 -51
-3 -82 -42 -18 -23 -48 -55 -67 -72 -58 -53 -135 -132 -157 -162 -21 -28 -76
-47 -179 -61 -22 -3 -48 -12 -57 -21 -27 -23 -22 -84 12 -162 16 -38 30 -85
30 -106 0 -32 8 -45 68 -103 89 -86 142 -185 142 -263 0 -48 4 -58 32 -84 18
-17 49 -50 70 -75 31 -39 45 -48 100 -61 34 -9 108 -22 163 -28 127 -16 270
-61 388 -123 79 -40 174 -48 272 -22 80 22 247 16 340 -12 46 -14 94 -18 207
-18 147 0 148 0 175 27 32 33 45 100 47 248 1 77 -3 107 -22 158 -23 63 -23
64 -5 100 14 29 18 60 18 144 0 100 2 109 23 123 17 13 22 26 22 58 -1 39 -7
49 -90 134 -60 63 -91 103 -95 125 -11 48 -23 58 -71 58 l-44 0 0 49 c0 33 -5
53 -17 62 -19 17 -57 99 -68 149 -10 49 -22 60 -62 60 -70 0 -222 60 -262 104
-20 21 -33 26 -76 26 -48 0 -54 -3 -100 -51z m136 -35 c13 -14 36 -32 51 -40
45 -24 179 -64 212 -64 30 0 32 -3 54 -73 12 -40 33 -86 47 -102 20 -25 24
-41 25 -97 0 -76 6 -82 64 -62 21 8 40 14 42 14 2 0 6 -16 10 -35 5 -27 29
-58 95 -126 l88 -91 -29 -30 c-33 -33 -35 -46 -18 -129 14 -68 2 -121 -37
-167 -31 -37 -31 -42 0 -88 30 -43 44 -90 52 -164 4 -45 1 -65 -17 -104 -19
-38 -20 -50 -10 -56 22 -14 -12 -55 -58 -68 -58 -18 -106 -15 -217 14 -138 35
-366 45 -449 19 -72 -23 -120 -16 -210 29 -148 73 -245 101 -391 115 -49 5
-116 16 -148 25 -49 15 -63 25 -97 69 -21 29 -48 58 -59 65 -17 10 -21 22 -21
67 0 39 -7 70 -24 103 -36 71 -112 169 -150 194 -30 20 -34 28 -34 63 1 24
-11 67 -30 109 -18 37 -29 73 -26 78 4 6 10 4 16 -6 12 -22 31 -20 53 4 17 19
48 30 117 45 29 5 78 51 78 72 0 6 23 31 51 55 69 58 119 107 150 148 l27 35
32 -30 c17 -16 41 -47 51 -68 16 -30 23 -36 34 -27 10 8 11 19 3 46 -12 45 -5
64 24 64 13 0 48 9 78 19 52 18 56 18 75 1 34 -29 56 -33 62 -10 4 14 14 20
32 20 47 0 175 41 221 70 25 16 65 49 90 74 24 26 49 46 55 46 6 0 22 -12 36
-26z"/>
<path d="M1298 890 c-14 -10 -31 -33 -38 -50 -7 -16 -18 -30 -24 -30 -16 0
-79 39 -93 57 -7 9 -19 13 -28 10 -23 -10 -18 -44 12 -71 31 -29 31 -28 -22
-47 -28 -10 -41 -21 -43 -37 -4 -27 18 -29 98 -7 30 8 56 15 57 15 1 0 -1 -25
-4 -55 -4 -34 -2 -55 4 -55 16 0 32 24 39 58 4 18 8 32 11 32 2 0 25 -16 50
-35 102 -78 147 -44 48 35 -24 19 -44 38 -44 42 -1 4 13 14 29 23 17 9 30 20
30 25 0 6 -13 10 -30 10 -34 0 -40 22 -14 51 16 18 13 49 -4 49 -5 0 -21 -9
-34 -20z"/>
</g>
</svg>
