<?xml version="1.0" standalone="no"?>
<!DOCTYPE svg PUBLIC "-//W3C//DTD SVG 20010904//EN"
 "http://www.w3.org/TR/2001/REC-SVG-20010904/DTD/svg10.dtd">
<svg version="1.0" xmlns="http://www.w3.org/2000/svg"
 width="182.000000pt" height="227.000000pt" viewBox="0 0 182.000000 227.000000"
 preserveAspectRatio="xMidYMid meet">
<metadata>
Created by potrace 1.16, written by Peter Selinger 2001-2019
</metadata>
<g transform="translate(0.000000,227.000000) scale(0.100000,-0.100000)"
fill="#000000" stroke="none">
<path d="M1098 2253 c-9 -10 -26 -38 -38 -63 -34 -68 -89 -139 -121 -155 -15
-8 -43 -15 -62 -15 -20 0 -46 -9 -61 -21 -24 -19 -26 -26 -26 -96 0 -59 4 -81
18 -96 17 -19 16 -20 -53 -13 -38 3 -95 9 -125 12 -44 5 -59 3 -69 -10 -8 -10
-29 -16 -55 -16 -26 0 -63 -10 -97 -27 -52 -27 -54 -30 -57 -72 -3 -46 17 -81
47 -81 10 0 2 -13 -23 -39 -33 -34 -37 -43 -34 -82 3 -38 8 -47 41 -69 l38
-24 -7 -87 -6 -88 35 -43 c35 -42 35 -44 16 -56 -22 -14 -27 -90 -7 -110 19
-19 0 -27 -20 -9 -12 11 -36 17 -70 17 -41 0 -54 -4 -66 -22 -9 -13 -53 -41
-99 -63 l-82 -40 -3 -44 c-4 -50 13 -74 63 -92 31 -12 32 -13 18 -40 -8 -16
-18 -29 -23 -29 -5 0 -24 -22 -44 -49 -29 -39 -36 -58 -36 -95 0 -53 -9 -74
-56 -133 -26 -31 -34 -51 -34 -80 0 -50 14 -63 70 -63 25 -1 56 -7 70 -15 36
-21 93 -19 114 4 10 10 32 22 49 25 18 3 43 14 57 23 16 11 40 16 78 14 36 -2
59 2 70 12 42 38 169 34 208 -5 13 -13 11 -18 -14 -44 -17 -16 -44 -39 -61
-52 -29 -22 -31 -27 -31 -91 0 -86 14 -101 92 -101 31 0 75 -7 98 -15 23 -8
74 -15 113 -15 65 0 78 4 181 55 121 60 170 74 291 82 93 6 100 10 201 139 55
70 64 88 64 123 0 37 3 41 24 41 34 0 48 22 44 72 -3 40 -6 44 -63 79 -46 27
-61 42 -63 63 -2 18 2 28 15 33 40 14 53 35 53 84 0 47 -2 51 -85 135 -47 48
-84 92 -82 98 2 5 52 34 111 64 63 32 129 74 161 104 52 47 55 53 55 97 0 51
-13 71 -45 71 -25 0 -135 56 -152 78 -7 9 -13 30 -13 48 0 43 -20 57 -79 52
l-49 -3 36 40 c19 22 41 44 49 48 23 14 63 112 63 154 0 55 -16 66 -90 61
l-60 -3 0 41 c0 46 -12 61 -54 66 l-29 3 -1 92 c-1 83 -3 94 -26 118 -14 15
-47 38 -75 52 -27 14 -60 38 -73 54 -19 24 -31 29 -66 29 -28 0 -48 -6 -58
-17z m76 -68 c9 -14 42 -38 74 -54 71 -36 82 -49 89 -101 5 -37 2 -45 -27 -75
-34 -35 -35 -65 -2 -65 10 0 23 -5 29 -11 7 -7 29 -15 50 -18 l38 -7 -30 -15
c-38 -18 -42 -40 -14 -79 26 -35 41 -36 121 -14 32 9 61 14 64 12 8 -8 -35
-85 -65 -117 -86 -92 -96 -117 -70 -175 16 -34 33 -39 76 -21 46 19 46 19 39
-8 -3 -14 2 -35 13 -52 19 -32 141 -106 178 -108 13 -1 23 -5 23 -9 0 -16
-103 -96 -156 -121 -32 -15 -72 -35 -89 -44 -16 -9 -58 -32 -92 -50 -35 -19
-63 -38 -63 -43 0 -5 12 -17 28 -26 38 -24 212 -205 212 -221 0 -7 -8 -13 -18
-13 -24 0 -62 -28 -72 -54 -5 -13 -3 -30 5 -46 8 -14 16 -37 19 -51 4 -17 18
-32 38 -42 18 -9 47 -25 63 -37 l30 -20 -40 0 c-86 -1 -104 -18 -60 -60 14
-13 25 -28 25 -32 0 -16 -108 -154 -146 -187 -36 -32 -80 -41 -101 -20 -9 9
-19 9 -40 1 -15 -6 -59 -18 -98 -27 -41 -9 -108 -37 -162 -65 -95 -52 -136
-60 -190 -39 -15 6 -62 14 -103 18 l-75 6 -3 32 c-3 28 2 36 32 53 19 12 47
38 62 58 16 20 36 43 46 50 21 15 24 52 4 52 -7 0 -30 13 -50 29 -25 20 -56
32 -103 41 -77 13 -133 6 -184 -22 -35 -19 -39 -19 -60 -4 -33 23 -51 20 -83
-13 -18 -19 -43 -32 -68 -36 -28 -5 -42 -13 -45 -26 -6 -23 -2 -22 -46 -4 -20
8 -54 15 -77 15 l-40 0 36 47 c45 58 54 82 54 138 0 48 -1 47 122 185 43 47
34 76 -34 105 -76 33 -76 35 11 76 44 20 86 47 93 58 17 27 26 26 58 -4 26
-25 26 -25 76 -9 56 19 94 49 94 75 0 10 -16 27 -36 39 -34 22 -35 23 -15 37
34 23 28 81 -14 136 -40 53 -41 54 -18 79 14 16 15 23 5 39 -14 22 -8 39 12
39 23 0 65 40 60 55 -3 8 -22 17 -42 20 -21 3 -57 15 -81 26 -42 19 -43 20
-25 40 9 10 42 35 71 55 85 56 83 81 -8 95 -70 11 -78 22 -32 44 36 18 75 22
133 13 19 -2 26 2 28 18 3 19 7 20 55 13 93 -13 209 -9 257 9 64 25 61 49 -11
83 -51 25 -57 31 -62 66 -8 47 9 63 66 63 23 0 54 9 73 21 41 25 115 122 140
183 11 25 22 46 25 46 4 0 14 -11 23 -25z"/>
</g>
</svg>
