<?xml version="1.0" standalone="no"?>
<!DOCTYPE svg PUBLIC "-//W3C//DTD SVG 20010904//EN"
 "http://www.w3.org/TR/2001/REC-SVG-20010904/DTD/svg10.dtd">
<svg version="1.0" xmlns="http://www.w3.org/2000/svg"
 width="172.000000pt" height="173.000000pt" viewBox="0 0 172.000000 173.000000"
 preserveAspectRatio="xMidYMid meet">
<metadata>
Created by potrace 1.16, written by Peter Selinger 2001-2019
</metadata>
<g transform="translate(0.000000,173.000000) scale(0.100000,-0.100000)"
fill="#000000" stroke="none">
<path d="M383 1703 c-11 -17 -18 -46 -18 -82 0 -47 3 -57 21 -65 20 -9 21 -15
16 -97 l-5 -88 36 -21 c40 -24 75 -98 84 -180 3 -25 9 -50 14 -56 5 -6 -4 -29
-21 -55 -37 -54 -42 -125 -11 -153 16 -14 18 -22 9 -40 -9 -21 -13 -22 -51
-13 -23 5 -68 11 -99 14 -50 4 -61 1 -90 -20 -18 -14 -62 -39 -98 -55 -36 -17
-87 -45 -115 -64 -46 -31 -50 -36 -53 -78 -2 -44 -1 -46 93 -143 93 -95 95
-97 71 -107 -14 -5 -30 -18 -35 -29 -15 -28 -14 -84 3 -118 8 -15 17 -35 20
-44 7 -26 111 -79 154 -79 61 0 85 32 80 109 -2 49 0 61 12 61 8 0 34 9 58 20
l42 19 0 -26 c0 -29 60 -90 97 -99 13 -4 23 -12 23 -18 0 -7 11 -23 25 -36 20
-19 25 -33 25 -70 0 -36 5 -52 23 -68 31 -30 106 -31 132 -2 10 11 34 23 54
26 47 9 71 30 71 66 0 33 0 33 47 13 68 -29 134 -14 196 43 21 20 27 35 27 66
0 33 4 43 23 51 18 8 23 19 25 63 3 49 1 53 -27 70 -17 9 -31 19 -31 22 0 17
45 73 72 90 40 25 65 22 161 -24 91 -43 211 -58 252 -32 20 14 25 25 25 61 0
42 -3 47 -42 71 -23 15 -69 55 -103 88 -33 34 -71 69 -84 77 l-24 15 40 55
c60 81 63 91 63 182 0 84 0 84 -50 161 -49 76 -50 76 -94 76 -26 0 -48 -6 -56
-15 -19 -23 -27 -18 -34 19 -4 18 -35 89 -69 157 -61 120 -64 124 -97 127 -19
2 -52 -1 -73 -8 -35 -10 -40 -9 -58 13 -10 14 -43 38 -72 55 -29 16 -59 37
-66 46 -20 24 -106 22 -124 -4 -12 -18 -17 -18 -63 -6 -28 7 -59 18 -71 24
-51 27 -164 62 -201 62 -34 0 -45 -5 -59 -27z m137 -59 c30 -9 65 -23 77 -31
13 -8 41 -19 65 -24 23 -6 47 -17 53 -26 9 -11 18 -14 31 -8 10 5 30 9 44 9
18 1 26 7 28 24 4 30 14 28 70 -12 26 -19 60 -40 75 -45 15 -6 27 -17 27 -24
0 -8 9 -22 19 -31 17 -15 27 -16 76 -7 31 6 61 13 66 17 6 3 13 -4 16 -17 4
-13 28 -64 54 -114 26 -49 52 -110 59 -135 12 -45 49 -90 75 -90 7 0 26 16 42
36 l29 36 40 -64 c23 -34 44 -75 47 -90 10 -40 -13 -97 -71 -175 -73 -100 -73
-107 11 -162 35 -23 70 -53 78 -67 14 -28 105 -104 122 -104 7 0 8 -3 1 -10
-13 -13 -119 4 -150 25 -34 22 -153 65 -181 65 -75 0 -183 -109 -183 -185 0
-26 39 -75 60 -75 19 0 10 -17 -15 -28 -21 -10 -25 -19 -25 -51 0 -57 -7 -69
-57 -91 l-45 -20 -48 25 c-79 40 -107 30 -119 -43 -6 -33 -10 -37 -46 -44 -22
-5 -49 -18 -61 -29 -34 -32 -54 -16 -54 46 0 41 -5 57 -24 76 -12 13 -28 34
-35 47 -6 12 -19 22 -27 22 -8 0 -31 12 -50 26 -29 23 -34 32 -34 69 0 68 -16
72 -104 31 -42 -20 -85 -36 -96 -36 -34 0 -48 -34 -38 -91 13 -74 1 -85 -63
-52 -29 15 -49 33 -49 43 0 9 -6 25 -14 35 -20 27 -10 43 34 55 21 6 41 18 44
27 10 26 -13 80 -43 100 -15 10 -60 53 -100 95 l-72 77 78 45 c43 25 82 46 88
46 5 0 36 18 68 39 54 36 61 38 85 26 15 -8 57 -16 94 -20 l67 -7 20 33 c27
44 27 103 1 129 -27 27 -25 41 10 85 31 39 40 96 21 133 -5 9 -14 43 -19 74
-16 84 -46 145 -81 166 -36 20 -39 43 -16 118 18 60 12 83 -25 90 -26 6 -28 8
-18 36 6 16 15 27 22 24 6 -3 36 -12 66 -22z"/>
</g>
</svg>
