<?xml version="1.0" standalone="no"?>
<!DOCTYPE svg PUBLIC "-//W3C//DTD SVG 20010904//EN"
 "http://www.w3.org/TR/2001/REC-SVG-20010904/DTD/svg10.dtd">
<svg version="1.0" xmlns="http://www.w3.org/2000/svg"
 width="254.000000pt" height="199.000000pt" viewBox="0 0 254.000000 199.000000"
 preserveAspectRatio="xMidYMid meet">
<metadata>
Created by potrace 1.16, written by Peter Selinger 2001-2019
</metadata>
<g transform="translate(0.000000,199.000000) scale(0.100000,-0.100000)"
fill="#000000" stroke="none">
<path d="M1490 1974 c-44 -30 -80 -68 -95 -98 -20 -40 -20 -140 0 -156 11 -9
13 -16 5 -24 -5 -5 -10 -28 -10 -51 0 -47 -6 -56 -41 -72 -22 -10 -33 -8 -63
8 -52 28 -130 26 -150 -3 -9 -12 -16 -34 -16 -48 0 -22 -8 -30 -50 -47 l-50
-21 0 43 c0 35 -7 51 -42 94 -23 28 -48 51 -55 51 -29 0 -73 44 -79 79 -4 20
-11 42 -17 49 -13 17 -107 15 -131 -3 -10 -8 -42 -22 -70 -31 -75 -25 -79 -29
-74 -98 3 -33 -1 -75 -8 -95 -10 -30 -17 -37 -45 -39 -51 -5 -61 -19 -57 -77
3 -56 -9 -79 -94 -172 -24 -27 -38 -53 -38 -70 -1 -42 -22 -82 -50 -96 -17 -9
-26 -22 -28 -43 -3 -28 -10 -34 -78 -64 -97 -42 -154 -104 -154 -166 0 -25 6
-47 15 -54 8 -7 53 -15 100 -18 l85 -5 0 -43 c0 -47 17 -65 72 -78 17 -4 28
-14 30 -27 3 -24 18 -35 61 -44 42 -9 106 -73 133 -132 13 -30 51 -85 86 -123
61 -67 65 -70 109 -70 63 0 73 14 66 91 -4 43 -14 75 -34 108 l-30 47 64 -4
c41 -3 68 0 78 8 13 10 15 9 15 -12 0 -34 18 -48 63 -48 27 0 48 8 69 25 63
53 108 39 156 -50 23 -42 33 -51 62 -56 41 -6 91 -31 109 -53 10 -12 33 -16
96 -16 78 0 86 -2 131 -33 l49 -34 3 -64 c2 -35 7 -69 13 -75 5 -6 39 -14 74
-16 53 -3 68 -8 81 -26 12 -17 25 -22 62 -22 37 0 73 13 170 60 117 57 126 60
198 60 75 0 77 1 167 56 51 31 113 72 140 91 43 32 47 38 47 78 0 68 -2 69
-238 62 -114 -4 -227 -10 -252 -13 -37 -5 -43 -4 -32 7 6 7 12 32 12 55 l0 41
79 42 c44 22 91 41 104 41 13 0 32 9 42 20 15 17 17 31 11 107 -5 62 -13 95
-27 115 -11 15 -25 28 -30 28 -5 0 -9 20 -9 45 0 38 -4 48 -30 67 -26 19 -30
28 -30 68 0 25 -5 51 -12 58 -7 7 -44 12 -94 12 l-83 0 -5 93 c-9 165 -17 211
-38 234 l-20 21 49 22 c26 11 63 35 81 52 28 28 32 38 32 84 0 47 -3 55 -35
83 -34 30 -35 32 -35 109 0 52 -4 83 -12 90 -7 5 -42 12 -78 14 -49 3 -85 14
-145 43 -66 32 -93 39 -155 43 -59 2 -80 0 -100 -14z m166 -65 c27 -12 72 -32
100 -45 31 -15 73 -26 110 -28 l59 -3 -1 -49 c-1 -27 -4 -66 -9 -86 -6 -32 -5
-39 11 -44 32 -10 47 -20 58 -38 9 -14 4 -23 -27 -50 -35 -32 -145 -76 -187
-76 -13 0 -20 -7 -20 -20 0 -13 7 -20 18 -20 10 0 36 -19 59 -42 37 -38 42
-50 47 -103 4 -33 9 -85 12 -115 5 -48 2 -60 -20 -93 -27 -40 -26 -59 2 -56
10 1 60 1 114 0 90 -1 96 -2 91 -21 -3 -10 -11 -25 -19 -31 -22 -18 -17 -36
14 -47 15 -5 38 -19 52 -30 l25 -20 -29 -27 c-32 -30 -27 -42 25 -59 40 -14
69 -66 69 -123 0 -41 -1 -43 -30 -43 -27 0 -81 -24 -154 -68 -12 -7 -46 -12
-77 -11 -30 2 -61 -1 -67 -5 -14 -9 -4 -36 14 -36 7 0 28 -13 45 -28 l32 -29
-22 -22 c-20 -20 -22 -30 -17 -65 4 -22 10 -44 14 -48 8 -7 212 7 307 22 33 5
97 6 142 3 l82 -6 -42 -31 c-23 -18 -81 -56 -130 -85 -87 -53 -88 -54 -150
-48 -61 6 -64 6 -199 -60 -125 -61 -139 -65 -150 -50 -21 27 -87 49 -126 42
l-34 -6 5 38 c2 21 8 48 12 59 8 25 5 28 -83 85 -61 40 -66 41 -141 40 -60 -1
-81 2 -91 14 -20 24 -99 57 -121 50 -12 -4 -19 -2 -19 7 0 8 -13 35 -30 61
-22 35 -44 54 -84 74 l-55 27 -36 -20 c-21 -10 -48 -29 -61 -42 -32 -29 -34
-28 -34 11 0 83 -26 98 -83 47 -38 -33 -66 -37 -100 -15 -34 22 -141 55 -150
46 -8 -8 2 -35 64 -156 45 -88 66 -145 53 -145 -18 0 -120 123 -143 175 -34
72 -104 141 -154 150 -31 6 -35 11 -34 33 2 24 -3 27 -48 37 -27 6 -49 14 -48
18 1 4 14 32 28 62 15 30 24 59 20 64 -9 16 -31 13 -45 -4 -9 -11 -33 -15 -94
-14 -121 1 -127 6 -74 59 28 30 65 53 105 69 69 26 97 50 91 78 -2 11 5 22 17
28 24 13 54 70 55 107 0 16 15 44 38 70 49 57 107 138 116 162 4 11 0 29 -9
42 -15 24 -15 24 19 24 37 0 54 15 75 69 16 42 18 74 7 119 -6 24 -4 32 6 32
7 0 46 16 87 35 40 19 75 35 77 35 2 0 4 -20 4 -44 0 -40 4 -47 42 -75 23 -17
45 -31 50 -31 4 0 23 -17 43 -37 29 -32 34 -45 35 -86 0 -37 6 -57 27 -83 l26
-35 36 34 c20 19 47 38 61 42 46 13 70 34 70 63 0 56 13 60 82 26 l63 -31 51
25 c61 29 87 66 78 111 -5 24 -3 31 8 31 22 0 68 39 68 56 0 8 -20 24 -45 35
-36 16 -45 25 -45 45 0 39 27 82 72 114 49 35 79 37 144 9z"/>
</g>
</svg>
