<?xml version="1.0" standalone="no"?>
<!DOCTYPE svg PUBLIC "-//W3C//DTD SVG 20010904//EN"
 "http://www.w3.org/TR/2001/REC-SVG-20010904/DTD/svg10.dtd">
<svg version="1.0" xmlns="http://www.w3.org/2000/svg"
 width="149.000000pt" height="135.000000pt" viewBox="0 0 149.000000 135.000000"
 preserveAspectRatio="xMidYMid meet">
<metadata>
Created by potrace 1.16, written by Peter Selinger 2001-2019
</metadata>
<g transform="translate(0.000000,135.000000) scale(0.100000,-0.100000)"
fill="#000000" stroke="none">
<path d="M518 1323 c-27 -27 -28 -27 -63 -10 -45 22 -138 23 -155 2 -24 -29
-7 -118 34 -185 44 -70 51 -113 21 -117 -39 -6 -140 -37 -152 -46 -16 -12 -18
-173 -3 -182 17 -11 11 -23 -18 -33 -15 -5 -49 -30 -74 -56 -26 -25 -55 -46
-66 -46 -36 0 -45 -25 -38 -102 5 -55 12 -79 29 -98 13 -14 31 -43 42 -65 10
-22 21 -47 25 -55 4 -8 26 -18 48 -23 34 -7 43 -13 48 -35 10 -41 23 -52 63
-52 30 0 44 -8 76 -40 21 -21 50 -61 64 -87 35 -64 67 -80 176 -88 l90 -7 42
36 c38 33 46 36 105 36 77 0 130 27 170 86 21 32 44 48 98 73 85 38 109 39
140 6 35 -37 104 -35 164 6 26 17 46 38 46 48 0 10 7 24 15 31 34 28 58 183
33 208 -7 7 -41 12 -83 12 l-70 0 1 60 c0 53 5 67 36 108 l35 47 1 122 1 122
-62 43 c-60 41 -65 42 -144 43 -59 1 -88 6 -100 17 -30 26 -80 48 -110 48 -24
0 -31 6 -41 34 -29 80 -96 126 -184 126 -31 -1 -61 -7 -72 -15 -27 -21 -36
-19 -36 8 0 33 -19 47 -65 47 -31 0 -47 -7 -67 -27z m84 -150 c17 -21 31 -16
77 27 56 53 80 58 131 28 46 -25 95 -98 73 -105 -7 -3 -13 -13 -13 -24 0 -18
5 -19 48 -13 49 6 103 -11 127 -42 6 -8 43 -14 100 -16 83 -3 93 -6 133 -35
24 -17 49 -34 55 -36 9 -3 9 -10 1 -23 -10 -19 -11 -115 -1 -131 3 -5 -17 -37
-44 -72 -27 -35 -49 -67 -49 -73 0 -5 7 -20 16 -33 15 -23 14 -26 -4 -52 -30
-43 -54 -60 -92 -70 -25 -7 -35 -15 -35 -29 0 -17 6 -19 65 -15 36 2 75 7 88
12 21 8 152 13 152 6 0 -22 -36 -114 -46 -120 -8 -4 -14 -16 -14 -25 0 -15
-58 -62 -77 -62 -4 0 -19 12 -34 26 -23 22 -38 27 -86 28 -82 1 -200 -54 -239
-113 -14 -23 -41 -50 -59 -61 -34 -21 -90 -27 -100 -10 -13 20 -45 9 -96 -35
-35 -30 -59 -43 -69 -39 -8 4 -36 8 -61 9 -58 2 -64 6 -93 63 -14 26 -49 71
-79 101 -52 50 -58 53 -91 47 -34 -7 -36 -6 -36 22 0 37 -17 52 -57 52 -27 0
-35 5 -43 28 -14 37 -39 83 -60 107 -10 11 -20 37 -23 57 -5 36 -5 38 29 44
20 4 39 14 42 24 9 22 55 59 105 84 46 24 56 55 31 94 -10 15 -18 47 -18 72
l-1 46 55 17 c30 10 65 17 76 17 35 0 67 33 67 68 0 18 -22 76 -51 134 -29 57
-52 108 -52 115 0 14 48 0 95 -29 42 -25 60 -23 103 16 l37 35 3 -52 c2 -28 8
-57 14 -64z"/>
</g>
</svg>
