<?xml version="1.0" standalone="no"?>
<!DOCTYPE svg PUBLIC "-//W3C//DTD SVG 20010904//EN"
 "http://www.w3.org/TR/2001/REC-SVG-20010904/DTD/svg10.dtd">
<svg version="1.0" xmlns="http://www.w3.org/2000/svg"
 width="167.000000pt" height="154.000000pt" viewBox="0 0 167.000000 154.000000"
 preserveAspectRatio="xMidYMid meet">
<metadata>
Created by potrace 1.16, written by Peter Selinger 2001-2019
</metadata>
<g transform="translate(0.000000,154.000000) scale(0.100000,-0.100000)"
fill="#000000" stroke="none">
<path d="M1354 1511 c-55 -26 -64 -27 -77 -14 -10 10 -42 17 -98 19 -81 5 -86
4 -159 -33 -56 -29 -82 -48 -104 -81 -43 -66 -74 -81 -152 -74 -61 5 -67 3
-104 -27 -32 -26 -47 -31 -91 -31 -37 0 -64 -7 -93 -24 -23 -13 -52 -27 -66
-31 -36 -11 -60 -35 -60 -61 0 -14 -9 -28 -22 -35 -13 -7 -40 -26 -61 -43 -38
-30 -38 -32 -35 -87 l3 -57 -46 -5 c-77 -9 -118 -31 -136 -74 -8 -21 -24 -51
-36 -67 -18 -25 -19 -38 -14 -119 5 -69 11 -97 26 -118 13 -17 21 -44 21 -67
0 -29 7 -45 28 -65 34 -33 88 -35 171 -8 53 17 57 17 105 -1 28 -10 52 -18 54
-18 1 0 -4 -13 -13 -30 -22 -44 -19 -93 8 -118 13 -12 31 -22 40 -22 11 0 17
-8 17 -23 0 -28 22 -50 71 -70 20 -8 49 -31 64 -51 15 -20 34 -36 42 -36 7 0
31 -9 53 -20 60 -31 124 -27 167 10 30 27 41 30 97 30 67 0 138 20 168 47 21
19 25 92 6 111 -7 7 -41 12 -81 12 -63 0 -73 3 -123 38 -29 20 -53 40 -51 44
1 4 28 36 60 72 l58 66 106 0 c89 0 109 3 130 20 14 11 41 22 62 26 20 4 42
11 49 17 15 12 16 89 1 104 -8 8 -3 16 20 27 17 9 37 29 45 44 8 15 42 55 75
89 l61 61 0 71 0 71 -40 25 c-23 14 -46 37 -52 50 -6 14 -31 41 -56 60 l-45
35 89 0 c115 0 134 11 134 80 0 45 2 49 32 59 51 18 68 39 68 86 0 35 -7 50
-41 89 -23 26 -54 53 -70 61 -47 25 -135 18 -205 -14z m165 -45 c36 -19 95
-86 84 -97 -4 -4 -30 -16 -58 -27 -64 -25 -75 -43 -52 -84 24 -42 10 -50 -77
-44 -72 5 -121 -8 -158 -41 -30 -27 -22 -51 25 -74 63 -33 104 -67 111 -94 4
-14 23 -33 46 -46 56 -32 54 -60 -10 -130 -28 -30 -60 -68 -73 -86 -14 -21
-43 -41 -83 -58 -34 -15 -70 -36 -81 -47 -17 -19 -17 -20 2 -34 10 -8 28 -14
39 -14 12 -1 32 -7 45 -14 23 -13 23 -13 -22 -20 -25 -4 -57 -16 -70 -26 -31
-25 -46 -27 -129 -17 -83 10 -107 -1 -178 -83 -41 -47 -63 -62 -99 -73 -66
-18 -64 -37 11 -86 35 -22 83 -55 108 -73 42 -31 50 -33 115 -31 64 2 68 1 50
-13 -33 -25 -107 -42 -161 -37 -46 5 -54 2 -87 -27 l-37 -32 -57 23 c-33 13
-70 38 -91 61 -20 22 -51 43 -73 50 -28 8 -39 17 -39 30 0 36 -19 58 -50 58
-17 0 -30 3 -30 7 0 3 12 30 26 59 37 76 38 74 -100 133 l-49 21 -85 -26 c-80
-24 -85 -24 -103 -8 -12 11 -19 30 -19 53 0 20 -8 48 -17 61 -10 14 -23 50
-28 80 -10 51 -9 57 13 88 14 18 27 47 31 64 6 29 12 33 61 44 30 7 69 13 86
14 45 0 53 16 43 79 -9 60 -2 71 74 111 31 17 37 25 37 54 0 29 4 35 28 41 15
3 50 18 78 32 43 22 56 24 81 15 35 -12 49 -6 112 46 23 19 42 28 46 22 3 -5
30 -10 58 -10 63 0 115 31 152 90 35 56 159 115 222 105 34 -5 46 -12 58 -36
9 -16 20 -29 25 -29 5 0 46 20 92 44 90 49 114 54 157 32z"/>
<path d="M770 805 c-11 -13 -6 -22 30 -56 23 -22 40 -43 37 -45 -3 -3 -24 -8
-46 -11 -46 -6 -54 -13 -45 -37 4 -12 19 -16 53 -16 42 0 47 -2 47 -21 -2 -37
20 -32 48 11 22 33 32 40 54 38 29 -3 29 -3 15 65 -5 27 -26 36 -38 17 -6 -10
-51 10 -116 53 -24 16 -27 16 -39 2z"/>
</g>
</svg>
