<?xml version="1.0" standalone="no"?>
<!DOCTYPE svg PUBLIC "-//W3C//DTD SVG 20010904//EN"
 "http://www.w3.org/TR/2001/REC-SVG-20010904/DTD/svg10.dtd">
<svg version="1.0" xmlns="http://www.w3.org/2000/svg"
 width="106.000000pt" height="87.000000pt" viewBox="0 0 106.000000 87.000000"
 preserveAspectRatio="xMidYMid meet">
<metadata>
Created by potrace 1.16, written by Peter Selinger 2001-2019
</metadata>
<g transform="translate(0.000000,87.000000) scale(0.100000,-0.100000)"
fill="#000000" stroke="none">
<path d="M898 841 c-25 -16 -49 -34 -52 -40 -4 -6 -26 -11 -50 -11 -52 0 -197
-58 -234 -93 -43 -41 -115 -67 -188 -67 l-64 0 -50 -52 c-43 -45 -50 -58 -50
-92 0 -22 7 -47 16 -57 15 -17 12 -20 -51 -48 -37 -17 -86 -36 -109 -42 -22
-6 -47 -16 -53 -21 -18 -15 -16 -93 2 -108 11 -9 15 -34 15 -100 0 -106 6
-114 85 -108 40 3 62 11 81 29 22 21 33 23 82 20 207 -17 283 0 407 90 111 80
208 187 283 310 26 43 30 120 7 139 -29 24 -18 63 35 115 44 44 50 54 50 92 0
32 -5 46 -22 57 -35 25 -88 20 -140 -13z m102 -38 c0 -4 -28 -36 -62 -70 -57
-58 -62 -65 -50 -84 9 -14 11 -35 7 -61 -6 -34 -4 -40 14 -45 12 -3 21 -8 21
-12 0 -23 -138 -207 -196 -262 -79 -74 -163 -126 -240 -149 -69 -20 -84 -21
-145 -11 -103 17 -142 14 -182 -13 -19 -13 -45 -27 -57 -31 -23 -7 -23 -7 -16
64 6 62 5 77 -13 106 -20 35 -15 45 27 45 9 0 51 17 95 37 67 31 81 43 98 77
22 46 25 76 7 76 -38 1 -37 17 0 58 38 41 40 42 103 41 73 -1 136 22 190 68
43 37 180 93 228 93 26 0 51 11 91 40 52 37 80 49 80 33z"/>
<path d="M591 484 c-11 -14 -21 -30 -23 -36 -3 -7 -15 -5 -35 6 -38 19 -60 20
-66 4 -7 -21 4 -38 34 -54 45 -23 35 -34 -31 -34 -57 0 -60 -1 -60 -24 0 -32
10 -37 80 -42 50 -3 66 1 114 27 38 21 56 37 56 50 0 12 -7 19 -20 19 -24 0
-25 7 -5 52 10 26 11 38 3 46 -17 17 -24 15 -47 -14z"/>
</g>
</svg>
