<?xml version="1.0" standalone="no"?>
<!DOCTYPE svg PUBLIC "-//W3C//DTD SVG 20010904//EN"
 "http://www.w3.org/TR/2001/REC-SVG-20010904/DTD/svg10.dtd">
<svg version="1.0" xmlns="http://www.w3.org/2000/svg"
 width="210.000000pt" height="144.000000pt" viewBox="0 0 210.000000 144.000000"
 preserveAspectRatio="xMidYMid meet">
<metadata>
Created by potrace 1.16, written by Peter Selinger 2001-2019
</metadata>
<g transform="translate(0.000000,144.000000) scale(0.100000,-0.100000)"
fill="#000000" stroke="none">
<path d="M925 1425 c-139 -29 -246 -101 -300 -202 -60 -114 -142 -212 -238
-285 -111 -85 -182 -111 -280 -101 -85 8 -107 -8 -107 -74 0 -39 5 -49 55
-100 65 -67 69 -90 25 -154 -33 -49 -41 -118 -16 -138 8 -7 63 -15 125 -18
143 -8 152 -2 207 136 9 22 12 20 48 -39 21 -34 52 -78 68 -96 27 -30 35 -34
82 -34 61 0 94 26 105 82 6 29 11 33 41 36 19 2 43 10 52 19 25 22 38 8 38
-41 0 -26 6 -48 14 -55 12 -10 14 -41 9 -172 -3 -113 -2 -164 7 -174 8 -10 43
-14 144 -14 l134 -1 46 36 c42 32 46 38 46 79 0 37 -5 47 -31 68 -29 23 -31
27 -31 96 0 39 5 78 12 86 15 18 61 3 113 -38 38 -29 40 -30 125 -23 58 4 92
12 104 23 16 15 20 15 36 0 14 -13 43 -15 174 -14 177 2 181 4 223 87 13 25
33 51 44 58 12 7 21 23 21 37 0 20 5 25 24 25 33 0 56 35 56 82 0 38 -10 55
-114 183 -13 17 -57 50 -97 74 -62 37 -84 45 -142 49 -49 3 -85 0 -127 -13
-48 -15 -62 -16 -75 -5 -23 19 -19 26 28 45 56 22 192 102 213 126 12 14 19
43 22 99 6 106 -5 120 -94 120 -50 0 -70 5 -99 24 -20 14 -62 32 -93 41 -31 9
-78 25 -104 35 -26 11 -60 20 -77 20 -17 0 -69 9 -116 20 -96 22 -208 24 -300
5z m272 -66 c48 -12 104 -23 123 -25 56 -6 225 -67 262 -94 29 -22 42 -25 99
-22 77 3 82 -3 67 -69 -10 -42 -14 -46 -102 -97 -51 -29 -120 -62 -154 -75
-34 -12 -62 -28 -62 -35 0 -16 53 -95 83 -123 25 -23 44 -22 130 11 70 26 127
22 181 -15 19 -13 51 -31 71 -40 20 -10 43 -32 52 -49 9 -17 33 -52 55 -77 45
-54 49 -74 13 -65 -38 10 -68 -10 -61 -39 5 -18 -1 -31 -19 -50 -15 -14 -33
-41 -41 -60 -22 -53 -46 -63 -139 -55 -44 4 -84 3 -89 -2 -18 -15 -48 -8 -78
17 -37 31 -53 31 -94 0 -19 -15 -39 -22 -49 -19 -9 4 -24 -1 -35 -11 -18 -17
-22 -16 -81 24 -34 22 -68 41 -75 41 -8 0 -14 6 -14 14 0 7 -6 19 -14 25 -20
17 -59 -2 -84 -41 -12 -18 -25 -33 -29 -33 -4 0 -8 -16 -8 -35 0 -31 -3 -35
-27 -35 -53 0 -56 -21 -10 -65 42 -39 42 -40 26 -65 -19 -30 -21 -26 34 -54
23 -12 42 -23 42 -24 0 -2 -15 -14 -32 -28 -30 -22 -43 -24 -130 -24 l-96 0 5
46 c3 25 1 54 -5 65 -7 14 -6 28 3 50 7 18 9 37 5 45 -5 8 -1 22 11 37 27 34
24 51 -13 82 -30 25 -31 29 -20 54 7 15 12 31 12 37 0 12 -105 79 -125 79 -9
0 -25 -15 -35 -34 -16 -25 -26 -32 -43 -29 -32 6 -80 -33 -73 -61 3 -12 -3
-31 -12 -44 l-18 -23 -27 21 c-46 36 -105 147 -116 219 -18 113 -42 107 -99
-27 -23 -53 -51 -113 -61 -132 l-19 -35 -82 2 c-45 1 -84 4 -87 7 -3 2 8 21
23 41 21 28 29 51 32 96 6 75 -2 102 -32 119 -22 11 -76 79 -76 96 0 3 19 2
43 -2 105 -18 206 14 323 103 109 83 242 245 274 335 21 57 141 126 265 153
87 19 132 18 232 -6z"/>
<path d="M1164 920 c-27 -27 -34 -30 -57 -21 -18 7 -36 7 -52 1 -28 -11 -33
-28 -10 -36 24 -10 17 -22 -20 -34 -28 -9 -35 -17 -35 -37 0 -23 3 -25 33 -20
17 3 40 8 49 12 13 5 15 2 11 -13 -9 -36 19 -37 48 -2 l27 32 29 -20 c62 -44
101 -17 47 33 -27 25 -27 26 -8 40 10 8 22 15 27 15 14 0 7 20 -8 20 -11 0
-15 8 -13 28 4 40 -29 41 -68 2z"/>
</g>
</svg>
