<?xml version="1.0" standalone="no"?>
<!DOCTYPE svg PUBLIC "-//W3C//DTD SVG 20010904//EN"
 "http://www.w3.org/TR/2001/REC-SVG-20010904/DTD/svg10.dtd">
<svg version="1.0" xmlns="http://www.w3.org/2000/svg"
 width="230.000000pt" height="149.000000pt" viewBox="0 0 230.000000 149.000000"
 preserveAspectRatio="xMidYMid meet">
<metadata>
Created by potrace 1.16, written by Peter Selinger 2001-2019
</metadata>
<g transform="translate(0.000000,149.000000) scale(0.100000,-0.100000)"
fill="#000000" stroke="none">
<path d="M1189 1455 c-59 -36 -104 -42 -227 -29 -47 5 -58 3 -101 -26 -27 -17
-66 -51 -87 -76 -35 -43 -36 -48 -31 -100 7 -67 19 -84 61 -84 26 -1 20 -6
-44 -34 -71 -32 -82 -41 -94 -78 -8 -26 -97 -14 -170 23 -51 25 -70 29 -145
29 -62 0 -96 -5 -121 -18 -32 -16 -35 -21 -38 -68 -2 -36 1 -54 12 -63 14 -12
12 -16 -16 -35 -18 -12 -35 -30 -38 -41 -3 -11 -29 -42 -57 -69 -52 -48 -53
-50 -53 -105 0 -31 4 -72 10 -90 8 -30 6 -43 -20 -94 -37 -74 -38 -120 -5
-179 13 -24 31 -68 38 -98 12 -47 13 -59 1 -82 -17 -34 -18 -112 -1 -126 15
-13 225 -14 232 -1 4 5 20 9 36 9 49 0 165 74 189 120 20 40 28 44 96 55 89
14 132 71 185 247 16 52 33 81 77 130 83 95 148 135 311 195 94 35 98 36 241
35 137 -2 148 0 205 25 79 35 144 37 179 4 27 -26 125 -50 205 -51 34 0 47 -5
63 -25 17 -22 27 -25 82 -25 98 0 106 17 132 267 5 48 4 53 -31 91 l-36 41 25
50 c31 60 35 130 9 154 -10 8 -47 23 -83 32 -36 9 -86 22 -111 30 -61 19 -142
19 -180 -1 -34 -17 -52 -14 -106 23 -37 25 -39 25 -165 19 l-126 -7 -43 30
c-39 29 -48 31 -123 30 -74 -1 -86 -4 -137 -34z m230 -62 c34 -26 51 -32 75
-29 78 12 218 17 229 8 7 -6 35 -22 62 -37 54 -28 87 -28 151 2 31 15 38 15
96 -1 35 -10 89 -25 121 -33 32 -9 60 -20 63 -24 3 -5 -6 -30 -20 -57 -13 -26
-27 -64 -31 -84 -6 -33 -3 -41 35 -82 39 -42 41 -48 32 -73 -6 -16 -13 -59
-15 -96 -3 -46 -11 -74 -22 -87 -24 -26 -29 -25 -65 10 -24 24 -39 30 -74 30
-74 0 -160 20 -199 47 -56 39 -147 49 -201 24 -86 -41 -104 -45 -271 -51 -165
-6 -173 -8 -264 -44 -126 -49 -195 -93 -270 -169 -79 -82 -89 -96 -106 -159
-22 -83 -81 -202 -107 -216 -13 -7 -47 -17 -77 -22 -61 -11 -83 -27 -102 -71
-8 -20 -28 -38 -60 -54 -26 -14 -50 -29 -54 -35 -3 -5 -21 -10 -39 -10 -18 0
-36 -3 -40 -7 -7 -7 -156 -12 -156 -6 0 2 7 21 17 44 14 36 14 50 4 108 -7 36
-26 94 -42 129 l-30 62 20 29 c11 15 26 49 33 75 10 40 10 56 -4 109 l-16 62
59 57 c32 32 59 64 59 72 0 8 16 23 35 35 19 11 40 32 46 45 10 21 8 29 -15
56 -33 40 -33 46 5 59 55 19 116 13 165 -15 33 -19 68 -28 142 -37 54 -6 105
-8 114 -4 9 3 19 19 23 35 5 25 17 34 93 67 48 20 93 42 100 47 20 17 14 63
-12 87 -19 18 -31 21 -58 16 -31 -6 -36 -4 -41 16 -8 29 31 79 93 119 40 25
53 29 69 21 12 -7 53 -8 112 -4 83 6 100 10 156 43 77 45 117 43 182 -7z"/>
</g>
</svg>
