<?xml version="1.0" standalone="no"?>
<!DOCTYPE svg PUBLIC "-//W3C//DTD SVG 20010904//EN"
 "http://www.w3.org/TR/2001/REC-SVG-20010904/DTD/svg10.dtd">
<svg version="1.0" xmlns="http://www.w3.org/2000/svg"
 width="136.000000pt" height="176.000000pt" viewBox="0 0 136.000000 176.000000"
 preserveAspectRatio="xMidYMid meet">
<metadata>
Created by potrace 1.16, written by Peter Selinger 2001-2019
</metadata>
<g transform="translate(0.000000,176.000000) scale(0.100000,-0.100000)"
fill="#000000" stroke="none">
<path d="M490 1745 c-6 -8 -14 -42 -17 -76 -4 -43 -11 -62 -22 -67 -22 -8
-187 -148 -206 -175 -17 -25 -20 -99 -5 -128 7 -11 8 -45 4 -85 -9 -89 -39
-125 -110 -133 -51 -6 -45 -1 -111 -106 -38 -60 -31 -99 32 -184 36 -48 55
-83 55 -102 0 -18 -20 -58 -55 -109 -46 -68 -55 -88 -55 -125 0 -40 4 -47 42
-77 23 -18 67 -58 97 -89 31 -31 73 -69 94 -84 37 -27 37 -27 37 -101 0 -68 2
-75 26 -91 23 -15 37 -15 142 -4 65 7 198 16 297 21 235 11 296 25 409 93 55
34 62 36 122 30 44 -4 68 -2 79 7 21 17 20 99 -2 130 -13 19 -17 41 -14 94 l3
68 -48 49 c-27 27 -54 49 -60 49 -16 0 -25 52 -12 67 6 7 11 58 12 112 l1 100
35 6 c62 11 80 30 80 81 0 47 -7 60 -76 142 -17 20 -41 55 -52 78 -11 22 -28
46 -36 53 -9 8 -16 21 -16 31 0 28 -57 70 -94 70 -27 0 -40 9 -75 50 -29 35
-50 50 -67 50 -24 0 -32 14 -14 25 6 3 10 28 10 54 0 49 -20 81 -51 81 -9 0
-22 15 -30 33 -14 31 -16 32 -90 38 -42 4 -82 10 -88 13 -6 4 -11 22 -11 41 0
27 -7 39 -33 59 -39 30 -107 36 -127 11z m100 -77 c0 -5 -7 -20 -16 -33 -15
-23 -15 -25 16 -44 35 -21 136 -37 168 -27 16 6 21 -1 31 -40 11 -44 13 -46
41 -40 37 7 37 1 4 -58 -14 -25 -24 -56 -22 -68 3 -20 9 -23 46 -22 40 1 46
-3 89 -53 37 -43 51 -53 77 -53 38 0 76 -25 76 -49 0 -10 7 -24 16 -32 8 -7
26 -34 40 -60 13 -26 28 -50 34 -54 11 -7 90 -111 90 -119 0 -3 -19 -10 -42
-17 -68 -18 -116 -40 -122 -56 -8 -20 10 -50 35 -58 18 -6 20 -12 13 -63 -4
-40 -14 -65 -30 -83 -29 -30 -31 -65 -5 -79 11 -5 21 -20 23 -32 2 -12 13 -28
26 -34 13 -6 39 -27 59 -45 36 -36 36 -35 17 -126 -5 -26 -1 -39 20 -64 14
-17 26 -34 26 -37 0 -4 -33 -7 -73 -7 -68 0 -78 -3 -136 -38 -98 -61 -167 -76
-396 -87 -110 -6 -231 -15 -270 -20 -38 -6 -76 -8 -82 -5 -9 3 -13 28 -13 76
l0 72 -42 36 c-23 20 -69 63 -102 97 -34 33 -76 69 -94 80 -17 10 -32 23 -32
29 0 6 18 36 41 66 98 130 100 188 11 314 l-49 69 28 45 c16 25 29 51 29 59 0
10 7 12 25 8 33 -8 83 14 119 52 26 28 30 43 39 126 9 75 8 103 -3 136 l-14
42 50 47 c83 77 128 113 154 125 34 15 40 25 40 71 0 22 3 50 6 62 5 19 9 20
30 11 13 -6 24 -15 24 -20z"/>
</g>
</svg>
