<?xml version="1.0" standalone="no"?>
<!DOCTYPE svg PUBLIC "-//W3C//DTD SVG 20010904//EN"
 "http://www.w3.org/TR/2001/REC-SVG-20010904/DTD/svg10.dtd">
<svg version="1.0" xmlns="http://www.w3.org/2000/svg"
 width="196.000000pt" height="137.000000pt" viewBox="0 0 196.000000 137.000000"
 preserveAspectRatio="xMidYMid meet">
<metadata>
Created by potrace 1.16, written by Peter Selinger 2001-2019
</metadata>
<g transform="translate(0.000000,137.000000) scale(0.100000,-0.100000)"
fill="#000000" stroke="none">
<path d="M1357 1352 c-10 -10 -17 -35 -17 -55 0 -26 -6 -39 -20 -47 -30 -16
-100 6 -162 52 l-53 40 -95 -4 c-81 -4 -101 -9 -138 -31 -23 -15 -42 -31 -42
-36 0 -5 -23 -26 -51 -47 -44 -32 -60 -38 -108 -39 -31 -1 -77 -10 -103 -20
-42 -17 -52 -18 -100 -6 -29 7 -82 15 -117 18 -57 4 -66 2 -90 -20 -14 -14
-39 -27 -56 -30 -49 -8 -164 -53 -185 -72 -14 -13 -20 -31 -20 -61 0 -35 5
-47 25 -60 17 -11 25 -25 25 -45 0 -19 -9 -37 -25 -51 -20 -17 -25 -31 -25
-70 0 -40 4 -50 25 -64 14 -9 25 -22 25 -28 0 -6 23 -34 50 -61 l50 -49 -6
-64 c-6 -54 -4 -66 13 -85 12 -12 28 -37 37 -54 28 -55 55 -66 177 -71 115 -5
154 3 197 41 l22 20 0 -45 c0 -27 6 -50 14 -57 8 -7 54 -16 101 -21 66 -7 96
-15 124 -33 20 -14 59 -32 88 -42 38 -12 58 -25 72 -48 45 -74 105 -107 190
-107 42 0 52 5 112 59 45 41 69 72 78 99 25 74 46 89 149 106 50 9 111 16 135
16 53 0 67 13 67 61 0 44 27 69 75 69 17 0 36 5 43 12 15 15 16 180 1 195 -7
7 0 15 26 27 52 25 85 83 85 150 0 36 -5 58 -15 66 -14 12 -13 15 5 35 14 15
20 35 20 71 0 52 -12 74 -42 74 -9 0 -32 13 -50 29 -21 17 -49 30 -76 34 -73
9 -115 37 -131 88 -7 24 -18 52 -22 61 -5 10 -9 31 -9 47 0 43 -21 54 -90 49
-42 -3 -64 0 -72 9 -16 20 -92 17 -111 -5z m75 -72 c17 -49 41 -55 81 -20 45
39 58 39 50 -1 -4 -23 -2 -34 10 -40 8 -5 18 -28 22 -51 5 -28 18 -52 36 -69
30 -28 106 -59 144 -59 12 0 32 -11 45 -25 13 -14 38 -28 57 -31 41 -8 42 -17
2 -44 -41 -30 -54 -66 -34 -96 8 -13 22 -24 30 -24 36 0 -5 -102 -47 -116 -35
-11 -98 -75 -98 -99 0 -18 6 -24 28 -27 26 -3 27 -6 27 -55 l0 -53 -34 0 c-48
0 -105 -58 -96 -98 l6 -29 -73 -7 c-110 -10 -203 -29 -223 -46 -10 -8 -31 -43
-46 -76 -20 -44 -44 -75 -82 -108 l-55 -47 -44 12 c-31 8 -51 22 -68 46 -14
19 -33 45 -43 58 -11 15 -39 31 -71 40 -29 9 -68 27 -86 40 -24 17 -47 25 -76
25 -23 0 -65 5 -93 12 l-51 11 0 44 c0 35 -6 49 -30 73 -39 39 -53 38 -78 -5
-26 -43 -77 -65 -154 -65 -75 0 -125 20 -139 57 -6 15 -19 37 -30 49 -16 17
-18 26 -9 48 23 61 14 90 -47 147 -35 33 -56 61 -55 72 2 11 -6 21 -22 27 -25
9 -36 30 -17 30 19 0 38 48 45 112 l8 67 -32 19 c-23 15 -27 21 -18 29 17 13
161 63 181 63 9 0 30 12 47 27 31 26 33 26 79 13 79 -24 189 -24 243 -1 40 17
48 18 59 5 17 -20 43 -17 76 9 15 12 47 36 71 52 24 16 49 36 55 45 23 30 67
50 124 56 55 5 61 3 117 -36 33 -22 71 -43 85 -47 14 -3 38 -12 53 -19 55 -28
158 45 144 100 -5 20 0 36 11 36 2 0 9 -14 15 -30z"/>
</g>
</svg>
