<?xml version="1.0" standalone="no"?>
<!DOCTYPE svg PUBLIC "-//W3C//DTD SVG 20010904//EN"
 "http://www.w3.org/TR/2001/REC-SVG-20010904/DTD/svg10.dtd">
<svg version="1.0" xmlns="http://www.w3.org/2000/svg"
 width="154.000000pt" height="189.000000pt" viewBox="0 0 154.000000 189.000000"
 preserveAspectRatio="xMidYMid meet">
<metadata>
Created by potrace 1.16, written by Peter Selinger 2001-2019
</metadata>
<g transform="translate(0.000000,189.000000) scale(0.100000,-0.100000)"
fill="#000000" stroke="none">
<path d="M121 1874 c-20 -15 -22 -22 -17 -73 20 -189 20 -189 -19 -321 -21
-69 -48 -161 -61 -205 -16 -54 -24 -106 -24 -161 0 -74 2 -82 26 -105 39 -36
108 -137 136 -199 45 -101 98 -146 214 -184 34 -11 77 -39 127 -82 114 -99
113 -96 61 -181 -24 -39 -46 -83 -50 -97 -3 -14 -12 -30 -20 -37 -8 -7 -14
-30 -14 -59 0 -43 4 -50 36 -75 35 -27 36 -27 150 -20 l115 7 76 -38 c72 -37
81 -39 170 -39 88 0 96 2 114 24 10 13 19 35 19 50 0 40 50 118 144 223 47 54
86 103 86 110 0 16 81 96 123 121 23 15 27 24 27 61 0 24 -6 48 -12 54 -7 5
-75 12 -151 14 l-139 3 -24 30 c-13 17 -35 44 -49 61 -20 25 -25 43 -25 86 0
45 -4 59 -24 77 l-25 23 27 22 c15 12 39 30 55 39 24 16 27 23 27 77 0 66 -32
174 -60 203 -13 14 -38 20 -114 24 -89 6 -99 4 -126 -16 -29 -21 -32 -21 -87
-7 -32 8 -82 17 -111 20 -88 11 -89 15 -23 58 82 54 91 68 91 154 0 82 -19
117 -70 127 -22 5 -39 20 -64 60 -41 63 -49 71 -101 87 -22 7 -57 23 -77 37
-29 19 -58 28 -123 34 -47 5 -94 13 -105 19 -28 15 -83 12 -109 -6z m75 -54
c15 -6 64 -14 110 -19 66 -7 89 -13 112 -33 16 -14 51 -31 77 -38 37 -10 52
-21 72 -54 39 -63 63 -85 104 -96 31 -9 38 -15 42 -43 6 -45 -16 -82 -67 -112
-55 -32 -118 -101 -114 -123 2 -9 16 -23 31 -30 27 -13 188 -46 290 -59 26 -3
47 -10 47 -14 0 -20 30 -7 35 14 10 38 34 46 100 33 l59 -12 22 -59 c31 -83
30 -107 -3 -127 -16 -10 -45 -33 -65 -52 -49 -45 -50 -75 -3 -110 40 -31 42
-42 18 -86 l-18 -31 41 -37 c22 -20 53 -54 68 -74 34 -48 71 -58 216 -58 110
0 113 -1 90 -16 -44 -30 -130 -118 -130 -134 0 -8 -32 -49 -70 -90 -91 -96
-150 -188 -157 -240 -6 -43 -36 -71 -55 -52 -7 7 -18 7 -34 0 -20 -10 -37 -5
-108 30 -80 40 -89 42 -174 42 -50 0 -102 -4 -115 -9 -20 -8 -29 -6 -43 10 -9
10 -23 19 -31 19 -11 0 -9 7 6 26 12 15 21 32 21 37 0 6 25 53 55 103 30 51
55 100 55 110 0 31 -41 83 -116 149 -78 68 -122 95 -191 115 -68 21 -108 62
-163 168 -28 53 -73 122 -101 152 l-50 55 4 60 c3 33 22 114 43 180 71 229 76
251 71 365 -3 58 -8 115 -12 128 -8 25 -6 26 31 12z"/>
</g>
</svg>
