<?xml version="1.0" standalone="no"?>
<!DOCTYPE svg PUBLIC "-//W3C//DTD SVG 20010904//EN"
 "http://www.w3.org/TR/2001/REC-SVG-20010904/DTD/svg10.dtd">
<svg version="1.0" xmlns="http://www.w3.org/2000/svg"
 width="157.000000pt" height="148.000000pt" viewBox="0 0 157.000000 148.000000"
 preserveAspectRatio="xMidYMid meet">
<metadata>
Created by potrace 1.16, written by Peter Selinger 2001-2019
</metadata>
<g transform="translate(0.000000,148.000000) scale(0.100000,-0.100000)"
fill="#000000" stroke="none">
<path d="M955 1470 c-11 -5 -39 -14 -61 -20 -23 -5 -65 -28 -93 -51 -50 -40
-51 -41 -51 -96 0 -70 -34 -129 -97 -166 -23 -15 -43 -32 -43 -40 0 -7 -11
-28 -25 -47 -14 -19 -25 -46 -25 -61 0 -32 -8 -35 -129 -45 l-84 -7 -106 -100
c-58 -55 -124 -108 -146 -118 -56 -25 -95 -78 -95 -128 0 -34 5 -44 35 -67 22
-16 35 -35 35 -49 0 -27 13 -39 62 -54 40 -13 59 -32 39 -39 -6 -2 -25 -15
-42 -29 -27 -23 -30 -30 -27 -77 2 -42 7 -53 26 -61 16 -7 22 -18 23 -45 0
-19 8 -57 17 -85 20 -60 60 -85 138 -85 57 0 74 12 74 54 0 16 11 44 26 63 38
50 96 75 192 83 79 7 85 9 123 46 22 21 42 48 45 59 3 11 20 27 39 36 28 13
50 14 149 6 141 -12 149 -8 144 70 l-3 53 87 0 86 0 52 60 c29 34 79 81 111
107 l59 46 0 74 c0 47 6 85 16 104 19 37 15 119 -6 130 -8 4 -37 18 -65 30
l-50 22 65 10 c36 5 77 18 93 29 23 16 27 26 27 66 -1 37 -7 54 -30 82 -24 27
-30 44 -30 81 0 54 -11 67 -87 99 -29 12 -58 28 -64 36 -9 11 -43 14 -145 14
-78 0 -135 4 -139 10 -8 12 -92 12 -120 0z m84 -72 c16 -19 21 -20 51 -10 50
18 215 16 230 -2 6 -8 38 -25 71 -38 58 -23 58 -23 53 -58 -5 -29 0 -44 30
-89 34 -50 35 -54 19 -66 -32 -24 -94 -26 -121 -4 -14 10 -32 19 -40 19 -29 0
-52 -32 -52 -70 0 -34 6 -42 53 -78 28 -22 69 -46 90 -53 20 -7 37 -16 37 -20
0 -5 -10 -24 -22 -45 -18 -31 -20 -42 -11 -75 14 -53 6 -85 -26 -105 -14 -9
-63 -54 -107 -100 -72 -74 -85 -84 -117 -84 -23 0 -46 9 -65 25 -44 37 -80 33
-98 -10 -19 -47 -18 -79 6 -100 11 -10 20 -21 20 -25 0 -4 -29 -6 -65 -5 -45
1 -70 6 -83 18 -26 24 -45 21 -112 -16 -43 -23 -64 -42 -75 -67 -25 -56 -69
-80 -146 -80 -52 0 -77 -6 -120 -28 -63 -32 -119 -99 -119 -143 0 -33 -7 -35
-54 -15 -29 12 -35 21 -44 63 -9 39 -8 51 5 65 21 24 11 44 -31 59 -20 7 -35
18 -33 24 2 5 27 23 55 38 42 23 52 33 52 54 0 33 -67 99 -110 108 -21 5 -30
12 -29 23 3 33 -1 41 -36 62 l-35 21 22 29 c12 16 36 34 53 40 17 6 83 59 146
118 l115 107 76 2 c98 2 148 22 148 58 0 27 46 117 64 124 5 2 28 21 52 43 51
47 88 128 81 174 -5 29 -1 37 32 63 20 16 60 35 87 42 27 6 53 16 59 20 14 14
25 11 44 -13z"/>
</g>
</svg>
