<?xml version="1.0" standalone="no"?>
<!DOCTYPE svg PUBLIC "-//W3C//DTD SVG 20010904//EN"
 "http://www.w3.org/TR/2001/REC-SVG-20010904/DTD/svg10.dtd">
<svg version="1.0" xmlns="http://www.w3.org/2000/svg"
 width="175.000000pt" height="136.000000pt" viewBox="0 0 175.000000 136.000000"
 preserveAspectRatio="xMidYMid meet">
<metadata>
Created by potrace 1.16, written by Peter Selinger 2001-2019
</metadata>
<g transform="translate(0.000000,136.000000) scale(0.100000,-0.100000)"
fill="#000000" stroke="none">
<path d="M485 1350 c-4 -6 -24 -19 -45 -30 -24 -12 -45 -33 -57 -57 -28 -58
-73 -83 -152 -83 -82 -1 -149 -34 -198 -98 -28 -37 -33 -52 -33 -97 0 -53 1
-55 81 -147 102 -116 119 -144 119 -190 0 -41 35 -78 93 -97 24 -8 36 -21 45
-44 34 -95 254 -267 342 -267 10 0 43 -10 74 -21 47 -18 65 -33 106 -85 40
-51 56 -64 78 -64 15 0 56 -16 92 -35 67 -37 135 -46 158 -23 19 19 14 90 -13
172 -14 42 -25 79 -25 81 0 3 11 5 24 5 28 0 43 16 48 50 3 23 6 21 37 -25 19
-27 50 -67 69 -87 32 -33 42 -38 82 -38 60 0 80 21 80 80 0 46 -30 120 -63
157 -25 28 -19 30 93 35 47 3 99 11 115 19 29 14 30 17 35 94 5 73 7 80 27 83
35 5 40 21 47 138 6 98 5 112 -11 126 -23 21 -95 50 -258 104 -434 144 -506
174 -600 257 -55 47 -110 67 -190 67 -43 0 -66 5 -75 15 -14 17 -115 21 -125
5z m89 -65 c4 -11 22 -15 69 -15 81 0 137 -20 192 -67 93 -82 113 -90 580
-249 133 -45 267 -94 274 -100 2 -2 -2 -10 -9 -19 -8 -10 -10 -32 -5 -74 l7
-59 -34 -7 c-57 -11 -68 -16 -68 -29 0 -8 7 -19 15 -26 10 -8 14 -30 12 -70
l-1 -58 -51 -6 c-27 -3 -74 -6 -103 -6 -72 0 -152 -27 -152 -50 0 -10 20 -38
44 -62 71 -70 109 -174 55 -153 -8 3 -40 42 -72 86 -60 82 -107 121 -142 117
-17 -3 -21 -12 -23 -54 -3 -47 -5 -51 -26 -47 -17 4 -28 -2 -40 -18 -22 -32
-21 -44 15 -155 17 -53 29 -98 26 -100 -2 -2 -35 12 -72 31 -38 19 -79 35 -91
35 -14 0 -35 18 -63 54 -52 68 -72 81 -158 105 -89 24 -126 41 -195 84 -67 43
-148 132 -163 179 -9 27 -22 38 -73 62 -62 29 -62 30 -62 72 0 34 -8 53 -44
102 -24 33 -48 61 -53 63 -15 7 -103 121 -103 134 0 6 14 31 30 54 39 54 100
81 181 81 33 0 72 6 87 14 34 18 78 65 86 92 4 12 20 27 36 34 16 7 35 18 41
26 15 18 45 18 53 -1z"/>
<path d="M790 841 c-5 -11 -10 -27 -10 -35 0 -22 -8 -20 -47 14 -18 17 -40 30
-49 30 -8 0 -34 -18 -57 -40 -38 -35 -40 -40 -19 -40 12 0 22 -4 22 -10 0 -5
-4 -10 -10 -10 -5 0 -10 -11 -10 -25 0 -20 7 -26 42 -35 23 -7 53 -9 67 -7 16
3 29 -1 36 -10 9 -12 16 -13 31 -6 11 6 28 7 39 2 29 -11 73 -11 80 2 4 6 -3
21 -15 34 -14 15 -18 25 -11 30 19 11 12 24 -15 31 -23 6 -26 11 -21 39 8 50
-31 76 -53 36z"/>
</g>
</svg>
