<?xml version="1.0" standalone="no"?>
<!DOCTYPE svg PUBLIC "-//W3C//DTD SVG 20010904//EN"
 "http://www.w3.org/TR/2001/REC-SVG-20010904/DTD/svg10.dtd">
<svg version="1.0" xmlns="http://www.w3.org/2000/svg"
 width="194.000000pt" height="276.000000pt" viewBox="0 0 194.000000 276.000000"
 preserveAspectRatio="xMidYMid meet">
<metadata>
Created by potrace 1.16, written by Peter Selinger 2001-2019
</metadata>
<g transform="translate(0.000000,276.000000) scale(0.100000,-0.100000)"
fill="#000000" stroke="none">
<path d="M700 2718 c-23 -51 -25 -81 -6 -111 17 -26 46 -134 46 -171 0 -15 10
-40 22 -56 20 -28 22 -41 22 -198 1 -163 0 -168 -26 -223 -32 -64 -34 -81 -14
-112 8 -12 19 -58 25 -101 9 -64 9 -83 -3 -100 -18 -28 -90 -100 -160 -161
-32 -27 -78 -72 -104 -98 -36 -38 -80 -65 -197 -123 -83 -41 -156 -74 -163
-74 -12 0 -88 -31 -122 -49 -19 -10 -25 -65 -8 -78 17 -14 99 -39 175 -54 50
-10 63 -17 65 -33 3 -19 11 -21 97 -24 69 -2 103 1 127 13 42 20 39 20 87 -19
70 -57 189 -81 280 -55 32 9 41 7 67 -11 23 -17 30 -29 30 -55 0 -19 9 -49 20
-67 15 -25 20 -51 20 -105 l0 -73 48 -24 c26 -13 66 -30 90 -37 44 -13 88 -48
96 -78 2 -9 7 -37 11 -63 3 -26 10 -50 16 -53 5 -4 9 -23 9 -43 0 -25 8 -44
25 -62 21 -21 27 -42 33 -98 10 -85 26 -107 88 -117 38 -5 54 -1 115 29 61 31
82 36 140 36 l67 0 46 54 c36 41 46 61 46 89 0 19 3 43 6 52 8 19 55 45 82 45
11 0 25 7 32 15 18 22 -23 188 -58 234 -20 28 -25 44 -23 84 1 35 -3 55 -15
68 -17 19 -16 21 14 52 38 39 41 71 10 130 -19 36 -23 61 -26 187 -2 92 -8
156 -17 175 -25 57 -47 189 -35 219 5 15 10 76 10 136 l0 109 -56 41 c-80 60
-95 112 -46 158 63 60 122 143 122 172 0 36 -12 44 -80 50 -47 4 -55 8 -58 27
-5 31 -92 83 -140 83 -46 0 -107 28 -153 67 -19 17 -43 32 -54 34 -27 6 -61
61 -69 113 -13 85 -89 146 -181 146 -63 0 -100 15 -165 70 -51 42 -130 80
-167 80 -19 0 -28 -10 -43 -42z m182 -99 c68 -54 105 -69 168 -69 90 0 134
-36 151 -123 13 -63 52 -120 91 -133 11 -3 41 -22 66 -41 56 -43 104 -63 151
-63 46 0 98 -32 103 -62 4 -28 41 -48 91 -48 l38 0 -33 -46 c-18 -25 -45 -55
-60 -65 -37 -27 -50 -72 -39 -138 9 -55 35 -89 110 -141 22 -15 22 -17 11
-135 -13 -135 -8 -222 19 -304 13 -39 20 -97 23 -191 4 -113 9 -144 28 -189
l24 -54 -37 -29 c-43 -35 -49 -74 -17 -103 17 -15 20 -26 14 -61 -5 -38 -2
-48 26 -87 17 -24 36 -64 41 -88 5 -24 12 -51 14 -60 4 -10 -8 -21 -36 -33
-47 -21 -79 -67 -79 -114 0 -22 -10 -46 -31 -72 -30 -37 -33 -38 -102 -42 -54
-2 -87 -10 -132 -33 -94 -46 -124 -30 -125 67 0 45 -5 62 -25 86 -14 17 -25
43 -25 58 -1 16 -7 40 -15 54 -8 14 -14 40 -15 58 0 69 -55 131 -142 161 -96
33 -95 31 -100 115 -3 46 -11 85 -21 100 -10 14 -17 40 -17 57 0 25 -10 41
-42 72 -45 43 -35 42 -179 21 -54 -9 -139 21 -204 71 -65 51 -92 56 -123 20
-18 -21 -31 -25 -76 -25 -44 0 -60 5 -78 22 -16 16 -52 29 -110 42 -49 10 -88
22 -88 26 0 4 12 12 28 17 190 69 350 153 414 220 26 26 76 73 110 103 99 86
177 172 183 202 7 29 -9 159 -26 218 -8 27 -7 42 5 65 32 61 38 124 29 301 -8
153 -11 173 -31 198 -14 19 -22 43 -22 68 0 39 -26 135 -41 152 -4 5 -4 17 2
28 9 16 13 17 44 4 18 -8 57 -33 87 -57z"/>
</g>
</svg>
