<?xml version="1.0" standalone="no"?>
<!DOCTYPE svg PUBLIC "-//W3C//DTD SVG 20010904//EN"
 "http://www.w3.org/TR/2001/REC-SVG-20010904/DTD/svg10.dtd">
<svg version="1.0" xmlns="http://www.w3.org/2000/svg"
 width="161.000000pt" height="143.000000pt" viewBox="0 0 161.000000 143.000000"
 preserveAspectRatio="xMidYMid meet">
<metadata>
Created by potrace 1.16, written by Peter Selinger 2001-2019
</metadata>
<g transform="translate(0.000000,143.000000) scale(0.100000,-0.100000)"
fill="#000000" stroke="none">
<path d="M888 1410 c-7 -12 -31 -31 -53 -44 -68 -40 -87 -67 -83 -117 2 -34 8
-46 26 -54 15 -7 22 -18 22 -37 0 -26 -3 -28 -38 -28 -54 0 -92 -40 -92 -98
l0 -42 -77 -1 c-105 -1 -186 -19 -218 -49 -14 -13 -33 -46 -43 -74 -14 -40
-31 -61 -94 -115 l-78 -66 0 -53 c0 -50 -2 -53 -41 -80 -22 -15 -58 -42 -80
-61 -36 -31 -39 -37 -39 -86 0 -33 5 -57 14 -64 8 -6 51 -16 97 -21 46 -5 99
-14 117 -19 17 -5 68 -13 112 -17 73 -6 83 -5 103 14 19 17 29 19 65 12 53 -9
53 -10 83 -85 33 -85 33 -85 105 -85 61 0 64 -1 64 -24 0 -46 111 -116 184
-116 39 0 52 6 85 36 22 19 51 55 66 79 30 52 60 75 96 75 39 0 79 36 79 71 0
19 6 32 18 36 9 3 36 22 58 42 23 20 54 45 69 55 27 19 27 19 21 105 -6 70
-11 90 -30 109 l-23 23 21 44 c19 40 25 44 56 45 44 0 60 15 60 55 0 17 11 46
25 65 19 26 25 46 25 87 0 39 6 62 21 82 15 20 19 39 17 72 -3 42 -5 44 -63
74 -58 29 -60 32 -65 74 -3 25 -11 47 -20 51 -8 4 -35 16 -60 28 -33 15 -72
22 -147 25 -90 3 -107 7 -142 30 -23 15 -47 27 -54 27 -8 0 -26 9 -40 20 -35
28 -112 28 -129 0z m89 -60 c14 -11 33 -20 43 -20 10 0 28 -8 41 -19 36 -28
95 -41 190 -41 63 0 90 -4 98 -14 7 -8 26 -18 42 -21 24 -6 29 -11 27 -34 -3
-42 26 -78 82 -102 28 -12 50 -24 50 -26 0 -3 -12 -19 -26 -36 -22 -27 -25
-36 -19 -79 6 -43 4 -51 -20 -80 -19 -23 -26 -40 -23 -60 6 -39 -8 -45 -42
-19 l-29 21 -15 -32 c-9 -17 -16 -36 -16 -43 0 -6 -13 -32 -30 -58 -16 -26
-30 -53 -30 -59 0 -7 15 -28 34 -48 26 -27 35 -46 39 -82 4 -45 3 -49 -27 -68
-18 -10 -41 -29 -51 -41 -11 -11 -35 -27 -54 -35 -43 -18 -53 -32 -39 -58 13
-25 -12 -46 -56 -46 -22 0 -40 -11 -73 -45 -24 -25 -43 -51 -43 -58 0 -7 -18
-30 -39 -51 -45 -44 -59 -43 -128 7 -35 24 -40 33 -33 48 18 32 -13 49 -89 49
l-68 0 -27 69 c-15 38 -33 74 -40 80 -7 6 -43 17 -81 25 -60 12 -73 12 -96 0
-15 -7 -31 -19 -34 -24 -7 -11 -26 -9 -152 16 -40 8 -88 14 -107 14 -19 0 -47
5 -62 10 -26 10 -26 11 -8 32 11 11 42 35 69 53 75 49 90 70 90 124 0 39 4 50
30 71 62 52 125 115 125 125 0 5 11 33 24 60 l23 50 72 13 c39 6 107 12 150
12 l79 0 7 30 c4 16 3 39 0 50 -10 32 20 60 66 60 20 0 44 3 53 6 18 7 21 41
7 63 -6 10 -5 22 5 35 23 34 17 54 -21 67 -33 12 -34 14 -17 32 9 11 34 28 54
38 21 11 42 28 48 39 13 25 16 25 47 0z"/>
</g>
</svg>
