<?xml version="1.0" standalone="no"?>
<!DOCTYPE svg PUBLIC "-//W3C//DTD SVG 20010904//EN"
 "http://www.w3.org/TR/2001/REC-SVG-20010904/DTD/svg10.dtd">
<svg version="1.0" xmlns="http://www.w3.org/2000/svg"
 width="190.000000pt" height="156.000000pt" viewBox="0 0 190.000000 156.000000"
 preserveAspectRatio="xMidYMid meet">
<metadata>
Created by potrace 1.16, written by Peter Selinger 2001-2019
</metadata>
<g transform="translate(0.000000,156.000000) scale(0.100000,-0.100000)"
fill="#000000" stroke="none">
<path d="M762 1545 c-18 -8 -35 -21 -38 -30 -5 -11 -21 -15 -60 -15 -36 0 -64
-7 -86 -20 -18 -11 -47 -20 -64 -20 -19 0 -39 -9 -52 -23 -31 -32 -31 -125 -1
-174 23 -37 23 -38 -7 -47 -14 -4 -27 0 -39 14 -21 23 -103 28 -123 8 -7 -7
-12 -39 -12 -75 l0 -63 49 -38 c26 -21 61 -44 77 -50 l29 -12 -1 -91 0 -91
-66 -56 c-36 -32 -82 -76 -103 -99 -44 -51 -79 -56 -115 -18 -19 20 -33 25
-71 25 -62 0 -79 -22 -79 -103 l0 -59 80 -88 c114 -125 154 -146 490 -255 157
-51 321 -107 365 -124 97 -38 183 -48 264 -31 72 15 89 31 93 90 3 40 6 45 28
48 57 6 188 45 225 67 45 26 81 62 119 119 34 51 37 155 5 217 l-20 41 35 51
c28 40 36 62 36 96 0 34 6 51 31 78 28 32 30 41 27 92 -3 54 -2 56 27 64 78
23 79 25 89 125 11 122 11 122 -115 122 -97 0 -98 0 -111 28 -13 27 -15 27
-105 27 -50 0 -95 3 -99 8 -4 4 -34 7 -66 7 l-58 0 0 49 c0 28 -6 53 -13 60
-8 6 -47 10 -94 8 -71 -2 -85 1 -110 20 -15 13 -46 32 -68 44 -22 12 -47 28
-56 35 -24 21 -128 54 -168 54 -20 -1 -51 -7 -69 -15z m123 -64 c45 -16 125
-63 197 -114 19 -13 48 -18 117 -20 50 -1 91 -4 91 -6 0 -2 -25 -28 -55 -56
-56 -54 -67 -78 -39 -89 32 -12 100 -6 135 13 51 27 69 28 109 3 41 -25 67
-27 94 -7 11 8 34 15 51 15 24 0 31 -5 32 -21 4 -45 19 -50 126 -43 75 5 98 4
93 -4 -4 -7 -15 -12 -24 -12 -27 0 -62 -29 -56 -45 3 -8 21 -20 39 -27 38 -13
37 -28 -2 -28 -34 0 -113 -46 -113 -67 0 -8 10 -31 21 -50 l22 -34 -32 -33
c-25 -26 -31 -40 -31 -76 0 -44 -37 -116 -80 -155 -24 -21 -26 -48 -5 -65 8
-6 26 -32 40 -58 22 -40 24 -50 14 -79 -6 -18 -29 -56 -51 -84 -46 -58 -103
-89 -213 -114 -157 -36 -171 -45 -140 -91 8 -13 15 -28 15 -33 0 -12 -92 -41
-127 -41 -20 0 -107 28 -228 73 -22 9 -160 54 -306 101 -221 72 -277 94 -335
132 -81 54 -184 170 -184 208 0 36 17 41 50 13 32 -27 96 -43 132 -32 13 4 57
42 99 85 42 43 95 90 117 105 23 15 42 33 43 39 0 6 2 21 5 34 2 12 -2 39 -9
61 -13 35 -12 42 9 82 35 66 32 75 -32 98 -72 28 -134 77 -134 108 0 28 16 30
32 3 10 -15 24 -20 59 -20 53 0 159 44 159 66 0 7 -20 35 -45 61 -62 65 -60
123 5 123 14 0 43 9 64 20 34 17 44 18 82 8 45 -12 74 -1 74 28 0 11 43 42 60
44 3 0 28 -8 55 -19z"/>
</g>
</svg>
