<?xml version="1.0" standalone="no"?>
<!DOCTYPE svg PUBLIC "-//W3C//DTD SVG 20010904//EN"
 "http://www.w3.org/TR/2001/REC-SVG-20010904/DTD/svg10.dtd">
<svg version="1.0" xmlns="http://www.w3.org/2000/svg"
 width="201.000000pt" height="184.000000pt" viewBox="0 0 201.000000 184.000000"
 preserveAspectRatio="xMidYMid meet">
<metadata>
Created by potrace 1.16, written by Peter Selinger 2001-2019
</metadata>
<g transform="translate(0.000000,184.000000) scale(0.100000,-0.100000)"
fill="#000000" stroke="none">
<path d="M724 1797 c-50 -23 -99 -48 -108 -56 -27 -23 -20 -85 19 -167 48
-101 52 -125 26 -167 -23 -38 -28 -106 -9 -125 9 -9 5 -12 -20 -12 -26 0 -36
-7 -56 -38 -34 -54 -45 -61 -127 -72 -120 -16 -128 -20 -179 -68 -40 -39 -49
-54 -52 -87 -2 -31 -8 -41 -23 -43 -11 -2 -35 -15 -52 -29 -28 -20 -33 -31
-33 -64 0 -21 5 -48 12 -59 10 -15 9 -22 -4 -37 -8 -10 -18 -39 -20 -65 -4
-34 -18 -64 -52 -113 -58 -82 -61 -124 -16 -190 50 -72 70 -81 199 -89 92 -5
119 -10 143 -27 24 -17 40 -20 80 -17 44 5 56 1 102 -28 28 -18 65 -44 81 -57
49 -40 94 -58 154 -64 68 -7 100 -22 158 -76 42 -39 47 -41 122 -45 77 -4 78
-4 99 26 15 21 22 45 22 79 0 58 22 98 97 171 59 58 107 82 126 63 6 -6 37
-11 70 -11 56 0 61 2 122 52 35 29 84 68 109 87 45 32 46 35 46 87 0 46 -3 56
-25 70 -14 9 -25 26 -25 39 0 22 -23 49 -48 57 -8 2 -20 18 -28 36 l-13 32 47
0 c70 0 94 20 90 78 -3 51 2 47 -123 104 l-70 32 60 8 c33 5 92 11 130 14 39
3 76 10 83 16 7 6 12 33 12 63 0 57 -11 72 -67 94 -17 7 -39 21 -49 32 -16 18
-16 19 15 19 65 0 151 64 151 112 0 26 3 28 38 28 53 0 72 23 72 87 0 57 -10
70 -60 75 l-34 3 3 57 c2 51 0 58 -23 73 -17 12 -43 16 -88 14 -70 -2 -120 5
-191 28 -33 10 -69 13 -120 9 -39 -3 -88 -5 -107 -4 -92 5 -188 1 -217 -9 -30
-10 -35 -8 -91 37 -88 71 -110 80 -194 79 -64 0 -84 -5 -164 -42z m231 -35
c16 -8 56 -36 89 -63 32 -26 70 -49 84 -52 15 -3 54 5 87 17 53 18 66 20 105
9 60 -15 116 -16 157 -1 27 10 47 9 110 -6 43 -10 95 -24 115 -32 27 -10 45
-11 67 -3 35 12 83 9 88 -7 2 -7 -9 -15 -24 -19 -15 -3 -31 -11 -34 -17 -4 -6
-42 -13 -85 -15 -44 -3 -91 -9 -106 -15 -18 -7 -32 -6 -46 1 -22 12 -52 5 -52
-11 0 -5 19 -17 42 -28 37 -17 45 -17 77 -4 37 15 51 14 244 -17 53 -8 77 -16
77 -26 0 -19 -38 -31 -81 -26 -67 9 -108 -36 -53 -58 25 -9 26 -10 9 -29 -34
-38 -81 -51 -173 -50 -48 1 -93 1 -99 1 -25 -2 -13 -31 20 -47 17 -9 57 -39
87 -65 31 -27 72 -55 93 -64 51 -21 49 -42 -5 -41 -24 0 -69 -6 -101 -13 -45
-11 -65 -12 -95 -3 -24 8 -38 8 -40 2 -2 -6 -14 -10 -27 -10 -21 0 -35 -17
-35 -42 0 -25 99 -99 173 -129 63 -25 76 -34 62 -41 -11 -7 -47 -4 -103 6 -92
17 -232 23 -251 12 -18 -12 -13 -54 9 -66 11 -6 63 -22 117 -36 54 -14 102
-29 107 -35 6 -5 15 -24 20 -41 9 -25 18 -34 39 -36 22 -3 27 -8 27 -32 0 -28
18 -54 42 -62 19 -7 1 -37 -33 -56 -18 -9 -60 -41 -95 -69 -67 -56 -87 -63
-116 -36 -10 9 -30 16 -45 15 -45 -1 -119 -38 -142 -70 -12 -17 -30 -33 -40
-37 -10 -3 -33 -28 -51 -56 -24 -38 -33 -63 -35 -103 -1 -28 -8 -62 -16 -75
-22 -36 -78 -24 -135 29 -53 49 -99 70 -151 70 -47 0 -114 33 -223 111 -100
70 -158 109 -164 109 -3 0 -2 -16 1 -35 3 -19 3 -35 -1 -35 -3 0 -23 11 -44
24 -33 22 -46 24 -127 22 -110 -4 -144 9 -186 71 l-30 44 34 47 c51 70 69 111
62 139 -4 18 2 33 25 61 35 43 37 64 10 99 -24 31 -15 47 38 63 110 34 137 60
84 82 -15 7 -28 13 -30 14 -2 1 15 21 37 43 42 42 37 40 208 67 38 6 91 47
104 82 7 19 14 23 32 17 12 -3 43 -9 68 -12 41 -5 48 -3 53 15 10 30 -9 67
-48 97 l-35 26 25 46 c19 36 22 54 18 87 -8 48 -48 161 -70 195 -9 13 -12 27
-7 31 4 5 53 29 108 53 104 47 122 49 180 19z"/>
</g>
</svg>
