<?xml version="1.0" standalone="no"?>
<!DOCTYPE svg PUBLIC "-//W3C//DTD SVG 20010904//EN"
 "http://www.w3.org/TR/2001/REC-SVG-20010904/DTD/svg10.dtd">
<svg version="1.0" xmlns="http://www.w3.org/2000/svg"
 width="309.000000pt" height="132.000000pt" viewBox="0 0 309.000000 132.000000"
 preserveAspectRatio="xMidYMid meet">
<metadata>
Created by potrace 1.16, written by Peter Selinger 2001-2019
</metadata>
<g transform="translate(0.000000,132.000000) scale(0.100000,-0.100000)"
fill="#000000" stroke="none">
<path d="M1741 1301 c-20 -15 -23 -24 -17 -53 8 -45 0 -51 -89 -73 -38 -10
-77 -23 -85 -30 -23 -19 -101 -57 -107 -52 -2 3 1 15 7 27 6 11 10 33 8 47 -2
21 -10 29 -37 35 -18 5 -47 8 -65 6 -27 -3 -31 -7 -34 -35 -2 -17 4 -45 12
-61 14 -28 14 -30 -10 -41 -14 -6 -36 -11 -48 -11 -41 0 -161 -55 -222 -102
-55 -42 -179 -108 -204 -108 -6 0 -18 16 -26 35 -8 19 -21 35 -29 35 -8 0 -30
14 -50 31 -33 29 -39 31 -98 27 -52 -3 -72 -10 -126 -46 -36 -23 -81 -45 -100
-48 -20 -4 -59 -26 -88 -50 -29 -23 -66 -45 -83 -49 -20 -4 -49 -27 -82 -66
-39 -44 -64 -63 -99 -74 -57 -19 -71 -35 -67 -72 3 -27 5 -28 78 -35 41 -4
151 -10 243 -12 150 -5 172 -7 203 -27 35 -21 39 -21 167 -10 128 11 133 12
187 50 104 73 136 84 215 78 44 -3 86 -13 111 -26 23 -12 76 -28 119 -35 69
-12 82 -18 105 -46 21 -26 32 -32 53 -28 18 3 32 -1 43 -13 23 -26 71 -23 119
6 45 28 55 29 106 15 23 -6 40 -19 47 -35 14 -31 47 -33 127 -5 63 22 75 20
75 -14 0 -28 23 -49 71 -66 49 -18 69 -8 69 31 l0 32 23 -20 c35 -33 76 -49
172 -68 92 -18 225 -82 241 -115 4 -8 10 -62 13 -120 6 -99 7 -105 28 -108 16
-2 41 12 78 44 57 50 87 91 98 136 8 31 49 48 113 48 35 0 47 5 59 24 9 14 30
29 46 35 80 28 102 111 52 206 -15 31 -28 77 -33 119 -6 57 -12 73 -33 90 -18
15 -26 34 -30 66 -9 84 -35 171 -56 194 -12 13 -41 29 -64 36 -23 7 -63 23
-89 36 l-48 24 0 81 c0 44 -5 90 -11 101 -10 18 -17 20 -72 13 -34 -3 -70 -11
-81 -17 -17 -9 -118 -37 -139 -38 -4 0 -17 21 -28 46 -11 25 -26 47 -33 50 -8
3 -44 0 -82 -6 -38 -6 -89 -14 -114 -17 -27 -3 -55 -14 -70 -28 -19 -18 -125
-55 -156 -55 -2 0 -3 28 -1 63 l2 62 -80 2 c-65 3 -84 0 -104 -16z m121 -85
c-3 -49 -1 -56 22 -71 19 -13 37 -16 64 -12 71 12 146 37 166 56 12 10 39 21
61 24 153 21 139 22 151 -11 6 -16 24 -38 39 -48 24 -16 33 -16 93 -4 37 7 89
21 115 31 80 31 81 31 73 -59 -6 -73 -5 -80 16 -99 26 -24 106 -65 160 -82 46
-15 68 -44 68 -91 0 -19 7 -48 15 -64 10 -18 13 -41 10 -58 -6 -23 -1 -34 24
-57 27 -25 31 -36 31 -81 0 -29 7 -65 17 -83 55 -102 54 -133 -1 -158 -25 -11
-54 -31 -64 -44 -16 -20 -29 -25 -68 -25 -52 0 -92 -16 -104 -40 -5 -8 -16
-34 -26 -58 -10 -24 -29 -53 -43 -64 l-26 -20 -6 69 c-8 89 -29 127 -82 154
-23 12 -54 30 -68 40 -14 10 -68 28 -120 39 -129 28 -153 37 -179 65 -33 35
-82 34 -110 -2 -17 -22 -23 -25 -30 -13 -6 8 -10 25 -10 36 0 36 -24 47 -81
39 -29 -4 -66 -13 -83 -20 -27 -12 -31 -11 -48 10 -38 49 -165 57 -233 15 -32
-20 -32 -20 -50 0 -10 11 -30 20 -45 20 -15 0 -33 7 -41 16 -20 25 -60 41
-119 49 -30 4 -82 18 -114 32 -43 18 -86 26 -150 30 -87 5 -93 4 -150 -26 -32
-17 -76 -45 -98 -63 -37 -29 -49 -33 -150 -42 -103 -9 -110 -8 -137 12 -41 30
-70 35 -136 23 -80 -15 -309 6 -273 25 12 7 45 37 71 68 31 36 56 56 70 56 12
0 46 20 76 44 30 24 68 47 86 50 17 4 65 26 106 51 86 52 124 57 159 20 13
-14 32 -25 42 -25 10 0 18 -7 18 -17 0 -31 41 -63 81 -63 46 0 160 52 214 97
55 47 169 102 232 112 28 4 63 15 77 24 15 10 27 13 31 7 3 -6 16 -10 28 -10
27 0 139 53 157 75 7 8 18 15 26 15 41 0 119 25 144 47 24 19 30 33 30 63 0
40 8 48 50 49 24 1 25 -1 22 -53z"/>
</g>
</svg>
