<?xml version="1.0" standalone="no"?>
<!DOCTYPE svg PUBLIC "-//W3C//DTD SVG 20010904//EN"
 "http://www.w3.org/TR/2001/REC-SVG-20010904/DTD/svg10.dtd">
<svg version="1.0" xmlns="http://www.w3.org/2000/svg"
 width="257.000000pt" height="171.000000pt" viewBox="0 0 257.000000 171.000000"
 preserveAspectRatio="xMidYMid meet">
<metadata>
Created by potrace 1.16, written by Peter Selinger 2001-2019
</metadata>
<g transform="translate(0.000000,171.000000) scale(0.100000,-0.100000)"
fill="#000000" stroke="none">
<path d="M1846 1636 c-38 -82 -74 -126 -105 -126 -11 0 -32 16 -47 36 -28 36
-29 36 -88 32 -74 -6 -106 -35 -106 -101 -1 -35 -8 -50 -44 -91 l-44 -49 -74
-1 c-62 -1 -84 -6 -139 -33 -35 -18 -77 -34 -94 -35 -29 -3 -30 -5 -30 -48 0
-58 -25 -96 -77 -120 -22 -10 -45 -28 -52 -41 -10 -21 -20 -25 -81 -29 l-70
-5 -26 -55 c-16 -31 -52 -78 -84 -109 -54 -52 -58 -54 -71 -36 -10 13 -14 49
-14 113 0 91 -10 132 -31 132 -6 0 -31 14 -56 31 -32 22 -76 38 -152 56 -58
13 -123 33 -144 44 -63 32 -88 24 -102 -34 -4 -16 -14 -27 -24 -27 -9 0 -34
-17 -55 -39 -29 -30 -37 -45 -34 -67 2 -23 9 -30 30 -32 27 -3 27 -4 12 -27
-21 -32 -15 -99 9 -103 22 -4 87 25 87 38 0 6 5 10 11 10 6 0 1 -12 -10 -26
-18 -23 -21 -41 -21 -121 0 -83 3 -98 25 -134 14 -22 30 -51 35 -64 20 -52
103 -17 112 45 2 19 10 26 30 28 36 4 35 -5 -7 -68 -38 -57 -45 -103 -18 -118
13 -8 16 -21 14 -57 -2 -53 18 -85 54 -85 34 0 113 38 125 60 15 28 12 86 -5
100 -24 20 -14 51 25 73 19 10 49 32 65 48 64 60 97 23 41 -45 -45 -56 -56
-84 -56 -151 0 -54 0 -54 -45 -81 -58 -33 -75 -59 -75 -109 0 -55 22 -112 59
-153 l31 -35 112 7 113 7 46 52 47 52 68 -3 c38 -1 101 -7 140 -13 62 -10 76
-9 108 6 21 10 44 29 53 41 20 31 43 31 43 1 0 -27 17 -47 40 -47 12 0 15 -8
12 -33 -3 -30 1 -37 39 -65 48 -35 92 -41 138 -18 21 11 35 35 60 98 38 97 50
112 108 138 48 21 76 60 99 137 16 55 25 66 66 82 23 9 34 5 81 -30 46 -33 63
-39 104 -39 43 0 53 4 86 38 40 41 46 70 23 112 -11 22 -10 30 10 65 12 22 37
90 55 150 44 148 84 190 193 204 46 5 50 9 58 38 9 36 41 63 76 63 38 0 62 18
62 48 0 21 -18 43 -76 96 l-75 69 -80 -6 c-67 -4 -82 -2 -103 14 -19 15 -40
19 -94 19 l-70 0 5 39 c5 38 4 40 -33 59 -22 11 -44 29 -51 40 -16 28 -44 136
-52 202 -5 50 -8 55 -33 58 -25 3 -30 -3 -62 -72z m64 -146 c10 -40 24 -66 57
-101 26 -28 40 -50 34 -54 -17 -10 -13 -37 11 -62 19 -20 31 -23 93 -23 52 0
81 -5 110 -21 39 -20 101 -22 146 -4 11 4 35 -10 72 -42 57 -50 62 -63 22 -63
-24 0 -69 -44 -80 -80 -5 -16 -15 -20 -46 -20 -49 0 -83 -17 -131 -67 -31 -32
-44 -59 -74 -158 -40 -134 -64 -181 -97 -191 -29 -9 -67 -44 -67 -62 0 -26 32
-52 63 -52 25 0 28 -2 17 -15 -20 -24 -54 -18 -103 20 -38 29 -54 35 -94 35
-30 0 -60 -7 -81 -20 -32 -20 -42 -37 -79 -135 -16 -42 -26 -53 -65 -72 -60
-29 -91 -68 -125 -158 -21 -58 -33 -77 -51 -81 -30 -8 -65 22 -56 48 7 23 -18
64 -46 73 -11 3 -20 14 -20 22 0 29 -31 53 -68 53 -26 0 -45 -10 -80 -41 -38
-33 -52 -39 -77 -35 -16 3 -85 8 -153 12 l-123 7 -54 -57 -53 -56 -79 0 c-66
0 -80 3 -88 19 -6 10 -20 37 -32 59 -13 23 -20 47 -17 55 3 8 27 29 55 46 56
37 73 63 65 97 -11 41 12 101 59 159 49 60 52 72 30 115 -33 63 -98 68 -167
13 -26 -21 -62 -47 -80 -58 -30 -18 -33 -25 -36 -75 -2 -30 2 -64 9 -77 14
-27 7 -37 -33 -47 -26 -6 -27 -5 -21 29 4 24 0 43 -12 61 -17 26 -16 27 14 70
17 25 34 62 37 83 5 33 3 41 -17 55 -31 22 -116 21 -141 -1 -10 -9 -18 -25
-18 -35 0 -31 -22 -16 -48 33 -34 63 -28 134 16 184 52 58 37 124 -25 112 -32
-6 -53 1 -53 18 0 7 -9 24 -21 39 l-20 26 34 0 c41 0 61 20 55 54 -5 24 -4 24
21 12 14 -7 71 -23 126 -36 98 -22 168 -53 206 -91 16 -16 19 -34 19 -116 0
-86 3 -99 22 -120 40 -43 78 -32 156 45 70 69 102 111 102 135 0 10 19 16 67
20 59 4 71 9 93 35 14 16 39 37 56 45 45 23 83 72 90 118 4 25 12 39 21 39 8
0 27 8 41 18 49 34 111 52 178 52 62 0 68 2 98 34 71 78 86 103 86 145 0 30 5
43 19 51 33 17 50 12 82 -25 28 -31 37 -35 80 -35 39 0 55 5 82 30 19 16 40
44 47 61 15 36 22 29 40 -51z"/>
</g>
</svg>
