<?xml version="1.0" standalone="no"?>
<!DOCTYPE svg PUBLIC "-//W3C//DTD SVG 20010904//EN"
 "http://www.w3.org/TR/2001/REC-SVG-20010904/DTD/svg10.dtd">
<svg version="1.0" xmlns="http://www.w3.org/2000/svg"
 width="208.000000pt" height="121.000000pt" viewBox="0 0 208.000000 121.000000"
 preserveAspectRatio="xMidYMid meet">
<metadata>
Created by potrace 1.16, written by Peter Selinger 2001-2019
</metadata>
<g transform="translate(0.000000,121.000000) scale(0.100000,-0.100000)"
fill="#000000" stroke="none">
<path d="M1398 1173 c-30 -29 -40 -35 -50 -25 -7 7 -37 12 -68 12 -52 0 -61
-4 -118 -47 -33 -27 -72 -56 -86 -66 -15 -10 -35 -36 -46 -57 -20 -39 -39 -49
-115 -62 -16 -3 -20 -11 -20 -38 l0 -35 80 3 c104 3 135 -8 169 -61 22 -33 26
-47 19 -67 -6 -19 -15 -24 -32 -22 -12 2 -45 -2 -73 -8 -42 -10 -58 -10 -104
5 -40 13 -80 16 -161 13 l-108 -3 -64 -44 c-71 -48 -70 -48 -199 -32 -51 6
-98 9 -103 6 -18 -12 -10 -64 14 -79 12 -8 30 -28 39 -44 15 -25 15 -32 4 -47
-13 -18 -16 -18 -72 -2 -33 9 -106 19 -164 23 -98 6 -106 5 -123 -14 -10 -11
-17 -31 -15 -44 3 -21 9 -24 73 -29 139 -11 169 -36 158 -130 -5 -40 -13 -59
-40 -85 -48 -48 -46 -88 5 -110 71 -30 157 -54 197 -54 40 0 105 31 105 50 0
5 11 17 25 26 22 14 32 15 90 3 77 -15 126 -4 161 38 21 25 40 29 121 25 28
-1 51 -10 72 -28 30 -25 34 -25 121 -18 79 6 93 4 110 -11 17 -16 32 -17 112
-12 51 4 105 10 119 13 20 4 34 -1 60 -24 19 -16 56 -39 83 -52 41 -18 60 -21
110 -16 127 14 186 12 203 -6 23 -25 78 -22 142 7 l54 25 -7 57 c-8 67 -29 95
-86 112 -39 11 -40 13 -40 57 0 46 -26 110 -54 133 -10 8 -16 29 -16 53 0 21
-7 50 -16 64 -16 23 -16 26 5 48 23 25 28 68 9 84 -7 6 -54 22 -105 36 -51 14
-103 31 -115 37 -27 13 -123 128 -114 137 4 3 33 9 66 13 103 12 140 59 85
107 -14 12 -25 30 -25 41 0 26 -45 62 -113 92 -48 21 -56 28 -59 54 -3 25 -8
30 -33 33 -23 2 -38 -5 -67 -35z m64 -78 c11 -14 26 -25 34 -25 26 0 115 -50
120 -68 3 -9 9 -24 14 -33 12 -24 3 -29 -49 -29 -37 0 -54 -6 -84 -31 -20 -17
-37 -38 -37 -47 0 -9 40 -58 88 -108 l87 -92 92 -22 93 -22 -20 -25 c-25 -32
-25 -47 1 -89 14 -24 19 -43 14 -63 -5 -23 0 -36 24 -64 41 -47 60 -93 54
-136 -6 -42 11 -62 70 -81 32 -10 57 -38 57 -64 0 -2 -18 -11 -39 -21 -38 -17
-40 -17 -68 4 -27 20 -33 21 -150 11 -111 -9 -125 -8 -165 10 -24 11 -53 29
-64 41 -32 36 -59 40 -174 27 -108 -12 -109 -12 -127 11 -18 22 -21 22 -113
12 -91 -10 -95 -10 -118 12 -20 19 -37 22 -124 25 -95 4 -101 3 -126 -21 -48
-44 -66 -49 -130 -36 -81 17 -122 7 -165 -41 -40 -44 -65 -50 -124 -25 -19 8
-43 15 -53 15 -39 0 -40 24 -4 69 34 44 40 61 27 75 -4 4 -6 27 -4 51 2 34 -3
53 -20 77 -21 29 -21 31 -3 24 10 -5 40 -11 66 -13 43 -5 50 -3 79 26 28 28
31 37 26 72 -3 22 -13 49 -22 59 -17 19 -15 19 68 13 l86 -6 65 42 c35 23 81
47 102 53 46 12 146 3 188 -19 23 -12 45 -14 95 -8 36 3 83 6 104 6 30 -1 45
5 67 28 39 39 41 94 4 157 -33 57 -69 84 -109 84 l-32 0 19 40 c11 22 36 50
56 62 20 12 50 34 66 49 39 33 98 46 116 24 19 -23 63 -18 90 10 13 14 25 25
28 25 2 0 13 -11 24 -25z"/>
</g>
</svg>
