<?xml version="1.0" standalone="no"?>
<!DOCTYPE svg PUBLIC "-//W3C//DTD SVG 20010904//EN"
 "http://www.w3.org/TR/2001/REC-SVG-20010904/DTD/svg10.dtd">
<svg version="1.0" xmlns="http://www.w3.org/2000/svg"
 width="1920.000000pt" height="1080.000000pt" viewBox="0 0 1920.000000 1080.000000"
 preserveAspectRatio="xMidYMid meet">
<metadata>
Created by potrace 1.16, written by Peter Selinger 2001-2019
</metadata>
<g transform="translate(0.000000,1080.000000) scale(0.100000,-0.100000)"
fill="#000000" stroke="none">
<path d="M4550 5725 c-112 -44 -178 -65 -205 -65 -18 0 -39 -10 -55 -26 -14
-14 -49 -41 -79 -60 -46 -28 -61 -32 -95 -28 -34 5 -47 1 -78 -23 -21 -15 -45
-43 -53 -61 -15 -31 -18 -32 -34 -18 -22 20 -51 20 -96 2 -29 -13 -41 -12 -93
2 -52 14 -63 14 -77 2 -12 -10 -39 -14 -92 -11 -66 2 -79 0 -113 -23 -22 -14
-45 -26 -52 -26 -21 0 -86 -48 -91 -67 -3 -10 -8 -35 -12 -55 -6 -36 -8 -38
-43 -38 -30 0 -42 -6 -64 -34 -16 -20 -28 -47 -28 -64 0 -21 -6 -31 -20 -35
-17 -4 -19 -13 -17 -73 2 -61 5 -70 25 -79 19 -8 22 -17 22 -66 0 -31 6 -69
14 -85 28 -56 29 -78 4 -89 -13 -6 -25 -22 -29 -40 -3 -16 -15 -48 -27 -71
-11 -22 -26 -78 -32 -125 -12 -85 -37 -133 -64 -123 -7 3 -18 -1 -25 -9 -13
-16 -5 -47 13 -47 6 0 24 -14 40 -30 15 -17 41 -37 57 -45 25 -13 30 -13 43 1
9 8 16 20 16 27 0 6 10 21 21 33 15 16 26 48 35 104 17 108 41 140 59 78 21
-71 113 -54 102 18 -4 23 0 36 15 48 16 14 19 25 13 53 l-6 35 25 -19 c14 -10
26 -25 26 -34 0 -9 10 -29 21 -44 18 -22 28 -26 56 -23 27 3 32 1 27 -11 -16
-38 -14 -52 12 -102 19 -35 29 -71 30 -102 1 -35 7 -54 22 -70 21 -20 22 -20
81 -4 34 9 74 17 90 17 18 0 39 9 53 23 39 39 123 77 170 77 10 0 42 24 71 53
30 29 70 61 91 71 21 10 54 32 75 50 65 57 154 86 183 59 16 -14 20 -14 42 1
33 21 48 50 41 79 -5 20 -1 26 22 36 36 15 178 158 188 189 9 30 63 92 80 92
8 0 20 6 27 13 7 7 30 23 51 36 78 48 165 206 154 279 -4 20 -20 64 -37 96
-18 35 -30 74 -30 97 0 21 -4 40 -9 43 -4 3 -8 41 -8 83 0 109 -6 123 -51 123
-20 -1 -55 -7 -77 -15 -37 -13 -45 -12 -108 10 -77 28 -162 32 -217 10z"/>
</g>
</svg>
