<?xml version="1.0" standalone="no"?>
<!DOCTYPE svg PUBLIC "-//W3C//DTD SVG 20010904//EN"
 "http://www.w3.org/TR/2001/REC-SVG-20010904/DTD/svg10.dtd">
<svg version="1.0" xmlns="http://www.w3.org/2000/svg"
 width="1920.000000pt" height="1080.000000pt" viewBox="0 0 1920.000000 1080.000000"
 preserveAspectRatio="xMidYMid meet">
<metadata>
Created by potrace 1.16, written by Peter Selinger 2001-2019
</metadata>
<g transform="translate(0.000000,1080.000000) scale(0.100000,-0.100000)"
fill="#000000" stroke="none">
<path d="M5564 5735 c-7 -18 -27 -19 -52 -4 -14 9 -26 6 -57 -11 -57 -33 -103
-41 -134 -26 -14 7 -53 18 -86 25 -52 10 -67 10 -110 -5 -27 -9 -75 -19 -105
-23 -47 -5 -55 -9 -58 -28 -2 -13 2 -23 9 -23 8 0 10 -16 5 -57 -4 -43 -2 -63
9 -77 8 -11 15 -35 15 -54 0 -18 11 -52 24 -75 44 -76 49 -117 24 -183 -28
-78 -89 -159 -140 -186 -22 -13 -49 -28 -60 -34 -35 -21 -70 -59 -90 -99 -25
-48 -140 -165 -185 -189 -29 -14 -33 -22 -33 -55 0 -48 -22 -71 -51 -53 -35
22 -154 -14 -195 -59 -10 -11 -48 -38 -84 -59 -68 -40 -108 -77 -130 -120 -8
-15 -15 -20 -18 -12 -6 19 -40 14 -47 -7 -7 -25 3 -49 27 -62 16 -8 27 -5 59
17 38 26 40 26 99 14 70 -15 90 -9 90 25 l0 26 29 -22 c17 -12 36 -19 46 -15
9 3 25 -3 38 -15 23 -21 58 -22 144 -4 33 7 33 7 27 -24 -5 -24 -2 -35 14 -49
14 -12 19 -26 15 -43 -3 -18 3 -32 23 -52 29 -29 44 -33 61 -16 8 8 17 8 32
-1 19 -10 29 -6 72 25 57 42 69 61 69 105 0 27 3 31 18 25 9 -5 57 -12 106
-17 70 -6 94 -5 110 6 12 7 36 17 54 20 17 4 34 12 37 17 7 10 68 12 101 3 12
-3 26 -16 32 -28 8 -19 26 -30 102 -66 13 -6 38 -41 56 -77 9 -18 49 -16 68 3
18 18 23 36 30 119 4 50 9 64 33 82 15 13 32 23 37 23 6 0 27 12 48 26 68 48
40 97 -61 109 -34 4 -79 16 -101 26 -50 24 -51 24 -110 -6 l-50 -25 0 55 c0
31 -7 72 -15 93 -10 22 -14 51 -10 72 9 59 -11 189 -34 221 -19 25 -19 30 -6
56 8 15 15 42 15 59 0 52 28 68 121 67 l81 0 48 48 c44 44 53 49 95 49 46 0
101 22 159 64 33 24 106 131 106 156 0 9 12 27 26 41 23 21 25 31 24 94 0 38
-1 95 -1 125 0 30 -5 60 -11 67 -13 16 -50 17 -66 1 -6 -6 -33 -11 -61 -9 -44
2 -53 -1 -77 -29 -15 -16 -35 -30 -44 -30 -9 0 -34 18 -55 40 -41 42 -90 54
-101 25z"/>
</g>
</svg>
