<?xml version="1.0" standalone="no"?>
<!DOCTYPE svg PUBLIC "-//W3C//DTD SVG 20010904//EN"
 "http://www.w3.org/TR/2001/REC-SVG-20010904/DTD/svg10.dtd">
<svg version="1.0" xmlns="http://www.w3.org/2000/svg"
 width="1920.000000pt" height="1080.000000pt" viewBox="0 0 1920.000000 1080.000000"
 preserveAspectRatio="xMidYMid meet">
<metadata>
Created by potrace 1.16, written by Peter Selinger 2001-2019
</metadata>
<g transform="translate(0.000000,1080.000000) scale(0.100000,-0.100000)"
fill="#000000" stroke="none">
<path d="M4260 4336 c0 -34 0 -35 -32 -25 -51 14 -114 11 -128 -7 -8 -8 -22
-20 -32 -25 -16 -8 -20 -5 -29 21 -10 29 -13 30 -47 24 -20 -4 -50 -15 -67
-26 -16 -10 -40 -18 -52 -18 -13 0 -23 -6 -23 -14 0 -7 -18 -25 -39 -39 -22
-15 -42 -35 -46 -47 -5 -17 -12 -19 -45 -14 -33 5 -42 2 -65 -20 -33 -33 -29
-57 13 -75 25 -12 32 -21 32 -43 0 -22 6 -31 26 -38 15 -6 35 -22 46 -36 17
-21 28 -25 62 -23 36 3 41 1 38 -16 -14 -83 -15 -81 12 -93 17 -7 26 -20 26
-34 0 -12 11 -34 25 -48 23 -24 25 -35 29 -135 2 -61 5 -110 6 -110 1 0 4 -30
6 -67 2 -38 2 -68 -1 -68 -3 0 -13 5 -23 11 -13 8 -28 9 -48 2 -26 -8 -29 -15
-32 -54 -3 -44 -2 -45 41 -67 63 -31 99 -29 144 11 82 72 127 94 208 101 99 9
116 18 156 82 19 30 59 82 91 115 43 47 61 60 76 55 30 -10 47 1 83 54 30 45
36 48 83 53 28 2 53 1 56 -3 3 -4 19 -11 36 -14 27 -6 39 -1 88 39 31 25 56
52 56 59 0 27 44 68 104 96 98 46 108 46 179 10 47 -25 77 -33 124 -35 54 -2
67 -7 105 -38 l43 -36 101 2 c64 1 106 -2 115 -10 8 -6 34 -14 60 -18 42 -6
46 -5 57 20 7 14 12 32 12 39 0 18 -43 56 -63 56 -12 0 -17 8 -17 29 0 45 -22
57 -80 42 -56 -14 -70 -9 -102 39 -28 41 -47 47 -88 27 l-29 -15 -7 34 c-4 23
-1 42 10 59 20 30 11 55 -19 55 -14 0 -25 7 -28 20 -3 11 -29 30 -63 47 -37
18 -64 38 -71 54 -11 22 -21 27 -71 32 -47 5 -69 2 -115 -17 -32 -13 -60 -26
-64 -30 -13 -13 -159 -6 -179 9 -44 33 -73 12 -74 -52 0 -24 -41 -78 -72 -94
-14 -7 -23 -7 -34 2 -12 9 -20 9 -39 -1 -21 -11 -27 -11 -44 4 -16 14 -18 23
-10 43 14 38 11 53 -12 53 -19 0 -20 4 -14 39 l6 39 -41 7 c-22 4 -46 3 -53
-3 -21 -16 -67 -23 -86 -13 -10 6 -22 22 -25 36 -7 29 -31 33 -44 8 -9 -15
-12 -14 -37 5 -42 34 -65 29 -65 -12z"/>
</g>
</svg>
