<?xml version="1.0" standalone="no"?>
<!DOCTYPE svg PUBLIC "-//W3C//DTD SVG 20010904//EN"
 "http://www.w3.org/TR/2001/REC-SVG-20010904/DTD/svg10.dtd">
<svg version="1.0" xmlns="http://www.w3.org/2000/svg"
 width="1920.000000pt" height="1080.000000pt" viewBox="0 0 1920.000000 1080.000000"
 preserveAspectRatio="xMidYMid meet">
<metadata>
Created by potrace 1.16, written by Peter Selinger 2001-2019
</metadata>
<g transform="translate(0.000000,1080.000000) scale(0.100000,-0.100000)"
fill="#000000" stroke="none">
<path d="M5947 5573 c-18 -17 -5 -44 28 -57 19 -8 35 -19 35 -23 0 -5 -19 -16
-42 -24 -23 -9 -45 -22 -48 -30 -59 -128 -95 -169 -177 -205 -29 -13 -72 -24
-94 -24 -35 0 -47 -6 -89 -48 l-48 -48 -85 3 c-82 3 -86 2 -106 -23 -12 -15
-21 -41 -21 -58 0 -17 -7 -42 -15 -56 -8 -14 -17 -31 -21 -38 -3 -6 4 -20 15
-30 29 -23 40 -77 41 -192 0 -58 5 -101 11 -107 6 -6 14 -43 17 -82 4 -67 6
-71 29 -71 13 0 41 9 63 20 38 19 40 19 82 1 24 -10 69 -21 100 -25 49 -6 59
-11 71 -35 12 -25 12 -32 -1 -54 -23 -38 -3 -57 61 -57 32 0 57 -6 68 -16 15
-14 23 -14 53 -3 27 10 43 10 73 1 21 -7 63 -19 93 -28 30 -10 60 -20 65 -25
6 -4 27 -10 48 -14 26 -5 37 -12 37 -25 0 -27 25 -42 67 -39 46 3 103 -21 146
-62 17 -17 63 -46 102 -66 38 -19 79 -43 90 -53 11 -11 44 -27 73 -36 29 -10
58 -26 63 -36 5 -10 32 -29 60 -43 28 -14 64 -39 81 -55 32 -31 82 -60 103
-60 7 0 17 6 22 13 15 18 -43 96 -101 134 -51 33 -96 98 -96 138 0 46 -105
157 -173 181 -17 6 -35 19 -39 28 -4 9 -13 24 -18 34 -6 9 -13 25 -16 34 -3 9
-22 24 -41 33 l-35 17 31 19 c27 16 31 24 31 64 0 40 -5 51 -45 93 -25 26 -45
50 -45 54 0 4 -23 30 -51 57 -37 37 -60 51 -80 51 -15 0 -31 5 -34 10 -13 21
-61 10 -90 -20 -16 -16 -37 -30 -46 -30 -10 0 -39 21 -64 46 -36 38 -45 53
-45 82 0 44 -32 93 -76 117 -60 32 -87 141 -46 186 27 28 27 34 4 57 -14 14
-16 22 -8 35 8 12 7 23 -2 37 -16 27 -10 37 66 100 52 43 63 57 60 79 -2 15 4
33 15 44 13 13 17 30 15 60 -3 40 -5 42 -53 59 -56 20 -59 21 -68 11z"/>
</g>
</svg>
