<?xml version="1.0" standalone="no"?>
<!DOCTYPE svg PUBLIC "-//W3C//DTD SVG 20010904//EN"
 "http://www.w3.org/TR/2001/REC-SVG-20010904/DTD/svg10.dtd">
<svg version="1.0" xmlns="http://www.w3.org/2000/svg"
 width="1920.000000pt" height="1080.000000pt" viewBox="0 0 1920.000000 1080.000000"
 preserveAspectRatio="xMidYMid meet">
<metadata>
Created by potrace 1.16, written by Peter Selinger 2001-2019
</metadata>
<g transform="translate(0.000000,1080.000000) scale(0.100000,-0.100000)"
fill="#000000" stroke="none">
<path d="M5675 4380 c-3 -5 -25 -18 -48 -28 -59 -26 -69 -42 -74 -119 -5 -71
-23 -113 -48 -113 -25 0 -36 -46 -22 -92 14 -47 30 -57 56 -34 29 26 61 20 72
-13 13 -37 51 -53 120 -49 53 3 54 2 57 -25 3 -21 11 -31 32 -38 32 -12 46
-35 24 -43 -8 -3 -14 -15 -14 -26 0 -18 6 -20 48 -19 62 3 173 -28 190 -53 30
-41 90 -98 105 -98 9 0 19 -9 22 -20 8 -26 31 -38 91 -45 27 -3 65 -8 84 -11
31 -5 39 -1 68 30 35 39 45 41 112 24 25 -6 79 -10 121 -9 49 2 79 -2 84 -9 4
-6 18 -9 34 -5 23 5 35 -1 68 -35 45 -44 73 -50 103 -20 18 18 28 19 110 13
103 -7 125 3 136 63 6 32 2 38 -62 100 -94 91 -103 95 -168 93 -51 -2 -60 1
-89 28 -17 17 -52 41 -77 53 -25 13 -49 29 -53 36 -9 15 -83 54 -103 54 -7 0
-25 11 -41 24 -15 13 -59 39 -98 59 -38 19 -81 47 -95 62 -39 42 -122 78 -153
66 -29 -11 -53 3 -59 34 -2 14 -14 21 -40 26 -20 3 -43 10 -50 16 -22 18 -140
46 -208 50 -36 2 -74 8 -85 13 -11 5 -41 11 -68 15 -44 6 -47 8 -41 31 5 20 2
24 -14 24 -12 0 -24 -4 -27 -10z"/>
</g>
</svg>
