<?xml version="1.0" standalone="no"?>
<!DOCTYPE svg PUBLIC "-//W3C//DTD SVG 20010904//EN"
 "http://www.w3.org/TR/2001/REC-SVG-20010904/DTD/svg10.dtd">
<svg version="1.0" xmlns="http://www.w3.org/2000/svg"
 width="1920.000000pt" height="1080.000000pt" viewBox="0 0 1920.000000 1080.000000"
 preserveAspectRatio="xMidYMid meet">
<metadata>
Created by potrace 1.16, written by Peter Selinger 2001-2019
</metadata>
<g transform="translate(0.000000,1080.000000) scale(0.100000,-0.100000)"
fill="#000000" stroke="none">
<path d="M6026 5639 c-23 -18 -27 -28 -24 -63 2 -34 7 -42 26 -44 42 -6 24
-82 -20 -82 -22 0 -24 -23 -4 -40 21 -17 12 -32 -55 -86 -61 -48 -80 -84 -60
-108 6 -7 8 -21 5 -30 -4 -10 -1 -28 6 -41 11 -20 10 -27 -9 -51 -18 -23 -21
-36 -16 -69 10 -66 35 -112 76 -140 48 -32 73 -68 66 -97 -8 -29 2 -68 16 -68
7 0 28 -18 48 -40 46 -50 82 -53 130 -10 37 32 45 35 54 20 3 -5 19 -10 34
-10 20 0 42 -13 75 -44 25 -25 46 -49 46 -54 0 -5 22 -33 49 -61 44 -46 48
-54 42 -83 -5 -26 -12 -34 -34 -36 -21 -3 -27 -9 -27 -27 0 -18 10 -30 38 -44
33 -17 47 -36 65 -91 2 -9 30 -28 61 -44 76 -39 146 -116 171 -191 13 -38 32
-70 54 -90 18 -16 57 -54 86 -82 37 -37 61 -53 79 -53 19 0 47 -19 92 -61 76
-71 81 -71 193 -17 74 37 89 64 49 93 -26 18 -23 21 41 57 36 20 40 51 15 100
-13 24 -14 36 -5 55 6 14 9 40 5 59 -5 29 -4 34 14 34 24 0 35 25 22 49 -7 14
-3 24 18 45 16 14 34 26 41 26 7 0 11 9 9 23 -2 15 -11 23 -28 25 -14 2 -35 8
-48 14 -16 9 -34 9 -61 2 -33 -9 -40 -8 -50 7 -15 25 2 66 40 97 35 30 40 76
9 92 -11 6 -20 17 -20 24 0 36 -72 62 -84 29 -10 -26 -46 54 -46 103 0 25 -6
47 -15 54 -23 19 -18 65 10 98 29 34 32 58 10 83 -9 9 -17 36 -17 60 -2 51
-27 103 -52 107 -34 7 -64 -8 -76 -38 -7 -16 -18 -30 -24 -30 -13 0 -46 35
-46 49 0 13 -55 51 -74 51 -9 0 -16 -5 -16 -12 0 -6 -9 -2 -20 10 -28 30 -63
37 -98 20 -26 -13 -31 -13 -51 4 -27 21 -49 23 -74 4 -14 -11 -23 -11 -41 -3
-23 11 -23 12 19 38 57 36 60 44 28 74 -24 23 -35 26 -78 22 -27 -2 -61 -8
-75 -12 -21 -6 -23 -5 -12 6 6 7 12 20 12 30 0 24 -51 71 -72 66 -14 -4 -18 4
-24 42 -9 65 -30 111 -50 111 -16 0 -16 2 1 20 16 18 17 22 4 34 -8 7 -35 18
-60 25 -26 6 -53 13 -62 17 -10 4 -24 -7 -40 -32 l-26 -37 -26 29 c-15 16 -41
51 -59 78 -18 27 -37 51 -42 53 -6 2 -23 -6 -38 -18z"/>
</g>
</svg>
