<?xml version="1.0" standalone="no"?>
<!DOCTYPE svg PUBLIC "-//W3C//DTD SVG 20010904//EN"
 "http://www.w3.org/TR/2001/REC-SVG-20010904/DTD/svg10.dtd">
<svg version="1.0" xmlns="http://www.w3.org/2000/svg"
 width="1920.000000pt" height="1080.000000pt" viewBox="0 0 1920.000000 1080.000000"
 preserveAspectRatio="xMidYMid meet">
<metadata>
Created by potrace 1.16, written by Peter Selinger 2001-2019
</metadata>
<g transform="translate(0.000000,1080.000000) scale(0.100000,-0.100000)"
fill="#000000" stroke="none">
<path d="M4065 2476 c-11 -7 -34 -16 -51 -20 -16 -4 -63 -31 -103 -61 -70 -53
-75 -55 -135 -55 -48 0 -67 -4 -79 -18 -10 -10 -17 -22 -17 -26 0 -4 -10 -20
-21 -35 -15 -21 -20 -39 -17 -64 4 -33 2 -36 -29 -42 -46 -8 -91 -66 -99 -127
-6 -46 -7 -47 -53 -58 -57 -14 -73 -26 -95 -68 -23 -45 -15 -62 30 -62 l37 0
-21 -23 c-12 -13 -22 -29 -22 -35 0 -6 -12 -18 -28 -26 -15 -8 -35 -23 -45
-34 -15 -17 -17 -24 -7 -42 13 -24 1 -39 -30 -40 -19 0 -60 -60 -60 -87 0 -11
9 -32 20 -46 24 -30 26 -60 4 -78 -9 -7 -14 -22 -11 -36 3 -18 1 -21 -9 -12
-7 6 -22 8 -34 4 -17 -5 -20 -15 -20 -69 l0 -63 -28 5 c-34 5 -48 -10 -57 -60
-6 -33 -4 -39 16 -48 13 -6 36 -33 50 -60 28 -51 25 -60 -22 -60 -14 0 -19 -7
-19 -29 0 -16 6 -34 14 -40 23 -19 129 -43 168 -38 42 6 98 41 98 63 0 21 88
19 112 -2 28 -26 100 -2 138 46 20 25 62 54 132 89 154 79 245 155 236 198 -2
9 -19 22 -38 29 -32 11 -33 13 -9 13 33 1 44 14 73 88 13 35 42 80 69 109 26
27 76 81 112 119 53 57 65 66 65 48 0 -12 -8 -27 -19 -32 -44 -24 -31 -71 20
-71 33 0 77 38 143 124 50 65 50 66 36 115 -8 29 -6 41 17 83 14 26 31 48 38
48 28 0 55 46 55 93 0 40 4 49 28 64 46 28 72 56 72 75 0 11 14 25 35 35 34
16 64 63 79 125 8 34 -23 58 -75 58 -30 0 -48 -9 -91 -45 -29 -25 -64 -49 -77
-52 -13 -3 -53 4 -90 16 -83 27 -119 27 -175 -1 -41 -20 -45 -20 -61 -5 -9 9
-23 37 -32 62 -23 68 -72 93 -118 61z"/>
</g>
</svg>
