<?xml version="1.0" standalone="no"?>
<!DOCTYPE svg PUBLIC "-//W3C//DTD SVG 20010904//EN"
 "http://www.w3.org/TR/2001/REC-SVG-20010904/DTD/svg10.dtd">
<svg version="1.0" xmlns="http://www.w3.org/2000/svg"
 width="1920.000000pt" height="1080.000000pt" viewBox="0 0 1920.000000 1080.000000"
 preserveAspectRatio="xMidYMid meet">
<metadata>
Created by potrace 1.16, written by Peter Selinger 2001-2019
</metadata>
<g transform="translate(0.000000,1080.000000) scale(0.100000,-0.100000)"
fill="#000000" stroke="none">
<path d="M5085 3926 c-71 -33 -125 -83 -125 -115 0 -15 -47 -60 -88 -85 -7 -4
-23 -1 -35 7 -15 10 -41 12 -85 9 -62 -4 -63 -5 -94 -51 -38 -56 -43 -59 -73
-53 -18 3 -37 -9 -83 -54 -33 -33 -68 -77 -80 -99 -39 -78 -58 -88 -212 -111
-25 -4 -61 -18 -80 -31 -19 -12 -40 -23 -46 -23 -6 0 -19 -9 -29 -20 -12 -13
-31 -20 -57 -20 -46 0 -52 -22 -12 -43 17 -9 23 -17 15 -21 -21 -13 -11 -44
22 -65 32 -19 67 -58 98 -110 13 -21 23 -26 55 -26 21 1 43 -5 47 -12 4 -7 15
-13 22 -13 22 0 18 -28 -5 -35 -16 -5 -20 -15 -20 -46 0 -22 -7 -51 -16 -64
-9 -14 -14 -36 -11 -50 3 -21 -3 -31 -34 -53 -49 -35 -73 -76 -64 -109 5 -21
0 -31 -26 -53 l-32 -26 20 -40 c12 -21 24 -47 27 -58 5 -14 13 -17 34 -13 27
5 30 2 46 -43 9 -26 26 -56 37 -66 20 -18 22 -18 67 0 73 28 103 29 167 7 33
-12 73 -21 91 -21 31 0 91 36 128 79 23 25 96 31 96 7 0 -18 30 -30 44 -16 5
5 22 10 38 10 32 0 98 53 98 80 0 22 60 36 89 20 50 -26 114 11 113 67 0 15 6
35 13 43 8 8 19 53 25 99 9 64 16 88 32 101 19 15 20 19 7 56 -7 21 -20 47
-29 57 -8 10 -20 42 -25 70 -10 51 -11 52 -48 53 -23 0 -45 8 -57 20 -19 19
-19 20 3 84 28 82 33 90 61 90 31 0 46 18 46 57 0 27 7 37 46 64 33 23 44 36
41 50 -3 12 7 28 33 49 20 16 45 48 55 70 14 32 25 41 51 46 21 4 42 18 59 40
14 18 53 48 86 66 68 38 79 61 58 122 -11 32 -20 42 -40 44 -15 2 -37 14 -50
28 -19 21 -32 24 -86 24 -64 0 -143 28 -143 50 0 6 -26 10 -57 10 -44 -1 -75
-9 -128 -34z"/>
</g>
</svg>
