<?xml version="1.0" standalone="no"?>
<!DOCTYPE svg PUBLIC "-//W3C//DTD SVG 20010904//EN"
 "http://www.w3.org/TR/2001/REC-SVG-20010904/DTD/svg10.dtd">
<svg version="1.0" xmlns="http://www.w3.org/2000/svg"
 width="1920.000000pt" height="1080.000000pt" viewBox="0 0 1920.000000 1080.000000"
 preserveAspectRatio="xMidYMid meet">
<metadata>
Created by potrace 1.16, written by Peter Selinger 2001-2019
</metadata>
<g transform="translate(0.000000,1080.000000) scale(0.100000,-0.100000)"
fill="#000000" stroke="none">
<path d="M5632 3830 c-34 -4 -65 -9 -68 -13 -3 -3 -1 -21 4 -40 11 -40 5 -49
-62 -82 -21 -11 -53 -37 -70 -57 -20 -23 -45 -40 -65 -44 -25 -5 -37 -16 -56
-53 -13 -25 -40 -59 -59 -74 -22 -17 -36 -37 -36 -50 -1 -14 -15 -32 -40 -49
-28 -20 -40 -35 -40 -52 0 -39 -11 -56 -35 -56 -31 0 -48 -24 -75 -107 l-23
-71 24 -31 c20 -25 30 -30 59 -28 33 2 34 1 43 -43 5 -25 17 -54 27 -65 10
-11 21 -35 25 -53 6 -29 4 -34 -14 -39 -15 -4 -21 -14 -22 -37 -6 -114 -9
-140 -23 -161 -9 -14 -16 -32 -16 -41 0 -9 -7 -22 -17 -29 -10 -8 -14 -19 -9
-30 5 -15 15 -17 64 -12 45 5 61 11 76 31 18 23 20 24 42 9 16 -10 28 -12 40
-5 14 8 22 4 37 -14 10 -13 29 -24 41 -24 28 0 72 45 68 69 -6 35 16 71 43 71
35 0 65 33 65 73 0 26 6 36 25 45 13 6 27 23 31 37 4 17 18 31 40 40 19 8 34
21 34 30 0 8 12 34 26 56 14 23 28 58 31 78 4 24 18 46 42 68 30 26 34 35 25
49 -8 14 -6 22 8 36 20 20 25 92 8 103 -15 9 -12 59 6 105 11 28 15 55 10 86
l-6 44 35 0 c39 0 38 0 69 100 16 51 16 58 1 93 -19 46 -15 54 31 63 28 5 35
10 32 28 -3 19 -8 21 -78 19 -41 -1 -88 -2 -104 -3 -16 0 -49 9 -73 20 -23 11
-46 19 -50 19 -5 -1 -36 -5 -71 -9z"/>
</g>
</svg>
