<?xml version="1.0" standalone="no"?>
<!DOCTYPE svg PUBLIC "-//W3C//DTD SVG 20010904//EN"
 "http://www.w3.org/TR/2001/REC-SVG-20010904/DTD/svg10.dtd">
<svg version="1.0" xmlns="http://www.w3.org/2000/svg"
 width="1920.000000pt" height="1080.000000pt" viewBox="0 0 1920.000000 1080.000000"
 preserveAspectRatio="xMidYMid meet">
<metadata>
Created by potrace 1.16, written by Peter Selinger 2001-2019
</metadata>
<g transform="translate(0.000000,1080.000000) scale(0.100000,-0.100000)"
fill="#000000" stroke="none">
<path d="M5927 3765 c-21 -20 -22 -51 -2 -88 13 -25 13 -32 0 -57 -8 -16 -15
-39 -15 -52 0 -35 -12 -46 -50 -50 l-35 -3 0 -54 c0 -50 -2 -55 -25 -61 -34
-8 -40 -47 -8 -52 20 -3 25 -13 40 -83 9 -44 17 -96 17 -115 2 -62 73 -190
105 -190 6 0 30 -20 54 -45 31 -33 51 -45 71 -45 31 0 77 31 85 58 4 10 21 24
40 30 27 10 38 23 60 72 14 34 41 74 61 91 19 17 48 49 63 72 19 28 38 44 64
51 28 8 57 33 113 96 88 98 97 121 65 155 -20 21 -22 30 -16 79 l7 56 -28 0
c-15 0 -52 3 -80 6 -51 7 -54 6 -86 -30 -31 -33 -77 -49 -77 -27 0 5 -23 8
-51 8 -46 -2 -54 1 -78 31 -15 17 -32 32 -37 32 -10 0 -72 60 -101 98 -25 32
-130 44 -156 17z"/>
</g>
</svg>
