<?xml version="1.0" standalone="no"?>
<!DOCTYPE svg PUBLIC "-//W3C//DTD SVG 20010904//EN"
 "http://www.w3.org/TR/2001/REC-SVG-20010904/DTD/svg10.dtd">
<svg version="1.0" xmlns="http://www.w3.org/2000/svg"
 width="1920.000000pt" height="1080.000000pt" viewBox="0 0 1920.000000 1080.000000"
 preserveAspectRatio="xMidYMid meet">
<metadata>
Created by potrace 1.16, written by Peter Selinger 2001-2019
</metadata>
<g transform="translate(0.000000,1080.000000) scale(0.100000,-0.100000)"
fill="#000000" stroke="none">
<path d="M5807 3353 c-11 -10 -8 -91 3 -98 17 -10 11 -51 -11 -79 -13 -17 -18
-33 -14 -47 7 -22 -18 -59 -42 -59 -8 0 -13 -12 -13 -32 0 -18 -12 -53 -26
-78 -15 -25 -30 -56 -33 -70 -5 -15 -17 -27 -32 -30 -14 -3 -30 -18 -38 -37
-8 -17 -24 -36 -36 -41 -16 -7 -24 -22 -28 -53 -6 -44 -19 -59 -53 -59 -27 0
-42 -18 -50 -58 -4 -18 -13 -32 -20 -32 -8 0 -14 -10 -14 -23 0 -17 10 -29 33
-42 45 -24 67 -17 91 27 19 37 20 37 31 15 6 -13 20 -22 33 -21 12 0 22 -5 22
-12 0 -16 53 -54 75 -54 9 0 26 -11 36 -24 21 -26 84 -43 103 -27 9 7 17 4 30
-11 15 -17 25 -19 59 -15 38 5 45 2 84 -34 66 -61 119 -51 101 19 -21 81 -31
108 -53 137 -20 27 -21 33 -9 50 22 29 16 66 -16 114 -37 55 -40 98 -6 111 34
12 78 74 74 102 -2 17 -11 24 -30 26 -15 2 -38 16 -51 31 -13 16 -34 32 -46
36 -28 9 -80 111 -87 173 -2 26 -12 82 -21 125 -15 70 -27 89 -46 70z"/>
</g>
</svg>
