<?xml version="1.0" standalone="no"?>
<!DOCTYPE svg PUBLIC "-//W3C//DTD SVG 20010904//EN"
 "http://www.w3.org/TR/2001/REC-SVG-20010904/DTD/svg10.dtd">
<svg version="1.0" xmlns="http://www.w3.org/2000/svg"
 width="1920.000000pt" height="1080.000000pt" viewBox="0 0 1920.000000 1080.000000"
 preserveAspectRatio="xMidYMid meet">
<metadata>
Created by potrace 1.16, written by Peter Selinger 2001-2019
</metadata>
<g transform="translate(0.000000,1080.000000) scale(0.100000,-0.100000)"
fill="#000000" stroke="none">
<path d="M6710 3184 c-14 -10 -28 -22 -31 -26 -3 -5 -40 -17 -82 -27 -42 -10
-82 -23 -89 -28 -7 -6 -49 -13 -93 -15 -61 -4 -96 -13 -148 -36 -37 -17 -70
-39 -74 -49 -4 -10 -15 -24 -25 -31 -10 -7 -25 -26 -33 -42 -9 -17 -26 -32
-40 -36 -13 -3 -33 -21 -44 -39 -10 -18 -32 -39 -48 -47 -42 -20 -44 -79 -4
-138 32 -46 38 -74 21 -85 -16 -10 -12 -55 8 -83 31 -45 45 -90 38 -123 -3
-19 -1 -38 5 -45 12 -14 70 -19 82 -8 3 4 54 6 114 5 94 -2 109 -5 121 -22 10
-15 21 -19 41 -14 24 5 29 1 49 -40 22 -45 51 -65 93 -65 25 0 59 35 59 60 0
11 12 39 28 62 25 38 27 49 25 126 -2 47 -8 91 -14 98 -16 20 5 42 44 46 26 2
32 9 39 36 8 30 12 33 34 28 13 -3 35 -9 48 -12 18 -4 33 2 57 24 33 30 34 33
35 114 2 99 6 121 24 143 7 9 13 36 12 60 0 29 5 45 14 49 19 7 54 89 54 125
0 57 -55 68 -120 24 l-41 -26 -22 21 c-32 29 -105 38 -137 16z"/>
</g>
</svg>
