<?xml version="1.0" standalone="no"?>
<!DOCTYPE svg PUBLIC "-//W3C//DTD SVG 20010904//EN"
 "http://www.w3.org/TR/2001/REC-SVG-20010904/DTD/svg10.dtd">
<svg version="1.0" xmlns="http://www.w3.org/2000/svg"
 width="1920.000000pt" height="1080.000000pt" viewBox="0 0 1920.000000 1080.000000"
 preserveAspectRatio="xMidYMid meet">
<metadata>
Created by potrace 1.16, written by Peter Selinger 2001-2019
</metadata>
<g transform="translate(0.000000,1080.000000) scale(0.100000,-0.100000)"
fill="#000000" stroke="none">
<path d="M6967 3273 c-9 -8 -9 -70 -1 -100 4 -14 14 -23 25 -23 11 0 19 -2 19
-4 0 -17 -41 -95 -59 -110 -17 -15 -20 -26 -15 -56 5 -27 2 -41 -12 -54 -14
-15 -18 -37 -20 -117 -2 -125 -17 -154 -72 -145 -82 14 -86 13 -98 -24 -9 -28
-17 -36 -40 -38 -16 -2 -35 -8 -41 -14 -15 -13 -17 -60 -3 -74 6 -6 11 -41 12
-80 2 -64 0 -73 -36 -131 -21 -35 -36 -70 -32 -78 7 -19 43 -19 62 0 20 20 60
19 68 -1 4 -12 17 -15 51 -13 41 3 48 0 63 -25 9 -15 37 -38 62 -49 39 -19 47
-29 60 -69 22 -68 30 -73 115 -73 68 0 76 2 104 29 33 31 39 52 19 58 -9 3 -9
6 0 12 8 5 19 -8 31 -37 11 -24 27 -47 36 -51 23 -9 67 -7 83 3 9 5 23 -2 42
-20 33 -33 44 -35 62 -13 37 45 59 64 76 64 26 0 62 37 62 64 0 31 -24 50 -55
44 -21 -4 -30 2 -56 43 -17 27 -35 49 -40 49 -5 0 -9 13 -9 29 0 19 -17 54
-45 95 -25 37 -45 77 -45 89 0 13 -5 28 -12 35 -9 9 -7 12 11 12 30 0 77 51
85 92 17 82 18 101 5 124 -10 19 -10 27 -1 36 19 19 14 39 -21 98 -18 30 -42
78 -54 106 -28 69 -87 143 -145 184 -27 18 -48 36 -48 40 0 5 -13 13 -30 19
-16 5 -30 14 -30 20 0 11 -94 61 -114 61 -7 0 -16 -3 -19 -7z"/>
</g>
</svg>
