<?xml version="1.0" standalone="no"?>
<!DOCTYPE svg PUBLIC "-//W3C//DTD SVG 20010904//EN"
 "http://www.w3.org/TR/2001/REC-SVG-20010904/DTD/svg10.dtd">
<svg version="1.0" xmlns="http://www.w3.org/2000/svg"
 width="1920.000000pt" height="1080.000000pt" viewBox="0 0 1920.000000 1080.000000"
 preserveAspectRatio="xMidYMid meet">
<metadata>
Created by potrace 1.16, written by Peter Selinger 2001-2019
</metadata>
<g transform="translate(0.000000,1080.000000) scale(0.100000,-0.100000)"
fill="#000000" stroke="none">
<path d="M6614 3613 c-39 -7 -46 -85 -13 -127 28 -35 21 -50 -63 -145 -46 -52
-73 -74 -101 -81 -28 -8 -47 -24 -73 -60 -19 -27 -51 -62 -70 -77 -21 -18 -36
-40 -40 -62 -7 -33 -6 -34 22 -28 16 3 47 12 69 21 22 8 69 15 106 16 36 0 70
5 75 10 6 6 46 20 89 30 43 10 87 28 99 39 30 28 87 28 112 0 23 -26 63 -21
116 13 30 19 37 29 38 56 0 17 2 32 4 32 17 0 71 -31 100 -58 41 -37 65 -40
91 -12 10 11 30 20 43 20 14 0 51 5 83 12 48 10 63 9 101 -5 98 -38 115 -20
101 101 -5 48 -6 91 -2 96 17 19 9 55 -15 74 -13 10 -31 36 -40 56 -15 36 -18
38 -48 31 -63 -13 -86 -9 -123 24 -25 22 -46 31 -70 31 -29 0 -34 -4 -37 -27
l-3 -28 -101 0 c-82 0 -103 -3 -118 -17 -9 -10 -23 -18 -31 -18 -14 0 -65 55
-65 72 0 5 -18 8 -40 7 -21 -2 -42 0 -46 4 -8 7 -113 7 -150 0z"/>
</g>
</svg>
