<?xml version="1.0" standalone="no"?>
<!DOCTYPE svg PUBLIC "-//W3C//DTD SVG 20010904//EN"
 "http://www.w3.org/TR/2001/REC-SVG-20010904/DTD/svg10.dtd">
<svg version="1.0" xmlns="http://www.w3.org/2000/svg"
 width="1920.000000pt" height="1080.000000pt" viewBox="0 0 1920.000000 1080.000000"
 preserveAspectRatio="xMidYMid meet">
<metadata>
Created by potrace 1.16, written by Peter Selinger 2001-2019
</metadata>
<g transform="translate(0.000000,1080.000000) scale(0.100000,-0.100000)"
fill="#000000" stroke="none">
<path d="M7470 3235 c0 -30 1 -29 -50 -9 -24 10 -56 14 -82 11 -188 -21 -238
-54 -161 -107 65 -44 128 -118 153 -178 12 -31 36 -78 52 -104 25 -40 28 -53
23 -91 -5 -29 -3 -47 4 -51 16 -10 13 -45 -9 -106 -22 -60 -41 -80 -77 -80
-16 0 -23 -6 -23 -19 0 -11 5 -23 10 -26 6 -3 10 -21 10 -40 0 -18 4 -35 8
-37 5 -1 27 -31 51 -65 30 -46 48 -63 64 -63 31 0 97 -47 97 -69 0 -10 9 -26
20 -36 11 -10 20 -28 20 -40 0 -11 6 -30 14 -40 24 -33 65 -9 113 65 24 36 43
71 43 78 0 30 33 73 70 92 42 21 62 62 41 83 -6 6 -11 23 -11 38 0 37 -21 52
-64 43 -33 -6 -36 -4 -36 17 0 13 7 32 15 43 8 10 19 44 26 74 10 50 9 63 -11
120 -20 54 -21 67 -10 90 12 25 24 68 36 132 4 17 -5 41 -30 77 -19 29 -37 61
-41 72 -3 11 -17 29 -30 39 -17 14 -21 22 -14 35 22 39 -44 82 -90 58 -14 -8
-30 -7 -61 4 -59 21 -70 19 -70 -10z"/>
</g>
</svg>
