<?xml version="1.0" standalone="no"?>
<!DOCTYPE svg PUBLIC "-//W3C//DTD SVG 20010904//EN"
 "http://www.w3.org/TR/2001/REC-SVG-20010904/DTD/svg10.dtd">
<svg version="1.0" xmlns="http://www.w3.org/2000/svg"
 width="1920.000000pt" height="1080.000000pt" viewBox="0 0 1920.000000 1080.000000"
 preserveAspectRatio="xMidYMid meet">
<metadata>
Created by potrace 1.16, written by Peter Selinger 2001-2019
</metadata>
<g transform="translate(0.000000,1080.000000) scale(0.100000,-0.100000)"
fill="#000000" stroke="none">
<path d="M8116 3709 c-20 -17 -40 -28 -46 -24 -6 3 -35 -1 -65 -10 -34 -9 -69
-13 -94 -9 -30 5 -51 1 -86 -16 -35 -17 -55 -21 -83 -15 -20 4 -55 10 -77 14
-22 4 -51 13 -65 21 -16 9 -70 15 -150 17 -69 2 -158 6 -198 9 -78 6 -102 -3
-102 -37 0 -12 7 -19 20 -19 13 0 20 -7 20 -19 0 -11 9 -23 20 -26 11 -4 34
-18 52 -33 27 -23 42 -27 91 -27 48 0 61 -4 69 -20 6 -11 22 -33 37 -48 22
-24 24 -30 12 -48 -9 -16 -10 -28 -2 -48 5 -14 12 -52 16 -83 6 -54 8 -57 41
-68 18 -6 57 -10 86 -8 l53 3 -3 -32 c-2 -24 2 -34 17 -43 12 -6 28 -25 36
-43 8 -18 29 -54 45 -80 33 -52 33 -51 -2 -152 -20 -58 -20 -84 0 -137 10 -29
18 -57 16 -63 -1 -5 -5 -27 -9 -48 -5 -31 -10 -37 -24 -32 -25 8 -48 -20 -32
-39 22 -26 79 -47 98 -37 10 6 35 18 56 27 20 9 37 20 37 25 0 5 7 9 16 9 9 0
32 16 50 35 18 19 36 31 39 25 13 -20 35 -9 60 30 21 33 30 39 48 35 32 -8 71
37 93 108 16 51 21 57 44 57 15 0 47 15 71 34 24 18 54 36 66 40 12 4 37 25
56 46 28 32 44 41 79 46 33 5 47 2 57 -10 47 -57 139 37 125 129 -5 35 -2 51
15 78 27 44 27 83 1 97 -11 6 -20 19 -20 30 0 35 -12 50 -40 50 -31 0 -90 48
-90 73 0 22 -50 58 -70 52 -11 -4 -23 3 -33 19 -9 13 -33 30 -54 36 -46 15
-92 66 -93 102 0 40 -33 58 -107 58 -55 0 -66 -3 -97 -31z"/>
</g>
</svg>
