<?xml version="1.0" standalone="no"?>
<!DOCTYPE svg PUBLIC "-//W3C//DTD SVG 20010904//EN"
 "http://www.w3.org/TR/2001/REC-SVG-20010904/DTD/svg10.dtd">
<svg version="1.0" xmlns="http://www.w3.org/2000/svg"
 width="1920.000000pt" height="1080.000000pt" viewBox="0 0 1920.000000 1080.000000"
 preserveAspectRatio="xMidYMid meet">
<metadata>
Created by potrace 1.16, written by Peter Selinger 2001-2019
</metadata>
<g transform="translate(0.000000,1080.000000) scale(0.100000,-0.100000)"
fill="#000000" stroke="none">
<path d="M8772 3488 c-7 -7 -12 -17 -12 -22 -1 -6 -28 -23 -60 -38 -62 -28
-79 -55 -40 -65 11 -3 20 -14 20 -24 0 -11 7 -22 15 -25 26 -10 28 -43 4 -80
-17 -28 -20 -45 -16 -82 6 -57 -25 -126 -53 -117 -10 3 -22 -1 -29 -9 -6 -7
-37 -17 -68 -21 -40 -5 -61 -13 -77 -30 -11 -13 -37 -28 -56 -33 -28 -6 -39
-16 -54 -50 -16 -34 -24 -42 -46 -42 -35 0 -44 -13 -58 -75 -20 -95 -33 -119
-72 -138 -21 -10 -49 -28 -62 -40 -29 -26 -73 -44 -151 -62 -68 -15 -86 -28
-71 -52 28 -45 212 -60 341 -27 54 13 67 14 74 3 11 -18 132 -13 169 6 30 15
60 56 60 80 0 27 50 92 86 111 42 23 52 49 28 75 -10 11 -12 19 -6 19 7 0 17
20 24 45 10 36 18 47 43 55 38 13 113 15 190 5 91 -10 133 7 165 69 14 28 37
57 51 65 28 17 109 100 109 112 0 4 19 5 43 2 56 -6 105 21 134 72 13 22 23
46 23 52 0 7 -19 25 -42 40 -24 15 -47 34 -51 41 -5 7 -15 18 -23 25 -8 6 -28
24 -44 39 -31 28 -49 33 -154 43 -46 5 -79 14 -97 27 -16 12 -36 19 -48 15
-12 -3 -31 2 -43 12 -29 23 -130 35 -146 19z"/>
</g>
</svg>
