<?xml version="1.0" standalone="no"?>
<!DOCTYPE svg PUBLIC "-//W3C//DTD SVG 20010904//EN"
 "http://www.w3.org/TR/2001/REC-SVG-20010904/DTD/svg10.dtd">
<svg version="1.0" xmlns="http://www.w3.org/2000/svg"
 width="1920.000000pt" height="1080.000000pt" viewBox="0 0 1920.000000 1080.000000"
 preserveAspectRatio="xMidYMid meet">
<metadata>
Created by potrace 1.16, written by Peter Selinger 2001-2019
</metadata>
<g transform="translate(0.000000,1080.000000) scale(0.100000,-0.100000)"
fill="#000000" stroke="none">
<path d="M9480 3474 c-27 -32 -31 -41 -25 -74 6 -35 3 -40 -29 -67 -31 -24
-36 -34 -36 -71 0 -99 -52 -148 -144 -136 -32 5 -46 3 -46 -5 0 -17 -77 -98
-117 -122 -21 -13 -36 -32 -40 -49 -12 -65 -87 -94 -180 -71 -26 7 -64 9 -86
6 -25 -5 -48 -2 -63 6 -36 19 -52 -3 -55 -76 -2 -40 -10 -75 -27 -106 -46 -89
-10 -138 81 -110 76 22 141 33 200 32 51 -1 61 2 87 27 26 26 30 27 44 14 11
-12 18 -13 28 -4 8 6 33 14 56 18 49 8 82 42 82 84 0 34 22 45 38 19 22 -34
92 -18 136 30 11 12 34 29 51 37 17 8 56 38 86 67 63 60 78 70 150 106 30 14
58 35 63 46 12 28 105 85 139 85 33 0 95 30 121 59 16 18 17 25 8 46 -7 14
-24 30 -39 36 -16 6 -39 17 -53 25 -14 7 -41 21 -60 30 -19 9 -48 27 -63 40
-24 20 -40 24 -93 24 -74 0 -113 16 -144 60 -12 16 -25 30 -30 30 -4 0 -22
-16 -40 -36z"/>
</g>
</svg>
