<?xml version="1.0" standalone="no"?>
<!DOCTYPE svg PUBLIC "-//W3C//DTD SVG 20010904//EN"
 "http://www.w3.org/TR/2001/REC-SVG-20010904/DTD/svg10.dtd">
<svg version="1.0" xmlns="http://www.w3.org/2000/svg"
 width="1920.000000pt" height="1080.000000pt" viewBox="0 0 1920.000000 1080.000000"
 preserveAspectRatio="xMidYMid meet">
<metadata>
Created by potrace 1.16, written by Peter Selinger 2001-2019
</metadata>
<g transform="translate(0.000000,1080.000000) scale(0.100000,-0.100000)"
fill="#000000" stroke="none">
<path d="M9285 4493 c-30 -7 -55 -33 -55 -57 0 -31 -10 -42 -54 -60 -35 -14
-41 -15 -55 -1 -10 8 -32 16 -51 17 -33 3 -35 2 -40 -37 -3 -22 -13 -52 -23
-65 -9 -13 -17 -39 -17 -58 0 -18 -7 -44 -16 -57 -9 -13 -13 -28 -10 -34 9
-13 -12 -62 -37 -89 -24 -26 -33 -103 -17 -160 11 -40 -1 -76 -35 -107 -16
-16 -25 -38 -30 -78 -9 -69 -2 -81 41 -74 25 4 34 2 34 -8 0 -7 2 -19 5 -27 3
-7 -7 -20 -23 -29 -32 -18 -65 -79 -56 -104 4 -9 16 -15 28 -14 11 2 31 -3 44
-10 12 -6 32 -9 43 -6 14 5 28 0 42 -13 15 -14 43 -22 92 -27 39 -4 78 -14 87
-23 15 -13 20 -13 34 -1 27 22 56 101 50 133 -9 42 11 106 32 106 14 0 17 -7
14 -40 -2 -22 -1 -51 2 -65 8 -31 35 -32 128 -9 51 13 72 14 111 5 123 -28
209 -6 286 73 32 33 33 36 18 59 -10 15 -12 29 -6 38 13 21 11 73 -7 124 -14
42 -14 51 0 100 21 72 22 71 -24 100 -30 19 -53 25 -93 25 -53 0 -87 19 -87
48 0 16 -48 84 -72 103 -16 12 -22 29 -23 61 -1 24 -10 58 -19 75 -9 18 -16
44 -16 58 0 42 -16 61 -71 85 -29 12 -59 28 -66 36 -14 14 -49 16 -88 7z"/>
</g>
</svg>
