<?xml version="1.0" standalone="no"?>
<!DOCTYPE svg PUBLIC "-//W3C//DTD SVG 20010904//EN"
 "http://www.w3.org/TR/2001/REC-SVG-20010904/DTD/svg10.dtd">
<svg version="1.0" xmlns="http://www.w3.org/2000/svg"
 width="1920.000000pt" height="1080.000000pt" viewBox="0 0 1920.000000 1080.000000"
 preserveAspectRatio="xMidYMid meet">
<metadata>
Created by potrace 1.16, written by Peter Selinger 2001-2019
</metadata>
<g transform="translate(0.000000,1080.000000) scale(0.100000,-0.100000)"
fill="#000000" stroke="none">
<path d="M9917 4143 c-12 -11 -8 -29 14 -51 17 -19 18 -23 4 -28 -8 -3 -26 -3
-40 0 -53 14 -125 -53 -95 -89 7 -8 18 -15 25 -15 10 0 10 -10 -2 -47 -15 -50
-13 -86 6 -162 9 -33 9 -52 1 -72 -9 -21 -9 -32 1 -47 12 -18 10 -24 -11 -47
-30 -32 -97 -70 -139 -78 -19 -4 -60 0 -96 9 -55 14 -74 14 -127 4 -35 -7 -76
-13 -93 -14 l-30 -1 0 60 c0 57 -1 60 -25 63 -45 5 -62 -17 -67 -94 -2 -38
-12 -86 -21 -108 -15 -36 -15 -39 1 -51 9 -7 17 -17 17 -23 0 -6 9 -14 20 -17
11 -4 28 -17 36 -31 18 -27 74 -64 97 -64 8 0 18 12 21 26 4 15 21 40 38 57
26 26 29 36 25 69 -4 28 0 44 15 63 24 30 35 32 43 5 11 -35 76 -60 154 -60
58 0 72 -3 84 -20 7 -10 33 -28 58 -39 24 -12 51 -25 59 -31 8 -5 33 -17 55
-26 22 -9 34 -18 28 -21 -20 -7 -15 -41 7 -48 11 -3 32 1 47 9 16 8 49 18 75
21 55 7 65 25 54 100 -7 44 -6 45 19 45 15 0 40 9 55 20 16 11 35 17 43 14 8
-3 37 6 64 20 26 14 53 26 58 26 15 0 90 70 110 103 10 15 26 27 37 27 11 0
39 14 63 30 24 17 50 30 59 30 8 0 17 4 21 9 3 5 19 9 35 9 17 -1 38 6 48 15
18 16 78 41 126 52 31 6 160 80 177 101 15 18 2 54 -19 54 -9 0 -54 -7 -99
-15 -70 -12 -86 -12 -110 -1 -41 21 -73 33 -118 46 -22 7 -93 39 -158 71 -64
32 -123 59 -130 59 -7 0 -17 8 -24 18 -19 32 -206 68 -263 52 -26 -7 -50 -6
-93 5 -61 16 -129 20 -140 8z"/>
</g>
</svg>
