<?xml version="1.0" standalone="no"?>
<!DOCTYPE svg PUBLIC "-//W3C//DTD SVG 20010904//EN"
 "http://www.w3.org/TR/2001/REC-SVG-20010904/DTD/svg10.dtd">
<svg version="1.0" xmlns="http://www.w3.org/2000/svg"
 width="1920.000000pt" height="1080.000000pt" viewBox="0 0 1920.000000 1080.000000"
 preserveAspectRatio="xMidYMid meet">
<metadata>
Created by potrace 1.16, written by Peter Selinger 2001-2019
</metadata>
<g transform="translate(0.000000,1080.000000) scale(0.100000,-0.100000)"
fill="#000000" stroke="none">
<path d="M8095 4318 c-22 -18 -46 -41 -53 -50 -7 -10 -36 -30 -64 -44 -40 -20
-58 -24 -87 -18 -20 4 -46 6 -58 5 -14 -1 -23 5 -28 18 -6 20 -41 38 -52 27
-4 -3 -17 1 -31 10 -26 17 -106 12 -117 -7 -4 -5 -15 -14 -26 -20 -18 -9 -19
-9 -7 10 10 16 10 26 2 39 -16 24 -50 27 -95 6 -31 -14 -39 -22 -39 -44 0 -15
-10 -36 -25 -50 -20 -19 -24 -30 -20 -52 5 -21 3 -28 -9 -28 -17 0 -17 -1 -23
-65 -7 -76 -5 -117 6 -128 24 -24 11 -48 -34 -68 -36 -16 -45 -25 -45 -44 0
-14 9 -30 20 -37 28 -18 25 -25 -17 -45 -21 -10 -39 -25 -41 -34 -4 -23 37
-30 183 -33 80 -1 135 -7 165 -18 58 -20 134 -38 164 -38 13 0 44 9 70 20 32
15 56 19 79 15 20 -4 55 0 83 8 35 10 55 11 71 4 19 -8 27 -4 56 27 32 34 38
36 95 36 63 0 82 -13 82 -54 0 -33 51 -91 91 -102 22 -7 49 -23 60 -37 12 -16
32 -27 52 -29 26 -2 34 -9 42 -35 5 -18 17 -36 27 -39 10 -3 23 -15 29 -26 9
-16 18 -19 48 -15 39 5 125 58 135 82 4 12 14 14 40 10 31 -6 36 -4 50 23 9
17 30 42 48 55 30 24 31 28 22 64 -8 35 -12 38 -42 37 -32 -2 -32 -2 -32 46 0
46 17 80 40 80 19 0 33 77 23 122 -15 64 -6 126 22 144 16 10 26 30 31 57 3
23 15 48 25 55 27 19 24 29 -22 57 -33 21 -48 25 -82 20 -34 -5 -51 -2 -90 21
-44 24 -55 26 -117 20 -42 -3 -71 -2 -75 4 -3 5 -29 8 -58 5 -171 -15 -197
-12 -302 31 -34 14 -105 34 -120 34 -6 0 -28 -15 -50 -32z"/>
</g>
</svg>
