<?xml version="1.0" standalone="no"?>
<!DOCTYPE svg PUBLIC "-//W3C//DTD SVG 20010904//EN"
 "http://www.w3.org/TR/2001/REC-SVG-20010904/DTD/svg10.dtd">
<svg version="1.0" xmlns="http://www.w3.org/2000/svg"
 width="1920.000000pt" height="1080.000000pt" viewBox="0 0 1920.000000 1080.000000"
 preserveAspectRatio="xMidYMid meet">
<metadata>
Created by potrace 1.16, written by Peter Selinger 2001-2019
</metadata>
<g transform="translate(0.000000,1080.000000) scale(0.100000,-0.100000)"
fill="#000000" stroke="none">
<path d="M7694 5422 c-12 -9 -31 -36 -43 -59 -17 -35 -19 -46 -10 -73 16 -45
5 -111 -22 -133 -23 -19 -28 -25 -66 -93 -34 -63 -68 -89 -111 -85 -21 1 -49
-2 -64 -8 -20 -8 -34 -6 -64 10 -40 20 -154 27 -154 10 0 -28 25 -118 37 -132
18 -22 16 -31 -11 -56 -29 -28 -42 -103 -21 -119 10 -7 15 -29 15 -61 0 -32 5
-55 14 -63 8 -6 16 -23 18 -38 4 -33 32 -40 60 -15 20 17 21 17 32 -1 6 -10
21 -30 34 -44 l22 -25 -39 -36 c-41 -38 -62 -94 -42 -114 6 -6 11 -19 11 -29
0 -22 34 -24 70 -4 21 12 28 12 51 -1 24 -15 29 -14 72 11 55 33 70 27 61 -20
-5 -29 -3 -34 12 -34 11 0 34 9 52 20 18 11 43 21 55 21 48 1 108 -15 120 -31
7 -9 28 -20 47 -23 19 -3 49 -9 66 -12 47 -10 124 28 188 92 61 61 72 62 161
24 75 -33 150 -50 218 -49 37 0 70 4 73 9 7 13 72 11 79 -2 5 -7 32 -8 79 -4
66 6 74 5 111 -20 32 -23 47 -26 86 -23 28 3 56 0 70 -8 37 -21 49 -17 49 15
0 32 39 115 55 117 5 1 14 9 20 18 14 24 -29 55 -77 56 -23 0 -51 10 -75 26
-21 14 -50 28 -65 31 -17 3 -36 18 -47 37 -11 18 -43 43 -74 59 -35 17 -64 41
-81 67 -20 30 -36 42 -68 50 -24 6 -54 15 -68 20 -14 5 -41 12 -62 16 -27 4
-38 12 -42 29 -6 23 -61 65 -85 65 -17 0 -91 78 -91 95 0 8 10 15 21 17 35 5
47 33 24 58 -11 12 -18 33 -17 49 1 15 -8 48 -21 72 -18 34 -30 45 -52 47 -16
2 -40 12 -53 23 -15 11 -40 19 -64 19 -66 0 -104 25 -133 85 -29 61 -54 83
-107 92 -21 3 -38 9 -38 13 0 16 -54 60 -74 60 -11 0 -31 -8 -42 -18z"/>
</g>
</svg>
