<?xml version="1.0" standalone="no"?>
<!DOCTYPE svg PUBLIC "-//W3C//DTD SVG 20010904//EN"
 "http://www.w3.org/TR/2001/REC-SVG-20010904/DTD/svg10.dtd">
<svg version="1.0" xmlns="http://www.w3.org/2000/svg"
 width="1920.000000pt" height="1080.000000pt" viewBox="0 0 1920.000000 1080.000000"
 preserveAspectRatio="xMidYMid meet">
<metadata>
Created by potrace 1.16, written by Peter Selinger 2001-2019
</metadata>
<g transform="translate(0.000000,1080.000000) scale(0.100000,-0.100000)"
fill="#000000" stroke="none">
<path d="M7118 5773 c-30 -29 -40 -35 -50 -25 -19 19 -45 14 -75 -14 -24 -22
-34 -25 -73 -21 -25 3 -57 8 -71 12 -18 5 -31 2 -44 -11 -16 -16 -35 -28 -103
-65 -21 -11 -30 -10 -74 15 -57 32 -84 30 -138 -13 -62 -49 -77 -54 -112 -37
-48 25 -74 20 -102 -17 -32 -41 -35 -87 -7 -87 11 0 22 4 25 8 5 8 66 4 66 -5
0 -2 -9 -13 -20 -25 -29 -31 -26 -51 6 -45 31 6 40 -12 49 -95 l6 -58 37 0
c49 0 73 -31 40 -54 -49 -34 23 -63 86 -35 25 12 58 7 86 -11 13 -8 12 -11 -5
-25 -11 -9 -35 -23 -52 -31 -38 -17 -42 -36 -10 -52 12 -7 30 -17 39 -24 13
-10 23 -8 52 7 33 18 36 18 54 2 21 -19 57 -23 67 -7 12 20 72 11 88 -12 13
-20 18 -21 35 -11 15 9 24 9 41 -3 11 -8 21 -21 21 -27 1 -23 38 -57 63 -57
18 0 31 10 46 35 23 40 54 46 71 15 8 -14 21 -20 46 -20 19 0 57 -10 84 -21
36 -15 59 -19 82 -14 18 4 54 7 79 6 42 -1 50 3 80 38 19 21 45 58 59 82 14
24 36 54 50 67 23 22 25 31 25 115 1 99 16 147 39 127 16 -12 42 -4 50 15 5
13 -33 72 -56 87 -7 4 -25 8 -39 8 -16 0 -33 9 -42 23 -8 12 -55 63 -103 114
-74 76 -96 93 -129 99 -23 4 -47 17 -58 30 -13 17 -33 25 -68 30 -27 4 -52 11
-55 15 -12 20 -52 7 -86 -28z"/>
</g>
</svg>
