<?xml version="1.0" standalone="no"?>
<!DOCTYPE svg PUBLIC "-//W3C//DTD SVG 20010904//EN"
 "http://www.w3.org/TR/2001/REC-SVG-20010904/DTD/svg10.dtd">
<svg version="1.0" xmlns="http://www.w3.org/2000/svg"
 width="1920.000000pt" height="1080.000000pt" viewBox="0 0 1920.000000 1080.000000"
 preserveAspectRatio="xMidYMid meet">
<metadata>
Created by potrace 1.16, written by Peter Selinger 2001-2019
</metadata>
<g transform="translate(0.000000,1080.000000) scale(0.100000,-0.100000)"
fill="#000000" stroke="none">
<path d="M6557 6568 c-10 -5 -22 -20 -27 -32 -4 -12 -41 -44 -81 -71 -41 -27
-77 -54 -81 -59 -13 -18 -9 -44 8 -61 20 -19 21 -18 -37 -37 -29 -10 -52 -12
-60 -7 -8 5 -35 9 -61 9 -54 0 -83 -21 -94 -67 -10 -48 -13 -53 -36 -62 -52
-20 -63 -46 -63 -147 0 -82 -2 -94 -17 -94 -10 0 -27 -13 -40 -30 -12 -16 -29
-30 -38 -30 -9 0 -27 -11 -40 -25 -13 -14 -29 -25 -36 -25 -24 0 -36 -39 -29
-90 9 -63 31 -73 80 -36 33 26 34 26 45 7 13 -25 13 -88 0 -96 -20 -12 -10
-45 20 -60 40 -21 50 -19 50 8 0 23 25 67 39 67 4 0 20 -22 35 -49 28 -51 77
-101 101 -101 8 0 22 14 32 30 9 17 25 30 35 30 10 0 18 3 18 8 0 4 12 20 26
35 19 21 29 26 37 18 6 -6 32 -11 58 -11 39 0 56 7 100 40 30 22 58 40 64 40
5 0 28 -11 50 -25 51 -31 88 -31 129 0 18 14 38 25 45 25 7 0 21 10 31 23 16
19 22 20 39 10 11 -7 44 -13 73 -13 43 0 57 5 81 28 20 18 31 23 34 15 9 -24
49 -13 83 22 39 40 55 43 72 15 15 -23 58 -27 58 -6 0 8 13 29 29 47 30 33 34
52 32 156 -1 34 4 45 25 62 15 12 33 21 41 21 8 0 12 4 8 10 -3 5 5 16 18 24
13 9 31 34 41 56 16 37 16 43 2 72 -9 17 -16 44 -16 59 0 18 -8 34 -20 41 -11
7 -20 22 -20 34 0 21 -34 64 -50 64 -6 0 -10 11 -10 24 0 27 -51 76 -78 76 -9
0 -37 -11 -61 -25 -36 -21 -56 -25 -122 -25 -60 0 -81 4 -85 14 -3 8 -20 18
-37 22 -18 4 -64 23 -104 42 l-72 36 -65 -13 c-57 -11 -71 -11 -104 2 -26 11
-43 12 -55 5z"/>
</g>
</svg>
