<?xml version="1.0" standalone="no"?>
<!DOCTYPE svg PUBLIC "-//W3C//DTD SVG 20010904//EN"
 "http://www.w3.org/TR/2001/REC-SVG-20010904/DTD/svg10.dtd">
<svg version="1.0" xmlns="http://www.w3.org/2000/svg"
 width="1920.000000pt" height="1080.000000pt" viewBox="0 0 1920.000000 1080.000000"
 preserveAspectRatio="xMidYMid meet">
<metadata>
Created by potrace 1.16, written by Peter Selinger 2001-2019
</metadata>
<g transform="translate(0.000000,1080.000000) scale(0.100000,-0.100000)"
fill="#000000" stroke="none">
<path d="M7636 7244 c-9 -8 -16 -22 -16 -30 0 -8 -9 -14 -19 -14 -35 0 -48
-25 -54 -110 -5 -68 -11 -89 -37 -126 -16 -25 -30 -49 -30 -55 0 -5 -6 -9 -13
-9 -7 0 -20 -9 -30 -20 -16 -20 -31 -24 -72 -21 -11 1 -44 -10 -72 -24 -29
-14 -60 -25 -68 -25 -15 0 -19 7 -45 78 -7 18 -21 37 -32 43 -27 14 -83 -4
-111 -36 l-23 -27 -164 -3 c-148 -3 -173 -6 -240 -30 -80 -28 -120 -61 -120
-100 0 -13 -18 -59 -40 -102 -22 -43 -40 -88 -40 -100 0 -13 -5 -23 -10 -23
-6 0 -30 -20 -54 -44 -52 -51 -52 -83 -1 -121 35 -28 55 -31 73 -13 22 22 14
48 -14 48 -35 0 -25 11 57 65 38 26 77 59 86 74 10 14 18 28 19 29 2 2 19 -2
40 -8 29 -10 52 -10 104 -1 l68 12 72 -35 c40 -20 81 -36 91 -36 10 0 24 -9
31 -20 11 -18 24 -20 102 -20 76 0 97 4 143 26 l54 27 24 -23 c14 -13 25 -32
25 -43 0 -10 14 -32 30 -47 17 -15 30 -37 30 -49 0 -11 9 -25 20 -31 13 -7 20
-21 20 -40 0 -16 5 -40 11 -54 9 -19 8 -33 -3 -62 -13 -32 -20 -38 -44 -39
-24 0 -30 -5 -32 -27 -3 -23 3 -32 32 -49 23 -13 36 -29 36 -42 1 -34 35 -67
76 -74 28 -5 33 -8 20 -15 -20 -11 -21 -42 -1 -61 8 -9 33 -18 55 -22 22 -4
46 -15 53 -24 20 -29 49 -39 104 -37 66 2 82 21 83 92 0 49 -3 54 -41 85 -79
65 -79 66 -79 119 0 51 9 67 59 100 57 38 56 36 43 65 -7 15 -11 28 -10 29 36
23 142 66 160 66 24 0 58 27 58 46 1 21 80 74 121 80 24 4 55 15 68 26 13 10
36 18 50 18 15 0 37 7 49 16 41 28 23 87 -48 158 -90 91 -100 103 -100 120 0
20 -16 54 -37 76 -7 8 -26 33 -42 56 -31 43 -96 84 -136 84 -61 0 -95 39 -95
111 0 15 -5 40 -12 55 -10 22 -17 25 -45 21 -29 -5 -33 -3 -33 17 0 45 -74 80
-104 50z"/>
</g>
</svg>
