<?xml version="1.0" standalone="no"?>
<!DOCTYPE svg PUBLIC "-//W3C//DTD SVG 20010904//EN"
 "http://www.w3.org/TR/2001/REC-SVG-20010904/DTD/svg10.dtd">
<svg version="1.0" xmlns="http://www.w3.org/2000/svg"
 width="1920.000000pt" height="1080.000000pt" viewBox="0 0 1920.000000 1080.000000"
 preserveAspectRatio="xMidYMid meet">
<metadata>
Created by potrace 1.16, written by Peter Selinger 2001-2019
</metadata>
<g transform="translate(0.000000,1080.000000) scale(0.100000,-0.100000)"
fill="#000000" stroke="none">
<path d="M8824 6389 c-3 -6 -36 -24 -72 -40 -49 -22 -82 -30 -131 -31 -72 -2
-91 -10 -91 -41 0 -19 -1 -19 -18 -3 -14 12 -28 14 -53 10 -42 -8 -89 -40 -89
-60 0 -9 -16 -30 -35 -48 -19 -19 -35 -42 -35 -53 0 -27 -36 -63 -65 -63 -13
0 -26 -4 -29 -9 -7 -11 -76 -32 -181 -56 -44 -11 -88 -25 -98 -34 -19 -16 -85
-17 -101 -1 -11 11 -59 13 -94 4 -34 -10 -26 -48 11 -52 34 -4 51 -34 44 -79
-8 -49 -24 -63 -68 -63 -28 0 -47 8 -71 29 -19 16 -50 32 -70 36 -48 9 -69 32
-45 50 30 21 21 45 -16 45 -38 0 -73 31 -79 69 -3 26 -49 59 -84 60 -41 2 -54
-28 -54 -122 0 -80 -2 -89 -25 -109 -33 -29 -32 -54 4 -66 16 -6 32 -20 36
-31 5 -16 15 -21 40 -21 40 0 102 -49 202 -162 52 -59 74 -78 94 -78 14 0 36
-11 49 -25 13 -14 29 -25 36 -25 7 0 25 -15 39 -34 18 -24 36 -35 64 -40 45
-7 86 -44 94 -85 9 -45 62 -79 137 -90 48 -6 68 -14 78 -30 15 -22 51 -28 68
-12 5 6 36 14 69 19 32 5 61 15 63 21 6 19 54 12 79 -11 20 -19 26 -20 50 -8
57 26 89 29 102 8 9 -14 19 -18 34 -14 12 4 48 11 81 16 48 7 64 15 91 44 18
20 63 49 101 66 77 35 114 65 114 91 0 10 9 20 19 24 33 10 54 70 44 123 -7
41 -12 48 -41 58 -37 12 -69 40 -59 51 4 4 26 6 50 5 23 -1 58 4 77 11 85 32
169 77 182 96 9 12 22 19 30 16 39 -15 148 81 135 118 -2 7 2 24 9 38 10 21
11 46 3 115 -5 49 -9 110 -9 136 1 26 -4 57 -10 68 -7 13 -7 26 -1 39 17 32
-7 48 -82 56 -63 6 -69 5 -74 -13 -3 -11 -19 -27 -36 -36 -31 -15 -32 -14 -40
9 -13 39 -43 41 -83 6 -41 -36 -57 -41 -26 -8 43 46 20 91 -42 86 -20 -2 -41
2 -47 8 -9 9 -21 8 -51 -4 -38 -15 -39 -15 -59 11 -21 27 -53 34 -65 15z"/>
</g>
</svg>
