<?xml version="1.0" standalone="no"?>
<!DOCTYPE svg PUBLIC "-//W3C//DTD SVG 20010904//EN"
 "http://www.w3.org/TR/2001/REC-SVG-20010904/DTD/svg10.dtd">
<svg version="1.0" xmlns="http://www.w3.org/2000/svg"
 width="1920.000000pt" height="1080.000000pt" viewBox="0 0 1920.000000 1080.000000"
 preserveAspectRatio="xMidYMid meet">
<metadata>
Created by potrace 1.16, written by Peter Selinger 2001-2019
</metadata>
<g transform="translate(0.000000,1080.000000) scale(0.100000,-0.100000)"
fill="#000000" stroke="none">
<path d="M9567 5529 c-15 -12 -39 -45 -54 -75 -21 -44 -24 -56 -13 -68 10 -13
8 -21 -12 -45 -21 -27 -53 -39 -83 -31 -43 11 -64 11 -114 1 -61 -13 -129 -43
-169 -75 -32 -25 -130 -68 -157 -69 -99 -4 -164 4 -185 23 -13 11 -25 20 -27
20 -11 0 -61 -31 -73 -45 -22 -26 -86 -55 -123 -55 -30 0 -36 4 -50 40 -13 34
-20 40 -44 40 -16 0 -34 5 -40 11 -8 8 -25 9 -50 4 -21 -5 -47 -9 -58 -9 -22
-1 -32 -35 -19 -64 4 -9 6 -29 5 -43 -2 -18 5 -28 23 -37 18 -8 26 -19 26 -36
0 -30 31 -50 67 -43 28 5 51 -5 104 -46 44 -33 127 -47 163 -27 20 10 28 9 49
-5 22 -14 25 -22 20 -46 -5 -27 -2 -31 27 -42 40 -15 86 -99 96 -176 7 -57 40
-114 67 -119 31 -6 48 17 42 57 -4 30 -4 32 5 13 5 -12 17 -25 25 -28 9 -4 22
-21 29 -39 8 -18 22 -36 33 -39 10 -3 24 -18 31 -34 20 -47 50 -72 85 -72 38
0 57 15 57 45 0 11 10 24 23 30 19 9 22 19 25 72 3 54 0 63 -18 73 -31 17 -24
37 14 42 25 3 37 -1 45 -14 6 -10 19 -18 28 -18 24 0 87 71 123 138 26 49 37
61 63 66 34 7 77 42 77 63 0 10 5 11 19 3 22 -12 101 -13 117 -2 20 13 36 54
30 77 -3 13 -18 27 -34 33 -25 8 -30 17 -36 57 -7 56 -20 75 -51 75 -23 0 -47
-22 -60 -55 -7 -18 -8 -18 -20 10 -7 16 -11 44 -8 61 4 25 0 35 -17 47 -28 19
-20 33 24 41 19 4 39 13 46 21 13 16 6 65 -10 65 -6 0 -10 9 -10 19 0 15 7 19
32 17 26 -1 35 4 46 27 12 24 11 30 -6 55 -11 15 -25 44 -31 64 -11 33 -43 69
-61 68 -3 0 -17 -10 -33 -21z"/>
</g>
</svg>
