<?xml version="1.0" standalone="no"?>
<!DOCTYPE svg PUBLIC "-//W3C//DTD SVG 20010904//EN"
 "http://www.w3.org/TR/2001/REC-SVG-20010904/DTD/svg10.dtd">
<svg version="1.0" xmlns="http://www.w3.org/2000/svg"
 width="1920.000000pt" height="1080.000000pt" viewBox="0 0 1920.000000 1080.000000"
 preserveAspectRatio="xMidYMid meet">
<metadata>
Created by potrace 1.16, written by Peter Selinger 2001-2019
</metadata>
<g transform="translate(0.000000,1080.000000) scale(0.100000,-0.100000)"
fill="#000000" stroke="none">
<path d="M8480 8510 c-11 -11 -24 -20 -29 -20 -4 0 -29 -18 -54 -41 -26 -22
-51 -38 -56 -35 -16 10 -90 -25 -96 -45 -4 -11 -5 -37 -4 -59 2 -21 0 -42 -4
-46 -11 -11 -8 -62 3 -69 6 -4 8 -16 5 -26 -4 -11 -2 -26 4 -33 17 -20 -3 -55
-53 -91 -31 -24 -41 -38 -41 -60 -1 -26 -5 -29 -30 -30 l-30 0 -14 -100 c-7
-55 -16 -102 -20 -105 -29 -22 -51 -67 -51 -106 0 -31 -9 -57 -30 -91 -29 -45
-39 -96 -21 -107 4 -3 6 -17 3 -31 -4 -25 -5 -25 -28 -10 -38 24 -80 -7 -105
-77 -11 -33 -16 -36 -40 -31 -20 4 -37 -2 -62 -21 -18 -14 -39 -26 -45 -26 -7
0 -12 -11 -12 -24 0 -18 6 -25 23 -28 14 -2 23 -11 25 -26 3 -20 9 -22 40 -20
35 3 37 1 40 -27 4 -48 23 -109 40 -127 9 -11 30 -18 51 -18 20 0 47 -7 61
-15 14 -8 32 -17 42 -21 9 -3 18 -15 21 -26 4 -14 12 -19 29 -16 20 3 24 10
28 63 6 66 14 85 36 85 30 0 71 30 84 60 9 21 19 30 36 30 12 0 26 5 29 10 12
20 70 4 102 -28 52 -52 108 -41 143 28 11 22 27 40 35 40 8 0 32 9 54 21 29
15 49 18 75 13 41 -7 66 7 66 37 0 13 7 19 23 19 13 0 34 14 53 36 29 35 32
37 92 35 52 -1 74 5 151 40 l91 42 50 -22 c92 -40 192 -14 144 36 -10 11 -26
30 -34 42 -19 29 -54 47 -110 56 -25 4 -53 15 -64 24 -27 23 -39 61 -25 77 6
8 9 27 7 43 -4 26 -1 30 33 40 53 16 66 35 45 66 -9 13 -26 30 -38 36 -13 7
-29 18 -36 26 -7 7 -24 13 -38 13 -13 0 -24 6 -24 13 0 21 -41 91 -63 109 -22
17 -22 18 15 18 46 0 72 23 57 51 -6 11 -17 23 -25 26 -8 3 -14 9 -14 14 0 5
-17 35 -37 66 -21 33 -40 78 -44 105 -9 56 -35 98 -60 98 -10 0 -35 -11 -55
-25 -45 -30 -54 -31 -54 -5 0 38 -28 89 -59 104 -16 9 -52 16 -78 16 -43 0
-51 4 -77 35 -34 40 -48 43 -76 15z"/>
</g>
</svg>
