<?xml version="1.0" standalone="no"?>
<!DOCTYPE svg PUBLIC "-//W3C//DTD SVG 20010904//EN"
 "http://www.w3.org/TR/2001/REC-SVG-20010904/DTD/svg10.dtd">
<svg version="1.0" xmlns="http://www.w3.org/2000/svg"
 width="1920.000000pt" height="1080.000000pt" viewBox="0 0 1920.000000 1080.000000"
 preserveAspectRatio="xMidYMid meet">
<metadata>
Created by potrace 1.16, written by Peter Selinger 2001-2019
</metadata>
<g transform="translate(0.000000,1080.000000) scale(0.100000,-0.100000)"
fill="#000000" stroke="none">
<path d="M9302 7440 c4 -28 3 -30 -29 -30 -19 0 -51 9 -73 20 -22 11 -48 20
-59 20 -10 0 -58 -19 -105 -41 -78 -38 -94 -42 -154 -40 -66 2 -67 2 -99 -36
-26 -30 -35 -35 -45 -25 -22 22 -38 14 -38 -22 0 -35 -13 -55 -25 -36 -10 16
-36 12 -95 -17 -30 -14 -61 -29 -69 -32 -7 -4 -23 -24 -35 -46 -14 -25 -31
-41 -45 -43 -28 -4 -67 21 -76 48 -12 39 -158 18 -180 -26 -20 -40 -37 -54
-65 -54 -46 0 -68 -37 -69 -117 -1 -51 4 -76 19 -100 11 -18 24 -33 29 -33 6
0 16 -19 22 -42 7 -24 27 -57 44 -74 18 -17 36 -39 39 -50 4 -10 21 -28 38
-39 37 -23 56 -75 33 -88 -20 -11 -19 -46 1 -54 17 -6 120 22 141 39 7 6 29 7
49 4 38 -8 84 13 84 37 0 7 12 14 26 15 15 1 33 7 40 13 19 15 104 21 120 8 7
-6 56 -12 109 -15 l97 -4 34 34 c20 20 34 44 34 59 0 24 -1 25 -102 26 -80 2
-105 5 -111 17 -6 10 -22 15 -45 14 -84 -4 -112 0 -112 15 0 8 8 15 18 15 29
0 265 -29 292 -35 14 -4 53 -6 88 -5 67 1 68 0 63 -61 -1 -14 8 -37 19 -52 19
-24 28 -27 88 -27 l67 0 30 -63 c27 -55 34 -62 63 -65 26 -3 32 -8 32 -26 0
-13 9 -35 20 -49 26 -33 25 -45 -4 -53 -49 -12 -39 -64 13 -64 24 0 28 -7 50
-79 13 -44 28 -84 34 -90 18 -18 63 -13 82 9 21 24 46 90 39 102 -9 13 16 48
34 48 30 0 43 20 29 44 -19 35 -36 109 -30 134 l5 23 24 -22 c23 -22 24 -22
44 -4 31 28 25 68 -15 106 -19 19 -35 40 -35 48 0 8 -15 33 -34 55 -26 32 -33
48 -29 69 6 30 -19 67 -44 67 -23 0 -63 31 -63 49 0 22 -19 41 -42 41 -14 0
-17 5 -12 24 4 18 -1 29 -23 46 -26 20 -27 23 -10 35 41 30 73 134 46 150 -17
11 -29 54 -20 77 5 14 10 17 15 10 4 -7 21 -12 38 -12 20 0 39 -9 57 -29 30
-32 71 -47 97 -37 13 5 15 15 10 44 -4 20 -7 57 -9 82 -2 37 -6 47 -29 58 -15
7 -29 21 -32 30 -7 22 -87 62 -124 62 -15 0 -38 9 -52 20 -14 11 -30 20 -36
20 -6 0 -17 7 -24 15 -7 8 -24 15 -37 15 -22 0 -25 -4 -21 -30z"/>
</g>
</svg>
