<?xml version="1.0" standalone="no"?>
<!DOCTYPE svg PUBLIC "-//W3C//DTD SVG 20010904//EN"
 "http://www.w3.org/TR/2001/REC-SVG-20010904/DTD/svg10.dtd">
<svg version="1.0" xmlns="http://www.w3.org/2000/svg"
 width="1920.000000pt" height="1080.000000pt" viewBox="0 0 1920.000000 1080.000000"
 preserveAspectRatio="xMidYMid meet">
<metadata>
Created by potrace 1.16, written by Peter Selinger 2001-2019
</metadata>
<g transform="translate(0.000000,1080.000000) scale(0.100000,-0.100000)"
fill="#000000" stroke="none">
<path d="M9430 9085 c0 -23 -65 -47 -132 -49 -61 -1 -62 -1 -95 -46 -18 -25
-41 -56 -52 -70 -10 -14 -59 -45 -107 -69 -49 -24 -99 -53 -111 -64 -28 -25
-30 -57 -4 -57 23 0 34 -24 32 -67 -2 -24 2 -33 13 -33 25 0 19 -17 -15 -41
-26 -18 -30 -27 -27 -55 3 -26 0 -34 -12 -34 -9 0 -21 -5 -28 -12 -14 -14 -17
-88 -3 -88 4 0 5 -19 0 -42 -11 -58 -11 -58 6 -58 8 0 17 -15 21 -37 8 -44 89
-189 110 -197 12 -5 12 -9 2 -26 -19 -30 9 -53 74 -57 28 -1 56 -7 62 -13 5
-5 22 -10 36 -10 16 0 37 -12 55 -30 16 -16 36 -30 46 -30 9 0 27 -8 40 -18
120 -93 178 -112 214 -72 13 14 22 17 29 10 5 -5 22 -10 37 -10 51 0 108 101
109 193 0 57 23 117 44 117 27 0 66 44 79 90 13 47 47 70 47 32 0 -25 19 -40
58 -48 25 -5 38 -1 62 20 18 14 41 26 53 26 35 0 49 15 45 46 -2 18 -11 33
-25 39 -29 12 -22 38 21 83 26 28 31 41 31 82 0 49 1 50 33 56 71 14 114 80
77 118 -8 8 -15 19 -15 24 0 5 -7 15 -15 22 -24 20 -17 50 25 106 31 41 40 62
40 92 0 32 -4 41 -20 45 -17 4 -19 11 -14 30 3 14 3 35 -1 47 -6 20 -12 21
-61 16 -30 -3 -79 -9 -109 -12 -61 -6 -131 14 -161 47 -30 33 -134 21 -134
-16 0 -15 -26 -45 -40 -45 -5 0 -10 15 -12 33 -3 29 -6 32 -38 35 -19 1 -46
-4 -60 -11 -22 -11 -25 -19 -25 -67 0 -50 -2 -55 -24 -58 -13 -2 -28 1 -34 7
-6 6 -22 11 -35 11 -22 0 -23 3 -17 40 9 51 -13 90 -50 90 -15 0 -25 -6 -25
-15z"/>
</g>
</svg>
