<?xml version="1.0" standalone="no"?>
<!DOCTYPE svg PUBLIC "-//W3C//DTD SVG 20010904//EN"
 "http://www.w3.org/TR/2001/REC-SVG-20010904/DTD/svg10.dtd">
<svg version="1.0" xmlns="http://www.w3.org/2000/svg"
 width="1920.000000pt" height="1080.000000pt" viewBox="0 0 1920.000000 1080.000000"
 preserveAspectRatio="xMidYMid meet">
<metadata>
Created by potrace 1.16, written by Peter Selinger 2001-2019
</metadata>
<g transform="translate(0.000000,1080.000000) scale(0.100000,-0.100000)"
fill="#000000" stroke="none">
<path d="M11287 10518 c-21 -11 -41 -28 -44 -37 -3 -9 -11 -29 -18 -46 -8 -16
-16 -42 -19 -56 -4 -18 -14 -28 -31 -31 -14 -3 -28 -1 -31 3 -3 5 -19 9 -36 9
-19 0 -41 9 -55 22 -24 22 -24 22 -58 3 -35 -18 -89 -78 -79 -87 2 -3 -6 -3
-19 -1 -14 3 -29 -2 -36 -11 -8 -9 -26 -16 -42 -16 -20 0 -30 -6 -34 -22 -10
-32 -44 -67 -87 -89 -24 -12 -38 -27 -38 -38 0 -11 -18 -35 -41 -53 -22 -19
-41 -42 -43 -52 -4 -29 -28 -37 -44 -15 -23 33 -49 23 -74 -28 -18 -38 -31
-50 -58 -59 -33 -11 -35 -15 -38 -58 -3 -43 -5 -46 -32 -46 -39 0 -80 -37 -89
-80 -5 -27 -12 -36 -31 -38 -13 -2 -33 -10 -45 -18 -12 -8 -44 -15 -71 -15
-72 -2 -100 -16 -124 -61 -23 -44 -20 -68 12 -98 19 -18 20 -20 4 -26 -10 -4
-28 -2 -42 5 -14 6 -40 11 -59 11 l-35 0 0 -49 c0 -31 5 -53 15 -61 8 -7 15
-18 15 -25 0 -7 11 -24 24 -38 15 -16 20 -30 15 -39 -5 -7 -9 -25 -9 -40 0
-21 8 -31 36 -44 41 -20 74 -78 55 -97 -15 -15 -14 -80 1 -95 14 -14 68 -16
68 -2 0 5 13 7 29 4 17 -4 41 0 59 10 17 9 40 16 52 16 17 0 19 -4 14 -26 -5
-21 1 -33 37 -70 24 -24 51 -44 60 -44 22 0 69 45 69 66 0 10 8 26 17 36 16
17 16 21 1 46 -26 44 -9 62 61 62 55 0 61 3 89 35 35 39 60 92 99 206 14 44
29 79 33 79 4 0 25 -16 46 -35 21 -19 46 -35 57 -35 29 0 57 19 57 38 0 40 22
52 102 55 l77 3 3 -30 c3 -27 8 -31 34 -34 28 -3 32 -7 38 -43 9 -53 63 -111
119 -124 32 -8 45 -18 56 -40 19 -43 99 -81 143 -69 21 6 71 5 143 -3 125 -14
174 -28 193 -54 16 -23 50 -25 58 -4 9 21 32 19 39 -5 3 -11 15 -25 26 -30 10
-6 19 -19 19 -29 0 -47 54 -48 148 -4 47 23 54 24 70 10 9 -8 36 -18 60 -22
23 -4 42 -11 42 -16 0 -19 36 -8 66 22 28 27 35 29 53 19 32 -17 129 -3 144
21 7 11 18 19 25 19 46 0 162 89 162 124 0 41 12 62 40 73 39 15 62 54 65 113
1 29 9 58 19 69 9 10 16 29 16 43 0 14 9 37 20 51 30 38 25 59 -20 87 -22 14
-40 28 -40 32 0 5 -9 8 -19 8 -11 0 -22 4 -25 9 -3 5 -22 12 -42 15 -31 6 -35
10 -30 30 4 18 -4 30 -39 60 -25 20 -45 42 -45 48 0 16 -60 88 -74 88 -7 0
-18 11 -24 25 -7 14 -20 28 -29 32 -10 3 -45 26 -77 51 -49 36 -68 45 -110 48
-59 4 -86 28 -79 68 4 20 0 28 -21 37 -19 9 -26 20 -26 39 0 30 -14 46 -45 52
-14 2 -28 23 -45 64 -51 124 -85 149 -131 93 -30 -36 -24 -36 -241 -39 -23 0
-45 7 -57 17 -10 10 -30 26 -44 35 -14 10 -27 28 -29 40 -2 16 -11 24 -28 26
-13 2 -30 13 -38 23 -19 27 -68 25 -83 -3 -11 -21 -12 -21 -23 12 -13 42 -29
45 -79 18z"/>
</g>
</svg>
