<?xml version="1.0" standalone="no"?>
<!DOCTYPE svg PUBLIC "-//W3C//DTD SVG 20010904//EN"
 "http://www.w3.org/TR/2001/REC-SVG-20010904/DTD/svg10.dtd">
<svg version="1.0" xmlns="http://www.w3.org/2000/svg"
 width="1920.000000pt" height="1080.000000pt" viewBox="0 0 1920.000000 1080.000000"
 preserveAspectRatio="xMidYMid meet">
<metadata>
Created by potrace 1.16, written by Peter Selinger 2001-2019
</metadata>
<g transform="translate(0.000000,1080.000000) scale(0.100000,-0.100000)"
fill="#000000" stroke="none">
<path d="M11025 9516 c-3 -9 -7 -22 -9 -30 -6 -20 -71 -29 -95 -14 -28 17 -70
-7 -94 -56 -23 -44 -36 -45 -75 -6 -20 20 -40 30 -60 30 -27 0 -32 -5 -48 -47
-83 -226 -97 -252 -120 -233 -24 21 -44 4 -44 -37 1 -54 19 -73 68 -73 33 0
45 -6 66 -31 15 -18 26 -43 26 -60 l0 -29 66 0 c58 0 65 -2 60 -17 -3 -10 -8
-30 -12 -45 -7 -31 -30 -42 -67 -33 -48 13 -63 -1 -77 -68 -14 -66 -44 -127
-63 -127 -7 0 -25 -11 -40 -25 -22 -21 -27 -34 -27 -75 0 -55 18 -80 56 -80
27 0 28 -3 15 -29 -16 -28 4 -45 61 -51 51 -5 53 -6 56 -37 4 -38 12 -45 82
-67 42 -12 61 -25 79 -51 13 -19 29 -35 35 -35 6 0 20 -14 31 -30 20 -30 57
-40 70 -20 11 18 44 -33 34 -52 -13 -23 -11 -115 2 -140 9 -17 7 -28 -11 -60
-32 -57 -22 -102 29 -128 23 -11 43 -31 51 -50 7 -17 22 -33 36 -36 13 -3 28
-12 35 -20 18 -22 79 -17 106 8 l23 21 0 -41 c0 -22 4 -52 9 -65 7 -18 4 -42
-10 -87 -10 -34 -19 -75 -19 -91 0 -16 -4 -29 -10 -29 -13 0 -40 -65 -40 -95
0 -44 10 -55 51 -55 27 0 39 -4 39 -14 0 -22 68 -76 95 -76 15 0 25 -6 25 -15
0 -25 69 -47 125 -41 91 10 119 6 145 -18 14 -13 40 -31 58 -40 17 -9 32 -21
32 -26 0 -13 44 -13 91 2 30 8 48 8 80 -1 52 -16 89 4 89 48 0 16 7 34 16 41
26 22 44 79 44 140 0 44 5 61 19 74 11 10 24 15 30 12 6 -4 29 -2 51 4 28 8
44 19 55 40 20 40 53 61 83 53 19 -5 32 3 65 38 23 24 51 49 62 54 15 8 20 20
20 48 0 61 61 79 105 32 21 -23 29 -25 70 -19 58 8 102 28 118 55 12 18 11 24
-7 43 -15 16 -21 36 -21 67 0 47 -20 88 -63 129 -15 14 -27 36 -27 50 0 33
-10 47 -41 59 -24 9 -26 13 -21 59 2 30 0 52 -7 56 -6 4 -8 23 -5 50 5 32 1
55 -14 87 -24 54 -42 110 -42 133 0 9 -11 27 -23 40 -19 19 -26 40 -31 97 -16
157 -7 306 19 325 10 7 17 30 18 58 2 30 10 53 25 69 12 13 22 36 22 51 0 21
-7 30 -35 42 -44 18 -95 19 -95 0 0 -16 -43 -27 -62 -15 -25 16 -62 9 -89 -17
-22 -21 -30 -24 -47 -15 -12 6 -32 11 -45 11 -13 0 -32 9 -42 20 -24 27 -40
25 -104 -10 -68 -38 -98 -39 -107 -5 -15 61 -110 118 -132 80 -8 -16 -10 -16
-15 -1 -4 9 -13 16 -21 16 -8 0 -22 10 -30 22 -14 19 -18 20 -42 9 -19 -8 -30
-9 -39 -1 -8 7 -28 8 -48 5 -20 -4 -37 -2 -41 3 -3 6 -42 9 -92 7 -98 -4 -143
14 -164 65 -9 22 -20 30 -51 35 -45 8 -106 62 -115 104 -13 57 -15 60 -47 63
-25 2 -33 8 -35 26 -2 13 4 32 13 42 9 10 15 27 13 37 -4 23 -46 30 -53 9z"/>
</g>
</svg>
