<?xml version="1.0" standalone="no"?>
<!DOCTYPE svg PUBLIC "-//W3C//DTD SVG 20010904//EN"
 "http://www.w3.org/TR/2001/REC-SVG-20010904/DTD/svg10.dtd">
<svg version="1.0" xmlns="http://www.w3.org/2000/svg"
 width="1920.000000pt" height="1080.000000pt" viewBox="0 0 1920.000000 1080.000000"
 preserveAspectRatio="xMidYMid meet">
<metadata>
Created by potrace 1.16, written by Peter Selinger 2001-2019
</metadata>
<g transform="translate(0.000000,1080.000000) scale(0.100000,-0.100000)"
fill="#000000" stroke="none">
<path d="M10376 9107 c-9 -34 -7 -72 4 -83 8 -8 6 -15 -5 -24 -8 -7 -15 -20
-15 -30 0 -26 -32 -50 -65 -47 -25 2 -31 -2 -33 -23 -2 -13 -17 -40 -34 -58
-47 -54 -62 -115 -35 -144 13 -15 34 -46 43 -66 13 -26 -32 -55 -90 -60 -45
-4 -56 -8 -56 -22 0 -10 7 -20 15 -24 28 -10 18 -63 -20 -105 -19 -21 -35 -46
-35 -55 0 -9 -7 -19 -15 -22 -27 -11 -16 -33 17 -36 22 -2 34 -9 36 -21 4 -17
-2 -21 -50 -31 -15 -4 -36 -15 -46 -26 -15 -16 -21 -17 -42 -7 -14 7 -26 23
-28 35 -3 17 -10 22 -36 22 -41 0 -56 -15 -56 -56 0 -24 -8 -39 -31 -58 -17
-14 -37 -26 -45 -26 -25 0 -45 -47 -50 -121 -5 -71 -18 -107 -55 -161 -17 -24
-22 -25 -49 -15 -23 9 -35 9 -50 -1 -11 -6 -29 -12 -40 -12 -34 0 -25 -37 15
-56 22 -10 35 -23 35 -36 0 -12 12 -24 33 -33 17 -8 46 -23 62 -35 36 -24 92
-26 139 -4 22 11 41 14 53 8 14 -6 10 -9 -19 -12 -64 -6 -90 -67 -42 -99 20
-13 32 -14 53 -7 14 6 47 8 72 6 42 -3 47 -7 53 -32 5 -25 11 -30 51 -36 39
-5 50 -3 69 15 l23 22 7 -32 c3 -17 6 -48 6 -68 1 -20 7 -47 15 -61 8 -14 14
-37 15 -52 0 -16 9 -33 21 -42 18 -12 21 -22 16 -49 -3 -19 -1 -39 5 -45 6 -6
15 -21 22 -33 10 -21 8 -25 -29 -44 -28 -15 -43 -31 -50 -53 -5 -20 -16 -32
-26 -32 -31 0 -60 -34 -79 -94 -20 -60 -18 -79 14 -106 9 -7 16 -20 16 -29 0
-25 60 -82 117 -113 39 -20 52 -33 56 -57 5 -25 13 -32 48 -41 24 -7 51 -23
62 -36 19 -25 86 -64 108 -64 7 0 21 -7 31 -17 15 -13 22 -14 41 -4 57 29 83
49 92 69 7 16 19 22 41 22 41 0 76 29 93 76 18 51 31 67 45 55 41 -32 156 -16
226 32 33 23 37 24 74 11 21 -8 47 -14 57 -14 10 0 23 -9 29 -20 6 -11 21 -20
34 -20 13 0 35 -11 49 -24 18 -16 42 -25 86 -30 33 -4 63 -11 66 -17 4 -5 10
-7 14 -4 5 2 30 -11 57 -30 42 -30 57 -35 104 -35 44 0 64 -6 100 -30 56 -37
69 -37 104 -1 23 24 34 28 62 24 29 -5 35 -2 53 28 22 36 27 98 11 129 -9 16
-6 21 15 26 33 8 32 31 -6 96 l-31 53 16 51 c9 28 16 53 16 57 0 12 -95 58
-115 55 -11 -1 -31 5 -45 15 -13 9 -29 17 -35 17 -6 0 -24 14 -40 30 -31 33
-67 37 -154 21 -49 -10 -111 11 -111 36 0 7 -11 13 -25 13 -27 0 -95 54 -95
76 0 10 -12 14 -39 14 -26 0 -41 5 -45 16 -7 17 16 78 33 88 6 4 11 18 11 31
0 12 9 53 21 90 19 62 20 74 8 151 -12 82 -13 84 -40 84 -15 0 -32 -6 -36 -13
-12 -21 -53 -28 -60 -11 -3 8 -14 14 -24 14 -11 0 -30 17 -45 40 -14 22 -35
42 -45 45 -51 17 -63 64 -27 110 21 27 21 28 4 75 -17 48 -15 114 5 126 16 10
9 40 -14 62 -25 24 -62 29 -73 11 -4 -8 -11 -5 -18 9 -14 26 -123 122 -139
122 -6 0 -30 7 -54 16 -37 15 -42 20 -45 53 -3 33 -6 36 -38 39 -74 5 -79 9
-73 47 5 33 4 35 -24 35 -16 0 -34 5 -41 12 -28 28 -2 118 33 118 20 0 64 50
71 80 4 14 12 48 20 75 l14 50 55 -3 c52 -4 55 -3 66 25 6 15 14 47 16 71 6
47 13 43 -92 46 -26 1 -30 5 -33 33 -5 46 -46 83 -93 83 -28 0 -42 6 -56 24
-14 18 -31 25 -75 29 -51 5 -57 4 -62 -16z m-2 -1277 c12 0 27 9 34 20 8 14
23 20 47 20 33 0 34 -1 24 -29 -5 -15 -9 -32 -7 -37 3 -10 -59 -74 -72 -74 -4
0 -13 -7 -20 -15 -7 -8 -27 -15 -44 -15 -18 0 -38 -6 -45 -12 -11 -11 -13 -10
-8 5 4 10 2 27 -3 37 -7 13 -7 21 0 25 5 3 10 19 10 35 0 16 5 32 10 35 6 3
10 15 10 26 0 20 0 20 22 -1 12 -11 31 -20 42 -20z"/>
</g>
</svg>
