<?xml version="1.0" standalone="no"?>
<!DOCTYPE svg PUBLIC "-//W3C//DTD SVG 20010904//EN"
 "http://www.w3.org/TR/2001/REC-SVG-20010904/DTD/svg10.dtd">
<svg version="1.0" xmlns="http://www.w3.org/2000/svg"
 width="1920.000000pt" height="1080.000000pt" viewBox="0 0 1920.000000 1080.000000"
 preserveAspectRatio="xMidYMid meet">
<metadata>
Created by potrace 1.16, written by Peter Selinger 2001-2019
</metadata>
<g transform="translate(0.000000,1080.000000) scale(0.100000,-0.100000)"
fill="#000000" stroke="none">
<path d="M11029 6753 c-39 -47 -195 -83 -226 -52 -21 21 -51 -1 -69 -49 -22
-61 -46 -82 -95 -82 -31 0 -39 -4 -39 -18 0 -11 -20 -31 -47 -50 -41 -26 -50
-29 -59 -17 -6 8 -19 15 -29 15 -26 0 -103 47 -115 70 -6 11 -21 20 -33 20
-31 0 -65 26 -69 53 -2 15 -20 31 -55 50 -36 19 -53 35 -53 48 0 14 -7 19 -25
19 -15 0 -25 -6 -25 -14 0 -23 -41 -46 -80 -46 -29 0 -44 -8 -74 -39 -33 -34
-38 -45 -34 -73 8 -52 3 -57 -56 -51 -49 5 -54 3 -74 -22 -23 -29 -28 -60 -12
-70 21 -13 10 -35 -18 -35 -19 0 -38 -10 -55 -30 -15 -16 -31 -30 -36 -30 -5
0 -13 -9 -16 -21 -5 -15 -1 -25 14 -35 24 -17 27 -39 7 -47 -11 -5 -14 -25
-13 -89 1 -46 5 -88 9 -93 11 -17 48 -133 48 -150 0 -9 26 -43 57 -76 l57 -60
1 -67 c0 -59 -2 -69 -24 -88 -21 -18 -23 -24 -13 -37 7 -8 25 -20 40 -26 15
-6 37 -27 50 -46 12 -19 27 -35 32 -35 6 0 10 -9 10 -20 0 -29 43 -53 83 -46
28 5 38 2 58 -20 13 -14 38 -33 54 -41 17 -9 38 -24 47 -34 10 -10 26 -22 35
-28 17 -9 17 -12 1 -56 -16 -46 -16 -47 5 -63 11 -10 34 -32 51 -49 90 -98
162 -100 141 -4 -5 23 -1 32 15 44 29 20 90 117 90 142 0 12 20 45 45 74 25
29 50 61 55 71 5 9 23 20 39 23 43 9 140 76 157 108 10 20 19 26 34 22 12 -3
36 3 55 13 34 18 35 18 58 -4 16 -15 36 -22 64 -22 34 0 46 6 73 36 26 30 31
44 29 78 -1 22 4 54 12 69 8 19 10 33 3 41 -48 65 -48 67 -35 100 21 51 24 75
11 91 -19 23 -51 17 -90 -15 -30 -26 -60 -39 -60 -25 0 2 16 33 36 69 23 43
47 72 71 86 31 18 35 24 29 50 -8 44 11 80 44 80 30 0 46 14 52 45 2 13 17 24
43 33 22 7 51 25 65 40 14 15 48 46 75 68 l50 41 74 -9 c56 -8 85 -7 115 3 23
7 69 11 104 10 57 -3 62 -1 62 18 0 16 -6 21 -29 21 -16 0 -31 6 -34 14 -4 10
-29 15 -84 17 -65 3 -84 8 -113 30 -37 28 -107 53 -177 64 -23 4 -44 13 -47
21 -3 8 -16 14 -28 14 -28 0 -42 9 -51 33 -4 10 -17 17 -32 17 -14 0 -45 9
-67 20 -50 24 -52 24 -69 3z"/>
</g>
</svg>
