<?xml version="1.0" standalone="no"?>
<!DOCTYPE svg PUBLIC "-//W3C//DTD SVG 20010904//EN"
 "http://www.w3.org/TR/2001/REC-SVG-20010904/DTD/svg10.dtd">
<svg version="1.0" xmlns="http://www.w3.org/2000/svg"
 width="1920.000000pt" height="1080.000000pt" viewBox="0 0 1920.000000 1080.000000"
 preserveAspectRatio="xMidYMid meet">
<metadata>
Created by potrace 1.16, written by Peter Selinger 2001-2019
</metadata>
<g transform="translate(0.000000,1080.000000) scale(0.100000,-0.100000)"
fill="#000000" stroke="none">
<path d="M9893 5457 c-11 -18 -23 -59 -27 -92 -4 -33 -12 -62 -18 -64 -43 -15
-70 -82 -43 -111 14 -15 15 -22 4 -41 -7 -13 -18 -30 -26 -37 -15 -16 -17 -41
-3 -62 7 -11 2 -22 -23 -43 l-32 -27 29 -24 c24 -20 27 -26 17 -45 -7 -11 -16
-21 -21 -21 -18 0 -70 -63 -70 -85 0 -35 -26 -38 -50 -6 -13 19 -32 31 -57 36
-33 6 -40 4 -63 -23 -14 -16 -41 -58 -60 -92 -25 -45 -44 -67 -67 -77 -22 -9
-33 -20 -33 -33 0 -17 7 -20 49 -20 28 0 53 -6 60 -13 6 -8 30 -19 53 -26 80
-24 97 -38 109 -87 8 -30 20 -51 38 -62 46 -28 71 -55 71 -75 0 -11 8 -29 18
-40 12 -15 14 -21 4 -24 -23 -9 -34 -41 -21 -65 23 -44 38 -49 132 -43 79 5
89 4 110 -15 37 -36 76 -53 92 -40 7 6 24 8 37 5 13 -3 36 -1 51 4 18 7 44 7
75 1 26 -5 69 -12 96 -15 33 -5 56 -14 71 -31 12 -13 28 -24 34 -24 7 0 58
-24 114 -53 56 -30 125 -61 152 -70 28 -10 59 -26 68 -38 21 -24 41 -21 45 9
4 23 -39 122 -69 160 -10 14 -19 33 -19 42 0 32 -91 142 -132 159 -32 14 -38
22 -43 56 -10 58 -29 83 -71 91 -25 5 -34 11 -30 21 3 8 6 29 6 46 0 24 11 44
41 75 39 42 40 44 23 63 -10 11 -26 18 -36 16 -13 -4 -18 1 -18 13 0 11 4 21
9 25 5 3 15 22 21 41 13 39 4 87 -26 147 -8 16 -14 50 -14 75 0 35 -8 58 -30
91 -17 24 -30 51 -30 59 0 10 -8 13 -31 10 -26 -4 -38 3 -84 47 -42 40 -53 56
-48 73 3 12 -2 33 -11 47 -9 13 -16 31 -16 38 0 8 -20 32 -45 55 -25 22 -45
45 -45 50 0 6 -11 13 -25 16 -14 4 -31 18 -37 31 -13 28 -39 33 -58 10 -16
-19 -30 -10 -30 21 0 38 -43 33 -67 -9z"/>
</g>
</svg>
