<?xml version="1.0" standalone="no"?>
<!DOCTYPE svg PUBLIC "-//W3C//DTD SVG 20010904//EN"
 "http://www.w3.org/TR/2001/REC-SVG-20010904/DTD/svg10.dtd">
<svg version="1.0" xmlns="http://www.w3.org/2000/svg"
 width="1920.000000pt" height="1080.000000pt" viewBox="0 0 1920.000000 1080.000000"
 preserveAspectRatio="xMidYMid meet">
<metadata>
Created by potrace 1.16, written by Peter Selinger 2001-2019
</metadata>
<g transform="translate(0.000000,1080.000000) scale(0.100000,-0.100000)"
fill="#000000" stroke="none">
<path d="M11053 3883 c-7 -2 -13 -12 -13 -21 -1 -23 -98 -78 -190 -109 -41
-13 -82 -30 -90 -37 -8 -7 -37 -16 -63 -20 -33 -4 -62 -17 -95 -42 -26 -19
-59 -38 -74 -41 -17 -3 -36 -18 -48 -39 -19 -30 -102 -94 -123 -94 -5 0 -20
-9 -34 -20 -17 -13 -34 -18 -49 -14 -15 4 -33 -1 -53 -15 -16 -12 -44 -21 -61
-21 l-33 0 7 -65 c6 -57 4 -65 -13 -75 -11 -5 -33 -10 -49 -10 -16 0 -60 -17
-98 -37 -38 -20 -89 -40 -113 -45 -53 -10 -138 -62 -147 -90 -3 -11 -26 -29
-52 -40 -65 -29 -126 -72 -174 -124 -22 -24 -50 -46 -61 -50 -12 -3 -36 -20
-53 -36 -20 -19 -34 -26 -38 -19 -4 6 -18 11 -32 11 -19 0 -24 -5 -24 -25 0
-43 37 -59 193 -82 20 -3 40 -9 43 -14 3 -5 13 -9 23 -9 9 0 35 -18 56 -41 22
-22 59 -52 83 -66 23 -14 42 -31 42 -39 0 -9 11 -14 28 -14 30 0 72 -44 72
-75 0 -9 8 -18 18 -21 9 -3 25 -10 34 -15 10 -5 29 -9 43 -9 19 0 25 -5 25
-23 0 -32 18 -47 56 -47 47 0 94 -11 88 -21 -3 -5 -19 -9 -35 -9 -36 0 -46
-20 -29 -59 20 -50 54 -75 94 -68 46 7 73 -1 79 -24 3 -13 14 -19 31 -19 15 0
35 -5 45 -12 24 -14 49 -5 60 24 5 13 23 36 40 51 24 22 31 37 31 66 0 20 -5
42 -12 49 -20 20 -58 14 -90 -13 -36 -31 -52 -28 -56 9 -3 22 5 35 37 63 23
19 41 40 41 48 0 7 10 19 23 28 l22 15 -22 30 c-37 51 -25 67 27 37 59 -34
175 -1 168 48 -2 18 -11 23 -40 25 -46 4 -48 16 -8 37 38 19 94 19 125 -1 30
-20 129 -10 148 15 6 9 25 22 42 29 27 12 31 12 46 -7 10 -12 27 -21 38 -21
16 0 21 -6 21 -28 0 -45 21 -65 71 -66 35 -1 45 -5 50 -21 8 -31 81 -26 117 8
15 14 40 32 56 41 27 13 31 13 58 -7 l29 -21 27 27 c95 95 189 151 228 137 46
-18 78 -11 126 28 25 20 51 47 57 60 16 33 13 78 -5 93 -13 11 -15 27 -9 94 5
64 3 84 -9 100 -8 11 -16 31 -16 45 0 38 -26 68 -64 75 -28 6 -32 10 -28 30 2
14 -3 30 -15 42 -20 20 -20 20 8 30 19 7 30 20 34 39 3 16 12 43 20 60 12 27
12 35 0 50 -20 27 -19 29 22 68 l37 35 -16 34 c-15 31 -64 67 -91 67 -6 0 -18
7 -27 15 -68 61 -237 125 -331 125 -36 0 -84 23 -92 45 -6 15 -65 20 -94 8z"/>
</g>
</svg>
