<?xml version="1.0" standalone="no"?>
<!DOCTYPE svg PUBLIC "-//W3C//DTD SVG 20010904//EN"
 "http://www.w3.org/TR/2001/REC-SVG-20010904/DTD/svg10.dtd">
<svg version="1.0" xmlns="http://www.w3.org/2000/svg"
 width="1920.000000pt" height="1080.000000pt" viewBox="0 0 1920.000000 1080.000000"
 preserveAspectRatio="xMidYMid meet">
<metadata>
Created by potrace 1.16, written by Peter Selinger 2001-2019
</metadata>
<g transform="translate(0.000000,1080.000000) scale(0.100000,-0.100000)"
fill="#000000" stroke="none">
<path d="M11960 3674 c-42 -23 -51 -25 -129 -19 -109 8 -181 -8 -181 -42 0
-13 6 -23 13 -23 6 0 -3 -14 -20 -31 -34 -31 -41 -57 -22 -76 9 -9 9 -20 1
-40 -6 -15 -13 -40 -16 -55 -4 -19 -15 -30 -31 -34 -28 -7 -32 -30 -11 -60 8
-10 13 -28 10 -40 -4 -17 2 -23 34 -32 40 -12 62 -42 62 -86 0 -13 7 -29 15
-36 13 -11 14 -27 9 -87 -6 -60 -4 -80 10 -106 23 -43 11 -73 -49 -122 -46
-38 -46 -38 -94 -26 -46 12 -50 11 -102 -20 -30 -17 -69 -44 -87 -60 -18 -16
-39 -29 -47 -29 -8 0 -15 -4 -15 -10 0 -5 -11 -10 -24 -10 -29 0 -36 -16 -36
-86 l0 -54 45 0 c39 0 50 -5 79 -35 40 -41 77 -46 100 -13 l16 22 0 -24 c1
-29 21 -60 41 -60 8 0 41 -14 73 -30 94 -48 140 -37 135 32 -4 57 1 78 15 78
10 0 16 -13 18 -37 2 -32 7 -39 28 -41 13 -2 35 -15 48 -29 21 -23 29 -25 76
-19 l52 6 -4 -34 c-8 -65 47 -126 115 -126 15 0 37 -7 48 -16 13 -10 38 -14
70 -13 28 1 61 -3 74 -10 13 -7 50 -15 81 -18 l58 -6 21 49 22 50 77 -38 c42
-21 84 -44 93 -50 26 -18 49 -3 49 32 0 42 -20 77 -74 130 -25 24 -46 47 -46
51 0 3 18 13 40 22 26 10 40 22 40 34 0 10 9 24 20 31 14 9 20 23 20 50 0 35
3 39 43 54 41 15 42 16 41 60 0 42 2 47 33 61 28 12 39 13 72 1 29 -10 47 -11
72 -2 55 18 64 25 61 48 -1 13 4 30 12 39 21 24 3 58 -41 79 -38 17 -53 30
-53 46 0 4 12 1 26 -9 26 -17 59 -17 141 0 27 6 39 2 70 -24 47 -39 85 -40
119 -4 14 15 35 28 47 28 16 0 29 13 45 45 53 102 3 244 -137 387 -80 82 -117
105 -256 157 -79 30 -191 88 -234 120 -19 14 -51 29 -70 32 -20 4 -58 18 -86
30 -35 17 -68 24 -110 24 -34 0 -66 5 -72 11 -8 8 -21 8 -48 -1 -31 -10 -38
-10 -48 4 -11 15 -23 16 -107 6 -52 -6 -103 -13 -115 -16 -14 -3 -23 2 -30 18
-14 32 -42 32 -95 2z"/>
</g>
</svg>
