<?xml version="1.0" standalone="no"?>
<!DOCTYPE svg PUBLIC "-//W3C//DTD SVG 20010904//EN"
 "http://www.w3.org/TR/2001/REC-SVG-20010904/DTD/svg10.dtd">
<svg version="1.0" xmlns="http://www.w3.org/2000/svg"
 width="1920.000000pt" height="1080.000000pt" viewBox="0 0 1920.000000 1080.000000"
 preserveAspectRatio="xMidYMid meet">
<metadata>
Created by potrace 1.16, written by Peter Selinger 2001-2019
</metadata>
<g transform="translate(0.000000,1080.000000) scale(0.100000,-0.100000)"
fill="#000000" stroke="none">
<path d="M12815 2454 c-22 -8 -66 -21 -99 -30 l-58 -16 6 -39 c4 -24 2 -39 -4
-39 -16 0 -11 -72 7 -105 9 -16 17 -46 19 -65 2 -34 20 -91 37 -117 5 -7 18
-13 29 -13 19 0 20 -2 6 -17 -9 -10 -18 -25 -20 -33 -4 -10 -8 -4 -13 15 -10
41 -52 102 -75 108 -10 2 -26 21 -35 40 -13 29 -32 44 -89 72 -84 41 -94 42
-98 13 -2 -13 -15 -29 -30 -36 -34 -16 -35 -25 -7 -53 19 -19 19 -20 2 -15
-59 17 -74 17 -99 1 -20 -13 -25 -23 -22 -46 3 -16 2 -29 -2 -29 -3 0 -44 16
-90 36 -120 51 -175 66 -233 63 -29 -1 -69 3 -91 11 -29 9 -47 10 -75 1 -20
-6 -49 -12 -66 -13 -25 -3 -30 -7 -30 -31 -1 -23 -8 -32 -40 -46 -88 -40 -178
-191 -115 -191 25 0 25 -5 -1 -46 -13 -22 -19 -46 -17 -71 l3 -38 79 -3 c58
-2 83 -7 91 -19 9 -12 21 -14 51 -9 54 9 117 7 128 -4 15 -15 47 -12 67 6 16
14 24 15 68 3 52 -13 81 -4 81 26 0 7 7 15 15 19 11 4 15 -2 15 -22 0 -32 32
-72 59 -72 9 0 37 -9 60 -21 24 -11 59 -23 78 -26 27 -5 37 -13 48 -41 14 -33
17 -34 55 -29 27 3 43 1 51 -10 7 -8 24 -13 38 -12 14 2 38 -5 53 -15 16 -10
51 -19 80 -21 29 -1 61 -6 71 -10 9 -4 25 -4 34 -1 11 4 27 -4 48 -24 29 -29
37 -31 90 -28 70 4 91 24 60 59 l-20 23 25 -17 c13 -9 36 -17 51 -17 18 0 28
-6 32 -19 2 -11 28 -31 57 -46 42 -21 60 -25 94 -20 22 4 47 12 55 18 10 9 18
5 33 -16 26 -36 61 -35 87 2 12 16 21 34 21 41 0 6 9 31 20 56 24 51 16 80
-24 90 -15 3 -26 15 -29 30 -3 20 0 24 20 24 14 0 37 13 53 29 16 16 45 32 64
35 43 8 54 27 50 83 -1 27 3 46 12 54 27 22 7 108 -43 184 -19 29 -23 40 -13
43 23 8 62 52 57 65 -6 18 -65 55 -106 67 -20 5 -62 10 -94 10 -50 0 -61 -4
-82 -26 -14 -15 -25 -31 -25 -35 0 -5 -9 -9 -19 -9 -21 0 -81 -65 -81 -88 0
-7 -9 -31 -20 -52 -18 -35 -23 -38 -39 -28 -10 6 -31 35 -46 65 -19 35 -35 53
-47 53 -26 0 -98 59 -98 80 0 10 -7 23 -15 30 -9 8 -12 22 -8 41 6 33 -10 59
-38 59 -20 0 -24 17 -13 58 4 12 11 22 17 22 6 0 28 12 49 27 31 21 38 32 36
52 -4 32 -34 37 -93 15z"/>
</g>
</svg>
