<?xml version="1.0" standalone="no"?>
<!DOCTYPE svg PUBLIC "-//W3C//DTD SVG 20010904//EN"
 "http://www.w3.org/TR/2001/REC-SVG-20010904/DTD/svg10.dtd">
<svg version="1.0" xmlns="http://www.w3.org/2000/svg"
 width="1920.000000pt" height="1080.000000pt" viewBox="0 0 1920.000000 1080.000000"
 preserveAspectRatio="xMidYMid meet">
<metadata>
Created by potrace 1.16, written by Peter Selinger 2001-2019
</metadata>
<g transform="translate(0.000000,1080.000000) scale(0.100000,-0.100000)"
fill="#000000" stroke="none">
<path d="M15110 2408 c-11 -12 -20 -30 -20 -41 0 -15 -5 -18 -22 -12 -59 18
-67 17 -93 -9 -14 -14 -32 -26 -40 -26 -9 0 -32 -9 -52 -20 -21 -11 -43 -20
-50 -20 -28 0 -110 -34 -142 -59 -18 -14 -45 -33 -60 -42 -14 -8 -28 -27 -31
-42 -4 -21 -8 -24 -20 -17 -25 16 -49 11 -71 -14 -12 -13 -32 -27 -45 -30 -13
-4 -24 -11 -24 -16 0 -12 -78 -50 -103 -50 -10 0 -27 -5 -38 -10 -14 -8 -23
-7 -33 3 -8 8 -43 17 -78 21 -57 6 -65 4 -81 -16 -10 -12 -17 -33 -15 -47 3
-22 10 -26 57 -36 48 -9 56 -14 62 -38 7 -25 5 -28 -9 -21 -9 4 -34 9 -55 12
-30 3 -44 -1 -62 -18 l-23 -21 -41 20 c-22 12 -46 21 -54 21 -21 0 -47 -34
-47 -61 0 -18 -12 -34 -45 -57 -50 -35 -56 -58 -22 -89 28 -26 109 -63 138
-63 11 0 30 -11 40 -24 11 -14 28 -28 39 -31 11 -4 20 -13 20 -20 0 -15 32
-74 61 -113 8 -12 27 -26 42 -31 15 -6 27 -17 27 -25 0 -8 8 -21 18 -28 11 -7
24 -23 31 -35 10 -19 20 -23 60 -23 35 0 53 -5 66 -20 12 -13 31 -20 57 -20
36 0 37 -1 26 -20 -8 -13 -16 -16 -22 -10 -16 16 -56 12 -63 -7 -11 -27 19
-63 80 -96 51 -27 62 -29 87 -20 23 9 32 8 41 -3 9 -12 5 -14 -22 -14 -19 0
-54 -7 -79 -16 -33 -12 -64 -14 -117 -10 -66 6 -72 5 -87 -16 -9 -12 -16 -30
-16 -38 0 -25 48 -65 124 -105 74 -40 81 -40 137 6 37 29 92 39 158 28 48 -9
63 -7 103 10 25 11 49 17 52 14 3 -3 -1 -18 -9 -34 -8 -15 -15 -37 -15 -48 0
-25 -18 -35 -100 -51 -83 -17 -100 -31 -100 -86 0 -34 5 -47 26 -63 15 -12 36
-21 46 -21 19 0 19 -1 4 -25 -23 -35 -20 -72 9 -101 14 -14 25 -29 25 -34 0
-10 62 -60 75 -60 4 0 34 27 67 60 41 43 66 60 84 60 17 0 36 12 57 35 17 19
38 35 47 35 10 0 38 19 64 41 71 63 95 121 60 150 -14 11 -22 10 -56 -10 -44
-25 -61 -21 -35 7 10 10 17 24 17 30 0 20 42 41 71 35 16 -3 35 0 43 6 16 14
28 64 20 86 -8 19 -75 20 -161 2 -60 -13 -61 -13 -52 6 6 10 8 25 5 32 -4 10
15 15 82 20 132 9 148 13 166 40 19 29 21 86 4 103 -15 15 -64 16 -73 2 -3 -5
-11 -10 -17 -10 -6 0 -4 8 5 18 10 10 17 25 17 34 0 18 -31 48 -50 48 -9 0 -8
4 4 13 14 10 31 12 68 5 l50 -9 44 46 c24 25 44 54 44 66 0 30 -28 79 -46 79
-8 0 -20 14 -26 30 -11 32 -42 46 -79 37 -16 -4 -18 -3 -9 8 6 8 10 28 8 46
-2 28 -8 34 -36 41 -18 5 -40 5 -50 0 -10 -5 -31 -3 -52 4 l-35 12 40 4 c32 2
41 7 43 25 2 12 -4 33 -14 47 -14 22 -24 26 -65 26 -53 0 -52 -2 -53 72 -1 38
0 38 45 6 20 -15 39 -18 95 -16 91 4 96 22 26 87 -44 40 -50 50 -47 80 6 65
-66 126 -102 90 -7 -7 -36 -20 -65 -30 -52 -17 -53 -17 -28 2 14 10 35 29 47
41 17 16 32 21 66 20 56 -3 130 28 153 63 l17 26 19 -21 c28 -30 59 -25 99 16
18 20 44 40 57 45 12 5 22 15 22 22 0 9 9 12 30 9 23 -3 43 5 85 34 30 20 55
43 55 49 0 15 -63 65 -82 65 -8 0 -24 7 -36 16 -15 11 -40 15 -75 13 -29 -1
-73 1 -99 5 -34 6 -55 4 -77 -7 -25 -13 -31 -13 -35 -1 -8 21 -53 17 -76 -8z"/>
</g>
</svg>
