<?xml version="1.0" standalone="no"?>
<!DOCTYPE svg PUBLIC "-//W3C//DTD SVG 20010904//EN"
 "http://www.w3.org/TR/2001/REC-SVG-20010904/DTD/svg10.dtd">
<svg version="1.0" xmlns="http://www.w3.org/2000/svg"
 width="1920.000000pt" height="1080.000000pt" viewBox="0 0 1920.000000 1080.000000"
 preserveAspectRatio="xMidYMid meet">
<metadata>
Created by potrace 1.16, written by Peter Selinger 2001-2019
</metadata>
<g transform="translate(0.000000,1080.000000) scale(0.100000,-0.100000)"
fill="#000000" stroke="none">
<path d="M11734 6516 c-7 -18 -49 -22 -59 -6 -9 15 -36 12 -70 -6 -35 -19
-123 -20 -171 -2 -30 11 -35 9 -86 -32 -29 -23 -66 -57 -81 -74 -15 -17 -48
-38 -75 -46 -37 -12 -48 -20 -51 -40 -4 -29 -17 -40 -49 -40 -17 0 -27 -10
-38 -37 -9 -20 -13 -44 -11 -55 4 -12 -5 -26 -28 -44 -36 -27 -105 -142 -105
-174 0 -30 64 -27 106 5 53 41 69 29 39 -29 -24 -46 -15 -91 25 -123 12 -10
13 -15 3 -32 -7 -12 -13 -43 -13 -69 0 -38 -5 -55 -25 -76 -29 -31 -68 -34
-92 -6 -21 24 -53 26 -93 5 -16 -8 -36 -12 -45 -9 -17 7 -55 -22 -55 -42 0 -7
-16 -22 -35 -34 -34 -21 -46 -52 -25 -65 6 -4 18 -24 27 -46 25 -64 97 -100
132 -66 11 10 12 2 7 -45 -7 -66 6 -98 40 -98 13 0 24 -8 27 -20 3 -12 14 -20
29 -21 17 0 11 -5 -20 -16 -55 -19 -74 -53 -47 -83 10 -11 24 -20 32 -20 8 0
13 -12 13 -34 0 -18 8 -44 19 -57 38 -49 35 -62 -22 -89 -41 -20 -53 -31 -55
-52 -6 -52 59 -60 168 -21 139 49 190 70 235 100 27 18 54 33 60 33 6 0 25
-16 44 -35 33 -36 58 -43 91 -25 15 8 21 6 28 -6 6 -10 33 -22 65 -28 47 -10
60 -17 79 -46 13 -19 31 -35 40 -35 8 0 22 -5 29 -11 26 -21 82 -22 141 -2 63
22 73 36 69 104 -1 35 3 46 25 63 18 14 35 19 53 15 52 -11 223 -3 253 12 15
8 28 19 28 23 0 5 19 16 43 23 30 11 50 26 71 57 26 40 27 43 11 61 -20 22 -6
33 30 24 52 -13 175 57 175 101 0 13 -4 27 -10 30 -5 3 -10 24 -10 46 0 31 4
39 19 39 37 0 43 22 30 112 -12 81 -35 128 -64 128 -6 0 -23 17 -36 37 -13 21
-33 39 -44 42 -11 2 -32 12 -47 22 -14 11 -34 19 -43 19 -10 0 -39 14 -66 32
l-49 31 21 23 21 23 -31 28 c-17 16 -38 50 -47 76 -9 27 -25 52 -38 59 -30 16
-109 88 -122 112 -7 12 -15 41 -19 66 -9 55 -20 70 -52 70 -21 0 -23 2 -13 15
6 8 9 22 6 32 -3 10 -1 25 4 33 12 20 -16 50 -47 50 -13 0 -38 7 -55 16 -17 9
-44 14 -59 12 -25 -4 -29 -1 -29 18 0 13 -11 33 -24 46 -13 13 -26 32 -28 43
-4 25 -46 33 -54 11z"/>
</g>
</svg>
