<?xml version="1.0" standalone="no"?>
<!DOCTYPE svg PUBLIC "-//W3C//DTD SVG 20010904//EN"
 "http://www.w3.org/TR/2001/REC-SVG-20010904/DTD/svg10.dtd">
<svg version="1.0" xmlns="http://www.w3.org/2000/svg"
 width="1920.000000pt" height="1080.000000pt" viewBox="0 0 1920.000000 1080.000000"
 preserveAspectRatio="xMidYMid meet">
<metadata>
Created by potrace 1.16, written by Peter Selinger 2001-2019
</metadata>
<g transform="translate(0.000000,1080.000000) scale(0.100000,-0.100000)"
fill="#000000" stroke="none">
<path d="M10650 5504 c-14 -7 -34 -14 -45 -14 -11 0 -28 -12 -37 -28 -10 -15
-36 -49 -58 -77 -22 -27 -40 -59 -40 -71 0 -24 -38 -84 -81 -129 -28 -29 -28
-33 -22 -99 5 -56 11 -75 35 -101 23 -27 28 -41 28 -88 0 -34 5 -59 14 -66 14
-12 31 -82 26 -115 -1 -11 -10 -36 -21 -55 -30 -55 -26 -71 18 -71 l37 0 -26
-27 c-46 -50 -57 -76 -55 -128 2 -49 3 -50 42 -61 38 -10 41 -14 56 -70 14
-52 19 -60 48 -68 36 -10 116 -107 127 -153 4 -16 15 -37 24 -48 18 -19 70
-125 70 -142 0 -4 19 -16 41 -27 35 -16 46 -17 85 -6 25 7 77 13 115 13 62 0
73 -3 98 -27 22 -21 44 -29 95 -37 155 -21 279 -69 345 -131 20 -18 35 -22 76
-20 31 1 64 -4 81 -13 43 -22 76 -18 120 15 32 24 49 29 94 30 31 0 61 -5 67
-11 7 -7 32 -9 67 -5 31 3 82 9 114 12 31 3 63 11 70 16 21 18 14 121 -13 200
-14 39 -25 84 -25 98 0 34 -19 90 -31 90 -14 0 -59 100 -59 130 0 53 -45 67
-79 24 -13 -16 -27 -24 -36 -20 -21 8 -19 22 6 40 14 10 20 22 17 34 -4 15 1
21 21 25 14 3 35 13 46 21 26 20 11 47 -36 63 -24 8 -33 16 -31 30 4 28 3 81
-4 162 -5 62 -3 76 10 83 26 15 18 49 -20 85 -22 20 -34 39 -30 48 12 32 -5
45 -55 45 -45 0 -49 -2 -49 -24 0 -13 6 -26 12 -28 20 -7 -81 -38 -122 -38
-20 0 -41 5 -47 11 -6 6 -22 16 -35 23 -12 6 -30 26 -38 43 -14 30 -19 33 -64
33 -37 0 -56 6 -72 21 -21 20 -26 20 -54 9 -30 -12 -33 -11 -69 24 -20 20 -46
36 -56 36 -11 0 -45 -17 -76 -38 -70 -47 -303 -128 -343 -118 -39 10 -31 31
22 56 26 12 50 27 55 34 10 15 -1 55 -24 84 -12 16 -19 40 -19 68 0 40 -2 44
-24 44 -54 0 -40 31 24 52 54 17 64 51 18 56 -22 3 -28 8 -28 28 0 22 -4 25
-27 22 -28 -3 -28 -3 -27 55 1 32 6 63 13 70 6 6 11 17 11 24 0 21 -55 15 -75
-7 -10 -11 -22 -20 -26 -20 -16 0 -69 63 -69 82 0 22 -37 58 -60 57 -8 -1 -26
-7 -40 -15z"/>
</g>
</svg>
