<?xml version="1.0" standalone="no"?>
<!DOCTYPE svg PUBLIC "-//W3C//DTD SVG 20010904//EN"
 "http://www.w3.org/TR/2001/REC-SVG-20010904/DTD/svg10.dtd">
<svg version="1.0" xmlns="http://www.w3.org/2000/svg"
 width="1920.000000pt" height="1080.000000pt" viewBox="0 0 1920.000000 1080.000000"
 preserveAspectRatio="xMidYMid meet">
<metadata>
Created by potrace 1.16, written by Peter Selinger 2001-2019
</metadata>
<g transform="translate(0.000000,1080.000000) scale(0.100000,-0.100000)"
fill="#000000" stroke="none">
<path d="M12717 6763 c-4 -3 -8 -20 -8 -37 l-1 -31 -7 30 c-5 27 -10 30 -48
33 -39 3 -43 1 -49 -25 -3 -15 -7 -32 -8 -38 -1 -5 -20 -19 -41 -30 -21 -11
-42 -27 -46 -35 -4 -8 -17 -36 -29 -62 -12 -27 -28 -48 -36 -48 -24 0 -74 -29
-74 -43 0 -6 -5 -29 -11 -50 -8 -31 -18 -41 -61 -62 -38 -19 -55 -22 -65 -14
-7 6 -25 9 -40 6 -143 -29 -157 -36 -151 -79 3 -16 -1 -33 -9 -39 -19 -17 -16
-36 7 -42 14 -4 20 -14 20 -34 0 -15 8 -42 18 -59 18 -33 93 -104 129 -123 13
-7 27 -28 33 -51 6 -22 24 -55 40 -74 26 -29 28 -35 15 -46 -8 -7 -15 -18 -15
-24 0 -19 71 -68 121 -83 26 -8 53 -21 59 -29 7 -7 21 -14 32 -14 11 0 27 -14
40 -35 11 -20 33 -42 49 -51 33 -17 40 -36 42 -125 2 -63 2 -64 -25 -67 -24
-3 -28 -8 -28 -35 0 -18 5 -50 11 -71 10 -36 9 -41 -13 -58 -36 -29 -87 -48
-126 -48 -49 0 -112 -21 -112 -37 0 -7 10 -13 23 -13 12 0 28 -4 35 -9 25 -15
-11 -66 -60 -86 -24 -9 -54 -26 -66 -38 -22 -20 -34 -22 -163 -22 -133 0 -141
-1 -165 -24 -17 -16 -24 -34 -24 -61 0 -35 3 -39 28 -42 16 -2 26 -8 24 -17
-5 -25 9 -51 37 -66 36 -18 47 -44 25 -59 -15 -11 -16 -73 -4 -196 1 -8 -1
-32 -5 -52 -8 -37 -7 -38 41 -60 40 -17 45 -22 27 -25 -24 -5 -38 -33 -28 -60
3 -10 22 -29 42 -41 29 -18 45 -22 72 -17 20 3 56 8 81 12 25 3 57 14 72 24
14 11 33 19 42 19 8 0 30 16 47 35 18 19 36 35 41 35 15 0 108 84 108 97 0 6
17 17 38 24 20 6 41 18 45 25 4 8 19 14 31 14 26 0 39 21 30 45 -5 11 1 15 18
15 14 0 39 16 63 41 22 22 59 49 82 59 44 20 153 119 153 139 0 6 11 11 25 11
36 0 78 24 94 53 18 34 64 41 137 22 85 -22 171 -20 183 4 6 10 30 28 53 39
71 35 101 67 96 106 -3 29 -1 32 18 28 13 -2 36 4 53 14 40 23 47 61 27 139
-9 32 -16 72 -16 88 0 16 -8 41 -19 55 -10 15 -21 39 -25 55 -6 24 -11 27 -51
27 -47 0 -65 16 -65 58 0 11 -9 31 -20 45 -15 19 -18 31 -12 49 11 29 5 48
-21 69 -18 15 -19 20 -8 60 26 90 26 109 -3 135 -18 18 -26 35 -26 59 0 24 -8
41 -27 59 -25 24 -26 26 -13 70 7 25 10 65 7 89 -6 51 -73 166 -103 177 -12 5
-24 16 -27 24 -4 9 -13 16 -20 16 -8 0 -20 7 -27 15 -15 18 -81 20 -97 4 -16
-16 -96 -3 -125 20 -26 21 -118 162 -118 181 0 6 -8 24 -19 38 -10 15 -22 38
-26 52 -12 42 -55 80 -90 80 -18 0 -35 -3 -38 -7z"/>
</g>
</svg>
