<?xml version="1.0" standalone="no"?>
<!DOCTYPE svg PUBLIC "-//W3C//DTD SVG 20010904//EN"
 "http://www.w3.org/TR/2001/REC-SVG-20010904/DTD/svg10.dtd">
<svg version="1.0" xmlns="http://www.w3.org/2000/svg"
 width="1920.000000pt" height="1080.000000pt" viewBox="0 0 1920.000000 1080.000000"
 preserveAspectRatio="xMidYMid meet">
<metadata>
Created by potrace 1.16, written by Peter Selinger 2001-2019
</metadata>
<g transform="translate(0.000000,1080.000000) scale(0.100000,-0.100000)"
fill="#000000" stroke="none">
<path d="M14095 5329 c-47 -27 -56 -29 -172 -29 -110 0 -124 -2 -135 -19 -14
-23 -31 -17 -76 29 -17 16 -38 30 -47 30 -25 0 -29 -29 -7 -53 29 -32 40 -122
16 -148 -9 -10 -22 -19 -28 -19 -6 0 -37 29 -69 65 -32 36 -65 65 -73 65 -15
0 -20 -35 -5 -44 5 -3 12 -22 15 -41 4 -19 11 -35 16 -35 19 0 50 -40 50 -63
0 -28 -33 -61 -82 -81 -20 -9 -45 -27 -56 -41 -24 -30 -57 -32 -146 -9 -93 24
-147 15 -194 -36 -30 -30 -47 -40 -70 -40 -18 0 -32 -4 -32 -10 0 -18 -112
-122 -149 -137 -20 -8 -57 -35 -83 -59 -30 -28 -56 -44 -73 -44 -21 0 -25 -5
-25 -30 0 -23 -5 -30 -19 -30 -10 0 -24 -6 -30 -14 -7 -8 -26 -18 -42 -21 -19
-4 -34 -16 -39 -30 -5 -13 -18 -29 -30 -35 -11 -6 -30 -20 -42 -31 -85 -74
-117 -99 -126 -99 -7 0 -26 -9 -44 -20 -18 -11 -48 -20 -66 -20 -18 0 -42 -5
-53 -11 -17 -9 -28 -6 -60 15 -21 15 -39 33 -39 41 0 10 -11 15 -35 15 -32 0
-35 -2 -35 -29 0 -21 -6 -32 -20 -36 -22 -7 -27 -44 -8 -63 21 -21 61 -14 83
15 24 30 45 24 45 -12 0 -31 36 -114 61 -141 12 -13 24 -45 29 -80 5 -33 18
-85 29 -116 22 -61 28 -128 11 -128 -5 0 -10 -10 -10 -21 0 -21 2 -21 100 -14
73 5 105 3 115 -5 16 -13 53 -10 122 10 52 15 113 6 113 -17 0 -13 8 -15 41
-10 52 7 93 45 116 106 9 25 28 64 42 85 44 67 51 80 51 107 0 37 18 49 73 49
42 0 54 5 83 34 26 26 34 43 34 69 0 31 6 39 49 67 73 46 117 99 125 150 5 31
17 54 44 80 20 21 54 73 75 116 43 88 39 81 85 149 17 27 32 58 32 69 0 28 34
81 63 101 20 13 29 14 51 4 20 -10 41 -10 90 -1 35 7 83 9 108 6 36 -5 57 -1
114 24 56 25 74 39 96 74 31 48 35 80 13 101 -12 13 -12 17 5 32 11 10 20 31
20 47 0 39 40 107 67 114 11 3 31 16 44 30 18 19 20 26 9 39 -18 22 -58 17
-115 -16z"/>
</g>
</svg>
