<?xml version="1.0" standalone="no"?>
<!DOCTYPE svg PUBLIC "-//W3C//DTD SVG 20010904//EN"
 "http://www.w3.org/TR/2001/REC-SVG-20010904/DTD/svg10.dtd">
<svg version="1.0" xmlns="http://www.w3.org/2000/svg"
 width="1920.000000pt" height="1080.000000pt" viewBox="0 0 1920.000000 1080.000000"
 preserveAspectRatio="xMidYMid meet">
<metadata>
Created by potrace 1.16, written by Peter Selinger 2001-2019
</metadata>
<g transform="translate(0.000000,1080.000000) scale(0.100000,-0.100000)"
fill="#000000" stroke="none">
<path d="M15489 8406 c-39 -27 -69 -66 -69 -91 0 -11 -10 -15 -37 -15 -23 0
-45 -7 -58 -20 -18 -17 -36 -20 -101 -21 -43 -1 -96 -3 -116 -6 -34 -4 -38 -8
-38 -32 0 -15 9 -36 20 -46 l20 -18 -20 -14 c-11 -8 -20 -20 -20 -27 0 -8 -12
-11 -35 -8 -30 4 -35 1 -35 -16 0 -12 -4 -24 -10 -27 -5 -3 -10 -17 -10 -30 0
-34 -10 -55 -27 -55 -22 0 -52 -41 -53 -72 0 -32 -11 -37 -70 -31 -50 5 -113
-16 -129 -44 -6 -10 -11 -12 -11 -6 0 19 -55 43 -97 43 -21 0 -49 7 -61 16
-25 17 -71 15 -156 -7 -62 -16 -75 -38 -85 -136 -5 -43 -16 -91 -25 -108 -9
-16 -16 -40 -16 -52 0 -13 -9 -27 -22 -34 -13 -6 -42 -27 -65 -46 -39 -31 -43
-39 -43 -77 0 -40 -5 -48 -62 -104 -35 -34 -81 -74 -104 -90 -22 -16 -62 -50
-88 -75 -32 -30 -63 -49 -92 -56 -34 -9 -45 -17 -50 -36 -8 -32 1 -56 24 -62
26 -6 47 -59 35 -86 -10 -21 -11 -20 -26 15 -27 65 -48 78 -125 78 -44 0 -75
-5 -89 -15 -30 -21 -93 -21 -134 -1 -20 11 -68 20 -119 23 -47 3 -94 12 -105
18 -28 18 -123 27 -169 16 -44 -11 -79 -1 -113 30 -37 36 -65 22 -88 -43 -11
-31 -24 -60 -28 -64 -10 -10 -9 -58 3 -88 8 -22 7 -26 -10 -26 -23 0 -40 -28
-40 -67 0 -21 9 -36 30 -51 23 -18 78 -113 101 -177 11 -30 102 -154 123 -168
13 -9 52 -21 87 -26 52 -9 66 -8 79 4 23 21 26 20 82 -24 27 -22 52 -41 56
-43 4 -2 23 -28 42 -58 34 -54 35 -57 32 -151 -2 -85 0 -98 18 -114 12 -11 20
-31 20 -50 0 -23 9 -41 30 -62 30 -29 30 -30 15 -66 -22 -52 -20 -124 4 -136
15 -9 17 -19 13 -61 -3 -32 -1 -50 6 -50 6 0 18 -21 25 -47 17 -57 54 -86 86
-66 23 14 31 8 31 -24 0 -13 9 -32 20 -43 11 -11 20 -28 20 -37 0 -24 89 -103
116 -103 13 0 27 8 33 18 8 15 26 17 128 17 108 1 123 3 171 28 37 19 52 22
52 13 0 -15 21 -26 50 -26 10 0 31 15 47 33 55 61 57 61 97 21 34 -34 37 -35
90 -29 35 5 56 3 60 -4 10 -16 68 -13 90 4 27 21 35 19 46 -10 17 -45 81 -45
105 1 6 11 21 35 34 53 22 30 23 37 12 68 -12 32 -11 36 8 49 26 19 27 51 1
79 -17 18 -18 25 -8 56 6 18 12 40 14 47 2 7 14 16 27 21 29 11 41 27 56 71 8
24 27 46 64 70 49 34 52 38 51 77 -1 37 3 43 29 54 44 19 80 79 75 129 -3 39
-3 40 27 40 17 0 59 -14 95 -32 117 -57 220 -49 286 22 20 21 53 45 74 54 46
18 48 25 42 104 -4 60 -6 63 -40 79 -33 16 -34 17 -14 26 29 13 28 38 -2 66
-47 44 -39 110 16 126 20 6 53 19 108 45 26 12 61 83 56 113 -6 28 10 38 20
12 11 -27 53 -17 93 23 22 20 53 49 70 64 17 15 31 36 31 47 0 17 5 20 28 15
48 -10 110 13 127 46 39 76 -5 132 -62 78 -13 -12 -26 -19 -29 -15 -9 8 24 57
53 81 33 25 27 60 -9 64 -23 3 -28 9 -29 30 0 15 -8 52 -18 82 -18 53 -17 59
6 99 2 2 20 7 40 10 38 6 38 7 41 57 3 45 0 53 -28 77 -20 18 -29 34 -26 45
10 32 9 141 -1 154 -9 12 -18 40 -27 93 -8 41 -26 76 -43 82 -10 4 -22 12 -26
20 -4 7 -18 13 -30 13 -41 0 -48 13 -24 42 24 29 22 29 150 -3 41 -11 50 -10
64 4 14 14 15 25 5 81 -6 36 -21 86 -33 111 -18 35 -20 48 -11 57 17 17 15 83
-3 98 -12 10 -27 10 -74 -2 -54 -13 -68 -12 -153 5 -94 19 -118 30 -118 51 0
25 -46 56 -82 56 -20 0 -41 7 -48 15 -19 23 -80 18 -121 -9z"/>
</g>
</svg>
