<?xml version="1.0" standalone="no"?>
<!DOCTYPE svg PUBLIC "-//W3C//DTD SVG 20010904//EN"
 "http://www.w3.org/TR/2001/REC-SVG-20010904/DTD/svg10.dtd">
<svg version="1.0" xmlns="http://www.w3.org/2000/svg"
 width="1920.000000pt" height="1080.000000pt" viewBox="0 0 1920.000000 1080.000000"
 preserveAspectRatio="xMidYMid meet">
<metadata>
Created by potrace 1.16, written by Peter Selinger 2001-2019
</metadata>
<g transform="translate(0.000000,1080.000000) scale(0.100000,-0.100000)"
fill="#000000" stroke="none">
<path d="M16172 6188 c-12 -6 -25 -21 -28 -33 -3 -13 -31 -39 -64 -60 -41 -26
-60 -45 -63 -64 -4 -18 -17 -32 -39 -42 l-33 -16 0 31 c0 27 -4 31 -29 34 -18
2 -36 -4 -50 -16 -16 -16 -40 -21 -106 -25 -47 -3 -94 -7 -105 -9 -16 -2 -19
2 -17 20 2 13 -4 39 -13 58 -11 23 -14 45 -9 70 l7 37 -62 -5 c-58 -4 -87 -20
-75 -39 9 -15 -48 -47 -94 -54 -41 -5 -59 -1 -129 29 -59 26 -95 36 -133 36
l-53 0 5 -44 c5 -39 1 -49 -24 -81 -16 -19 -43 -42 -60 -51 -27 -14 -29 -19
-24 -52 6 -36 4 -39 -51 -82 -41 -32 -59 -53 -61 -72 -3 -27 -18 -44 -55 -63
-23 -12 -30 -24 -48 -83 -11 -39 -11 -44 9 -65 27 -29 27 -39 2 -62 -23 -21
-25 -37 -8 -65 10 -16 10 -24 0 -38 -7 -9 -22 -32 -33 -49 -20 -31 -59 -46
-59 -23 0 15 -38 50 -53 50 -8 0 -24 -9 -37 -20 -26 -23 -41 -25 -58 -8 -6 6
-38 11 -72 11 -57 -1 -62 1 -89 34 -36 43 -54 40 -115 -23 -24 -24 -53 -44
-64 -44 -58 0 -111 -59 -122 -134 -6 -49 -19 -54 -58 -21 -39 33 -52 32 -52
-4 0 -32 39 -71 70 -71 10 0 23 -7 30 -15 18 -22 -2 -62 -32 -67 -32 -4 -36
-37 -7 -59 30 -23 63 -24 100 -2 28 17 29 16 56 -8 25 -24 45 -35 66 -38 4 0
28 -12 55 -26 58 -31 92 -32 142 -3 36 21 39 22 57 5 11 -9 27 -17 35 -17 27
0 40 -56 23 -97 -18 -43 -20 -174 -3 -191 7 -7 19 -12 28 -12 8 0 22 -14 30
-32 10 -21 27 -35 54 -44 54 -18 76 -5 76 44 0 35 4 38 50 59 l49 21 -21 -29
c-19 -26 -21 -33 -9 -51 9 -14 10 -23 2 -31 -17 -17 -13 -42 10 -71 20 -25 21
-31 9 -66 -15 -47 -9 -87 29 -166 33 -71 91 -124 135 -124 16 0 44 -11 62 -25
18 -14 55 -30 83 -36 28 -6 51 -14 51 -17 0 -4 7 -72 15 -151 11 -113 19 -153
37 -190 l24 -46 98 -2 c55 -2 105 -8 112 -14 7 -6 42 -13 76 -16 37 -4 66 -11
71 -19 6 -10 31 -14 87 -14 76 0 79 -1 92 -27 19 -38 94 -67 152 -59 37 6 49
13 66 40 31 52 22 96 -21 96 -9 0 -22 6 -28 14 -9 11 -7 15 12 20 20 5 25 14
31 53 4 28 2 51 -4 57 -6 6 -38 11 -70 11 -58 0 -60 1 -78 36 -17 34 -17 36 3
71 11 20 29 48 39 62 25 35 10 73 -31 78 -27 3 -28 5 -28 58 l0 55 -46 -1
c-38 0 -47 4 -56 23 -10 21 -9 23 12 23 25 0 65 52 65 84 0 9 12 21 28 27 27
10 82 63 82 78 0 14 -26 31 -58 37 -32 7 -37 16 -33 71 2 14 -5 24 -18 28 -30
9 -31 56 -3 88 15 17 15 21 -1 49 -22 38 -22 45 7 78 16 20 27 25 37 19 31
-19 69 -10 87 21 13 23 24 30 49 30 17 0 35 5 38 10 3 6 15 10 25 10 24 0 60
46 60 76 0 12 -11 36 -25 52 -23 28 -24 33 -15 82 6 29 10 54 10 56 0 2 23 4
52 6 51 3 53 4 61 38 16 65 14 83 -10 89 -22 6 -22 6 7 26 34 23 36 32 15 82
-8 19 -15 37 -15 38 0 1 18 15 40 30 41 28 52 59 29 82 -8 8 -1 16 25 28 36
17 54 50 43 80 -4 8 4 22 18 34 30 23 32 46 6 62 -18 12 -17 13 5 47 13 19 28
51 34 72 5 20 19 45 30 55 23 21 28 83 6 91 -8 3 -11 15 -8 30 4 20 -1 26 -29
37 l-34 12 60 5 c56 5 60 7 63 32 2 19 10 28 25 30 31 4 33 38 5 81 -27 42
-64 48 -114 18 -17 -10 -52 -20 -78 -22 -46 -4 -47 -4 -40 24 3 16 1 34 -6 42
-14 17 -65 19 -98 3z"/>
</g>
</svg>
