<?xml version="1.0" standalone="no"?>
<!DOCTYPE svg PUBLIC "-//W3C//DTD SVG 20010904//EN"
 "http://www.w3.org/TR/2001/REC-SVG-20010904/DTD/svg10.dtd">
<svg version="1.0" xmlns="http://www.w3.org/2000/svg"
 width="1920.000000pt" height="1080.000000pt" viewBox="0 0 1920.000000 1080.000000"
 preserveAspectRatio="xMidYMid meet">
<metadata>
Created by potrace 1.16, written by Peter Selinger 2001-2019
</metadata>
<g transform="translate(0.000000,1080.000000) scale(0.100000,-0.100000)"
fill="#000000" stroke="none">
<path d="M14090 4955 c-9 -10 -24 -13 -54 -9 -33 5 -52 1 -87 -17 -34 -18 -63
-24 -134 -27 -140 -5 -158 -5 -187 3 -22 6 -34 0 -71 -35 -28 -25 -48 -54 -53
-73 -9 -44 -37 -98 -63 -121 -12 -11 -21 -25 -21 -33 0 -26 -63 -138 -101
-180 -21 -23 -41 -54 -44 -70 -17 -74 -45 -110 -134 -168 -31 -21 -47 -38 -49
-55 -6 -55 -13 -69 -46 -89 -19 -12 -50 -21 -73 -21 -47 0 -73 -23 -73 -64 0
-15 -11 -42 -25 -60 -13 -17 -36 -59 -50 -91 -42 -96 -48 -105 -62 -105 -21 0
-15 -21 7 -27 11 -3 20 -14 20 -25 0 -11 9 -22 20 -25 11 -3 20 -9 20 -14 0
-12 91 -69 110 -69 8 0 27 6 41 14 49 25 134 50 162 47 19 -2 37 5 53 20 22
21 28 22 57 11 19 -7 47 -12 63 -12 21 0 38 -10 62 -39 18 -22 44 -42 58 -45
13 -4 24 -11 24 -16 0 -5 24 -25 53 -44 28 -18 84 -66 124 -105 64 -63 72 -75
75 -113 3 -42 4 -43 42 -46 28 -3 45 -11 63 -33 24 -28 29 -29 72 -23 25 4 52
11 59 17 9 7 16 7 24 -1 19 -19 25 -15 94 52 54 53 65 70 63 93 -2 15 5 54 16
86 17 53 18 61 4 85 -13 24 -12 30 5 67 21 42 50 69 100 95 38 19 54 59 38 95
-13 28 -52 34 -71 11 -13 -15 -58 -4 -99 25 -22 16 -22 16 19 22 56 7 95 37
91 70 -1 13 4 30 13 37 8 7 15 23 15 36 0 31 33 64 63 64 26 0 57 28 57 51 0
8 14 26 32 40 30 25 31 30 35 112 2 53 0 88 -7 92 -5 3 -10 26 -10 51 0 39 2
44 23 44 13 0 34 11 47 25 13 14 33 25 44 25 28 0 42 11 50 36 8 26 -2 54 -19
54 -28 0 -34 88 -10 147 18 43 19 63 3 115 -9 31 -16 38 -30 35 -11 -3 -27 3
-39 16 l-20 22 -54 -29 -53 -29 -84 32 c-46 18 -93 44 -106 57 -26 27 -73 32
-92 9z"/>
</g>
</svg>
