<?xml version="1.0" standalone="no"?>
<!DOCTYPE svg PUBLIC "-//W3C//DTD SVG 20010904//EN"
 "http://www.w3.org/TR/2001/REC-SVG-20010904/DTD/svg10.dtd">
<svg version="1.0" xmlns="http://www.w3.org/2000/svg"
 width="1920.000000pt" height="1080.000000pt" viewBox="0 0 1920.000000 1080.000000"
 preserveAspectRatio="xMidYMid meet">
<metadata>
Created by potrace 1.16, written by Peter Selinger 2001-2019
</metadata>
<g transform="translate(0.000000,1080.000000) scale(0.100000,-0.100000)"
fill="#000000" stroke="none">
<path d="M14795 4610 c-22 -10 -50 -19 -62 -19 -20 -1 -23 -6 -23 -45 0 -53
-9 -61 -55 -46 -31 10 -35 16 -35 46 0 30 -3 34 -25 34 -20 0 -25 -5 -25 -24
0 -35 -20 -43 -41 -18 -24 30 -39 27 -39 -8 0 -40 -34 -71 -70 -63 l-28 5 5
-63 c3 -35 9 -68 14 -74 12 -12 11 -117 0 -148 -6 -14 -18 -28 -28 -31 -11 -3
-23 -21 -28 -39 -8 -25 -18 -35 -50 -45 -46 -14 -75 -44 -75 -78 0 -12 -4 -26
-10 -29 -5 -3 -10 -19 -10 -34 0 -37 -19 -51 -83 -66 -71 -16 -76 -42 -14 -73
65 -32 104 -38 126 -18 21 19 31 12 31 -20 0 -15 -10 -30 -27 -40 -83 -51 -99
-66 -117 -110 -16 -40 -17 -52 -7 -80 12 -34 3 -91 -20 -120 -5 -6 -6 -24 -3
-40 4 -24 0 -34 -23 -55 -15 -14 -38 -38 -51 -53 -16 -19 -29 -25 -42 -21 -11
4 -36 1 -55 -6 -31 -12 -36 -11 -48 5 -7 10 -22 17 -33 15 -15 -3 -20 -14 -22
-47 -3 -46 9 -63 91 -125 25 -19 37 -36 37 -53 0 -37 28 -84 49 -84 35 0 51
-12 51 -37 0 -13 12 -40 26 -59 22 -28 33 -34 65 -34 25 0 45 -7 56 -19 10
-10 38 -36 63 -56 37 -31 46 -45 50 -79 4 -33 11 -44 34 -55 47 -22 110 -26
128 -7 9 9 29 16 45 16 15 1 39 7 53 15 37 21 48 18 52 -12 3 -25 8 -28 43
-31 44 -4 105 22 105 45 0 8 11 13 28 13 16 0 37 9 47 20 25 27 31 25 41 -12
9 -30 13 -33 54 -36 25 -2 49 -7 55 -13 5 -5 21 -9 35 -9 17 0 29 -8 35 -22 6
-13 25 -28 45 -34 23 -8 37 -19 40 -35 6 -23 10 -24 99 -26 69 -1 97 -5 110
-17 11 -10 36 -16 68 -16 42 0 53 4 66 24 13 19 27 24 72 28 47 4 61 10 80 34
14 16 24 34 25 39 0 6 13 19 30 28 16 10 33 30 37 45 9 38 55 100 78 106 23 6
55 58 55 90 0 16 10 27 33 37 27 12 33 20 35 52 2 22 8 37 16 37 20 0 46 34
46 62 0 13 -11 35 -25 48 -18 17 -22 27 -14 36 7 8 2 23 -16 50 -32 47 -71 74
-107 74 -21 0 -28 5 -28 20 0 11 6 20 14 20 8 0 24 8 36 18 19 16 20 21 9 45
-10 23 -10 30 6 47 17 18 17 21 1 45 -9 14 -21 25 -26 25 -6 0 -10 8 -10 18 0
29 -31 50 -79 54 -39 3 -47 0 -57 -21 l-12 -23 -28 31 c-21 24 -35 31 -65 31
-20 0 -66 9 -101 20 -67 21 -130 25 -188 11 -48 -11 -63 -5 -47 20 6 10 17 19
24 19 7 0 13 11 13 25 0 20 -5 25 -24 25 -34 0 -44 36 -60 204 -9 87 -18 141
-26 146 -7 4 -31 11 -53 14 -22 4 -53 18 -69 31 -16 14 -42 25 -56 25 -63 0
-128 71 -163 176 -13 40 -16 61 -9 74 15 28 12 100 -3 106 -22 8 -14 107 11
139 43 55 21 69 -53 35z"/>
</g>
</svg>
